<?xml version="1.0" encoding="UTF-8" standalone="no"?>
<!-- Created with Vectornator (http://vectornator.io/) -->

<svg
   height="100%"
   stroke-miterlimit="10"
   style="fill-rule:nonzero;clip-rule:evenodd;stroke-linecap:round;stroke-linejoin:round;"
   version="1.1"
   viewBox="0 0 180 180"
   width="100%"
   xml:space="preserve"
   id="svg357"
   sodipodi:docname="peng-5.svg"
   inkscape:version="1.2.2 (b0a84865, 2022-12-01)"
   xmlns:inkscape="http://www.inkscape.org/namespaces/inkscape"
   xmlns:sodipodi="http://sodipodi.sourceforge.net/DTD/sodipodi-0.dtd"
   xmlns="http://www.w3.org/2000/svg"
   xmlns:svg="http://www.w3.org/2000/svg"
   xmlns:vectornator="http://vectornator.io"><sodipodi:namedview
   id="namedview359"
   pagecolor="#ffffff"
   bordercolor="#666666"
   borderopacity="1.0"
   inkscape:showpageshadow="2"
   inkscape:pageopacity="0.0"
   inkscape:pagecheckerboard="0"
   inkscape:deskcolor="#d1d1d1"
   showgrid="false"
   inkscape:zoom="3.5435871"
   inkscape:cx="81.979076"
   inkscape:cy="129.24756"
   inkscape:window-width="1440"
   inkscape:window-height="900"
   inkscape:window-x="0"
   inkscape:window-y="0"
   inkscape:window-maximized="0"
   inkscape:current-layer="g354" />
<defs
   id="defs330" />
<g
   id="Layer-1"
   vectornator:layerName="Layer 1">
<g
   opacity="1"
   id="g354">
<path
   d="M62.666 110.83C62.2939 111.574 63.2979 115.099 63.5449 115.84C65.4624 121.592 67.7158 126.12 73.3887 129.902C74.7889 130.836 76.5762 131.364 78.2227 132.188C78.907 132.53 79.9783 132.537 80.5078 133.066C80.5957 132.979 80.5957 132.979 80.6836 132.891C80.9911 133.198 81.69 133.442 82.0898 133.242C82.4762 133.629 83.076 133.262 83.4961 133.682C83.7786 133.54 84.3149 133.622 84.5508 133.857C84.6387 133.77 84.6387 133.77 84.7266 133.682C85.0858 134.041 85.5099 133.674 85.8691 134.033C85.957 133.945 85.957 133.945 86.0449 133.857C86.486 134.298 87.098 133.768 87.5391 134.209C87.627 134.121 87.627 134.121 87.7148 134.033C87.8027 134.121 87.8027 134.121 87.8906 134.209C87.9785 134.121 87.9785 134.121 88.0664 134.033C88.6928 134.66 89.7252 133.758 90.3516 134.385C90.5916 134.145 90.6389 134.145 90.8789 134.385C91.119 134.145 91.1662 134.145 91.4063 134.385C91.6942 134.241 91.7747 134.138 92.0215 134.385C92.2615 134.145 92.3088 134.145 92.5488 134.385C93.2036 133.73 94.7125 134.858 95.5371 134.033C95.625 134.121 95.625 134.121 95.7129 134.209C95.8008 134.121 95.8008 134.121 95.8887 134.033C95.9766 134.121 95.9766 134.121 96.0645 134.209C96.4645 133.809 96.9828 134.257 97.3828 133.857C97.4707 133.945 97.4707 133.945 97.5586 134.033C97.9178 133.674 98.342 134.041 98.7012 133.682C98.7891 133.77 98.7891 133.77 98.877 133.857C99.1128 133.622 99.6492 133.54 99.9316 133.682C100.266 133.347 100.668 133.519 101.074 133.418C102.247 133.125 103.675 132.764 104.678 132.012C107.397 129.972 109.738 128.471 112.061 125.684C113.936 123.433 115.59 120.406 116.367 117.686C116.668 116.634 116.984 115.569 117.246 114.521C117.396 113.923 117 113.273 117.51 112.764C117.336 112.415 117.385 111.658 117.686 111.357C117.11 110.206 118.647 108.188 117.51 107.051C117.598 106.963 117.598 106.963 117.686 106.875C117.598 106.787 117.598 106.787 117.51 106.699C117.598 106.611 117.598 106.611 117.686 106.523C117.591 106.334 117.591 106.01 117.686 105.82C117.429 105.564 116.619 103.774 116.367 103.271C115.285 101.107 113.693 99.3118 112.852 97.207C112.171 95.5062 111.892 93.5528 111.533 91.7578C110.584 87.013 109.759 82.2692 108.809 77.5195C108.209 74.5203 107.521 71.4298 106.699 68.5547C106.469 67.7475 106.493 66.337 105.732 65.8301C105.375 65.592 104.264 67.1263 103.887 67.5879C102.421 69.3793 101.931 71.4003 100.723 73.2129C98.5057 76.5383 93.3035 76.753 89.8242 76.9043C89.0025 76.94 88.4029 76.4305 87.7148 76.2012C84.267 75.0519 82.4975 71.4815 80.2441 68.9063C79.1797 67.6898 78.0932 66.4857 76.9043 65.3906C76.8181 65.3112 76.6639 65.3536 76.5527 65.3906C76.2851 65.4798 75.3387 69.9172 75.0586 70.6641C72.6243 77.1556 72.1291 84.4034 70.4004 91.3184C69.1185 96.4461 65.9398 100.668 63.9844 105.557C63.6225 106.461 62.1584 110.322 62.666 110.83Z"
   fill="#68c40c"
   fill-rule="nonzero"
   opacity="1"
   stroke="none"
   id="path332"
   style="fill:#000000" />
<path
   d="M74.0039 60.3809C74.0918 60.4688 74.0918 60.4688 74.1797 60.5566C73.7481 61.4198 75.3839 63.4217 75.2344 63.7207C74.5054 65.1786 73.597 66.8935 73.125 68.4668C72.6934 69.9055 72.4154 71.5559 71.7188 72.9492C69.9712 76.4443 69.4044 80.7713 67.7637 84.4629C67.0416 86.0875 66.4162 87.7436 66.0059 89.3848C65.389 91.8521 64.7621 94.1841 64.1602 96.5918C63.9128 97.5813 64.0806 99.4839 63.3691 100.195C63.457 100.283 63.457 100.283 63.5449 100.371C62.8851 101.031 63.5016 102.524 62.8418 103.184C62.9297 103.271 62.9297 103.271 63.0176 103.359C62.5142 103.863 62.478 109.412 62.7539 109.688C63.2793 109.162 63.3953 107.711 63.5449 106.963C63.7979 105.698 64.6767 103.612 65.3027 102.568C66.3632 100.801 67.3005 99.1001 68.2031 97.2949C68.7143 96.2726 69.5491 95.2647 69.873 94.1309C71.3967 88.7979 72.1609 83.2187 73.2129 77.959C74.0381 73.833 75.5228 69.8619 76.5527 65.7422C76.5684 65.6795 76.7882 65.4571 76.9043 65.5664C77.8698 66.4751 78.7922 67.4287 79.7168 68.3789C80.3196 68.9985 80.7212 69.8415 81.2109 70.5762C83.9262 74.6491 86.9055 76.8768 91.582 77.0801C94.7493 77.2178 100.037 75.6752 101.338 72.4219C102.105 70.5029 103.066 68.7533 104.502 67.1484C104.875 66.7313 105.232 65.7555 105.732 66.0059C106.287 66.283 106.32 68.0119 106.523 68.5547C107.524 71.2235 107.969 74.5534 108.545 77.4316C109.495 82.1813 110.321 86.9251 111.27 91.6699C111.629 93.4658 111.84 95.5348 112.676 97.207C113.973 99.8006 115.606 102.526 117.334 105.117C117.747 104.705 117.31 104.198 117.51 103.799C116.774 103.063 117.802 101.806 117.07 101.074C117.227 100.761 117.161 100.11 116.895 99.8438C117.055 99.523 116.772 97.9635 116.543 97.7344C116.631 97.6465 116.631 97.6465 116.719 97.5586C116.42 97.2601 116.666 96.9782 116.367 96.6797C116.559 96.2968 116.2 94.4028 115.84 94.043C115.928 93.9551 115.928 93.9551 116.016 93.8672C115.52 93.372 115.236 90.226 115.049 89.3848C114.417 86.5431 113.308 83.6528 112.588 80.7715C112.331 79.7427 111.821 76.8403 111.182 76.2012C111.509 75.5473 110.43 74.0343 110.215 73.3887C109.535 71.3505 108.52 69.3594 107.842 67.3242C107.591 66.5708 107.273 65.4369 106.699 64.8633C107.456 64.1067 109.588 60.8856 109.072 59.8535C110.07 58.8561 106.489 57.8992 105.645 57.3926C104.349 56.6155 102.709 55.5286 102.217 54.0527C102.083 53.6521 101.971 52.8405 101.689 52.5586C103.159 49.6196 97.7754 43.8866 96.0645 48.1641C94.2328 52.7432 96.9981 57.537 96.3281 62.2266C96.0172 64.403 94.6574 66.7918 92.373 67.0605C88.4377 67.5235 86.3305 63.1497 86.5723 59.7656C86.8137 56.386 91.652 52.0953 89.0332 48.6035C88.5738 47.991 88.2126 47.1503 87.4512 46.8457C86.0667 46.2919 84.9836 47.2039 84.0234 48.1641C82.9223 49.2652 82.2343 50.8634 81.5625 52.207C80.4749 54.3822 78.3957 56.5164 76.7285 58.1836C75.9011 59.011 74.9131 59.6535 74.0039 60.3809Z"
   fill="#e6c583"
   fill-rule="nonzero"
   opacity="1"
   stroke="none"
   id="path334"
   style="fill:#ffffff" />
<path
   d="M90.1758 38.2324C89.7744 38.6338 88.9489 38.3368 88.418 38.4961C87.104 38.8903 85.3761 39.3814 84.1992 40.166C79.5287 43.2797 76.3474 48.5461 75.0586 53.7012C74.8117 54.6886 73.654 56.6928 74.1797 57.7441C73.5982 58.3257 73.9453 59.3848 74.0039 60.2051C74.0098 60.2877 74.1211 60.3223 74.1797 60.3809C76.0438 58.5168 78.2699 57.0952 79.8926 54.9316C81.0109 53.4405 81.6897 51.5646 82.793 50.1855C83.685 49.0705 84.5793 47.1282 86.1328 46.8457C88.6184 46.3938 89.6468 49.7785 89.5605 51.5039C89.5123 52.4687 88.8835 53.1572 88.6816 53.9648C87.8829 57.1599 85.2634 59.8757 86.8359 63.5449C87.218 64.4363 88.2789 65.5153 88.9453 66.1816C89.7574 66.9937 91.3111 67.3613 92.373 67.2363C94.9884 66.9286 96.3587 64.0802 96.5039 61.6113C96.6143 59.7338 96.5046 58.1005 96.2402 56.25C95.8772 53.709 94.8027 50.5599 96.2402 48.1641C97.5532 45.9759 100.571 46.9426 101.162 49.3066C101.406 50.2806 101.405 51.0351 101.514 52.1191C101.559 52.5717 101.688 52.2103 101.514 52.5586C102.023 53.0681 102.098 54.2339 102.656 54.9316C103.666 56.1942 107.421 59.408 109.248 58.7988C109.248 58.0933 109.571 57.1884 109.072 56.6895C109.288 56.2583 108.901 54.2333 108.545 53.877C108.633 53.7891 108.633 53.7891 108.721 53.7012C107.939 52.9196 108.136 51.4691 107.754 50.4492C106.975 48.3714 106.693 46.0688 105.205 44.209C103.614 42.2199 101.185 40.3201 98.877 39.5508C98.018 39.2644 96.3502 39.1334 95.7129 38.4961C95.625 38.584 95.625 38.584 95.5371 38.6719C95.043 38.1778 94.2282 38.7692 93.6914 38.2324C92.9375 38.6094 90.8302 38.5596 90.1758 38.2324Z"
   fill="#68c40c"
   fill-rule="nonzero"
   opacity="1"
   stroke="none"
   id="path336"
   style="fill:#000000" />
<path
   d="M69.5215 69.3457C69.4336 69.2578 69.4336 69.2578 69.3457 69.1699C69.0077 69.5079 68.6475 69.4104 68.2031 69.5215C66.3694 69.9799 64.4415 70.659 62.5781 71.1914C60.3386 71.8313 58.0873 72.8348 55.8984 73.5645C53.9736 74.2061 52.0529 74.6978 50.1855 75.498C49.1664 75.9348 48.2203 76.5633 47.1973 76.9043C45.9103 77.3333 44.7505 77.9836 43.5059 78.3984C42.9715 78.5766 42.2666 78.583 41.8359 79.0137C41.748 78.9697 41.748 78.9697 41.6602 78.9258C40.5147 80.0713 38.4161 79.6184 37.3535 81.0352C36.8845 81.6605 39.6401 82.0885 40.166 81.5625C40.7862 81.8726 42.4848 81.7202 43.3301 82.002C46.7849 83.1536 50.5095 84.1923 54.0527 85.0781C55.01 85.3174 58.3034 85.6374 58.8867 86.2207C58.9746 86.1328 58.9746 86.1328 59.0625 86.0449C59.341 86.3234 59.5751 86.118 59.8535 86.3965C59.9414 86.3086 59.9414 86.3086 60.0293 86.2207C60.1172 86.3086 60.1172 86.3086 60.2051 86.3965C60.293 86.3086 60.293 86.3086 60.3809 86.2207C60.6209 86.4607 60.6682 86.4607 60.9082 86.2207C60.9961 86.3086 60.9961 86.3086 61.084 86.3965C61.2158 86.3086 61.2158 86.3086 61.3477 86.2207C61.6538 86.5268 63.7837 86.7165 64.4238 86.3965C64.7423 86.715 65.5507 86.7559 65.918 86.5723C66.2172 86.8715 66.5285 86.6578 66.8848 86.8359C67.7937 85.927 67.9638 83.8626 68.3789 82.6172C68.9575 80.8814 69.4176 78.9337 70.1367 77.2559C70.7426 75.8421 71.6098 74.1093 71.8945 72.6855C72.1533 71.3915 73.4506 69.9026 73.3008 68.5547C73.2536 68.1301 69.7307 69.1365 69.5215 69.3457Z"
   fill="#f5891d"
   fill-rule="nonzero"
   opacity="1"
   stroke="none"
   id="path338"
   style="fill:#000000" />
<path
   d="M138.691 81.3867C138.779 81.4746 138.779 81.4746 138.867 81.5625C139.186 81.2439 139.515 81.5296 139.834 81.2109C139.922 81.2988 139.922 81.2988 140.01 81.3867C140.098 81.2988 140.098 81.2988 140.186 81.2109C140.273 81.2988 140.273 81.2988 140.361 81.3867C140.922 80.8259 141.943 81.2695 142.734 81.2109C143.357 81.1648 145.049 79.7274 144.58 79.1016C143.732 77.9709 141.503 77.8051 140.361 77.5195C139.945 77.4155 139.504 77.6292 139.219 77.3438C139.16 77.4023 139.126 77.5161 139.043 77.5195C137.696 77.5756 136.347 77.5476 135 77.5195C134.935 77.5182 134.885 77.456 134.824 77.4316C133.796 77.0202 132.542 77.3199 131.572 76.9043C129.962 76.2141 128.258 75.7997 126.563 75.2344C126.115 75.0854 124.392 73.8145 124.014 74.0039C123.641 73.6315 123.261 73.6024 122.871 73.2129C122.783 73.3008 122.783 73.3008 122.695 73.3887C121.863 72.556 120.643 72.6316 119.707 72.0703C117.427 70.702 114.392 70.0056 111.885 69.1699C111.502 69.0423 108.494 68.1801 108.369 68.5547C108.095 69.3765 109.31 70.5606 109.512 71.3672C110.192 74.0891 111.34 76.9391 112.236 79.6289C112.96 81.7994 113.086 84.4054 114.082 86.3965C114.319 86.8712 114.046 88.2164 114.697 88.5059C115.399 88.8178 118.056 87.6368 118.74 87.3633C119.464 87.0737 120.272 87.0708 121.025 86.748C123.535 85.6723 126.324 84.3875 129.023 83.8477C131.398 83.3727 133.462 82.5622 135.703 82.002C136.521 81.7974 138.108 81.9704 138.691 81.3867Z"
   fill="#f5891d"
   fill-rule="nonzero"
   opacity="1"
   stroke="none"
   id="path340"
   style="fill:#000000" />
<path
   d="M68.0273 137.549C68.1152 137.461 68.1152 137.461 68.2031 137.373C68.4432 137.613 68.4904 137.613 68.7305 137.373C68.8184 137.461 68.8184 137.461 68.9063 137.549C66.7479 139.977 70.1022 140.308 71.3672 139.043C71.4551 139.131 71.4551 139.131 71.543 139.219C70.6893 140.072 72.3405 140.368 72.6855 140.713C72.7734 140.625 72.7734 140.625 72.8613 140.537C73.4453 141.121 74.4838 140.553 75.0586 140.361C77.322 139.607 78.0583 137.262 79.0137 135.352C79.2818 134.815 80.1757 132.927 79.541 132.451C78.5019 131.672 76.7237 131.552 75.5859 130.869C75.5076 130.822 75.3948 130.573 75.2344 130.693C73.7108 131.836 72.0744 132.824 70.6641 134.033C69.3649 135.147 65.8517 135.373 68.0273 137.549Z"
   fill="#e7b024"
   fill-rule="nonzero"
   opacity="1"
   stroke="none"
   id="path342" />
<path
   d="M105.557 141.855C106.436 141.416 107.386 141.696 108.193 140.889C108.752 141.448 110.707 141.433 111.006 140.449C111.177 139.888 110.822 139.27 110.918 138.691C110.987 138.278 112.785 138.119 112.412 137.373C111.353 135.256 109.366 134.897 107.842 133.506C107.061 132.793 106.528 131.725 105.557 131.309C105.548 131.305 103.037 132.646 102.832 132.715C102.331 132.882 101.367 132.822 100.986 133.33C100.754 133.64 101.249 135.173 101.338 135.527C101.862 137.622 102.998 139.204 104.238 141.064C104.584 141.583 105.182 141.481 105.557 141.855Z"
   fill="#e7b024"
   fill-rule="nonzero"
   opacity="1"
   stroke="none"
   id="path344" />
<path
   d="M91.3184 57.4805C88.617 57.4068 88.5217 61.4553 89.9121 63.1934C90.1002 63.4285 90.5559 64.0481 90.9668 64.0723C95.4032 64.3332 95.6962 57.5998 91.3184 57.4805Z"
   fill="#e7b024"
   fill-rule="nonzero"
   opacity="1"
   stroke="none"
   id="path346" />
<path
   d="M97.8223 48.3398C96.4725 49.5074 95.7687 50.7763 96.3281 52.7344C96.3894 52.9487 96.8276 54.0392 97.0313 54.0527C97.8497 54.1073 98.6719 54.0527 99.4922 54.0527C99.5508 54.0527 99.6156 54.0789 99.668 54.0527C101.619 53.0775 100.463 49.6626 99.3164 48.5156C98.9813 48.1805 97.9712 48.211 97.8223 48.3398Z"
   fill="#2f3a43"
   fill-rule="nonzero"
   opacity="1"
   stroke="none"
   id="path348" />
<path
   d="M85.2539 48.3398C83.5676 48.8007 82.4193 52.6903 84.1992 53.877C84.3862 54.0016 86.7216 54.0357 87.0996 53.9648C87.7849 53.8364 87.8906 51.1421 87.8906 50.8887C87.8906 49.5242 86.5052 47.9979 85.2539 48.3398Z"
   fill="#2f3a43"
   fill-rule="nonzero"
   opacity="1"
   stroke="none"
   id="path350" />
<path
   d="M92.9004 60.5566C92.1948 61.2622 90.9053 60.6363 89.9121 60.7324C89.052 60.8157 90.6345 62.4023 91.4063 62.4023C92.4867 62.4023 93.3007 61.5821 93.8672 60.7324C93.5671 60.4323 93.7743 60.5566 92.9004 60.5566Z"
   fill="#262c23"
   fill-rule="nonzero"
   opacity="1"
   stroke="none"
   id="path352" />
</g>
</g>
</svg>
