<?xml version="1.0" encoding="UTF-8" standalone="no"?>
<!-- Created with Vectornator (http://vectornator.io/) -->

<svg
   height="100%"
   stroke-miterlimit="10"
   style="fill-rule:nonzero;clip-rule:evenodd;stroke-linecap:round;stroke-linejoin:round;"
   version="1.1"
   viewBox="0 0 180 180"
   width="100%"
   xml:space="preserve"
   id="svg29"
   sodipodi:docname="peng-4.svg"
   inkscape:version="1.2.2 (b0a84865, 2022-12-01)"
   xmlns:inkscape="http://www.inkscape.org/namespaces/inkscape"
   xmlns:sodipodi="http://sodipodi.sourceforge.net/DTD/sodipodi-0.dtd"
   xmlns="http://www.w3.org/2000/svg"
   xmlns:svg="http://www.w3.org/2000/svg"
   xmlns:vectornator="http://vectornator.io"><sodipodi:namedview
   id="namedview31"
   pagecolor="#ffffff"
   bordercolor="#666666"
   borderopacity="1.0"
   inkscape:showpageshadow="2"
   inkscape:pageopacity="0.0"
   inkscape:pagecheckerboard="0"
   inkscape:deskcolor="#d1d1d1"
   showgrid="false"
   inkscape:zoom="6.3211265"
   inkscape:cx="78.546126"
   inkscape:cy="105.20277"
   inkscape:window-width="1440"
   inkscape:window-height="900"
   inkscape:window-x="0"
   inkscape:window-y="0"
   inkscape:window-maximized="0"
   inkscape:current-layer="g26" />
<defs
   id="defs2" />
<g
   id="Layer-1"
   vectornator:layerName="Layer 1">
<g
   opacity="1"
   id="g26">
<path
   d="M76.7285 69.5215C75.9953 70.2547 76.0795 71.4146 75.8496 72.334C75.2007 74.9297 74.3826 77.1473 73.7402 79.7168C72.7922 83.5088 71.8373 87.2674 71.1914 91.1426C70.8152 93.3998 70.5597 96.2813 69.6973 98.4375C69.0489 100.058 67.7464 101.469 67.0605 103.184C66.7567 103.943 66.3362 104.882 65.8301 105.557C64.4704 107.37 62.9619 111.95 62.4902 113.994C62.3968 114.399 62.6391 116.34 62.8418 116.543C62.7539 116.631 62.7539 116.631 62.666 116.719C62.9445 116.997 62.7391 117.231 63.0176 117.51C62.9297 117.598 62.9297 117.598 62.8418 117.686C63.0531 117.897 62.959 118.271 63.0176 118.564C63.2567 119.76 63.6551 121.341 64.1602 122.52C65.3726 125.349 66.8717 128.092 68.9941 130.518C71.0012 132.811 73.4888 134.215 76.1133 135.527C77.167 136.054 80.1569 136.671 80.8594 137.373C80.9473 137.285 80.9473 137.285 81.0352 137.197C81.2553 137.417 81.3423 137.329 81.5625 137.549C81.6504 137.461 81.6504 137.461 81.7383 137.373C82.3312 137.966 83.4612 137.514 84.0234 138.076C84.1113 137.988 84.1113 137.988 84.1992 137.9C84.4658 138.167 85.1165 138.233 85.4297 138.076C86.2478 138.894 87.7967 137.631 88.6816 138.516C88.7695 138.428 88.7695 138.428 88.8574 138.34C88.9453 138.428 88.9453 138.428 89.0332 138.516C89.1211 138.428 89.1211 138.428 89.209 138.34C89.2969 138.428 89.2969 138.428 89.3848 138.516C90.7204 137.848 92.6036 139.428 93.6914 138.34C93.9315 138.58 93.9787 138.58 94.2188 138.34C94.3066 138.428 94.3066 138.428 94.3945 138.516C94.6289 138.398 94.5117 138.398 94.7461 138.516C95.61 137.652 97.1538 138.92 97.998 138.076C98.3113 138.233 98.962 138.167 99.2285 137.9C99.643 138.108 99.8954 137.785 100.195 137.725C102.021 137.36 103.459 136.577 105.205 135.879C106.321 135.432 107.114 134.632 108.018 133.857C110.786 131.484 112.986 128.929 114.521 125.859C114.97 124.963 115.61 124.305 115.752 123.311C115.906 122.235 117.559 119.629 117.07 118.652C117.532 118.19 117.02 117.56 117.51 117.07C117.326 116.703 117.367 115.895 117.686 115.576C117.568 115.342 117.568 115.459 117.686 115.225C117.598 115.137 117.598 115.137 117.51 115.049C118.339 114.219 117.744 112.705 117.686 111.533C117.681 111.45 117.568 111.416 117.51 111.357C117.598 111.27 117.598 111.27 117.686 111.182C117.569 110.949 117.497 110.403 117.686 110.215C117.598 110.127 117.598 110.127 117.51 110.039C117.598 109.951 117.598 109.951 117.686 109.863C117.137 109.315 116.569 107.982 116.191 107.227C115.059 104.961 113.619 103.168 112.676 100.811C111.864 98.7799 111.606 96.5183 111.182 94.3945C110.283 89.9006 109.63 85.3487 108.633 80.8594C108.093 78.4302 107.544 75.9076 106.875 73.5645C106.593 72.576 106.72 70.7075 105.732 70.0488C105.249 69.7263 104.813 70.7686 104.414 71.1914C103.563 72.0926 102.659 73.3381 102.217 74.4434C100.783 78.027 98.1928 80.1601 94.2188 80.7715C92.5282 81.0316 90.7291 81.3743 89.0332 81.0352C83.1265 79.8538 81.3518 72.6037 76.7285 69.5215Z"
   fill="#68c40c"
   fill-rule="nonzero"
   opacity="1"
   stroke="none"
   id="path4"
   style="fill:#000000" />
<path
   d="M62.8418 108.896C62.3673 109.371 62.5816 113.91 62.7539 114.082C63.0059 113.83 62.8495 113.375 62.9297 113.027C63.2956 111.442 64.0857 109.309 64.8633 107.754C66.4162 104.648 68.616 101.58 69.873 98.4375C70.7009 96.3679 70.9999 93.346 71.3672 91.1426C71.8599 88.1862 72.753 84.9504 73.3887 82.0898C74.1707 78.5705 75.1838 75.7003 76.0254 72.334C76.2177 71.5648 76.1403 70.3734 76.7285 69.7852C79.2276 71.0347 80.2577 73.6572 81.8262 75.6738C85.4214 80.2963 88.332 81.9273 94.1309 81.0352C97.264 80.5531 100.463 79.0032 101.689 75.9375C102.354 74.2765 103.307 72.7333 104.59 71.2793C104.933 70.8906 105.269 69.9928 105.732 70.2246C106.442 70.5793 106.44 72.8734 106.699 73.5645C107.601 75.9701 108.028 78.9755 108.545 81.5625C109.396 85.8167 110.071 90.0699 110.918 94.3066C111.343 96.4304 111.6 98.6921 112.412 100.723C113.647 103.809 115.504 106.591 117.334 109.336C117.635 109.035 117.635 108.67 117.334 108.369C117.422 108.281 117.422 108.281 117.51 108.193C116.757 107.441 117.825 106.136 117.07 105.381C117.158 105.293 117.158 105.293 117.246 105.205C116.673 104.632 117.292 103.582 116.719 103.008C116.885 102.676 116.629 101.336 116.367 101.074C116.455 100.986 116.455 100.986 116.543 100.898C116.244 100.6 116.49 100.318 116.191 100.02C116.279 99.9316 116.279 99.9316 116.367 99.8438C116.128 99.6046 116.255 99.4677 116.016 99.2285C116.104 99.1406 116.104 99.1406 116.191 99.0527C115.47 98.3317 116.175 96.6637 115.4 95.8887C115.488 95.8008 115.488 95.8008 115.576 95.7129C114.668 94.8045 114.914 92.0151 114.258 90.7031C113.848 89.8837 113.752 88.7765 113.555 87.8906C113.032 85.5367 112.089 83.1432 111.357 80.9473C111.061 80.0587 111.031 78.8633 110.654 78.0469C110.343 77.3733 108.142 72.7013 108.369 72.2461C107.502 71.3794 107.552 70.0225 106.699 69.1699C108.039 67.8297 109.639 65.0618 109.248 63.1055C109.189 62.808 107.309 62.5315 106.875 62.3145C105.173 61.4633 102.976 60.1693 102.217 58.2715C101.255 55.8673 102.168 51.9312 98.7012 51.0645C98.3002 50.9642 97.7741 50.8688 97.3828 51.0645C95.1754 52.1682 95.2167 55.9972 95.5371 57.9199C96.2219 62.0285 97.645 67.1499 94.3945 70.4004C91.5213 73.2737 86.7875 69.4094 86.5723 66.1816C86.2996 62.0921 89.2646 59.6486 89.6484 55.8105C89.8431 53.8642 88.8395 50.8887 86.3086 50.8887C85.1075 50.8887 83.9257 52.502 83.3203 53.3496C82.5352 54.4488 82.1134 55.7751 81.3867 56.8652C79.9981 58.9481 78.2255 60.9054 76.4648 62.666C75.8613 63.2696 74.4782 63.8882 74.0039 64.5996C73.6791 65.0869 75.0013 67.2689 75.2344 67.8516C75.3642 68.1762 74.6575 69.0302 74.5313 69.3457C74.2227 70.117 74.0834 70.918 73.7402 71.7188C72.2112 75.2865 70.4917 79.6154 69.5215 83.4961C69.3148 84.3227 68.5881 85.2959 68.3789 86.1328C67.6815 88.9224 66.4611 91.6946 65.8301 94.2188C65.4549 95.7197 65.2733 97.0903 64.8633 98.5254C64.141 101.053 63.6726 103.712 63.1934 106.348C63.1028 106.846 62.5632 108.339 62.8418 108.896Z"
   fill="#e6c583"
   fill-rule="nonzero"
   opacity="1"
   stroke="none"
   id="path6"
   style="fill:#ffffff" />
<path
   d="M89.7363 42.7148C89.6484 42.627 89.6484 42.627 89.5605 42.5391C89.3019 42.7977 89.1161 42.632 88.8574 42.8906C88.7695 42.8027 88.7695 42.8027 88.6816 42.7148C88.009 43.3875 86.2285 43.4141 85.3418 43.8574C83.0791 44.9888 81.013 46.8075 79.3652 48.8672C77.6185 51.0506 76.716 53.8142 75.498 56.25C75.0013 57.2434 74.8027 59.9336 74.1797 60.5566C74.2676 60.6445 74.2676 60.6445 74.3555 60.7324C74.0368 61.051 74.3225 61.3806 74.0039 61.6992C74.0918 61.7871 74.0918 61.7871 74.1797 61.875C73.5775 62.4772 73.9453 63.5742 74.0039 64.4238C74.0096 64.5065 74.1211 64.541 74.1797 64.5996C76.7994 63.2898 80.0854 59.4501 81.5625 56.8652C82.0117 56.0792 82.3085 55.1197 82.8809 54.4043C83.9417 53.0782 84.7226 51.0645 86.748 51.0645C89.113 51.0645 89.973 55.0329 89.3848 56.6016C88.7459 58.3051 87.9203 60.0282 87.3633 61.6992C87.1712 62.2753 86.439 63.0824 86.3965 63.7207C86.1383 67.5929 88.4091 72.1598 92.9004 71.3672C94.6723 71.0545 95.824 69.0772 96.2402 67.4121C96.9026 64.7629 96.5065 61.9786 96.0645 59.3262C95.8435 58.0003 95.3991 56.5385 95.7129 55.2832C96.1529 53.5231 95.6515 51.4676 98.1738 51.1523C99.4509 50.9927 100.867 52.3444 101.162 53.5254C101.489 54.8313 101.416 56.2501 101.689 57.4805C102.095 59.3042 106.845 63.7308 109.248 62.9297C109.248 62.2533 109.551 61.3865 109.072 60.9082C109.229 60.595 109.163 59.9443 108.896 59.6777C109.055 59.3616 108.958 59.1236 108.721 58.8867C108.809 58.7988 108.809 58.7988 108.896 58.7109C108.387 58.201 108.364 57.0205 108.193 56.3379C107.616 54.0301 107.059 51.2085 105.732 49.2188C104.62 47.5505 102.979 46.0944 101.338 45C100.463 44.4165 99.1185 44.2748 98.3496 43.5059C98.2617 43.5938 98.2617 43.5938 98.1738 43.6816C97.4111 42.919 95.8956 43.4249 95.1855 42.7148C95.0977 42.8027 95.0977 42.8027 95.0098 42.8906C94.7313 42.6122 94.4972 42.8175 94.2188 42.5391C94.1309 42.627 94.1309 42.627 94.043 42.7148C93.6019 42.2738 92.9899 42.8043 92.5488 42.3633C92.4609 42.4512 92.4609 42.4512 92.373 42.5391C92.2852 42.4512 92.2852 42.4512 92.1973 42.3633C92.1094 42.4512 92.1094 42.4512 92.0215 42.5391C91.9336 42.4512 91.9336 42.4512 91.8457 42.3633C91.7578 42.4512 91.7578 42.4512 91.6699 42.5391C91.2119 42.3101 90.0935 42.3576 89.7363 42.7148Z"
   fill="#68c40c"
   fill-rule="nonzero"
   opacity="1"
   stroke="none"
   id="path8"
   style="fill:#000000" />
<path
   d="M108.105 72.4219C109.846 75.9021 111.13 80.1271 112.061 83.8477C112.538 85.7586 113.407 87.7105 113.73 89.6484C113.979 91.1395 114.46 92.8627 114.873 94.3066C114.896 94.3863 114.967 94.4707 115.049 94.4824C115.301 94.5184 116.229 94.1808 116.367 94.043C116.455 94.1309 116.455 94.1309 116.543 94.2188C116.763 93.9986 116.85 94.0873 117.07 93.8672C117.158 93.9551 117.158 93.9551 117.246 94.043C117.497 93.7925 117.353 93.9131 117.686 93.6914C117.773 93.7793 117.773 93.7793 117.861 93.8672C118.522 93.2068 119.72 93.6788 120.322 93.0762C120.582 93.2062 120.991 93.111 121.201 92.9004C121.289 92.9883 121.289 92.9883 121.377 93.0762C121.696 92.7575 122.025 93.0432 122.344 92.7246C122.432 92.8125 122.432 92.8125 122.52 92.9004C122.607 92.8125 122.607 92.8125 122.695 92.7246C123.095 93.1247 123.614 92.6761 124.014 93.0762C124.102 92.9883 124.102 92.9883 124.189 92.9004C124.984 93.695 128.196 93.2153 129.199 94.2188C129.287 94.1309 129.287 94.1309 129.375 94.043C129.595 94.2631 129.682 94.1744 129.902 94.3945C129.99 94.3066 129.99 94.3066 130.078 94.2188C130.329 94.4692 130.185 94.3486 130.518 94.5703C130.605 94.4824 130.605 94.4824 130.693 94.3945C130.914 94.6147 131.001 94.5259 131.221 94.7461C131.309 94.6582 131.309 94.6582 131.396 94.5703C131.866 95.04 132.854 94.7093 133.33 95.1855C133.776 94.9628 134.602 95.4575 135 95.5371C136.787 95.8946 138.789 96.416 140.625 96.416C141.237 96.416 142.651 96.7008 143.086 95.9766C143.551 95.2021 142.409 94.1635 142.031 93.6914C140.865 92.2337 139.338 91.0821 137.9 89.8242C132.119 84.7659 126.143 79.683 119.531 76.377C119.443 76.4648 119.443 76.4648 119.355 76.5527C118.955 76.1527 118.591 76.0516 118.213 75.6738C118.125 75.7617 118.125 75.7617 118.037 75.8496C116.896 74.709 114.673 74.8584 113.555 73.7402C113.325 73.8551 109.947 72.5935 109.688 72.334C109.6 72.4219 109.6 72.4219 109.512 72.5098C109.103 72.1014 108.524 72.0029 108.105 72.4219Z"
   fill="#e94420"
   fill-rule="nonzero"
   opacity="1"
   stroke="none"
   id="path10"
   style="fill:#000000" />
<path
   d="M70.2246 73.3887C70.1367 73.3008 70.1367 73.3008 70.0488 73.2129C69.873 73.3887 69.873 73.3887 69.6973 73.5645C69.6094 73.4766 69.6094 73.4766 69.5215 73.3887C69.0001 73.9101 67.8972 73.9154 67.2363 74.1797C65.1892 74.9986 62.7428 75.9449 60.9082 77.168C56.1989 80.3075 52.0385 83.7525 47.7246 88.0664C46.421 89.3701 45.0145 90.5751 43.8574 92.0215C42.6477 93.5336 41.5718 95.4501 40.6934 97.207C40.4204 97.753 40.1369 98.9418 41.0449 99.2285C43.5873 100.031 47.7418 95.7365 49.9219 95.0098C51.049 94.634 52.2443 94.1435 53.3496 93.8672C53.9366 93.7204 54.8938 93.8171 55.3711 93.3398C55.459 93.4277 55.459 93.4277 55.5469 93.5156C56.0916 92.9709 57.2606 93.4718 57.832 92.9004C58.4027 93.1857 59.8279 92.4959 60.3809 92.373C61.4941 92.1257 62.7454 91.582 63.8965 91.582C64.8633 91.582 65.834 91.6696 66.7969 91.582C66.9291 91.57 68.0942 87.6795 68.291 87.1875C69.6109 83.8879 70.2473 80.4787 71.7188 77.168C72.0976 76.3156 73.6109 73.3574 73.4766 72.6855C73.3698 72.1518 70.5489 73.1725 70.2246 73.3887Z"
   fill="#e94420"
   fill-rule="nonzero"
   opacity="1"
   stroke="none"
   id="path12"
   style="fill:#000000" />
<path
   d="M111.357 143.525C111.597 143.765 111.645 143.765 111.885 143.525C111.973 143.613 111.973 143.613 112.061 143.701C112.421 143.341 112.829 142.932 113.203 142.559C112.544 141.899 113.078 141.366 113.555 140.889C112.619 139.953 111.352 138.953 110.039 138.516C109.475 138.327 108.703 138.24 108.193 137.9C107.702 137.573 106.141 135.439 105.732 135.439C105.321 135.439 104.481 136.197 104.063 136.406C103.634 136.621 101.097 137.388 101.074 137.549C100.98 138.209 102.851 140.319 103.184 140.713C105.245 143.149 107.584 146.115 111.006 144.404C111.38 144.217 111.069 143.813 111.357 143.525Z"
   fill="#eab223"
   fill-rule="nonzero"
   opacity="1"
   stroke="none"
   id="path14" />
<path
   d="M75.0586 134.824C74.1479 135.735 74.0812 136.117 73.0371 137.021C72.0549 137.873 67.9604 139.013 67.6758 140.01C67.5051 140.607 68.2639 140.598 68.5547 140.889C67.9526 141.491 68.1653 141.209 67.8516 141.68C68.351 142.179 67.7059 142.401 68.5547 142.91C68.8949 143.114 69.3742 142.846 69.6973 142.91C69.7785 142.926 69.8423 143.009 69.873 143.086C70.1733 143.837 70.5832 143.62 71.0156 144.053C71.1035 143.965 71.1035 143.965 71.1914 143.877C71.2793 143.965 71.2793 143.965 71.3672 144.053C71.4551 143.965 71.4551 143.965 71.543 143.877C71.783 144.117 71.8303 144.117 72.0703 143.877C72.47 144.077 72.9032 144.011 73.2129 143.701C73.3008 143.789 73.3008 143.789 73.3887 143.877C74.0129 143.253 75.121 143.281 75.8496 142.734C76.6917 142.103 76.9808 140.994 77.5195 140.186C77.8759 139.651 78.4409 139.285 78.8379 138.779C79.0032 138.569 79.8496 137.111 79.7168 136.846C79.601 136.614 75.6387 135.114 75.0586 134.824Z"
   fill="#eab223"
   fill-rule="nonzero"
   opacity="1"
   stroke="none"
   id="path16" />
<path
   d="M91.2305 61.6992C88.0214 62.7395 88.129 68.3789 92.0215 68.3789C94.0963 68.3789 94.3945 65.5408 94.3945 64.1602C94.3945 62.656 92.3629 61.3321 91.2305 61.6992Z"
   fill="#eab223"
   fill-rule="nonzero"
   opacity="1"
   stroke="none"
   id="path18" />
<path
   d="M85.4297 52.5586C82.4015 52.9589 82.8094 59.3181 86.1328 59.0625C87.3186 58.9713 87.4553 57.468 87.7148 56.6895C88.3208 54.8715 87.3896 52.2995 85.4297 52.5586Z"
   fill="#2e3a42"
   fill-rule="nonzero"
   opacity="1"
   stroke="none"
   id="path20" />
<path
   d="M97.9102 52.5586C95.3716 53.0326 95.3981 59.0625 98.6133 59.0625C101.006 59.0625 101.72 51.8473 97.9102 52.5586Z"
   fill="#2e3a42"
   fill-rule="nonzero"
   opacity="1"
   stroke="none"
   id="path22" />
<path
   d="M93.5156 64.7754C92.9297 64.8047 92.3434 64.8278 91.7578 64.8633C91.1437 64.9005 90.5243 64.8021 89.9121 64.8633C89.3762 64.9169 90.127 65.9971 90.5273 66.3574C90.9825 66.7671 91.4099 66.5744 92.1094 66.5332C92.8117 66.4919 93.4853 65.5164 93.8672 65.0391C93.7793 64.9072 93.7793 64.9072 93.5156 64.7754Z"
   fill="#1e2726"
   fill-rule="nonzero"
   opacity="1"
   stroke="none"
   id="path24" />
</g>
</g>
</svg>
