<?xml version="1.0" encoding="UTF-8" standalone="no"?>
<!-- Created with Vectornator (http://vectornator.io/) -->

<svg
   height="100%"
   stroke-miterlimit="10"
   style="fill-rule:nonzero;clip-rule:evenodd;stroke-linecap:round;stroke-linejoin:round;"
   version="1.1"
   viewBox="0 0 180 180"
   width="100%"
   xml:space="preserve"
   id="svg2739"
   sodipodi:docname="peng-2.svg"
   inkscape:version="1.2.2 (b0a84865, 2022-12-01)"
   xmlns:inkscape="http://www.inkscape.org/namespaces/inkscape"
   xmlns:sodipodi="http://sodipodi.sourceforge.net/DTD/sodipodi-0.dtd"
   xmlns="http://www.w3.org/2000/svg"
   xmlns:svg="http://www.w3.org/2000/svg"
   xmlns:vectornator="http://vectornator.io"><sodipodi:namedview
   id="namedview2741"
   pagecolor="#ffffff"
   bordercolor="#666666"
   borderopacity="1.0"
   inkscape:showpageshadow="2"
   inkscape:pageopacity="0.0"
   inkscape:pagecheckerboard="0"
   inkscape:deskcolor="#d1d1d1"
   showgrid="false"
   inkscape:zoom="3.1541139"
   inkscape:cx="63.567774"
   inkscape:cy="107.79573"
   inkscape:window-width="1440"
   inkscape:window-height="900"
   inkscape:window-x="0"
   inkscape:window-y="0"
   inkscape:window-maximized="0"
   inkscape:current-layer="g2736" />
<defs
   id="defs2712" />
<g
   id="Layer-1"
   vectornator:layerName="Layer 1">
<g
   opacity="1"
   id="g2736">
<path
   d="M76.7285 71.543C75.8388 72.4327 75.9097 74.5267 75.498 75.7617C75.1551 76.7904 74.6721 77.8177 74.3555 78.9258C74.2339 79.3514 74.3372 79.9108 74.0039 80.2441C74.2289 80.6942 72.8081 85.2565 72.6855 85.8691C72.5866 86.3637 72.7092 87.1639 72.334 87.5391C72.7692 88.4095 71.4809 91.1684 71.3672 92.0215C71.0491 94.4074 70.3979 96.7787 69.873 99.1406C69.6784 100.016 69.6008 101.087 69.082 101.865C67.6684 103.986 65.2952 107.608 64.6875 110.039C64.1825 112.059 62.8876 114.073 62.4902 115.928C62.4227 116.243 62.4655 116.573 62.4902 116.895C62.5003 117.025 62.666 117.115 62.666 117.246C62.666 117.682 62.4579 118.181 62.8418 118.564C62.6637 118.921 62.7458 119.259 63.0176 119.531C62.9297 119.619 62.9297 119.619 62.8418 119.707C63.198 120.063 63.0771 120.736 63.1934 121.201C63.5137 122.483 63.9146 123.804 64.3359 125.068C65.3126 127.998 67.644 131.334 69.9609 133.506C72.7523 136.123 76.5442 138.162 80.2441 139.219C80.986 139.431 84.6311 139.826 84.9902 140.186C85.3767 139.992 86.2354 140.024 86.5723 140.361C87.1374 140.079 87.8799 140.087 88.3301 140.537C88.5645 140.42 88.4473 140.42 88.6816 140.537C88.7695 140.449 88.7695 140.449 88.8574 140.361C88.9453 140.449 88.9453 140.449 89.0332 140.537C89.1211 140.449 89.1211 140.449 89.209 140.361C89.5739 140.726 90.0396 140.537 90.5273 140.537C91.6992 140.537 92.8724 140.593 94.043 140.537C94.1257 140.533 94.1602 140.42 94.2188 140.361C94.3066 140.449 94.3066 140.449 94.3945 140.537C95.0225 140.223 96.1247 140.741 96.6797 140.186C96.7676 140.273 96.7676 140.273 96.8555 140.361C97.4952 139.722 100.293 140.263 100.986 139.57C102.011 140.083 105.511 137.6 106.523 137.021C108.074 136.135 109.635 134.735 110.918 133.33C112.474 131.626 115.425 127.623 115.752 125.332C115.835 124.75 116.797 123.554 116.543 123.047C116.837 122.753 117.27 121.074 117.07 120.674C117.535 120.209 117.025 119.576 117.51 119.092C117.317 118.705 117.349 117.847 117.686 117.51C117.53 117.198 117.782 117.167 117.51 116.895C118.298 116.106 117.744 114.668 117.686 113.555C117.681 113.472 117.568 113.438 117.51 113.379C118.47 112.419 116.745 110.632 116.367 109.688C115.889 108.492 114.864 107.213 114.17 106.172C113.003 104.421 112.289 101.795 111.797 99.5801C110.324 92.9539 109.4 86.2464 107.93 79.6289C107.501 77.702 106.99 73.3279 105.645 71.9824C104.27 73.3565 102.977 74.9148 102.041 76.5527C101.231 77.9698 100.9 79.3639 99.5801 80.6836C98.601 81.6627 97.2815 81.9807 95.9766 82.3535C91.3146 83.6855 87.2823 83.3272 83.8477 79.8926C81.2448 77.2898 79.8862 73.6481 76.7285 71.543Z"
   fill="#68c40c"
   fill-rule="nonzero"
   opacity="1"
   stroke="none"
   id="path2714"
   style="fill:#000000" />
<path
   d="M63.1934 107.402C63.2813 107.49 63.2813 107.49 63.3691 107.578C63.0907 107.857 63.296 108.091 63.0176 108.369C63.1055 108.457 63.1055 108.457 63.1934 108.545C62.9024 108.836 62.6544 110.543 62.8418 110.918C62.3747 111.385 62.573 115.835 62.7539 116.016C63.0469 115.723 62.8292 115.187 62.9297 114.785C63.1047 114.085 63.2952 114.701 63.3691 114.258C63.6796 112.395 64.5823 110.25 65.3906 108.633C66.7208 105.972 68.5997 103.554 69.6973 100.811C70.759 98.1563 71.176 94.7734 71.543 92.0215C71.5961 91.6233 71.9893 91.0203 72.0703 90.6152C72.5699 88.1174 73.0464 85.5638 73.5645 83.2324C74.0346 81.1165 74.5486 79.0324 75.0586 76.9922C75.1448 76.6472 75.5992 76.2858 75.6738 75.9375C75.9108 74.8317 76.0135 72.6096 76.8164 71.8066C77.8727 72.3348 78.542 73.4208 79.3652 74.2676C81.3642 76.3236 82.4339 78.9194 84.7266 80.8594C89.1471 84.5998 96.4575 83.9819 100.547 79.8926C101.479 78.9606 101.632 77.5756 102.217 76.5527C103.089 75.0269 104.423 73.4907 105.645 72.1582C106.405 72.9183 106.409 74.4835 106.699 75.498C107.376 77.8679 107.884 80.3689 108.369 82.793C109.322 87.5579 110.224 92.336 111.094 97.1191C111.416 98.8928 111.653 100.802 112.324 102.48C113.251 104.797 114.302 106.421 115.576 108.545C116.123 109.456 116.6 110.536 117.334 111.27C117.568 111.035 117.334 107.666 117.07 107.402C117.254 107.036 116.974 105.285 116.719 105.029C116.807 104.941 116.807 104.941 116.895 104.854C116.4 104.359 116.86 103.501 116.367 103.008C116.6 102.542 116.096 101.477 116.016 101.074C115.615 99.0705 115.127 96.9423 114.697 95.0098C112.862 86.7522 110.565 78.9234 106.875 71.543C106.608 71.0087 107.464 70.3089 107.666 70.0488C108.496 68.9816 109.53 66.5378 109.248 65.127C109.185 64.8132 107.28 64.6314 106.787 64.3359C105.271 63.4262 103.657 62.4321 102.568 60.9082C100.922 58.6028 102.393 55.8781 99.8438 53.5254C99.3266 53.048 97.9474 52.7472 97.3828 53.0859C93.3068 55.5316 96.8899 64.6224 96.3281 68.5547C96.0926 70.2034 95.0931 72.482 93.4277 73.0371C89.0225 74.5055 86.4439 70.0334 86.5723 66.1816C86.5938 65.5347 87.006 65.0562 87.1875 64.5117C87.9443 62.2413 89.4046 60.0665 89.7363 57.7441C90.0386 55.6282 88.1801 52.1088 85.5176 53.1738C83.2949 54.0629 82.5616 57.0366 81.3867 58.7988C80.5765 60.0141 79.6186 61.3785 78.5742 62.4902C77.8791 63.2302 77.1828 63.9696 76.4648 64.6875C75.833 65.3194 74.4926 65.888 74.0039 66.6211C73.7317 67.0294 74.9783 69.3609 75.2344 69.873C75.3295 70.0633 74.6209 71.4497 74.5313 71.7188C73.7116 74.1778 72.4303 76.6153 71.543 79.2773C70.2558 83.139 68.9335 87.1935 67.6758 90.9668C67.1165 92.6447 66.3922 94.1677 66.0059 95.7129C65.2828 98.6052 64.5588 101.258 63.8965 104.238C63.7108 105.074 63.8088 106.787 63.1934 107.402Z"
   fill="#e6c583"
   fill-rule="nonzero"
   opacity="1"
   stroke="none"
   id="path2716"
   style="fill:#ffffff" />
<path
   d="M91.4063 44.3848C91.0317 44.7593 90.0746 44.7736 89.6484 44.5605C89.5058 44.7032 86.2458 45.519 85.6934 45.7031C83.692 46.3702 81.4868 48.4731 80.0684 50.0098C77.9703 52.2826 76.5844 55.4678 75.498 58.1836C75.0917 59.1994 75.1173 60.9374 74.3555 61.6992C74.4434 61.7871 74.4434 61.7871 74.5313 61.875C74.0608 62.3455 74.4508 63.2738 74.0039 63.7207C74.0918 63.8086 74.0918 63.8086 74.1797 63.8965C73.5775 64.4987 73.9453 65.5957 74.0039 66.4453C74.0096 66.528 74.1211 66.5625 74.1797 66.6211C75.8042 65.8089 77.6376 63.6906 78.75 62.5781C80.6907 60.6374 82.0565 58.0745 83.2324 55.7227C84.0812 54.025 85.3903 53.1738 87.1875 53.1738C87.7503 53.1738 88.1079 53.8306 88.5059 54.2285C89.5855 55.3082 89.6862 57.1788 89.3848 58.5352C88.8224 61.066 86.6575 63.4109 86.4844 66.0938C86.4315 66.9129 86.3691 67.7343 86.3965 68.5547C86.3998 68.6542 86.8083 69.0456 86.8359 69.1699C87.4315 71.8499 90.0821 73.8584 92.9004 73.3887C94.8005 73.072 95.9351 70.8506 96.3281 69.082C97.2516 64.9263 95.5371 60.9004 95.5371 56.7773C95.5371 54.8738 96.8582 53.1738 98.7891 53.1738C100.333 53.1738 101.225 55.5706 101.426 56.7773C101.585 57.7309 101.475 58.6428 101.689 59.502C102.156 61.3672 106.84 65.7539 109.248 64.9512C109.248 64.2748 109.551 63.408 109.072 62.9297C109.229 62.6165 109.163 61.9658 108.896 61.6992C108.984 61.6113 108.984 61.6113 109.072 61.5234C108.833 61.2843 108.96 61.1474 108.721 60.9082C108.809 60.8203 108.809 60.8203 108.896 60.7324C107.825 59.6613 108.475 57.1466 107.402 56.0742C107.731 55.417 106.9 54.1265 106.699 53.5254C105.528 50.0113 103.016 48.2571 99.9316 46.4063C99.3375 46.0498 97.1516 44.852 96.5039 45.1758C96.3099 44.9818 96.0543 44.8732 95.8008 45C95.3048 44.5041 94.5769 45.0945 94.043 44.5605C93.9551 44.6484 93.9551 44.6484 93.8672 44.7363C93.508 44.3771 93.0838 44.744 92.7246 44.3848C92.4846 44.6248 92.4373 44.6248 92.1973 44.3848C92.1094 44.4727 92.1094 44.4727 92.0215 44.5605C91.9336 44.4727 91.9336 44.4727 91.8457 44.3848C91.7578 44.4727 91.7578 44.4727 91.6699 44.5605C91.5381 44.4727 91.5381 44.4727 91.4063 44.3848Z"
   fill="#68c40c"
   fill-rule="nonzero"
   opacity="1"
   stroke="none"
   id="path2718"
   style="fill:#000000" />
<path
   d="M73.2129 74.5313C72.6764 75.0677 71.8317 75.1139 71.1914 75.498C69.5028 76.5112 67.967 77.6307 66.3574 78.8379C61.4303 82.5332 57.7135 87.8926 54.4922 92.7246C52.0892 96.3291 48.9167 100.926 47.5488 105.029C47.0796 106.437 46.4204 107.873 46.0547 109.336C45.9062 109.93 45.9622 111.098 45.5273 111.533C45.6152 111.621 45.6152 111.621 45.7031 111.709C45.0389 112.373 45.4688 113.584 45.5273 114.521C45.5787 115.343 46.3461 115.692 46.8457 116.191C46.9336 116.104 46.9336 116.104 47.0215 116.016C47.1094 116.104 47.1094 116.104 47.1973 116.191C47.6369 115.752 48.5608 115.675 49.043 115.225C49.8911 114.433 50.7124 113.612 51.5039 112.764C55.0535 108.961 57.5232 104.372 60.9082 100.371C62.1227 98.9358 64.0899 96.9574 65.2148 95.8887C65.3908 95.7215 66.3688 95.2506 66.5332 94.9219C66.8186 94.3512 66.8962 93.5577 67.0605 92.9004C67.7171 90.2743 68.8155 87.7233 69.6973 85.0781C70.3757 83.0429 71.662 80.7916 72.0703 78.75C72.1688 78.2574 72.3061 77.5174 72.5977 77.0801C72.8895 76.6424 73.6419 74.9602 73.2129 74.5313Z"
   fill="#e94420"
   fill-rule="nonzero"
   opacity="1"
   stroke="none"
   id="path2720"
   style="fill:#000000" />
<path
   d="M109.512 78.2227C110.555 79.2657 110.433 81.1935 111.006 82.5293C112.476 85.9593 113.405 89.929 114.346 93.6914C114.639 94.8637 114.54 96.8806 115.313 97.9102C115.675 98.3932 116.737 98.921 117.07 99.2285C118.471 100.522 119.916 101.776 121.201 103.184C122.236 104.316 122.969 105.923 123.838 107.227C125.171 109.226 126.706 110.825 128.057 112.852C129.086 114.396 130.062 115.879 131.572 117.246C132.201 117.815 133.067 117.07 133.242 116.543C133.422 116.002 133.68 112.498 133.242 112.061C133.407 111.73 133.35 111.025 133.066 110.742C133.246 110.383 132.986 109.344 132.715 109.072C132.803 108.984 132.803 108.984 132.891 108.896C132.039 108.045 132.218 105.861 131.748 104.766C130.859 102.692 129.913 100.492 129.199 98.3496C128.733 96.95 127.729 95.7725 127.178 94.3945C125.109 89.2226 121.432 84.9574 117.158 80.6836C115.157 78.6826 112.689 76.877 110.391 75.498C110.057 75.2979 108.441 74.0366 108.193 74.5313C107.982 74.9541 109.769 77.7081 109.512 78.2227Z"
   fill="#e94420"
   fill-rule="nonzero"
   opacity="1"
   stroke="none"
   id="path2722"
   style="fill:#000000" />
<path
   d="M105.82 137.373C104.892 138.301 103.433 138.667 102.305 139.043C102.084 139.117 101.132 139.282 101.074 139.57C101.005 139.915 102.121 140.945 102.217 141.064C102.924 141.949 105.35 144.245 106.523 144.58C107.329 144.81 109.405 144.561 109.863 145.02C110.103 144.779 110.151 144.779 110.391 145.02C110.717 144.693 111.595 144.466 111.006 143.877C111.094 143.789 111.094 143.789 111.182 143.701C111.886 144.406 113.441 143.547 113.73 142.822C113.867 142.48 113.416 142.484 113.555 142.207C113.557 142.202 114.072 141.643 113.906 141.416C113.245 140.507 112.07 140.371 111.357 139.658C110.956 139.859 106.522 137.724 105.82 137.373Z"
   fill="#e5af25"
   fill-rule="nonzero"
   opacity="1"
   stroke="none"
   id="path2724" />
<path
   d="M71.0156 138.867C70.9277 138.779 70.9277 138.779 70.8398 138.691C69.9487 139.583 68.3679 139.153 67.6758 140.537C67.6234 140.642 67.6387 140.778 67.6758 140.889C67.7917 141.236 68.0671 140.9 68.2031 141.24C68.2604 141.383 67.9038 144.027 69.4336 143.262C69.5654 143.394 69.5654 143.394 69.6973 143.525C68.8045 144.418 71.5784 144.72 72.0703 144.229C72.699 144.543 73.6612 143.96 74.1797 143.701C75.8015 142.89 77.4654 141.91 78.8379 140.537C79.3059 140.069 79.4801 139.455 79.8926 139.043C79.4826 138.428 76.716 137.382 75.9375 137.285C75.4898 137.229 74.2389 137.939 73.8281 138.076C72.9426 138.371 71.688 138.195 71.0156 138.867Z"
   fill="#e5af25"
   fill-rule="nonzero"
   opacity="1"
   stroke="none"
   id="path2726" />
<path
   d="M91.3184 63.7207C87.9773 64.1646 88.2843 70.4004 91.9336 70.4004C93.9472 70.4004 94.9822 67.1812 94.2188 65.6543C93.5643 64.3454 92.6034 63.55 91.3184 63.7207Z"
   fill="#e5af25"
   fill-rule="nonzero"
   opacity="1"
   stroke="none"
   id="path2728" />
<path
   d="M85.6934 54.5801C82.8007 54.6496 82.7942 60.7452 85.166 61.084C88.0031 61.4893 88.2254 57.4469 87.3633 55.7227C86.9534 54.903 86.4194 54.5626 85.6934 54.5801Z"
   fill="#303b44"
   fill-rule="nonzero"
   opacity="1"
   stroke="none"
   id="path2730" />
<path
   d="M98.2617 54.4922C95.3723 54.4462 95.3678 61.084 98.5254 61.084C101.202 61.084 101.544 54.5445 98.2617 54.4922Z"
   fill="#303b44"
   fill-rule="nonzero"
   opacity="1"
   stroke="none"
   id="path2732" />
<path
   d="M93.6914 66.7969C93.2745 66.4269 92.5781 66.8547 92.0215 66.8848C91.4941 66.9133 90.9676 66.9727 90.4395 66.9727C89.1149 66.9727 90.0025 68.4671 90.791 68.5547C91.3428 68.616 94.8429 67.8186 93.6914 66.7969Z"
   fill="#1e2624"
   fill-rule="nonzero"
   opacity="1"
   stroke="none"
   id="path2734" />
</g>
</g>
</svg>
