<?xml version="1.0" encoding="UTF-8" standalone="no"?>
<!DOCTYPE svg PUBLIC "-//W3C//DTD SVG 1.1//EN" "http://www.w3.org/Graphics/SVG/1.1/DTD/svg11.dtd">
<!-- Created with Vectornator (http://vectornator.io/) -->
<svg height="100%" stroke-miterlimit="10" style="fill-rule:nonzero;clip-rule:evenodd;stroke-linecap:round;stroke-linejoin:round;" version="1.1" viewBox="0 0 1080 1080" width="100%" xml:space="preserve" xmlns="http://www.w3.org/2000/svg" xmlns:vectornator="http://vectornator.io" xmlns:xlink="http://www.w3.org/1999/xlink">
<defs/>
<g id="Layer-1" vectornator:layerName="Layer 1">
<g opacity="1">
<path d="M434.004 524.18C434.268 524.707 434.268 524.707 434.531 525.234C430.971 528.795 431.859 542.228 430.313 547.383C425.5 563.424 421.262 584.243 418.184 601.172C415.895 613.762 402.333 624.465 398.145 637.031C396.245 642.73 390.956 648.746 389.18 654.961C387.125 662.152 383.722 670.095 380.215 677.109C378.686 680.167 379.368 685.345 378.105 688.711C377.552 690.186 375.267 692.68 374.941 693.984C372.783 702.617 377.454 714.784 379.16 722.461C386.314 754.654 399.917 780.713 426.094 805.254C438.492 816.877 456.661 824.935 473.555 830.566C478.663 832.269 492.846 835.092 495.176 837.422C495.703 836.895 495.703 836.895 496.23 836.367C500.585 840.722 510.009 835.908 514.16 840.059C516.364 838.957 521.214 839.202 523.125 841.113C523.652 840.586 523.652 840.586 524.18 840.059C524.707 840.586 524.707 840.586 525.234 841.113C525.762 840.586 525.762 840.586 526.289 840.059C529.921 843.69 536.043 838.738 539.473 842.168C540 841.641 540 841.641 540.527 841.113C541.318 841.641 541.318 841.641 542.109 842.168C542.637 841.641 542.637 841.641 543.164 841.113C543.691 841.641 543.691 841.641 544.219 842.168C544.746 841.641 544.746 841.641 545.273 841.113C545.801 841.641 545.801 841.641 546.328 842.168C546.855 841.641 546.855 841.641 547.383 841.113C547.91 841.641 547.91 841.641 548.438 842.168C549.836 841.469 553.108 841.038 554.238 842.168C554.766 841.641 554.766 841.641 555.293 841.113C555.82 841.641 555.82 841.641 556.348 842.168C557.754 841.465 557.051 841.465 558.457 842.168C558.984 841.641 558.984 841.641 559.512 841.113C560.303 841.641 560.303 841.641 561.094 842.168C564.728 838.534 570.643 843.693 574.277 840.059C574.805 840.586 574.805 840.586 575.332 841.113C576.738 840.41 576.035 840.41 577.441 841.113C579.352 839.202 584.203 838.957 586.406 840.059C588.952 837.513 611.469 836.228 617.52 833.203C636.727 823.6 651.954 812.437 668.145 795.234C681.615 780.922 693.051 760.005 698.203 741.973C699.505 737.417 703.697 713.803 705.059 712.441C704.067 710.459 704.414 706.231 706.113 704.531C702.645 697.595 712.743 685.848 705.059 678.164C705.586 677.637 705.586 677.637 706.113 677.109C704.775 674.432 706.067 669.924 705.059 666.563C702.484 657.979 692.724 651.019 689.238 642.305C685.999 634.206 679.914 622.194 675.527 614.883C670.44 606.404 670.284 591.816 668.145 582.188C662.154 555.228 658.846 527.953 652.852 500.977C648.901 483.197 645.146 465.41 640.723 447.715C639.513 442.876 638.976 433.894 634.395 430.84C632.091 429.304 626.508 437.665 624.375 440.332C620.041 445.749 613.348 453.375 611.191 459.844C609.785 464.062 608.154 469.87 605.391 473.555C589.623 494.578 562.087 497.285 536.836 497.285C521.625 497.285 499.45 474.832 491.484 464.59C487.133 458.996 484.206 451.796 479.355 446.66C473.807 440.786 468.194 434.971 462.48 429.258C461.702 428.479 460.499 427.73 459.316 428.203C458.411 428.565 453.39 449.145 452.461 451.934C446.837 468.805 442.224 486.133 438.223 504.141C437.082 509.275 437.728 520.456 434.004 524.18Z" fill="#221b43" fill-rule="nonzero" opacity="1" stroke="none"/>
<path d="M406.582 537.363C406.846 537.891 406.846 537.891 407.109 538.418C403.256 542.271 402.993 553.403 401.309 558.457C393.709 581.256 388.732 603.979 383.379 628.066C382.269 633.059 375.999 652.331 378.105 656.543C374.969 659.68 374.9 692.888 376.523 694.512C380.032 691.003 383.351 672.17 386.016 665.508C396.449 639.424 415.731 615.729 422.402 589.043C425.822 575.364 428.533 560.138 431.367 547.383C432.572 541.961 431.543 529.277 435.586 525.234C435.322 524.707 435.322 524.707 435.059 524.18C438.782 520.456 438.136 509.275 439.277 504.141C442.863 488.006 446.654 470.142 452.461 455.625C455.478 448.083 454.524 435.105 460.371 429.258C484.275 445.194 492.249 477.365 518.379 490.43C520.318 491.399 521.901 493.552 524.18 494.121C534.777 496.77 539.602 498.34 553.184 498.34C573.481 498.34 598.778 488.89 608.027 470.391C612.986 460.474 617.537 450.725 625.43 440.859C627.426 438.364 631.374 430.384 634.395 431.895C637.569 433.482 638.87 445.577 639.668 448.77C643.956 465.923 647.441 483.219 651.27 500.449C657.264 527.426 660.572 554.701 666.563 581.66C668.727 591.402 668.818 606.4 674.473 614.883C676.976 618.638 678.258 624.563 680.273 628.594C686.615 641.277 695.448 655.154 704.004 666.563C705.91 664.656 705.91 662.141 704.004 660.234C704.531 659.707 704.531 659.707 705.059 659.18C700.544 654.665 706.952 646.835 702.422 642.305C702.949 641.777 702.949 641.777 703.477 641.25C701.565 639.338 703.279 637.361 701.367 635.449C702.449 633.285 700.773 623.781 699.258 622.266C699.785 621.738 699.785 621.738 700.313 621.211C697.893 618.791 694.452 602.347 696.094 599.063C692.075 595.044 695.547 585.332 691.348 581.133C692.235 579.358 690.474 573.404 689.238 572.168C689.766 571.641 689.766 571.641 690.293 571.113C685.613 566.434 683.423 544.695 681.328 537.363C673.644 510.47 664.791 483.627 654.434 457.734C650.866 448.815 646.42 431.264 640.195 425.039C648.311 416.923 657.662 404.01 648.633 394.98C649.16 394.453 649.16 394.453 649.688 393.926C648.169 392.408 645.816 391.612 643.887 390.234C645.593 388.528 646.075 389.101 647.578 387.598C645.319 385.339 640.899 384.785 638.086 383.379C631.387 380.029 624.435 373.946 619.102 368.613C614.039 363.551 614.066 355.14 610.137 351.211C617.646 336.192 595.275 303.698 577.969 322.734C572.235 329.042 572.168 344.817 572.168 351.738C572.168 378.046 594.348 440.722 546.855 438.223C538.947 437.806 531.009 429.509 526.289 424.512C523.345 421.395 522.116 416.257 521.016 411.855C515.18 388.512 531.644 371.453 536.836 350.684C540.27 336.949 536.741 328.44 527.344 319.043C526.633 318.332 523.707 316.48 522.598 316.406C499.823 314.888 490.701 350.569 478.301 365.449C470.663 374.614 462.598 383.504 453.516 391.289C451.186 393.286 445.649 395.544 444.023 398.145C442.386 400.765 451.511 417.975 451.406 418.184C445.433 430.13 442.696 442.726 437.168 455.625C433.754 463.591 430.171 471.485 428.203 479.355C426.51 486.129 420.937 493.653 419.238 500.449C416.819 510.127 413.526 530.419 406.582 537.363Z" fill="#fcf9f5" fill-rule="nonzero" opacity="1" stroke="none"/>
<path d="M542.109 265.254C540.198 267.166 538.22 265.452 536.309 267.363C535.781 266.836 535.781 266.836 535.254 266.309C533.99 267.572 531.541 268.144 529.98 267.363C527.812 269.532 514.81 272.312 510.996 274.219C497.04 281.197 484.607 292.705 475.137 305.332C464.571 319.419 455.135 338.689 450.352 355.43C449.064 359.936 446.062 379.231 444.023 381.27C444.551 381.797 444.551 381.797 445.078 382.324C441.589 385.813 443.672 392.168 444.023 397.09C444.059 397.586 444.727 397.793 445.078 398.145C456.464 386.759 470.735 377.939 480.41 364.395C485.993 356.578 491.698 348.303 495.176 339.609C501.644 323.44 519.963 308.236 532.09 326.426C534.161 329.532 536.952 332.743 537.363 336.445C539.099 352.07 529.693 364.728 525.234 378.105C523.759 382.532 518.711 388.949 518.379 393.926C516.87 416.562 529.324 440.644 555.293 439.277C566.548 438.685 573.984 426.212 576.387 416.602C581.047 397.961 578.266 379.772 575.332 360.703C573.751 350.424 570.615 332.193 579.023 322.734C587.286 313.439 603.355 318.284 606.445 330.645C607.955 336.685 608.441 342.159 609.082 348.574C609.354 351.289 610.127 349.121 609.082 351.211C611.942 354.071 611.876 360.529 614.883 364.395C621.085 372.369 643.394 392.684 655.488 388.652C655.488 384.594 657.303 379.393 654.434 376.523C655.373 374.644 654.978 370.74 653.379 369.141C653.906 368.613 653.906 368.613 654.434 368.086C648.312 361.964 652.254 347.449 645.996 341.191C646.814 339.555 644.734 331.492 643.359 330.117C643.887 329.59 643.887 329.59 644.414 329.063C639.946 324.594 639.898 315.208 636.504 309.551C631.517 301.24 625.183 293.887 617.52 287.402C609.088 280.268 594.817 272.63 584.297 270C579.887 268.898 571.715 269.547 568.477 266.309C566.597 267.248 562.693 266.853 561.094 265.254C556.699 267.451 549.609 261.973 545.273 266.309C544.746 265.781 544.746 265.781 544.219 265.254C543.691 265.781 543.691 265.781 543.164 266.309C542.637 265.781 542.637 265.781 542.109 265.254Z" fill="#221b43" fill-rule="nonzero" opacity="1" stroke="none"/>
<path d="M473.027 225.176C470.795 227.409 467.486 225.971 465.117 228.34C464.59 227.813 464.59 227.813 464.063 227.285C461.35 229.998 457.036 229.468 453.516 230.977C449.105 232.867 443.651 236.666 439.805 239.414C424.71 250.196 410.71 263.339 398.145 277.383C392.158 284.073 380.081 300.135 378.105 309.023C376.976 314.107 377.292 327.24 373.359 331.172C373.887 331.699 373.887 331.699 374.414 332.227C372.743 333.897 373.975 335.302 372.305 336.973C373.152 338.668 372.665 341.886 371.25 343.301C371.777 343.828 371.777 343.828 372.305 344.355C370.149 346.511 372.351 349.056 370.195 351.211C370.723 351.738 370.723 351.738 371.25 352.266C368.604 354.912 371.787 358.584 369.141 361.23C369.668 361.758 369.668 361.758 370.195 362.285C369.844 362.637 369.188 362.845 369.141 363.34C368.824 366.665 369.299 370.023 369.141 373.359C369.035 375.581 367.158 378.232 369.141 380.215C364.163 385.193 367.734 394.277 368.086 401.309C368.111 401.805 368.789 402.012 369.141 402.363C367.548 405.549 368.358 416.346 370.195 418.184C369.668 418.711 369.668 418.711 369.141 419.238C371.296 421.394 369.095 423.938 371.25 426.094C370.723 426.621 370.723 426.621 370.195 427.148C373.782 430.735 373.641 452.252 375.996 459.316C384.763 485.618 391.33 514.222 407.109 537.891C412.255 535.318 414.004 520.37 416.074 514.16C420.792 500.006 426.763 484.203 431.367 470.391C433.788 463.129 442.238 452.215 441.387 444.551C440.737 438.706 435.355 433.606 434.004 428.203C432.07 420.467 430.788 413.706 429.258 406.055C428.636 402.944 425.45 397.323 427.148 393.926C425.644 392.422 425.202 388.853 426.094 387.07C421.185 382.162 428.767 372.868 423.457 367.559C424.484 366.018 424.261 363.894 423.457 362.285C423.984 361.758 423.984 361.758 424.512 361.23C421.943 358.662 424.053 341.103 424.512 336.973C424.88 333.654 423.852 326.823 425.039 323.262C432.489 300.911 442.299 282.457 461.426 264.199C466.995 258.883 475.686 253.89 480.41 248.379C484.014 244.175 491.768 235.378 489.375 229.395C487.398 224.452 477.091 223.222 474.082 226.23C473.555 225.703 473.555 225.703 473.027 225.176Z" fill="#221b43" fill-rule="nonzero" opacity="1" stroke="none"/>
<path d="M616.992 218.32C614.981 220.332 607.212 223.306 611.191 227.285C610.664 227.813 610.664 227.813 610.137 228.34C614.031 232.234 614.485 241.521 618.047 246.27C622.338 251.992 629.155 256.509 633.34 262.09C643.007 274.979 651.965 292.124 657.07 307.441C658.438 311.544 662.207 314.872 663.398 319.043C666.321 329.272 670.563 338.583 673.418 348.574C674.958 353.965 673.263 365.294 677.109 369.141C676.582 369.668 676.582 369.668 676.055 370.195C676.582 370.723 676.582 370.723 677.109 371.25C676.582 371.777 676.582 371.777 676.055 372.305C680.288 376.538 677.461 384.258 677.109 390.234C677.08 390.731 676.406 390.938 676.055 391.289C676.582 391.816 676.582 391.816 677.109 392.344C675.198 394.255 676.912 396.233 675 398.145C675.527 398.672 675.527 398.672 676.055 399.199C674.133 401.121 671.523 416.486 670.254 420.293C667.843 427.527 662.684 437.417 658.125 443.496C656.05 446.263 651.797 449.143 651.797 452.988C651.797 457.377 656.504 464.5 658.125 468.281C662.09 477.532 666.352 490.484 669.199 500.449C671.978 510.176 675.256 520.33 678.164 530.508C678.853 532.92 678.373 535.463 680.273 537.363C694.195 523.442 705.44 501.94 711.387 484.102C713.684 477.209 716.529 469.334 718.242 462.48C718.917 459.782 718.268 456.127 720.352 454.043C719.824 453.516 719.824 453.516 719.297 452.988C724.592 447.693 720.963 430.228 725.098 426.094C723.762 423.422 724.058 420.278 726.152 418.184C725.625 417.656 725.625 417.656 725.098 417.129C727.99 414.236 724.314 410.002 727.207 407.109C723.984 400.663 726.625 392.672 727.207 385.488C727.247 384.993 727.91 384.785 728.262 384.434C726.71 382.882 726.71 381.767 728.262 380.215C724.008 375.961 730.406 368.648 726.152 364.395C726.68 363.867 726.68 363.867 727.207 363.34C726.68 362.813 726.68 362.813 726.152 362.285C726.68 361.758 726.68 361.758 727.207 361.23C723.024 357.047 726.843 347.683 722.461 343.301C722.988 342.773 722.988 342.773 723.516 342.246C719.787 338.517 720.796 331.616 717.188 328.008C717.451 327.48 717.451 327.48 717.715 326.953C711.281 320.52 709.042 305.213 703.477 297.422C693.634 283.642 685.904 268.01 674.473 255.234C663.866 243.38 653.169 233.825 640.195 225.176C635.3 221.912 625.162 222.271 621.211 218.32C620.684 218.848 620.684 218.848 620.156 219.375C619.629 218.848 619.629 218.848 619.102 218.32C617.695 219.023 618.398 219.023 616.992 218.32Z" fill="#221b43" fill-rule="nonzero" opacity="1" stroke="none"/>
<path d="M456.152 822.129C451.293 826.988 444.342 828.35 439.277 832.148C433.469 836.505 428.443 842.103 423.457 847.969C418.775 853.477 419.929 860.707 427.148 864.316C427.676 863.789 427.676 863.789 428.203 863.262C428.73 863.789 428.73 863.789 429.258 864.316C434.845 858.73 436.873 868.453 442.969 869.063C455.448 870.31 458.542 868.782 466.699 860.625C469.752 863.678 471.642 868.008 476.719 868.008C483.924 868.008 487.026 849.311 484.102 846.387C484.629 845.859 484.629 845.859 485.156 845.332C481.781 841.957 485.096 835.267 480.938 832.148C474.472 827.299 462.943 826.656 456.152 822.129Z" fill="#e8b32b" fill-rule="nonzero" opacity="1" stroke="none"/>
<path d="M589.043 853.242C589.57 853.77 589.57 853.77 590.098 854.297C581.117 863.278 602.593 871.861 610.664 863.789C620.477 873.602 616.86 865.833 625.43 870.117C629.42 866.127 633.886 860.116 639.141 865.371C640.83 863.682 656.062 861.198 650.215 855.352C650.742 854.824 650.742 854.824 651.27 854.297C649.494 852.521 649.292 849.947 648.105 847.969C643.47 840.243 634.545 831.922 627.012 827.402C626.143 826.881 620.861 830.812 620.156 831.094C613.226 833.866 602.006 833.441 595.371 837.422C590.92 840.093 592.404 849.882 589.043 853.242Z" fill="#e8b32b" fill-rule="nonzero" opacity="1" stroke="none"/>
<path d="M545.273 381.27C541.364 384.585 537.141 387.626 535.254 392.344C530.301 404.727 539.029 425.014 554.766 420.293C570.433 415.593 570.331 388.339 555.293 382.324C552.863 381.352 545.733 380.88 545.273 381.27Z" fill="#e8b32b" fill-rule="nonzero" opacity="1" stroke="none"/>
<path d="M510.996 326.426C494.608 329.743 497.893 367.374 515.215 365.449C531.148 363.679 532.542 322.064 510.996 326.426Z" fill="#2e3a43" fill-rule="nonzero" opacity="1" stroke="none"/>
<path d="M587.988 325.898C571.095 330.473 574.331 369.259 593.789 364.395C608.515 360.713 604.315 335.37 596.953 328.008C594.688 325.742 590.706 325.163 587.988 325.898Z" fill="#2e3a43" fill-rule="nonzero" opacity="1" stroke="none"/>
<path d="M558.457 400.254C552.797 397.424 545.779 399.728 539.473 400.254C535.81 400.559 543.629 414.524 554.238 409.219C558.344 407.166 560.204 403.253 563.203 400.254C561.575 398.625 560.086 398.625 558.457 400.254Z" fill="#333423" fill-rule="nonzero" opacity="1" stroke="none"/>
<path d="M642.832 390.234C647.102 394.504 649.649 397.579 653.379 401.309C654.794 399.893 655.281 396.675 654.434 394.98C660.418 388.996 646.932 384.084 642.832 390.234Z" fill="#d2cfcc" fill-rule="nonzero" opacity="1" stroke="none"/>
</g>
</g>
</svg>
