<?xml version="1.0" encoding="UTF-8" standalone="no"?>
<!DOCTYPE svg PUBLIC "-//W3C//DTD SVG 1.1//EN" "http://www.w3.org/Graphics/SVG/1.1/DTD/svg11.dtd">
<!-- Created with Vectornator (http://vectornator.io/) -->
<svg height="100%" stroke-miterlimit="10" style="fill-rule:nonzero;clip-rule:evenodd;stroke-linecap:round;stroke-linejoin:round;" version="1.1" viewBox="0 0 1080 1080" width="100%" xml:space="preserve" xmlns="http://www.w3.org/2000/svg" xmlns:vectornator="http://vectornator.io" xmlns:xlink="http://www.w3.org/1999/xlink">
<defs/>
<g id="Layer-1" vectornator:layerName="Layer 1">
<g opacity="1">
<path d="M460.371 377.578C455.152 382.797 456.586 391.15 454.043 398.145C451.209 405.939 448.089 414.05 446.133 421.875C445.273 425.314 445.429 431.017 442.969 433.477C444.454 436.446 440.994 441.377 440.332 444.023C437.787 454.205 436.576 463.859 434.531 474.082C431.411 489.682 428.749 503.248 426.094 517.852C424.167 528.448 419.369 539.349 418.184 550.02C416.577 564.475 398.979 579.378 395.508 593.262C393.873 599.802 388.435 605.67 386.016 611.719C384.771 614.829 384.758 619.162 383.379 622.266C382.751 623.679 380.701 625.026 380.215 626.484C379.49 628.659 380.539 631.212 379.688 633.34C377.468 638.889 372.602 644.482 375.996 651.27C375.469 651.797 375.469 651.797 374.941 652.324C377.097 654.48 374.895 657.024 377.051 659.18C376.523 659.707 376.523 659.707 375.996 660.234C378.068 662.306 380.226 679.262 381.27 683.438C385.836 701.703 395.898 720.839 408.164 736.172C422.61 754.23 436.811 759.766 452.461 771.504C459.661 776.904 472.401 776.151 478.828 782.578C479.355 782.314 479.355 782.314 479.883 782.051C481.435 783.603 482.55 782.608 484.102 784.16C484.629 783.633 484.629 783.633 485.156 783.105C486.477 784.426 486.999 783.894 488.32 785.215C488.848 784.688 488.848 784.688 489.375 784.16C492.932 787.718 499.712 785.005 503.086 788.379C503.613 787.852 503.613 787.852 504.141 787.324C506.324 789.507 517.01 790.645 519.434 789.434C522.595 792.595 528.985 790.488 532.617 790.488C543.883 790.488 557.073 790.488 567.422 790.488C571.641 790.488 577.493 793.074 581.133 789.434C581.66 789.961 581.66 789.961 582.188 790.488C584.588 788.088 587.697 790.779 590.098 788.379C590.625 788.906 590.625 788.906 591.152 789.434C592.943 787.643 594.635 789.115 596.426 787.324C598.834 788.528 600.31 787.228 602.227 786.27C604.958 784.904 610.139 785.063 613.301 784.16C622.307 781.587 629.173 776.919 636.504 772.031C663.985 753.71 680.865 729.189 694.512 701.895C698.749 693.419 701.483 681.863 703.477 672.891C704.238 669.463 702.356 665.046 705.059 662.344C703.957 660.14 704.202 655.29 706.113 653.379C705.586 652.852 705.586 652.852 705.059 652.324C706.499 650.884 706.499 650.6 705.059 649.16C709.788 644.43 706.289 635.808 706.113 629.121C706.059 627.076 704.594 623.785 706.113 622.266C705.586 621.738 705.586 621.738 705.059 621.211C705.586 620.684 705.586 620.684 706.113 620.156C703.45 617.493 706.889 621.429 705.059 615.938C703.84 612.283 698.779 605.463 696.621 602.227C690.406 592.904 683.186 583.668 679.219 573.75C662.782 532.657 660.382 484.236 650.742 440.859C647.539 426.446 644.278 411.838 640.723 397.617C639.237 391.676 638.598 384.946 634.395 380.742C616.561 389.659 615.408 409.574 605.391 422.93C584.023 451.421 533.99 455.345 507.832 431.367C492.081 416.929 482.643 399.323 467.754 384.434C465.402 382.081 463.545 379.165 460.371 377.578Z" fill="#221b43" fill-rule="nonzero" opacity="1" stroke="none"/>
<path d="M451.406 367.559C445.289 376.734 442.854 388.469 439.277 399.199C435.253 411.273 429.055 423.743 426.094 435.586C424.878 440.449 420.64 445.971 419.238 450.879C410.255 482.321 397.893 513.583 390.234 544.219C386.145 560.576 383.256 577.935 379.16 594.316C377.904 599.34 379.44 608.803 375.996 612.246C376.523 612.773 376.523 612.773 377.051 613.301C374.307 616.044 375.342 641.65 376.523 642.832C381.433 637.922 378.86 632.509 381.27 626.484C383.954 619.773 387.906 611.849 390.234 604.863C394.837 591.055 405.601 577.293 412.383 563.73C413.73 561.036 416.355 558.387 417.129 555.293C425.125 523.31 433.298 492.203 439.277 459.316C441.963 444.544 445.874 430.822 449.297 417.129C450.516 412.254 450.346 406.242 452.461 401.309C452.951 400.166 454.651 399.832 455.098 398.672C457.182 393.254 456.176 382.828 460.371 378.633C464.264 380.579 466.726 384.581 469.863 387.598C484.027 401.217 493.091 418.208 507.305 432.422C531.517 456.634 583.081 452.662 604.336 426.094C615.148 412.578 617.012 390.488 634.395 381.797C638.319 385.722 638.772 395.617 640.195 401.309C644.632 419.054 648.729 437.119 652.324 455.098C659.332 490.138 662.088 527.63 673.418 561.621C679.872 580.983 691.413 599.149 704.004 615.938C706.479 613.462 703.86 610.424 705.059 608.027C700.826 603.794 706.75 596.535 702.422 592.207C703.392 590.266 701.898 580.082 700.313 578.496C701.419 576.282 699.901 568.065 698.203 566.367C698.73 565.84 698.73 565.84 699.258 565.313C692.896 558.951 697.113 533.109 690.293 526.289C690.82 525.762 690.82 525.762 691.348 525.234C686.529 520.416 689.962 510.138 685.02 505.195C686.807 501.62 676.609 472.332 675 466.699C666.061 435.412 655.162 403.82 640.723 374.941C647.951 367.713 657.945 350.255 655.488 339.609C654.715 336.257 644.14 336.503 641.25 334.336C632.802 328 619.038 323.366 614.355 311.66C612.878 307.966 610.089 303.365 609.609 299.531C609.232 296.511 610.527 293.159 610.137 290.039C608.511 277.036 599.673 264.518 585.352 266.309C573.413 267.801 572.518 290.777 572.168 298.477C571.84 305.686 574.235 313.497 575.332 320.625C578.655 342.226 584.149 376.161 559.512 386.016C553.659 388.357 546.243 388.302 540.527 386.016C523.637 379.259 518.349 359.591 519.434 342.773C519.567 340.707 522.177 336.758 523.125 334.863C527.584 325.945 532.422 313.828 535.781 303.75C539.657 292.123 538.895 271.39 523.652 266.309C514.953 263.409 507.614 270.677 502.559 276.855C495.813 285.1 490.856 294.987 486.211 304.277C480.75 315.2 468.603 326.632 460.371 334.863C456.241 338.993 447.208 342.743 444.023 347.52C443.083 348.931 449.313 365.465 451.406 367.559Z" fill="#fcf9f5" fill-rule="nonzero" opacity="1" stroke="none"/>
<path d="M551.074 214.102C547.934 217.241 543.14 213.071 540 216.211C537.862 215.142 535.83 215.635 534.199 217.266C533.672 216.738 533.672 216.738 533.145 216.211C530.844 218.511 516.355 221.632 512.051 223.066C501.002 226.749 484.111 243.489 477.246 252.07C467.013 264.861 458.043 282.258 452.988 297.422C451.123 303.018 448.328 320.012 445.078 323.262C445.605 323.789 445.605 323.789 446.133 324.316C443.978 326.472 446.179 329.017 444.023 331.172C444.551 331.699 444.551 331.699 445.078 332.227C441.713 335.592 443.672 341.719 444.023 346.465C444.06 346.961 444.727 347.168 445.078 347.52C458.089 341.014 481.465 318.778 487.266 304.277C489.902 297.688 494.994 288.684 499.395 283.184C506.036 274.882 510.221 266.836 521.543 266.836C532.831 266.836 537.77 286.642 537.363 294.785C536.765 306.752 527.275 324.454 522.07 334.863C521.191 336.622 518.505 340.825 518.379 342.773C516.953 364.873 531.578 396.189 558.457 388.125C590.333 378.562 577.19 323.336 573.223 299.531C572.066 292.588 574.484 268.722 585.352 267.363C608.779 264.435 607.093 290.112 610.137 305.332C612.508 317.191 627.853 328.165 638.086 333.281C642.392 335.434 650.248 340.301 655.488 338.555C655.488 334.146 657.551 328.488 654.434 325.371C654.961 324.844 654.961 324.844 655.488 324.316C653.577 322.405 655.291 320.427 653.379 318.516C654.713 315.847 652.28 307.397 650.215 305.332C650.742 304.805 650.742 304.805 651.27 304.277C646.352 299.36 649.265 289.089 644.414 284.238C644.941 283.711 644.941 283.711 645.469 283.184C641.99 279.705 642.006 271.891 640.195 267.363C636.164 257.285 629.595 247.689 620.684 239.414C612.08 231.425 598.856 224.58 587.988 220.957C583.042 219.308 573.606 219.759 570.059 216.211C567.921 217.28 565.888 216.787 564.258 215.156C563.73 215.684 563.73 215.684 563.203 216.211C559.816 212.824 554.461 217.489 551.074 214.102Z" fill="#221b43" fill-rule="nonzero" opacity="1" stroke="none"/>
<path d="M795.762 375.469C795.234 375.205 795.234 375.205 794.707 374.941C791.908 377.741 787.674 377.989 784.16 379.16C771.403 383.412 759.785 388.57 746.191 391.289C743.229 391.882 737.275 395.005 734.063 393.398C729.655 397.806 718.58 393.06 713.496 398.145C711.801 397.297 708.583 397.784 707.168 399.199C706.641 398.672 706.641 398.672 706.113 398.145C705.586 398.672 705.586 398.672 705.059 399.199C701.073 397.207 695.595 397.061 692.402 400.254C690.962 398.814 690.679 398.814 689.238 400.254C687.798 398.814 687.514 398.814 686.074 400.254C685.547 399.727 685.547 399.727 685.02 399.199C684.229 399.727 684.229 399.727 683.438 400.254C681.997 398.814 681.714 398.814 680.273 400.254C676.639 396.619 670.724 401.779 667.09 398.145C666.563 398.672 666.563 398.672 666.035 399.199C665.244 398.672 665.244 398.672 664.453 398.145C663.926 398.672 663.926 398.672 663.398 399.199C662.871 398.672 662.871 398.672 662.344 398.145C661.816 398.672 661.816 398.672 661.289 399.199C658.643 396.553 654.97 399.736 652.324 397.09C651.27 398.145 651.27 398.145 650.215 399.199C654.462 403.446 656.252 414.675 658.125 420.293C664.192 438.494 672.272 456.841 677.109 476.191C678.64 482.313 681.003 500.652 685.547 505.195C688.829 503.007 692.702 503.388 696.094 501.504C702.499 497.946 710.127 494.433 716.133 490.43C734.843 477.956 753.759 466.576 772.559 454.043C778.332 450.194 787.116 446.999 792.07 442.441C805.196 430.365 816.707 415.77 826.348 401.309C830.148 395.608 832.61 385.027 837.422 380.215C836.895 379.688 836.895 379.688 836.367 379.16C843.87 371.657 842.668 359.559 828.457 361.23C824.016 361.753 798.777 372.454 795.762 375.469Z" fill="#221b43" fill-rule="nonzero" opacity="1" stroke="none"/>
<path d="M242.051 372.305C242.578 372.832 242.578 372.832 243.105 373.359C241.298 375.167 241.298 377.352 243.105 379.16C242.578 379.688 242.578 379.688 242.051 380.215C244.608 382.772 244.988 389.01 249.434 392.344C268.677 406.776 288.161 418.513 307.441 431.367C326.418 444.018 348.943 450.596 365.449 468.281C374.388 477.858 384.756 485.398 394.98 493.066C396.655 494.322 401.658 500.31 403.945 499.395C406.686 498.298 409.882 480.62 411.328 477.246C418.035 461.597 423.525 445.103 428.203 428.73C430.406 421.022 435.204 412.548 438.223 405C439.162 402.651 442.412 389.736 436.113 396.035C433.158 394.558 429.484 394.755 427.148 397.09C426.621 396.563 426.621 396.563 426.094 396.035C424.405 397.161 421.888 397.63 420.293 396.035C419.941 396.387 419.735 397.068 419.238 397.09C411.511 397.426 403.768 397.258 396.035 397.09C394.085 397.047 391.87 395.454 390.234 397.09C387.095 393.95 382.3 398.12 379.16 394.98C378.633 395.508 378.633 395.508 378.105 396.035C374.074 392.003 367.389 397.447 363.34 393.398C361.557 394.29 357.988 393.848 356.484 392.344C354.147 393.513 347.275 392.1 345.41 390.234C344.883 390.762 344.883 390.762 344.355 391.289C342.804 389.737 341.689 390.732 340.137 389.18C339.609 389.707 339.609 389.707 339.082 390.234C337.411 388.564 336.007 389.796 334.336 388.125C333.809 388.652 333.809 388.652 333.281 389.18C330.57 386.469 326.014 388.768 323.262 386.016C322.734 386.543 322.734 386.543 322.207 387.07C320.943 385.807 318.494 385.235 316.934 386.016C313.915 382.997 307.471 385.518 304.277 382.324C303.75 382.852 303.75 382.852 303.223 383.379C301.26 381.417 298.44 382.288 296.367 380.215C295.84 380.742 295.84 380.742 295.313 381.27C293.596 379.553 260.642 368.81 259.98 369.141C257.524 366.684 248.514 366.446 246.27 367.031C242.748 367.95 243.788 370.567 242.051 372.305Z" fill="#221b43" fill-rule="nonzero" opacity="1" stroke="none"/>
<path d="M452.988 770.449C444.019 779.419 428.649 786.148 418.184 793.125C415.101 795.18 406.317 800.249 405 804.199C400.376 818.071 414.078 812.335 416.074 816.328C417.128 818.436 411.877 820.33 413.438 823.711C417.564 832.652 433.268 828.138 438.223 823.184C440.894 825.855 440.028 826.91 443.496 829.512C446.391 831.683 451.508 830.668 454.043 833.203C455.311 831.936 457.834 833.156 459.316 832.148C461.629 830.576 468.706 822.618 471.445 818.965C475.338 813.774 473.994 803.76 478.301 799.453C477.773 798.926 477.773 798.926 477.246 798.398C478.368 797.276 479.999 786.913 478.301 785.215C482.874 780.642 457.372 772.641 452.988 770.449Z" fill="#e4b02b" fill-rule="nonzero" opacity="1" stroke="none"/>
<path d="M602.227 811.055C601.699 811.582 601.699 811.582 601.172 812.109C602.684 813.622 601.875 816.328 602.227 818.438C603.291 824.823 608.316 835.447 614.883 839.004C615.105 839.124 621.789 839.327 623.32 838.477C625.171 837.449 626.414 835.58 628.066 834.258C634.285 840.476 641.943 841.179 649.16 836.367C650.187 835.682 652.119 834.946 652.324 833.203C652.904 828.277 649.861 824.592 652.852 821.602C658.814 824.583 668.818 814.646 665.508 807.363C661.727 799.045 652.037 792.955 645.469 787.324C640.665 783.207 636.712 778.041 631.23 774.668C630.229 774.051 623.202 779.575 621.738 779.941C619.185 780.58 603.421 785.498 603.281 786.27C602.354 791.368 603.012 792.901 602.227 798.398C601.742 801.79 598.609 807.437 602.227 811.055Z" fill="#e4b02b" fill-rule="nonzero" opacity="1" stroke="none"/>
<path d="M547.383 330.645C525.866 333.259 531.661 371.391 553.184 370.195C564.871 369.546 566.367 352.963 566.367 344.883C566.367 335.963 554.156 329.822 547.383 330.645Z" fill="#e4b02b" fill-rule="nonzero" opacity="1" stroke="none"/>
<path d="M587.988 275.273C577.994 279.115 574.241 289.119 577.969 302.168C578.504 304.043 580.541 309.768 582.715 310.078C587.935 310.824 593.283 310.556 598.535 310.078C601.869 309.775 603.001 299.383 603.281 297.422C604.811 286.711 599.311 270.922 587.988 275.273Z" fill="#313c44" fill-rule="nonzero" opacity="1" stroke="none"/>
<path d="M512.051 275.801C500.479 277.519 495.646 301.066 505.195 309.023C509.654 312.739 516.817 310.061 522.598 309.551C524.988 309.34 526.661 301.618 526.816 300.059C527.114 297.08 527.344 294.087 527.344 291.094C527.344 282.818 519.529 274.69 512.051 275.801Z" fill="#313c44" fill-rule="nonzero" opacity="1" stroke="none"/>
<path d="M556.348 349.102C550.769 349.799 544.842 348.958 539.473 349.629C535.122 350.173 543.116 358.806 544.219 359.121C551.682 361.254 559.707 357.148 563.203 350.156C562.676 349.629 562.676 349.629 556.348 349.102Z" fill="#212925" fill-rule="nonzero" opacity="1" stroke="none"/>
</g>
</g>
</svg>
