<?xml version="1.0" encoding="UTF-8" standalone="no"?>
<!-- Created with Vectornator (http://vectornator.io/) -->

<svg
   height="100%"
   stroke-miterlimit="10"
   style="fill-rule:nonzero;clip-rule:evenodd;stroke-linecap:round;stroke-linejoin:round;"
   version="1.1"
   viewBox="0 0 180 180"
   width="100%"
   xml:space="preserve"
   id="svg689"
   sodipodi:docname="peng-7.svg"
   inkscape:version="1.2.2 (b0a84865, 2022-12-01)"
   xmlns:inkscape="http://www.inkscape.org/namespaces/inkscape"
   xmlns:sodipodi="http://sodipodi.sourceforge.net/DTD/sodipodi-0.dtd"
   xmlns="http://www.w3.org/2000/svg"
   xmlns:svg="http://www.w3.org/2000/svg"
   xmlns:vectornator="http://vectornator.io"><sodipodi:namedview
   id="namedview691"
   pagecolor="#ffffff"
   bordercolor="#666666"
   borderopacity="1.0"
   inkscape:showpageshadow="2"
   inkscape:pageopacity="0.0"
   inkscape:pagecheckerboard="0"
   inkscape:deskcolor="#d1d1d1"
   showgrid="false"
   inkscape:zoom="4.9544973"
   inkscape:cx="92.542184"
   inkscape:cy="93.652287"
   inkscape:window-width="1440"
   inkscape:window-height="900"
   inkscape:window-x="0"
   inkscape:window-y="0"
   inkscape:window-maximized="0"
   inkscape:current-layer="g682" />
<defs
   id="defs658" />
<g
   id="Layer-1"
   vectornator:layerName="Layer 1">
<g
   opacity="1"
   id="g682">
<path
   d="M76.7285 61.6113C76.1904 62.1494 76.4316 62.6667 76.2012 63.2813C75.1955 65.963 74.5414 68.6019 73.8281 71.4551C72.233 77.8354 71.3173 84.6814 69.5215 90.9668C68.9737 92.8839 67.1694 94.2439 66.5332 96.1523C66.3172 96.8004 65.8935 97.7084 65.4785 98.2617C64.3571 99.757 63.958 102.12 63.3691 103.887C63.1391 104.577 62.6645 105.387 62.4902 106.084C62.3899 106.485 62.6609 108.364 62.8418 108.545C62.7539 108.633 62.7539 108.633 62.666 108.721C63.0537 109.108 62.9126 110.042 63.0176 110.566C63.1371 111.164 64.5109 114.699 64.3359 115.049C65.1691 115.882 65.1667 117.284 65.8301 118.213C67.5263 120.588 69.1932 122.934 71.543 124.893C73.3318 126.383 75.6292 127.199 77.6953 128.232C78.5837 128.677 80.0794 128.771 80.6836 129.375C80.7715 129.287 80.7715 129.287 80.8594 129.199C81.0795 129.419 81.1666 129.331 81.3867 129.551C81.4746 129.463 81.4746 129.463 81.5625 129.375C81.9453 129.758 82.5121 129.534 82.8809 129.902C82.9688 129.814 82.9688 129.814 83.0566 129.727C83.8866 130.557 87.3862 129.837 88.0664 130.518C88.4146 130.343 88.7287 130.646 89.0332 130.342C89.0918 130.4 89.1262 130.515 89.209 130.518C90.8486 130.574 92.4902 130.518 94.1309 130.518C95.0701 130.518 95.936 130.254 96.9434 130.254C105.485 130.254 112.09 123.165 115.576 116.191C116.347 114.651 116.88 112.478 117.246 110.83C117.373 110.259 117.059 109.523 117.51 109.072C117.326 108.705 117.367 107.897 117.686 107.578C117.522 107.25 117.819 107.185 117.51 106.875C118.298 106.087 117.744 104.648 117.686 103.535C117.681 103.452 117.568 103.418 117.51 103.359C117.598 103.271 117.598 103.271 117.686 103.184C117.45 102.712 117.704 101.921 117.51 101.338C117.252 100.566 116.336 99.9424 116.016 99.1406C115.297 97.3437 113.771 95.7269 113.027 93.8672C111.091 89.0262 110.456 83.2741 109.6 78.1348C108.937 74.1564 108.014 70.2085 107.051 66.3574C106.689 64.9089 106.731 63.1373 105.645 62.0508C102.671 63.5376 102.293 67.4264 100.547 69.6094C98.4313 72.2538 95.2047 72.7477 92.0215 73.0371C91.0116 73.1289 89.94 73.3687 88.9453 73.0371C87.3652 72.5104 85.8883 71.692 84.5508 70.4883C81.9526 68.1499 80.5131 65.2201 78.0469 62.7539C77.6357 62.3427 77.2487 61.8714 76.7285 61.6113Z"
   fill="#68c40c"
   fill-rule="nonzero"
   opacity="1"
   stroke="none"
   id="path660"
   style="fill:#000000" />
<path
   d="M62.8418 100.898C62.3595 101.381 62.5915 106.009 62.7539 106.172C63.1329 105.793 63.0772 104.937 63.1934 104.414C63.4641 103.196 64.0586 101.453 64.6875 100.195C65.7388 98.0928 66.9552 96.0115 68.0273 93.8672C68.4723 92.9773 69.4459 91.9723 69.6973 90.9668C71.0045 85.738 71.7148 80.0381 73.2129 74.7949C74.0849 71.7428 74.6442 68.6428 75.498 65.6543C75.7082 64.9188 76.4061 62.1095 76.7285 61.7871C78.8544 62.8501 80.1442 65.3726 81.3867 67.2363C82.193 68.4458 83.4639 69.6651 84.4629 70.6641C88.4761 74.6772 97.1637 74.146 100.723 69.6973C101.309 68.9639 101.495 68.0652 101.865 67.3242C102.489 66.0766 103.413 64.7126 104.414 63.5449C104.716 63.1931 105.203 62.4472 105.645 62.2266C106.609 63.1915 106.446 65.0717 106.875 66.3574C107.714 68.8758 108.234 71.8532 108.721 74.5313C110.439 83.9798 111.292 93.7849 117.334 101.338C117.635 101.037 117.635 100.672 117.334 100.371C117.422 100.283 117.422 100.283 117.51 100.195C116.757 99.4428 117.825 98.1378 117.07 97.3828C117.158 97.2949 117.158 97.2949 117.246 97.207C116.927 96.8884 117.213 96.5589 116.895 96.2402C117.051 95.927 116.985 95.2763 116.719 95.0098C116.897 94.6535 116.815 94.3147 116.543 94.043C116.631 93.9551 116.631 93.9551 116.719 93.8672C116.44 93.5887 116.646 93.3546 116.367 93.0762C116.455 92.9883 116.455 92.9883 116.543 92.9004C116.089 92.446 116.468 91.6826 116.016 91.2305C116.104 91.1426 116.104 91.1426 116.191 91.0547C115.981 90.8441 115.886 90.4359 116.016 90.1758C115.621 89.7808 116.005 89.1987 115.576 88.7695C115.884 88.1532 115.167 86.9886 115.049 86.3965C114.602 84.1628 113.931 81.9243 113.379 79.7168C113.209 79.0381 113.177 77.8445 112.676 77.3438C112.72 77.2559 112.72 77.2559 112.764 77.168C111.949 76.3529 112.357 74.3879 111.533 73.5645C111.577 73.4766 111.577 73.4766 111.621 73.3887C110.931 72.6986 110.386 69.6844 110.039 68.6426C109.181 66.0685 107.964 63.5257 106.787 61.1719C108.147 59.8118 109.531 57.0872 109.248 55.1074C109.236 55.0254 109.154 54.9479 109.072 54.9316C108.139 54.7451 107.092 54.5129 106.172 54.0527C103.721 52.8275 102.641 50.7696 101.602 48.6914C102.005 48.2881 101.688 46.751 101.514 46.1426C100.87 43.8913 98.0284 41.5267 96.2402 44.209C93.8136 47.8489 97.106 54.646 96.2402 58.9746C95.788 61.236 93.9036 63.8392 91.3184 63.3691C87.8515 62.7388 86.5723 59.4361 86.5723 56.25C86.5723 55.618 87.0415 55.1789 87.1875 54.668C87.7455 52.7151 89.0417 50.8461 89.4727 48.6914C89.8991 46.5594 89.0702 42.6113 86.1328 42.9785C84.8266 43.1418 83.7233 44.7911 83.0566 45.791C80.9539 48.9452 79.3883 52.0708 76.2891 54.8438C75.8303 55.2542 74.2609 56.0877 74.0039 56.6016C73.6928 57.2238 74.9691 59.1904 75.2344 59.8535C75.3406 60.1192 74.6374 61.3809 74.5313 61.6992C73.8006 63.8911 72.4269 66.2521 71.7188 68.7305C71.4479 69.6785 71.2304 70.9377 70.752 71.8945C70.458 72.4824 70.0546 73.1048 69.873 73.7402C69.1263 76.354 68.0827 79.0232 67.2363 81.5625C66.2822 84.4248 65.7124 87.5555 64.8633 90.5273C64.1237 93.116 63.6853 95.8199 63.1934 98.5254C63.0971 99.0547 62.5556 100.326 62.8418 100.898Z"
   fill="#e6c583"
   fill-rule="nonzero"
   opacity="1"
   stroke="none"
   id="path662"
   style="fill:#ffffff" />
<path
   d="M89.0332 34.8926C88.9453 34.8047 88.9453 34.8047 88.8574 34.7168C88.4935 35.0807 86.0503 35.6232 85.3418 35.8594C83.4824 36.4792 80.6997 39.245 79.541 40.6934C77.8331 42.8282 76.3465 45.7066 75.498 48.252C75.1846 49.1923 74.7174 52.0209 74.1797 52.5586C74.2676 52.6465 74.2676 52.6465 74.3555 52.7344C73.9963 53.0936 74.3631 53.5177 74.0039 53.877C74.0918 53.9648 74.0918 53.9648 74.1797 54.0527C73.5302 54.7022 73.6745 57.0262 74.4434 56.5137C75.7893 55.6164 77.0886 54.3078 78.2227 53.1738C79.1683 52.2282 80.6846 50.7103 81.2109 49.3945C82.1273 47.1037 84.2642 43.1543 87.0117 43.1543C89.1127 43.1543 89.6429 47.3129 89.3848 48.6035C88.4653 53.2008 84.7765 55.383 87.3633 60.5566C87.8473 61.5247 88.8034 62.662 89.9121 63.1055C90.9844 63.5344 92.2637 63.6875 93.252 63.1934C97.5323 61.0532 96.7106 55.7038 96.0645 51.5039C95.8738 50.2649 95.2678 48.4857 95.7129 47.373C96.0758 46.4658 95.7271 43.5909 97.4707 43.2422C102.191 42.2981 100.771 49.0127 102.48 51.0645C103.803 52.6518 105.971 54.5647 108.018 55.0195C108.184 55.0566 109.188 55.3738 109.248 54.9316C109.323 54.3801 109.301 53.8159 109.248 53.2617C109.24 53.1792 109.131 53.1445 109.072 53.0859C109.247 52.7374 109.197 51.9803 108.896 51.6797C109.104 51.265 108.701 49.9024 108.369 49.5703C108.457 49.4824 108.457 49.4824 108.545 49.3945C107.725 48.5744 108.21 46.8619 107.402 46.0547C107.49 45.9668 107.49 45.9668 107.578 45.8789C107.1 45.4005 107.353 44.5116 106.875 44.0332C106.963 43.9453 106.963 43.9453 107.051 43.8574C105.996 42.8024 105.713 41.0093 104.678 39.8145C103.606 38.5781 102.317 37.981 101.25 36.9141C100.848 37.1149 99.9109 36.2998 99.5801 36.0352C99.4922 36.123 99.4922 36.123 99.4043 36.2109C98.5147 35.3213 96.7068 35.7107 95.8887 34.8926C95.8008 34.9805 95.8008 34.9805 95.7129 35.0684C95.4542 34.8097 95.2684 34.9754 95.0098 34.7168C94.61 34.9167 94.1769 34.8507 93.8672 34.541C93.7793 34.6289 93.7793 34.6289 93.6914 34.7168C93.6114 34.6368 89.7989 34.1269 89.0332 34.8926Z"
   fill="#68c40c"
   fill-rule="nonzero"
   opacity="1"
   stroke="none"
   id="path664"
   style="fill:#000000" />
<path
   d="M73.2129 64.5117C72.4062 65.3184 70.6695 64.7699 69.873 65.5664C69.7852 65.4785 69.7852 65.4785 69.6973 65.3906C69.0279 66.06 67.5792 65.3114 66.8848 66.0059C66.7969 65.918 66.7969 65.918 66.709 65.8301C66.3498 66.1893 65.9256 65.8224 65.5664 66.1816C65.4785 66.0938 65.4785 66.0938 65.3906 66.0059C65.0314 66.3651 64.6073 65.9982 64.248 66.3574C64.0137 66.2402 64.1309 66.2402 63.8965 66.3574C63.8086 66.2695 63.8086 66.2695 63.7207 66.1816C63.2386 66.6638 62.5329 66.0511 62.0508 66.5332C61.9629 66.4453 61.9629 66.4453 61.875 66.3574C61.7871 66.4453 61.7871 66.4453 61.6992 66.5332C61.6113 66.4453 61.6113 66.4453 61.5234 66.3574C60.8971 66.9838 59.8647 66.0826 59.2383 66.709C58.9982 66.4689 58.951 66.4689 58.7109 66.709C58.623 66.6211 58.623 66.6211 58.5352 66.5332C58.4473 66.6211 58.4473 66.6211 58.3594 66.709C58.2715 66.6211 58.2715 66.6211 58.1836 66.5332C58.0957 66.6211 58.0957 66.6211 58.0078 66.709C57.9199 66.6211 57.9199 66.6211 57.832 66.5332C57.5441 66.6772 57.4636 66.78 57.2168 66.5332C57.1289 66.6211 57.1289 66.6211 57.041 66.709C56.9531 66.6211 56.9531 66.6211 56.8652 66.5332C56.7773 66.6211 56.7773 66.6211 56.6895 66.709C56.6016 66.6211 56.6016 66.6211 56.5137 66.5332C56.4258 66.6211 56.4258 66.6211 56.3379 66.709C56.2061 66.6211 56.2061 66.6211 56.0742 66.5332C55.9863 66.6211 55.9863 66.6211 55.8984 66.709C55.8105 66.6211 55.8105 66.6211 55.7227 66.5332C55.6348 66.6211 55.6348 66.6211 55.5469 66.709C55.459 66.6211 55.459 66.6211 55.3711 66.5332C55.2832 66.6211 55.2832 66.6211 55.1953 66.709C55.1074 66.6211 55.1074 66.6211 55.0195 66.5332C54.9316 66.6211 54.9316 66.6211 54.8438 66.709C54.7559 66.6211 54.7559 66.6211 54.668 66.5332C54.2066 66.7639 54.044 66.3662 53.7012 66.709C52.7855 65.7933 51.1012 67.2731 50.1855 66.3574C49.7925 66.7504 49.5861 66.1658 49.2188 66.5332C48.9787 66.2932 48.9315 66.2932 48.6914 66.5332C48.0237 65.8655 46.8981 66.8493 46.2305 66.1816C46.1426 66.2695 46.1426 66.2695 46.0547 66.3574C45.9668 66.2695 45.9668 66.2695 45.8789 66.1816C45.791 66.2695 45.791 66.2695 45.7031 66.3574C45.6152 66.2695 45.6152 66.2695 45.5273 66.1816C45.4395 66.2695 45.4395 66.2695 45.3516 66.3574C44.6196 65.6255 39.9498 66.4048 39.1113 65.5664C38.8288 65.7076 38.2925 65.6265 38.0566 65.3906C37.9688 65.4785 37.9688 65.4785 37.8809 65.5664C37.5622 65.2478 37.2327 65.5335 36.9141 65.2148C36.3579 65.4929 33.3036 64.9164 33.6621 66.709C34.2519 69.6578 37.5045 70.948 39.8145 72.334C43.0305 74.2636 46.6432 76.163 50.1855 77.3438C52.7163 78.1873 55.0782 79.8243 57.6563 80.6836C59.1259 81.1735 60.7016 81.6091 62.2266 81.9141C63.0136 82.0715 64.4668 81.7812 65.0391 82.3535C65.127 82.2656 65.127 82.2656 65.2148 82.1777C65.5335 82.4964 65.863 82.2107 66.1816 82.5293C66.2695 82.4414 66.2695 82.4414 66.3574 82.3535C67.2162 83.2123 67.4459 81.6819 67.6758 81.2988C68.0032 80.7532 67.9769 79.7927 68.2031 79.1895C68.6203 78.077 69.0373 76.7085 69.5215 75.498C70.5703 72.8759 71.352 70.1746 72.4219 67.5C72.7322 66.7243 73.6906 65.2282 73.2129 64.5117Z"
   fill="#f5891d"
   fill-rule="nonzero"
   opacity="1"
   stroke="none"
   id="path666"
   style="fill:#000000" />
<path
   d="M134.033 66.709C133.945 66.6211 133.945 66.6211 133.857 66.5332C133.579 66.8117 133.345 66.6063 133.066 66.8848C132.979 66.7969 132.979 66.7969 132.891 66.709C132.529 67.0708 130.838 67.0251 130.342 67.0605C127.633 67.2541 124.969 67.2363 122.344 67.2363C121.721 67.2363 120.616 67.6182 120.059 67.0605C119.971 67.1484 119.971 67.1484 119.883 67.2363C119.564 66.9177 119.235 67.2034 118.916 66.8848C118.603 67.0414 117.952 66.9755 117.686 66.709C117.598 66.7969 117.598 66.7969 117.51 66.8848C117.271 66.6456 117.134 66.7724 116.895 66.5332C116.807 66.6211 116.807 66.6211 116.719 66.709C116.42 66.4105 116.138 66.6559 115.84 66.3574C115.524 66.5155 115.286 66.4185 115.049 66.1816C114.961 66.2695 114.961 66.2695 114.873 66.3574C114.662 66.1468 114.254 66.0516 113.994 66.1816C113.755 65.9425 113.618 66.0692 113.379 65.8301C113.291 65.918 113.291 65.918 113.203 66.0059C112.682 65.4849 111.666 65.9633 111.094 65.3906C110.834 65.5207 110.425 65.4254 110.215 65.2148C110.127 65.3027 110.127 65.3027 110.039 65.3906C109.819 65.1705 109.732 65.2592 109.512 65.0391C109.209 65.1904 108.518 64.7863 108.457 65.2148C108.378 65.7712 109.059 66.3766 109.16 66.8848C109.434 68.2523 110.151 69.5062 110.566 70.752C110.828 71.5368 110.851 72.7948 111.445 73.3887C111.401 73.4766 111.401 73.4766 111.357 73.5645C112.19 74.3975 111.74 76.3204 112.588 77.168C112.544 77.2559 112.544 77.2559 112.5 77.3438C113.329 78.1731 113.484 81.2614 113.906 82.5293C114.028 82.8957 114.294 83.9873 114.873 83.4082C114.961 83.4961 114.961 83.4961 115.049 83.584C115.604 83.0284 117.256 82.9004 118.037 82.7051C120.239 82.1546 122.363 80.9701 124.541 80.2441C125.508 79.9219 126.352 79.1241 127.354 78.8379C128.772 78.4325 129.882 77.6143 131.221 77.168C134.936 75.9295 137.918 73.8844 141.064 71.3672C142.294 70.3836 143.898 69.3095 145.02 68.0273C146.538 66.2916 147.194 64.248 144.141 64.248C141.958 64.248 140.105 65.257 138.164 65.7422C137.274 65.9647 134.572 66.1703 134.033 66.709Z"
   fill="#e94420"
   fill-rule="nonzero"
   opacity="1"
   stroke="none"
   id="path668"
   style="fill:#000000" />
<path
   d="M75.498 127.09C74.8202 127.768 73.7986 127.952 73.0371 128.496C71.603 129.52 70.2291 130.338 68.8184 131.396C68.3046 131.782 67.4896 132.102 67.0605 132.715C66.4821 133.541 67.6339 135.481 68.5547 134.561C68.6426 134.648 68.6426 134.648 68.7305 134.736C68.8184 134.648 68.8184 134.648 68.9063 134.561C69.0381 134.648 69.0381 134.648 69.1699 134.736C66.4429 137.463 70.7677 137.099 72.334 136.055C72.4219 136.143 72.4219 136.143 72.5098 136.23C71.9687 137.313 74.1574 137.527 74.5313 137.9C74.6191 137.813 74.6191 137.813 74.707 137.725C75.5186 138.536 77.1224 136.865 77.5195 136.406C78.2108 135.609 79.1075 134.097 79.3652 133.066C79.4815 132.602 79.3606 131.928 79.7168 131.572C79.6289 131.484 79.6289 131.484 79.541 131.396C80.0643 130.873 79.3693 130.074 79.8926 129.551C79.6525 129.311 79.6525 129.263 79.8926 129.023C78.8859 128.017 76.7159 127.699 75.498 127.09Z"
   fill="#dfad2d"
   fill-rule="nonzero"
   opacity="1"
   stroke="none"
   id="path670" />
<path
   d="M105.293 127.705C104.135 128.863 102.289 128.681 100.986 129.463C100.369 129.833 101.063 130.88 100.547 131.396C100.848 131.999 100.547 132.744 100.547 133.418C100.547 135.273 101.294 137.813 102.832 139.043C103.613 139.668 104.405 138.756 105.029 138.34C105.064 138.316 106.992 139.16 107.051 139.219C107.139 139.131 107.139 139.131 107.227 139.043C107.314 139.131 107.314 139.131 107.402 139.219C107.49 139.131 107.49 139.131 107.578 139.043C109.025 139.766 109.922 136.904 109.072 136.055C109.567 135.56 110.254 135.731 110.742 135.352C111.606 134.679 111.036 134.706 111.533 134.209C111.135 133.811 110.963 132.698 110.566 132.188C109.223 130.46 106.997 129.068 105.293 127.705Z"
   fill="#dfad2d"
   fill-rule="nonzero"
   opacity="1"
   stroke="none"
   id="path672" />
<path
   d="M91.2305 53.7891C87.6836 54.2124 88.5449 60.6091 92.1973 60.3809C94.0869 60.2628 94.4571 57.476 94.3945 56.1621C94.3255 54.7131 92.4549 53.6429 91.2305 53.7891Z"
   fill="#dfad2d"
   fill-rule="nonzero"
   opacity="1"
   stroke="none"
   id="path674" />
<path
   d="M83.7598 46.8457C83.5789 46.8621 83.2036 48.0469 83.6719 48.0762C85.0169 48.1602 86.3684 48.1323 87.7148 48.0762C88.136 48.0586 87.9933 46.8616 87.627 46.8457C86.3391 46.7897 85.0436 46.7294 83.7598 46.8457Z"
   fill="#3c4648"
   fill-rule="nonzero"
   opacity="1"
   stroke="none"
   id="path676" />
<path
   d="M89.6484 57.3047C89.9797 57.636 90.1527 58.3779 90.7031 58.5352C92.0455 58.9187 93.1414 58.1298 93.8672 57.041C93.7231 56.8969 89.8557 56.8902 89.6484 57.3047Z"
   fill="#28323a"
   fill-rule="nonzero"
   opacity="1"
   stroke="none"
   id="path678" />
<path
   d="M97.2311 46.8232L99.6679 46.8232C100.001 46.8232 100.271 47.1145 100.271 47.4738L100.271 47.4738C100.271 47.8331 100.001 48.1244 99.6679 48.1244L97.2311 48.1244C96.8982 48.1244 96.6284 47.8331 96.6284 47.4738L96.6284 47.4738C96.6284 47.1145 96.8982 46.8232 97.2311 46.8232Z"
   fill="#28323a"
   fill-rule="nonzero"
   opacity="1"
   stroke="none"
   id="path680" />
</g>
<path
   d="M97.2311 46.8232L99.6679 46.8232C100.001 46.8232 100.271 47.1145 100.271 47.4738L100.271 47.4738C100.271 47.8331 100.001 48.1244 99.6679 48.1244L97.2311 48.1244C96.8982 48.1244 96.6284 47.8331 96.6284 47.4738L96.6284 47.4738C96.6284 47.1145 96.8982 46.8232 97.2311 46.8232Z"
   fill="#28323a"
   fill-rule="nonzero"
   opacity="1"
   stroke="none"
   id="path684" />
<path
   d="M97.2311 46.8232L99.6679 46.8232C100.001 46.8232 100.271 47.1145 100.271 47.4738L100.271 47.4738C100.271 47.8331 100.001 48.1244 99.6679 48.1244L97.2311 48.1244C96.8982 48.1244 96.6284 47.8331 96.6284 47.4738L96.6284 47.4738C96.6284 47.1145 96.8982 46.8232 97.2311 46.8232Z"
   fill="#28323a"
   fill-rule="nonzero"
   opacity="1"
   stroke="none"
   id="path686" />
</g>
</svg>
