<?xml version="1.0" encoding="UTF-8" standalone="no"?>
<!DOCTYPE svg PUBLIC "-//W3C//DTD SVG 1.1//EN" "http://www.w3.org/Graphics/SVG/1.1/DTD/svg11.dtd">
<!-- Created with Vectornator (http://vectornator.io/) -->
<svg height="100%" stroke-miterlimit="10" style="fill-rule:nonzero;clip-rule:evenodd;stroke-linecap:round;stroke-linejoin:round;" version="1.1" viewBox="0 0 1080 1080" width="100%" xml:space="preserve" xmlns="http://www.w3.org/2000/svg" xmlns:vectornator="http://vectornator.io" xmlns:xlink="http://www.w3.org/1999/xlink">
<defs/>
<g id="Layer-1" vectornator:layerName="Layer 1">
<g opacity="1">
<path d="M491.484 781.523C494.004 780.264 505.971 782.826 507.305 784.16C507.832 783.633 507.832 783.633 508.359 783.105C510.271 785.017 512.248 783.303 514.16 785.215C514.688 784.688 514.688 784.688 515.215 784.16C517.615 786.561 520.725 783.869 523.125 786.27C523.652 785.742 523.652 785.742 524.18 785.215C524.707 785.742 524.707 785.742 525.234 786.27C525.762 785.742 525.762 785.742 526.289 785.215C530.583 789.509 538.621 783.836 542.109 787.324C542.637 786.797 542.637 786.797 543.164 786.27C543.691 786.797 543.691 786.797 544.219 787.324C544.746 786.797 544.746 786.797 545.273 786.27C545.801 786.797 545.801 786.797 546.328 787.324C546.855 786.797 546.855 786.797 547.383 786.27C547.91 786.797 547.91 786.797 548.438 787.324C548.965 786.797 548.965 786.797 549.492 786.27C551.22 787.133 551.703 787.75 553.184 786.27C553.711 786.797 553.711 786.797 554.238 787.324C554.766 786.797 554.766 786.797 555.293 786.27C555.82 786.797 555.82 786.797 556.348 787.324C556.875 786.797 556.875 786.797 557.402 786.27C559.273 787.205 559.459 785.689 561.094 787.324C564.728 783.69 570.643 788.849 574.277 785.215C574.805 785.742 574.805 785.742 575.332 786.27C575.859 785.742 575.859 785.742 576.387 785.215C576.914 785.742 576.914 785.742 577.441 786.27C579.842 783.869 582.951 786.561 585.352 784.16C585.879 784.688 585.879 784.688 586.406 785.215C590.466 781.155 600.24 785.092 604.336 780.996C611.75 784.703 635.796 767.757 641.25 764.121C659.809 751.748 686.031 722.589 693.457 700.313C696.402 691.477 700.654 682.26 702.422 673.418C703.181 669.62 702.615 660.041 705.059 657.598C704.013 655.507 704.31 650.964 706.113 649.16C705.586 648.633 705.586 648.633 705.059 648.105C706.906 646.259 705.586 646.909 705.586 644.941C705.586 638.084 706.281 631.231 706.113 624.375C706.101 623.878 705.41 623.672 705.059 623.32C705.586 622.793 705.586 622.793 706.113 622.266C705.586 621.738 705.586 621.738 705.059 621.211C705.586 620.684 705.586 620.684 706.113 620.156C705.545 619.02 705.545 617.073 706.113 615.938C704.967 614.792 705.682 612.687 705.059 611.191C703.962 608.56 699.521 601.896 697.676 599.59C664.441 558.046 663.212 497.934 652.852 446.133C649.282 428.284 644.662 410.599 640.723 392.871C639.674 388.151 638.356 378.637 634.395 375.996C631.423 374.015 627.217 382.132 624.902 384.961C616.558 395.16 613.304 404.994 606.973 415.547C595.148 435.255 573.224 440.611 551.074 441.914C524.244 443.492 501.047 428.062 487.266 403.945C480.746 392.536 471.792 383.725 461.426 373.359C461.148 373.081 460.764 372.832 460.371 372.832C457.694 372.832 454.299 394.596 451.934 398.145C447.909 404.181 447.223 416.479 445.078 423.984C437.906 449.088 433.186 472.276 429.258 497.813C427.291 510.598 421.823 524.967 419.238 537.891C418.235 542.905 417.78 548.583 415.02 553.184C400.744 576.975 386.808 601.825 379.16 628.594C378.13 632.198 375.585 635.922 374.941 639.141C373.151 648.092 377.57 659.14 379.16 667.09C385.271 697.644 399.756 728.462 426.094 750.41C438.794 760.994 452.949 767.269 468.809 773.613C473.659 775.554 489.521 779.56 491.484 781.523Z" fill="#221b43" fill-rule="nonzero" opacity="1" stroke="none"/>
<path d="M449.824 364.922C450.088 365.449 450.088 365.449 450.352 365.977C447.518 368.81 446.529 374.477 445.078 378.105C440.308 390.03 435.878 402.014 431.367 415.547C427.739 426.432 420.41 437.638 418.184 448.77C416.431 457.534 411.316 466.749 409.219 475.137C403.167 499.342 394.842 520.514 389.18 543.164C385.839 556.525 383.192 570.898 380.215 584.297C379.248 588.647 380.255 596.913 377.051 600.117C377.578 600.645 377.578 600.645 378.105 601.172C375.018 604.26 374.855 638 376.523 639.668C379.797 636.394 379.253 627.498 381.27 622.793C384.449 615.375 388.167 605.813 391.289 598.008C398.808 579.211 412.948 564.143 419.238 545.273C422.553 535.33 423.115 524.028 426.094 513.105C431.682 492.616 435.802 468.628 440.332 448.242C443.953 431.948 446.586 414.137 452.988 399.199C455.934 392.326 455.268 378.989 460.371 373.887C467.821 377.611 472.497 385.315 478.301 391.289C481.859 394.952 483.713 400.198 486.211 403.945C505.553 432.958 526.32 446.722 560.566 442.441C577.535 440.32 601.01 433.091 608.027 415.547C612.505 404.352 617.975 395.244 625.957 385.488C628.179 382.772 630.719 375.213 634.395 377.051C637.238 378.472 638.737 390.201 639.668 393.926C643.935 410.995 647.814 428.328 651.27 445.605C662.892 503.719 665.795 565.341 704.004 611.191C706.366 608.83 703.913 606.1 705.059 603.809C700.645 599.395 706.812 591.851 702.422 587.461C703.313 585.678 702.871 582.109 701.367 580.605C702.449 578.441 700.773 568.937 699.258 567.422C699.785 566.895 699.785 566.895 700.313 566.367C698.522 564.576 699.994 562.885 698.203 561.094C698.73 560.566 698.73 560.566 699.258 560.039C695.637 556.418 698.574 548.808 695.039 545.273C695.566 544.746 695.566 544.746 696.094 544.219C691.565 539.69 694.29 522.376 689.238 517.324C689.766 516.797 689.766 516.797 690.293 516.27C685.63 511.607 682.088 486.612 680.273 479.355C674.22 455.141 665.737 430.321 656.016 407.637C651.486 397.068 647.946 377.946 640.195 370.195C644.837 365.553 650.268 358.433 652.324 352.266C653.403 349.028 652.981 343.699 655.488 341.191C654.961 340.664 654.961 340.664 654.434 340.137C656.175 338.395 656.805 334.368 653.906 333.281C640.389 328.212 627.903 325.011 617.52 311.66C607.878 299.264 613.876 282.896 605.391 271.582C598.525 262.427 588.145 257.187 579.023 266.309C570.257 275.075 572.062 295.205 573.75 305.332C577.774 329.475 585.729 360.6 565.313 379.16C549.154 393.85 520.848 372.232 519.434 353.848C517.502 328.734 535.796 313.606 537.891 290.566C538.832 280.216 533.722 263.25 521.543 261.035C512.85 259.455 505.435 268.274 500.977 274.219C495.664 281.302 493.123 289.163 488.32 296.367C480.206 308.539 469.934 320.554 459.316 331.172C455.649 334.839 446.172 339.003 444.023 343.301C441.339 348.67 453.77 360.976 449.824 364.922Z" fill="#f1efeb" fill-rule="nonzero" opacity="1" stroke="none"/>
<path d="M542.109 210.41C539.002 213.518 534.631 209.979 531.563 213.047C524.545 209.538 502.416 225.271 496.23 229.395C470.91 246.275 459.129 276.891 450.352 303.223C448.499 308.78 442.111 321.547 445.078 327.48C441.589 330.97 443.672 337.324 444.023 342.246C444.059 342.742 444.727 342.949 445.078 343.301C452.953 335.426 463.825 327.718 471.973 319.57C486.45 305.093 491.275 286.583 504.141 272.109C509.458 266.127 518.188 257.571 526.289 264.199C553.341 286.333 525.362 309.442 521.016 331.172C519.469 338.903 518.063 345.322 518.379 353.848C519.022 371.224 542.708 389.68 559.512 383.379C591.205 371.494 575.435 321.321 573.75 296.895C572.989 285.853 573.67 262.09 590.098 262.09C596.895 262.09 604.833 269.35 606.445 275.801C607.982 281.947 607.507 289.54 609.082 295.84C612.936 311.257 626.113 324.062 641.25 330.117C645.273 331.726 650.747 335.389 655.488 333.809C655.488 329.575 657.427 324.146 654.434 321.152C655.596 318.827 647.906 286.148 645.469 283.711C646.336 281.976 644.465 276.379 643.359 275.273C643.887 274.746 643.887 274.746 644.414 274.219C641.709 271.514 641.363 265.593 640.195 262.09C637.56 254.185 630.148 242.426 623.32 237.305C615.475 231.421 607.656 225.254 599.063 220.957C593.984 218.418 586.205 218.119 582.188 214.102C581.66 214.629 581.66 214.629 581.133 215.156C576.244 210.268 565.957 214.746 561.621 210.41C557.772 212.335 546.079 212.395 542.109 210.41Z" fill="#221b43" fill-rule="nonzero" opacity="1" stroke="none"/>
<path d="M769.395 397.09C768.867 396.563 768.867 396.563 768.34 396.035C766.185 398.19 763.64 395.989 761.484 398.145C759.605 397.205 755.701 397.6 754.102 399.199C753.574 398.672 753.574 398.672 753.047 398.145C752.256 398.672 752.256 398.672 751.465 399.199C750.938 398.672 750.938 398.672 750.41 398.145C746.776 401.779 740.861 396.619 737.227 400.254C736.699 399.727 736.699 399.727 736.172 399.199C735.645 399.727 735.645 399.727 735.117 400.254C734.59 399.727 734.59 399.727 734.063 399.199C733.535 399.727 733.535 399.727 733.008 400.254C732.217 399.727 732.217 399.727 731.426 399.199C729.986 400.639 729.702 400.639 728.262 399.199C724.875 402.586 719.52 397.922 716.133 401.309C712.766 397.942 705.584 403.416 701.367 399.199C700.84 399.727 700.84 399.727 700.313 400.254C699.785 399.727 699.785 399.727 699.258 399.199C698.73 399.727 698.73 399.727 698.203 400.254C696.048 398.099 693.503 400.3 691.348 398.145C690.82 398.672 690.82 398.672 690.293 399.199C689.766 398.672 689.766 398.672 689.238 398.145C688.711 398.672 688.711 398.672 688.184 399.199C686.272 397.288 684.295 399.002 682.383 397.09C681.855 397.617 681.855 397.617 681.328 398.145C679.729 396.545 675.825 396.15 673.945 397.09C672.034 395.178 670.056 396.892 668.145 394.98C667.617 395.508 667.617 395.508 667.09 396.035C664.045 392.991 659.663 396.519 656.543 393.398C654.514 394.413 652.794 392.401 650.742 394.453C652.697 398.364 652.89 403.495 654.961 407.637C660.458 418.631 665.647 433.174 669.199 445.605C670.743 451.01 671.595 462.239 675.527 466.172C674.276 468.675 677.531 473.447 678.164 475.664C680.07 482.336 681.328 498.34 686.074 503.086C688.404 500.756 696.037 500.468 699.258 499.395C707.532 496.636 717.038 492.35 725.098 488.32C741.325 480.207 757.353 471.138 773.613 463.008C780.89 459.369 790.476 457.04 797.344 452.461C808.865 444.78 818.62 436.078 829.512 426.094C833.566 422.377 837.394 419.077 841.113 415.02C844.535 411.286 867.514 385.522 862.207 380.215C862.734 379.688 862.734 379.688 863.262 379.16C857.873 373.772 849.63 373.961 842.168 375.996C824.456 380.827 807.041 389.368 788.906 393.398C783.813 394.53 773.016 393.468 769.395 397.09Z" fill="#221b43" fill-rule="nonzero" opacity="1" stroke="none"/>
<path d="M225.176 380.215C222.774 382.617 222.057 380.152 219.375 383.906C217.574 386.428 218.738 389.794 219.375 392.344C223.558 409.077 240.424 416.785 254.18 425.039C289.32 446.123 327.051 462.266 363.34 480.41C370.961 484.221 379.646 488.834 387.598 491.484C392.129 492.995 398.947 493.868 402.363 497.285C407.553 493.825 408.296 481.069 410.273 475.137C415.843 458.427 422.525 441.545 428.203 424.512C430.966 416.224 435.157 405.857 439.277 397.617C440.64 394.892 440.328 388.129 436.113 392.344C435.586 391.816 435.586 391.816 435.059 391.289C433.624 392.724 432.802 391.964 431.367 393.398C430.84 392.871 430.84 392.871 430.313 392.344C428.897 393.759 425.679 394.246 423.984 393.398C420.108 397.274 413.402 391.852 409.219 396.035C408.691 395.508 408.691 395.508 408.164 394.98C405.271 397.873 401.037 394.197 398.145 397.09C397.617 396.563 397.617 396.563 397.09 396.035C392.497 400.628 381.275 392.338 375.469 398.145C368.981 391.657 356.643 402.522 350.156 396.035C349.629 396.563 349.629 396.563 349.102 397.09C343.059 394.069 316.874 397.031 313.242 393.398C312.715 393.926 312.715 393.926 312.188 394.453C309.541 391.807 305.869 394.99 303.223 392.344C302.695 392.871 302.695 392.871 302.168 393.398C299.768 390.998 296.658 393.689 294.258 391.289C293.73 391.816 293.73 391.816 293.203 392.344C291.048 390.188 288.503 392.39 286.348 390.234C285.82 390.762 285.82 390.762 285.293 391.289C283.138 389.134 280.593 391.335 278.438 389.18C277.91 389.707 277.91 389.707 277.383 390.234C275.592 388.444 273.9 389.916 272.109 388.125C271.582 388.652 271.582 388.652 271.055 389.18C265.953 384.078 253.688 388.688 248.379 383.379C247.852 383.906 247.852 383.906 247.324 384.434C243.88 380.989 236.53 383.659 233.086 380.215C232.559 380.742 232.559 380.742 232.031 381.27C231.504 380.742 231.504 380.742 230.977 380.215C228.962 381.222 227.964 379.536 226.23 381.27C225.703 380.742 225.703 380.742 225.176 380.215Z" fill="#221b43" fill-rule="nonzero" opacity="1" stroke="none"/>
<path d="M405 808.945C407.525 807.683 408.94 808.14 410.801 810C410.537 810.527 410.537 810.527 410.273 811.055C412.634 813.415 410.629 817.037 412.383 819.492C415.321 823.606 418.431 821.321 421.348 824.238C421.875 823.711 421.875 823.711 422.402 823.184C422.93 823.711 422.93 823.711 423.457 824.238C426.71 820.986 431.141 821.301 435.059 817.383C439.059 821.383 436.223 822.619 442.441 827.402C453.056 835.567 467.746 818.186 472.5 811.055C474.327 808.315 475.468 801.292 476.191 798.398C477.121 794.68 476.58 787.99 479.355 785.215C478.828 784.688 478.828 784.688 478.301 784.16C486.163 776.298 464.493 770.832 458.262 768.34C456.627 767.686 451.529 763.796 449.824 764.648C447.692 765.715 444.825 769.057 442.969 770.449C434.244 776.993 424.006 782.694 415.02 789.434C411.63 791.976 397.959 801.904 405 808.945Z" fill="#e7b229" fill-rule="nonzero" opacity="1" stroke="none"/>
<path d="M630.176 770.449C626.934 773.691 605.58 780.238 605.391 780.996C604.243 785.585 605.019 798.242 602.227 801.035C605.397 804.206 602.036 810.865 605.391 814.219C604.863 814.746 604.863 814.746 604.336 815.273C606.066 817.004 606.113 819.799 606.445 822.129C608.163 834.15 621.692 840.128 629.121 828.984C633.166 833.029 634.228 833.795 638.086 836.367C638.613 835.84 638.613 835.84 639.141 835.313C640.855 837.027 642.699 837.027 644.414 835.313C650.939 838.575 658.516 824.629 652.324 818.438C656.19 814.572 665.35 818.357 667.09 810.527C670.426 795.515 641.798 776.26 630.176 770.449Z" fill="#e7b229" fill-rule="nonzero" opacity="1" stroke="none"/>
<path d="M548.965 325.898C533.694 325.364 529.869 348.757 538.945 359.648C540.777 361.847 542.428 365.15 545.273 365.449C561.639 367.172 567.057 354.618 566.367 340.137C565.941 331.178 555.428 326.124 548.965 325.898Z" fill="#e7b229" fill-rule="nonzero" opacity="1" stroke="none"/>
<path d="M512.051 271.055C495.451 274.573 495.686 310.078 516.27 310.078C522.189 310.078 525.164 301.396 526.289 296.895C529.272 284.962 524.843 268.344 512.051 271.055Z" fill="#2f3a43" fill-rule="nonzero" opacity="1" stroke="none"/>
<path d="M589.57 270.527C573.246 270.117 573.597 307.418 587.461 309.551C607.229 312.592 610.586 271.055 589.57 270.527Z" fill="#2f3a43" fill-rule="nonzero" opacity="1" stroke="none"/>
<path d="M558.984 344.355C552.665 345.935 545.962 344.854 539.473 345.41C538.367 345.505 538.279 346.822 538.418 347.52C539.519 353.026 544.832 355.43 550.02 355.43C556.364 355.43 559.576 349.037 563.203 345.41C562.676 344.883 562.676 344.883 558.984 344.355Z" fill="#262b22" fill-rule="nonzero" opacity="1" stroke="none"/>
</g>
</g>
</svg>
