<?xml version="1.0" encoding="UTF-8" standalone="no"?>
<!-- Created with Vectornator (http://vectornator.io/) -->

<svg
   height="100%"
   stroke-miterlimit="10"
   style="fill-rule:nonzero;clip-rule:evenodd;stroke-linecap:round;stroke-linejoin:round;"
   version="1.1"
   viewBox="0 0 180 180"
   width="100%"
   xml:space="preserve"
   id="svg29"
   sodipodi:docname="peng-1.svg"
   inkscape:version="1.2.2 (b0a84865, 2022-12-01)"
   xmlns:inkscape="http://www.inkscape.org/namespaces/inkscape"
   xmlns:sodipodi="http://sodipodi.sourceforge.net/DTD/sodipodi-0.dtd"
   xmlns="http://www.w3.org/2000/svg"
   xmlns:svg="http://www.w3.org/2000/svg"
   xmlns:vectornator="http://vectornator.io"><sodipodi:namedview
   id="namedview31"
   pagecolor="#ffffff"
   bordercolor="#666666"
   borderopacity="1.0"
   inkscape:showpageshadow="2"
   inkscape:pageopacity="0.0"
   inkscape:pagecheckerboard="0"
   inkscape:deskcolor="#d1d1d1"
   showgrid="false"
   inkscape:zoom="4.2697917"
   inkscape:cx="118.15565"
   inkscape:cy="96.257624"
   inkscape:window-width="1440"
   inkscape:window-height="900"
   inkscape:window-x="0"
   inkscape:window-y="0"
   inkscape:window-maximized="0"
   inkscape:current-layer="g26" />
<defs
   id="defs2" />
<g
   id="Layer-1"
   vectornator:layerName="Layer 1">
<g
   opacity="1"
   id="g26">
<path
   d="M76.7285 71.6309C75.8367 72.5227 75.4694 75.5543 75.0586 76.9922C73.8328 81.2826 72.8869 85.4776 71.9824 90C71.7681 91.0718 71.3252 95.2275 70.6641 95.8887C71.0322 96.6249 70.1278 98.5698 69.9609 99.4043C69.5662 101.378 68.2204 103.237 67.3242 105.029C67.0786 105.521 66.5338 105.994 66.3574 106.523C65.9424 107.768 65.0782 109.258 64.5117 110.391C64.0735 111.267 63.2318 114.802 62.7539 114.961C62.7539 115.972 62.413 115.901 62.4902 116.982C62.5796 118.234 62.9604 119.509 63.1934 120.674C63.3172 121.293 63.2532 122.228 63.7207 122.695C63.3334 123.47 65.33 126.881 65.7422 127.705C67.7643 131.749 71.8042 136.259 76.2012 137.725C77.8987 138.29 79.5818 139.163 81.2109 139.57C81.7342 139.701 82.9139 139.603 83.3203 140.01C83.6028 139.869 84.1392 139.95 84.375 140.186C84.4629 140.098 84.4629 140.098 84.5508 140.01C84.91 140.369 85.3341 140.002 85.6934 140.361C85.7813 140.273 85.7813 140.273 85.8691 140.186C86.2692 140.586 86.7874 140.137 87.1875 140.537C87.2754 140.449 87.2754 140.449 87.3633 140.361C87.4512 140.449 87.4512 140.449 87.5391 140.537C87.627 140.449 87.627 140.449 87.7148 140.361C88.2794 140.926 89.1718 140.148 89.7363 140.713C89.8242 140.625 89.8242 140.625 89.9121 140.537C90.0439 140.625 90.0439 140.625 90.1758 140.713C90.2637 140.625 90.2637 140.625 90.3516 140.537C90.4395 140.625 90.4395 140.625 90.5273 140.713C90.6152 140.625 90.791 140.625 90.8789 140.713C90.9668 140.625 91.1426 140.625 91.2305 140.713C91.3184 140.625 91.7747 140.784 92.0215 140.537C92.1094 140.625 92.2852 140.625 92.373 140.537C92.4609 140.625 92.6367 140.625 92.7246 140.537C92.8125 140.625 92.9883 140.625 93.0762 140.537C93.7211 140.86 95.431 140.819 95.8887 140.361C95.9766 140.449 95.9766 140.449 96.0645 140.537C96.2988 140.42 96.1816 140.42 96.416 140.537C96.7345 140.219 97.5429 140.178 97.9102 140.361C98.2288 140.043 98.5583 140.328 98.877 140.01C98.9648 140.098 98.9648 140.098 99.0527 140.186C99.6218 139.616 102.261 139.592 103.359 139.043C106.745 137.35 109.658 134.929 112.236 131.836C114.081 129.622 115.865 126.288 116.543 123.574C116.724 122.848 117.25 119.352 117.51 119.092C117.336 118.743 117.385 117.986 117.686 117.686C117.086 116.487 118.702 114.571 117.51 113.379C117.598 113.291 117.598 113.291 117.686 113.203C117.598 113.115 117.598 113.115 117.51 113.027C117.598 112.939 117.598 112.939 117.686 112.852C117.591 112.662 117.591 112.338 117.686 112.148C117.495 111.957 117.614 111.607 117.51 111.357C117.17 110.541 115.959 108.855 115.4 108.018C111.855 102.699 110.969 95.9479 109.775 89.3848C109.327 86.921 109.14 84.2277 108.369 81.9141C107.663 79.7955 107.259 77.1841 106.787 75.0586C106.588 74.1634 106.512 72.7815 105.732 72.1582C105.246 71.7691 104.752 72.9343 104.326 73.3887C103.365 74.4135 102.649 75.6888 102.041 76.9043C100.077 80.8321 98.1216 82.3781 93.6914 82.9688C88.2081 83.6999 85.0124 82.1033 81.7383 77.5195C80.1503 75.2964 79.1115 73.926 76.9043 71.7188C76.858 71.6724 76.7871 71.6602 76.7285 71.6309Z"
   fill="#68c40c"
   fill-rule="nonzero"
   opacity="1"
   stroke="none"
   id="path4"
   style="fill:#221b43;fill-opacity:1" />
<path
   d="M62.8418 111.094C62.3834 111.552 62.571 115.921 62.7539 116.104C62.9855 115.872 62.8711 115.459 62.9297 115.137C62.9923 114.792 63.276 115.127 63.3691 114.785C63.5652 114.066 63.5302 113.287 63.7207 112.588C64.0262 111.468 64.8012 110.194 65.2148 109.16C66.4889 105.975 69.2401 103.254 70.0488 100.02C71.1068 95.7877 72.1201 91.4857 72.5977 87.1875C72.7168 86.115 73.2428 85.0594 73.3887 84.1113C73.8788 80.9254 74.9706 78.0473 75.7617 74.8828C75.883 74.3978 76.4635 72.0271 76.7285 71.8945C76.7809 71.8683 76.8616 71.8545 76.9043 71.8945C77.8111 72.7446 78.6746 73.6401 79.541 74.5313C80.06 75.065 80.3915 75.7048 80.6836 76.2891C81.9201 78.7622 84.811 81.6842 87.3633 82.7051C88.805 83.2818 90.2429 83.4082 92.0215 83.4082C95.2326 83.4082 98.3281 82.1992 100.547 79.9805C101.408 79.119 101.703 77.7571 102.217 76.7285C103.016 75.1291 104.359 73.6319 105.557 72.334C106.281 72.9136 106.324 74.0747 106.523 74.9707C107.084 77.4914 108.153 80.3795 108.369 82.9688C108.601 85.7518 109.405 88.7618 109.951 91.4941C110.67 95.0889 110.957 99.151 112.324 102.568C113.132 104.588 114.141 106.121 115.225 108.018C115.854 109.119 116.441 110.464 117.334 111.357C117.573 111.119 117.335 107.667 117.07 107.402C117.219 107.105 117.145 106.51 116.895 106.26C117.075 105.899 116.796 104.315 116.543 104.063C116.631 103.975 116.631 103.975 116.719 103.887C116.027 103.195 115.865 99.4721 115.576 98.1738C114.443 93.0768 112.947 87.8259 111.357 83.0566C110.929 81.7707 110.344 78.7032 109.512 77.8711C109.731 77.4325 109.074 76.5553 108.896 76.2012C108.17 74.749 107.902 72.3943 106.699 71.1914C107.47 70.4211 109.613 67.2623 109.072 66.1816C109.355 65.8993 109.475 65.2025 108.984 65.0391C107.675 64.6025 106.435 64.365 105.205 63.5449C104.214 62.8839 102.962 61.872 102.393 60.7324C102.15 60.2475 102.045 59.2427 101.689 58.8867C101.733 58.7988 101.733 58.7988 101.777 58.7109C101.463 58.3966 101.714 57.1652 101.602 56.6016C101.384 55.5142 100.889 54.6589 100.107 53.877C99.5178 53.2873 99.0497 53.1844 98.2617 53.0859C95.5841 52.7512 95.3613 57.2159 95.3613 58.7988C95.3613 62.9088 99.0472 74.23 91.0547 73.3887C89.9025 73.2674 88.7314 72.1201 87.8906 71.2793C87.4121 70.8008 87.1122 70.1241 87.0117 69.5215C86.9582 69.2005 86.5895 68.7164 86.5723 68.4668C86.5178 67.6777 86.5178 66.8829 86.5723 66.0938C86.7283 63.8319 88.9022 61.0807 89.4727 58.7988C90.0142 56.6325 89.1991 52.998 86.3086 52.998C85.08 52.998 83.9451 54.5842 83.3203 55.459C82.5985 56.4696 82.1567 57.5833 81.5625 58.623C80.2541 60.9128 78.0606 63.1796 76.2012 65.0391C75.6569 65.5834 74.3216 66.0735 74.0039 66.709C73.7214 67.2741 74.9627 69.3296 75.2344 69.873C75.388 70.1804 74.7902 70.7245 74.707 71.0156C74.449 71.9189 74.128 72.9233 73.7402 73.8281C70.9334 80.3774 68.4089 88.5038 66.0938 95.4492C65.5705 97.019 65.4029 98.928 64.8633 100.547C64.018 103.083 63.6788 105.875 63.1934 108.545C63.082 109.157 62.5239 110.458 62.8418 111.094Z"
   fill="#e6c583"
   fill-rule="nonzero"
   opacity="1"
   stroke="none"
   id="path6"
   style="fill:#f9f9f9" />
<path
   d="M90.5273 44.5605C90.0568 45.0311 89.2026 44.672 88.5938 44.8242C87.2559 45.1587 85.6505 45.6937 84.4629 46.4063C79.5061 49.3803 76.9157 54.4578 75.2344 59.502C74.9315 60.4105 73.7515 63.2159 74.1797 64.0723C73.5982 64.6538 73.9453 65.7129 74.0039 66.5332C74.0098 66.6159 74.1211 66.6504 74.1797 66.709C76.025 64.8637 78.4064 63.3 80.0684 61.084C81.1502 59.6415 81.9482 58.2032 82.7051 56.6895C83.8393 54.421 86.6536 51.538 88.6816 54.5801C89.0589 55.1459 89.4078 55.689 89.4727 56.3379C89.7598 59.2096 88.1637 61.6318 87.1875 64.0723C86.9538 64.6566 86.4354 65.53 86.3965 66.0938C86.1451 69.7392 88.3933 74.0019 92.5488 73.5645C94.8139 73.326 96.094 70.7356 96.416 68.6426C97.053 64.5024 95.1417 60.3804 95.8008 56.4258C95.9107 55.7661 95.9351 54.8297 96.416 54.2285C99.0205 50.973 102.693 56.5282 101.514 58.8867C101.9 59.2727 101.92 60.237 102.217 60.7324C103.135 62.2631 107.335 65.7647 109.248 65.127C109.248 64.4214 109.571 63.5165 109.072 63.0176C109.272 62.6179 109.206 62.1847 108.896 61.875C108.984 61.7871 108.984 61.7871 109.072 61.6992C108.678 61.3052 107.779 57.5812 107.578 56.7773C107.466 56.3275 107.574 55.7184 107.227 55.3711C107.314 55.2832 107.314 55.2832 107.402 55.1953C106.925 54.7184 106.903 53.785 106.699 53.1738C106.23 51.7651 104.875 50.6684 104.238 49.3945C103.96 48.8374 103.305 48.5694 102.832 48.1641C101.621 47.1258 99.5984 46.7762 98.5254 45.7031C98.4375 45.791 98.4375 45.791 98.3496 45.8789C98.1373 45.6666 97.8328 45.5343 97.5586 45.3516C97.4707 45.4395 97.4707 45.4395 97.3828 45.5273C97.0892 45.2337 95.7584 44.8014 95.3613 45C94.8289 44.4676 94.0021 45.1349 93.4277 44.5605C92.7421 44.9034 91.2856 44.1538 90.7031 44.7363C90.6152 44.6484 90.6152 44.6484 90.5273 44.5605Z"
   fill="#68c40c"
   fill-rule="nonzero"
   opacity="1"
   stroke="none"
   id="path8"
   style="fill:#221b43;fill-opacity:1" />
<path
   d="M108.281 74.3555C108.038 74.5986 109.053 77.0422 109.336 77.6074C110.608 80.1522 111.471 83.4539 112.236 86.1328C113.037 88.9338 113.795 91.666 114.521 94.5703C114.743 95.4555 114.649 96.9667 115.225 97.7344C118.27 101.795 120.784 105.888 122.344 110.566C122.768 111.839 123.681 112.898 124.189 114.17C124.892 115.926 127.54 121.885 129.375 122.344C131.036 122.759 130.661 119.739 131.221 119.18C131.133 119.092 131.133 119.092 131.045 119.004C131.63 118.419 130.811 117.48 131.396 116.895C131.156 116.654 131.156 116.607 131.396 116.367C130.773 115.744 131.829 114.339 131.045 113.555C131.133 113.467 131.133 113.467 131.221 113.379C130.861 113.02 131.228 112.596 130.869 112.236C130.957 112.148 130.957 112.148 131.045 112.061C130.281 111.297 130.601 109.41 130.254 108.369C129.037 104.718 127.788 101.059 126.563 97.3828C123.491 88.1691 116.773 80.0163 108.281 74.3555Z"
   fill="#e94420"
   fill-rule="nonzero"
   opacity="1"
   stroke="none"
   id="path10"
   style="fill:#221b43;fill-opacity:1" />
<path
   d="M73.2129 74.707C72.4624 75.4576 71.1142 75.8608 70.2246 76.5527C68.0779 78.2224 66.1617 79.9856 64.1602 82.0898C60.1439 86.312 57.6035 91.3975 54.4922 96.0645C52.4514 99.1256 50.9966 102.668 49.5703 105.996C49.272 106.692 48.6977 107.465 48.5156 108.193C48.2628 109.205 47.6322 112.592 47.0215 113.203C47.1094 113.291 47.1094 113.291 47.1973 113.379C46.8756 113.701 46.6505 115.186 46.8457 115.576C46.4387 115.983 46.4735 118.797 46.8457 119.355C47.0296 119.631 47.29 119.852 47.5488 120.059C47.6511 120.14 47.8077 120.142 47.9004 120.234C48.0512 120.084 48.3207 120.145 48.5156 120.059C49.3168 119.703 50.6044 118.376 51.0645 117.861C52.5219 116.232 53.4142 113.992 54.668 112.236C56.6353 109.482 58.2012 106.312 59.6777 103.359C60.9224 100.87 63.1054 98.4376 65.127 96.416C65.3249 96.2181 66.4352 95.338 66.5332 95.1855C66.6428 95.0151 66.646 94.2636 66.709 94.043C67.364 91.7506 68.3779 89.2119 69.1699 86.8359C70.1635 83.8552 71.0185 80.6333 72.2461 77.8711C72.5123 77.2722 73.75 75.2441 73.2129 74.707Z"
   fill="#eb493a"
   fill-rule="nonzero"
   opacity="1"
   stroke="none"
   id="path12"
   style="fill:#221b43;fill-opacity:1" />
<path
   d="M107.227 144.404C107.314 144.316 107.314 144.316 107.402 144.229C107.681 144.507 107.915 144.302 108.193 144.58C108.281 144.492 108.281 144.492 108.369 144.404C109.053 145.088 110.641 144.594 111.182 144.053C111.094 143.965 111.094 143.965 111.006 143.877C111.094 143.789 111.094 143.789 111.182 143.701C111.094 143.613 111.094 143.613 111.006 143.525C111.094 143.438 111.094 143.438 111.182 143.35C112.117 144.285 113.372 142.917 113.906 142.383C113.128 141.604 114.787 141.629 113.203 140.361C112.139 139.51 109.993 138.764 108.721 138.34C108.117 138.139 107.57 138.243 107.051 137.725C106.963 137.813 106.963 137.813 106.875 137.9C105.853 136.878 104.348 138.472 103.359 138.867C103.088 138.976 100.86 139.38 101.162 139.834C102.17 141.346 104.381 143.337 106.172 144.053C106.512 144.189 106.948 144.125 107.227 144.404Z"
   fill="#e8b229"
   fill-rule="nonzero"
   opacity="1"
   stroke="none"
   id="path14" />
<path
   d="M75.498 137.549C75.2196 137.827 74.9855 137.622 74.707 137.9C74.6191 137.813 74.6191 137.813 74.5313 137.725C74.2954 137.96 73.7591 138.042 73.4766 137.9C73.1069 138.27 72.3901 138.029 71.8945 138.164C70.5141 138.541 68.6612 138.778 67.6758 140.186C67.329 140.681 68.419 140.808 68.2031 141.24C67.8078 142.031 68.2261 142.406 68.8184 142.998C69.5753 142.62 69.3983 143.994 70.0488 144.053C70.6324 144.106 71.2207 144.053 71.8066 144.053C71.9644 144.053 72.0914 143.908 72.2461 143.877C72.2676 143.873 72.664 144.057 72.6855 144.053C74.7007 143.65 76.7188 142.184 78.3984 141.064C79.1268 140.579 79.4258 139.686 79.9805 139.131C79.387 138.537 77.0346 137.563 76.1133 137.461C75.7745 137.423 75.8279 137.714 75.498 137.549Z"
   fill="#e8b229"
   fill-rule="nonzero"
   opacity="1"
   stroke="none"
   id="path16" />
<path
   d="M90.9668 63.8965C87.7682 64.9595 88.5715 71.1076 92.4609 70.4004C94.1896 70.0861 94.3945 67.5214 94.3945 66.2695C94.3945 64.5595 92.1578 63.5007 90.9668 63.8965Z"
   fill="#e8b229"
   fill-rule="nonzero"
   opacity="1"
   stroke="none"
   id="path18" />
<path
   d="M85.4297 54.668C82.5113 54.8564 82.7178 61.4278 86.0449 61.1719C88.4855 60.9841 88.6925 54.4573 85.4297 54.668Z"
   fill="#2e3a42"
   fill-rule="nonzero"
   opacity="1"
   stroke="none"
   id="path20" />
<path
   d="M97.9102 54.668C95.1983 55.2206 95.5736 61.5559 98.877 61.084C101.224 60.7487 101.435 53.9495 97.9102 54.668Z"
   fill="#2e3a42"
   fill-rule="nonzero"
   opacity="1"
   stroke="none"
   id="path22" />
<path
   d="M93.3398 66.8848C92.2034 67.0168 91.0524 66.9681 89.9121 67.0605C89.5876 67.0869 89.7774 67.5587 89.8242 67.6758C90.1647 68.5269 90.9976 68.7305 91.8457 68.7305C92.5384 68.7305 94.6102 66.7372 93.3398 66.8848Z"
   fill="#2f3224"
   fill-rule="nonzero"
   opacity="1"
   stroke="none"
   id="path24" />
</g>
</g>
</svg>
