<?xml version="1.0" encoding="UTF-8" standalone="no"?>
<!DOCTYPE svg PUBLIC "-//W3C//DTD SVG 1.1//EN" "http://www.w3.org/Graphics/SVG/1.1/DTD/svg11.dtd">
<!-- Created with Vectornator (http://vectornator.io/) -->
<svg height="100%" stroke-miterlimit="10" style="fill-rule:nonzero;clip-rule:evenodd;stroke-linecap:round;stroke-linejoin:round;" version="1.1" viewBox="0 0 1080 1080" width="100%" xml:space="preserve" xmlns="http://www.w3.org/2000/svg" xmlns:vectornator="http://vectornator.io" xmlns:xlink="http://www.w3.org/1999/xlink">
<defs/>
<g id="Layer-1" vectornator:layerName="Layer 1">
<g opacity="1">
<path d="M375.996 682.91C372.875 689.153 380.584 709.171 382.324 716.133C391.36 752.275 418.736 790.709 455.098 805.254C467.422 810.184 479.942 815.873 491.484 818.438C495.357 819.298 504.408 818.178 507.305 821.074C509.703 819.875 512.302 820.271 514.16 822.129C514.688 821.602 514.688 821.602 515.215 821.074C517.861 823.72 521.533 820.537 524.18 823.184C524.707 822.656 524.707 822.656 525.234 822.129C525.762 822.656 525.762 822.656 526.289 823.184C526.816 822.656 526.816 822.656 527.344 822.129C530.855 825.64 536.489 820.728 540 824.238C541.44 822.798 541.724 822.798 543.164 824.238C543.691 823.711 543.691 823.711 544.219 823.184C544.746 823.711 544.746 823.711 545.273 824.238C545.801 823.711 545.801 823.711 546.328 823.184C546.855 823.711 546.855 823.711 547.383 824.238C548.782 823.539 552.053 823.108 553.184 824.238C553.711 823.711 553.711 823.711 554.238 823.184C554.766 823.711 554.766 823.711 555.293 824.238C555.82 823.711 555.82 823.711 556.348 823.184C556.875 823.711 556.875 823.711 557.402 824.238C557.93 823.711 557.93 823.711 558.457 823.184C559.248 823.711 559.248 823.711 560.039 824.238C563.674 820.604 569.588 825.763 573.223 822.129C573.75 822.656 573.75 822.656 574.277 823.184C574.805 822.656 574.805 822.656 575.332 822.129C575.859 822.656 575.859 822.656 576.387 823.184C579.033 820.537 582.705 823.721 585.352 821.074C585.879 821.602 585.879 821.602 586.406 822.129C588.318 820.217 590.295 821.931 592.207 820.02C592.734 820.547 592.734 820.547 593.262 821.074C595.851 818.485 600.039 820.573 603.281 819.492C608.808 817.65 616.848 816.415 622.266 813.164C639.702 802.702 652.809 793.599 668.145 777.305C681.299 763.328 693.055 742.06 698.203 724.043C699.489 719.543 703.418 696.152 705.059 694.512C704.013 692.421 704.31 687.878 706.113 686.074C702.659 679.166 711.883 667.059 705.059 660.234C705.586 659.707 705.586 659.707 706.113 659.18C705.586 658.652 705.586 658.652 705.059 658.125C705.586 657.598 705.586 657.598 706.113 657.07C705.007 654.859 705.981 651.169 705.059 648.633C703.963 645.621 699.952 641.528 698.203 638.613C690.724 626.149 679.449 612.112 676.055 598.535C668.804 569.531 662.176 539.702 657.598 509.941C654.019 486.679 649.401 465.024 643.887 442.969C641.545 433.601 641.208 419.724 633.867 412.383C609.362 436.888 604.805 476.04 563.203 477.246C552.659 477.552 542.111 477.773 531.563 477.773C530.145 477.773 528.652 477.791 527.344 477.246C514.676 471.968 500.217 457.737 492.012 447.188C487.502 441.389 484.381 434.051 479.355 428.73C473.807 422.856 468.194 417.042 462.48 411.328C460.991 409.839 460.739 409.206 459.316 410.273C456.744 412.203 456.832 421.043 455.098 424.512C447.953 438.801 445.509 458.649 441.387 475.137C434.97 500.805 430.52 529.15 423.984 555.293C421.524 565.133 421.675 576.26 417.129 585.352C411.325 596.96 398.458 613.628 395.508 625.43C394.47 629.582 390.93 633.531 389.18 637.031C384.662 646.067 382.439 657.574 378.633 667.09C377.171 670.744 372.303 679.217 375.996 682.91Z" fill="#221b43" fill-rule="nonzero" opacity="1" stroke="none"/>
<path d="M444.023 380.215C444.551 380.742 444.551 380.742 445.078 381.27C444.551 381.797 444.551 381.797 444.023 382.324C444.375 382.676 444.942 382.901 445.078 383.379C446.802 389.411 448.591 393.569 451.406 399.199C451.563 399.514 451.563 399.939 451.406 400.254C444.415 414.237 440.297 429.346 434.004 445.078C411.576 501.149 393.337 559.289 382.324 614.355C379.618 627.885 375.996 642.051 375.996 656.543C375.996 660.434 373.118 673.176 376.523 676.582C377.913 675.192 377.101 672.688 377.578 670.781C378.346 667.708 381.515 663.472 382.324 660.234C384.228 652.621 386.799 643.903 390.234 637.031C398.859 619.782 411.009 603.288 418.184 585.352C424.473 569.628 426.658 550.573 429.258 533.672C431.669 518.001 437.338 499.599 440.332 484.629C443.33 469.64 446.068 450.482 452.461 437.695C454.166 434.285 453.556 429.163 455.098 425.566C456.15 423.112 458.792 418.697 459.316 416.074C459.668 414.316 459.104 412.068 460.371 410.801C466.26 416.69 472.411 422.314 478.301 428.203C482.777 432.68 485.688 439.388 489.375 444.551C495.613 453.284 503.185 461.61 511.523 468.281C516.593 472.337 525.119 478.212 531.035 478.301C541.582 478.458 552.127 478.828 562.676 478.828C577.722 478.828 596.643 469.453 605.391 457.207C608.801 452.432 609.402 446.655 612.246 441.914C618.276 431.864 625.677 422.311 633.867 413.438C638.078 417.648 637.828 425.321 639.668 430.84C645.257 447.608 646.17 466.047 651.27 483.047C655.436 496.934 656.507 513.17 659.18 527.871C667.31 572.586 675.807 613.387 704.004 648.633C705.344 647.293 703.902 625.856 702.422 624.375C703.313 622.592 702.871 619.024 701.367 617.52C702.449 615.355 700.773 605.851 699.258 604.336C699.785 603.809 699.785 603.809 700.313 603.281C698.522 601.49 699.994 599.799 698.203 598.008C699.308 595.798 696.586 583.734 695.039 582.188C695.566 581.66 695.566 581.66 696.094 581.133C693.666 578.705 694.179 571.724 693.457 568.477C692.123 562.475 689.693 556.583 688.184 550.547C686.73 544.732 686.96 537.849 684.492 532.09C678.373 517.811 675.677 500.972 671.309 485.684C666.602 469.211 657.834 451.059 652.324 434.531C649.682 426.604 646.225 413.139 640.195 407.109C645.228 402.076 657.621 383.425 654.434 377.051C661.014 370.47 640.864 366.574 636.504 364.395C627.521 359.903 619.3 351.508 613.828 343.301C611.919 340.436 612.458 335.603 610.137 333.281C617.714 318.128 591.154 282.829 577.969 304.805C563.973 328.131 580.809 366.866 576.387 393.398C574.358 405.569 568.404 418.778 554.766 420.293C534.285 422.569 514.16 398.672 519.434 377.578C523.872 359.823 535.178 344.785 538.418 326.426C540.228 316.168 531.708 300.325 521.016 297.949C513.15 296.201 505.134 305.765 501.504 310.605C496.27 317.583 492.248 325.426 488.32 333.281C481.738 346.446 467.208 360.194 457.207 370.195C453.381 374.022 448.26 376.825 444.023 380.215Z" fill="#fdfaf5" fill-rule="nonzero" opacity="1" stroke="none"/>
<path d="M542.109 247.324C540.187 249.247 524.405 250.504 520.488 252.07C504.623 258.416 490 269.357 478.301 283.184C467.735 295.67 454.287 321.23 450.352 336.973C449.216 341.517 445.993 361.37 444.023 363.34C444.551 363.867 444.551 363.867 445.078 364.395C441.589 367.884 443.672 374.238 444.023 379.16C444.059 379.656 444.727 379.863 445.078 380.215C456.555 368.738 470.391 359.824 480.41 346.465C487.582 336.903 492.399 326.308 498.34 316.406C510.697 295.811 533.532 292.224 537.363 319.043C537.744 321.705 536.309 324.316 535.781 326.953C534.801 331.853 535.702 336.453 533.672 341.191C526.816 357.189 517.521 370.835 518.379 389.707C518.725 397.321 522.851 400.566 526.289 406.582C528.403 410.282 531.903 414.135 535.781 416.074C542.532 419.45 545.881 422.335 554.766 421.348C569.371 419.725 574.53 406.013 577.441 393.398C583.547 366.943 567.147 336.215 575.332 311.66C580.154 297.194 594.013 296.803 603.281 306.914C608.583 312.698 608.389 324.238 609.082 331.172C609.316 333.516 610.254 330.938 609.082 333.281C611.482 335.682 610.578 340.556 612.773 343.301C619.671 351.922 642.162 375.165 655.488 370.723C655.488 366.664 657.303 361.463 654.434 358.594C655.749 355.962 648.51 325.248 645.996 322.734C646.26 322.207 646.26 322.207 646.523 321.68C645.996 321.152 645.996 321.152 645.469 320.625C647.087 317.389 641.449 304.873 640.195 301.113C635.223 286.198 620.509 267.082 605.391 261.035C599.758 258.782 585.914 254.742 582.188 251.016C581.66 251.543 581.66 251.543 581.133 252.07C579.969 250.906 578.435 250.255 576.914 251.016C574.466 248.568 570.789 250.692 568.477 248.379C566.385 249.424 561.843 249.128 560.039 247.324C554.671 250.008 547.587 243.956 543.164 248.379C542.637 247.852 542.637 247.852 542.109 247.324Z" fill="#221b43" fill-rule="nonzero" opacity="1" stroke="none"/>
<path d="M440.332 425.039C436.4 428.971 429.963 431.073 425.566 434.004C414.668 441.27 403.101 448.601 392.344 457.207C367.626 476.981 343.167 498.829 318.516 521.016C304.073 534.014 291.292 549.987 281.074 565.313C277.529 570.63 275.589 579.762 271.055 584.297C271.582 584.824 271.582 584.824 272.109 585.352C267.515 589.946 267.007 615.376 277.383 613.301C281.972 612.383 288.521 602.458 293.203 600.117C307.828 592.805 324.644 588.406 340.137 583.242C357.39 577.491 372.483 565.965 386.543 553.184C390.044 550.001 399.772 548.3 401.309 543.691C408.192 523.041 414.498 502.543 421.348 481.992C426.352 466.979 432.175 453.729 437.168 438.75C438.43 434.965 442.917 428.916 440.332 425.039Z" fill="#221b43" fill-rule="nonzero" opacity="1" stroke="none"/>
<path d="M650.742 431.367C663.816 457.515 672.523 492.835 680.273 519.961C683.389 530.864 683.387 546.278 691.348 554.238C691.875 553.711 691.875 553.711 692.402 553.184C694.558 555.339 697.103 553.138 699.258 555.293C699.785 554.766 699.785 554.766 700.313 554.238C704.241 558.167 713.294 551.4 718.242 556.348C719.682 554.907 719.966 554.907 721.406 556.348C721.934 555.82 721.934 555.82 722.461 555.293C724.188 556.157 724.672 556.774 726.152 555.293C728.799 557.939 732.471 554.756 735.117 557.402C735.645 556.875 735.645 556.875 736.172 556.348C738.054 558.23 741.464 558.019 743.555 559.512C749.947 564.077 757.299 571.865 762.012 576.914C768.732 584.114 775.209 593.07 780.996 601.172C784.99 606.763 788.422 614.495 794.18 619.102C802.249 625.557 801.884 603.602 799.453 601.172C800.424 599.23 798.789 592.598 797.344 591.152C797.871 590.625 797.871 590.625 798.398 590.098C795.658 587.357 796.299 584.326 795.234 581.133C793.192 575.005 788.074 566.126 784.16 561.094C770.173 543.11 751.311 527.019 737.227 509.414C730.961 501.582 725.8 491.834 721.406 483.047C718.911 478.056 711.871 470.081 708.223 466.172C703.473 461.083 698.546 456.156 693.457 451.406C685.994 444.441 671.107 434.099 660.762 432.949C657.417 432.578 653.69 428.419 650.742 431.367Z" fill="#221b43" fill-rule="nonzero" opacity="1" stroke="none"/>
<path d="M640.195 856.406C640.723 855.879 640.723 855.879 641.25 855.352C643.378 857.479 647.227 856.758 650.215 856.406C653.416 856.03 653.621 851.946 655.488 850.078C664.036 855.777 669.494 849.256 674.473 844.277C672.921 842.726 673.915 841.61 672.363 840.059C674.29 838.131 679.428 836.994 678.164 833.203C675.054 823.873 652.078 815.15 643.887 811.055C640.95 809.586 636.724 805.781 633.34 805.781C630.682 805.781 624.735 810.875 622.266 812.109C620.24 813.122 607.957 815.098 607.5 817.383C606.438 822.694 620.415 837.81 623.32 842.168C625.46 845.377 626.694 849.576 630.176 852.188C632.845 854.189 637.882 854.093 640.195 856.406Z" fill="#e2ae2a" fill-rule="nonzero" opacity="1" stroke="none"/>
<path d="M406.055 829.512C408.2 832.193 412.52 831.895 413.965 834.785C414.755 836.365 413.242 838.303 413.438 840.059C413.689 842.326 418.065 842.049 419.238 843.223C420.709 841.752 426.5 840.465 428.203 842.168C425.945 844.426 426.566 844.86 424.512 846.914C425.86 849.611 427.3 850.23 429.258 852.188C429.785 851.66 429.785 851.66 430.313 851.133C430.84 851.66 430.84 851.66 431.367 852.188C432.773 851.484 432.07 851.484 433.477 852.188C436.753 848.911 443.462 849.788 447.188 846.387C457.851 836.651 469.378 826.874 478.301 815.273C479.074 814.269 477.292 812.738 476.191 812.109C474.699 811.256 455.332 803.577 454.57 803.672C451.913 804.004 447.759 807.524 445.078 808.418C434.528 811.935 421.289 813.949 412.383 821.074C408.101 824.5 408.982 826.585 406.055 829.512Z" fill="#e2ae2a" fill-rule="nonzero" opacity="1" stroke="none"/>
<path d="M545.273 363.34C536.16 370.555 532.829 375.474 534.199 389.18C535.144 398.63 548.61 406.268 556.875 401.309C571.183 392.724 567.301 375.347 557.402 365.449C554.843 362.89 546.84 362.099 545.273 363.34Z" fill="#e2ae2a" fill-rule="nonzero" opacity="1" stroke="none"/>
<path d="M512.578 307.969C494.724 310.169 496.304 346.992 516.27 346.992C522.734 346.992 524.958 338.466 526.289 333.809C529.616 322.165 525.024 306.435 512.578 307.969Z" fill="#2b3740" fill-rule="nonzero" opacity="1" stroke="none"/>
<path d="M589.57 307.441C571.091 307.926 573.459 350.425 593.262 346.465C608.559 343.405 607.656 306.967 589.57 307.441Z" fill="#2b3740" fill-rule="nonzero" opacity="1" stroke="none"/>
<path d="M557.402 382.324C552.057 379.651 545.426 381.799 539.473 382.324C535.456 382.679 541.699 389.883 542.109 390.234C545.189 392.874 550.475 392.902 554.238 391.289C558.139 389.617 560.416 385.111 563.203 382.324C561.395 380.517 559.21 380.516 557.402 382.324Z" fill="#2b3740" fill-rule="nonzero" opacity="1" stroke="none"/>
</g>
</g>
</svg>
