<?xml version="1.0" encoding="UTF-8" standalone="no"?>
<!-- Created with Vectornator (http://vectornator.io/) -->

<svg
   height="100%"
   stroke-miterlimit="10"
   style="fill-rule:nonzero;clip-rule:evenodd;stroke-linecap:round;stroke-linejoin:round;"
   version="1.1"
   viewBox="0 0 180 180"
   width="100%"
   xml:space="preserve"
   id="svg4042"
   sodipodi:docname="peng-3.svg"
   inkscape:version="1.2.2 (b0a84865, 2022-12-01)"
   xmlns:inkscape="http://www.inkscape.org/namespaces/inkscape"
   xmlns:sodipodi="http://sodipodi.sourceforge.net/DTD/sodipodi-0.dtd"
   xmlns="http://www.w3.org/2000/svg"
   xmlns:svg="http://www.w3.org/2000/svg"
   xmlns:vectornator="http://vectornator.io"><sodipodi:namedview
   id="namedview4044"
   pagecolor="#ffffff"
   bordercolor="#666666"
   borderopacity="1.0"
   inkscape:showpageshadow="2"
   inkscape:pageopacity="0.0"
   inkscape:pagecheckerboard="0"
   inkscape:deskcolor="#d1d1d1"
   showgrid="false"
   inkscape:zoom="5.0550436"
   inkscape:cx="106.42836"
   inkscape:cy="91.789516"
   inkscape:window-width="1309"
   inkscape:window-height="456"
   inkscape:window-x="0"
   inkscape:window-y="25"
   inkscape:window-maximized="0"
   inkscape:current-layer="g4039" />
<defs
   id="defs4015" />
<g
   id="Layer-1"
   vectornator:layerName="Layer 1">
<g
   opacity="1"
   id="g4039">
<path
   d="M76.7285 70.8398C75.8522 71.7162 75.899 73.6606 75.4102 74.8828C74.047 78.2908 73.4002 82.2958 72.6855 85.8691C71.7012 90.7908 70.9056 95.8671 69.3457 100.547C68.8979 101.89 67.9001 103.199 67.1484 104.326C65.2589 107.161 63.8503 110.927 63.0176 114.258C62.9488 114.533 62.5453 114.968 62.4902 115.225C62.3302 115.971 62.7293 117.418 62.8418 118.037C63.3585 120.879 63.9324 123.646 65.2148 126.211C67.315 130.411 71.1693 134.462 75.4102 136.582C76.5901 137.172 78.4178 137.963 79.7168 138.252C80.1278 138.343 80.7402 138.396 81.0352 138.691C81.123 138.604 81.123 138.604 81.2109 138.516C81.4311 138.736 81.5181 138.647 81.7383 138.867C82.0305 138.721 83.2271 139.038 83.4082 139.219C83.7645 139.041 84.1032 139.123 84.375 139.395C84.4629 139.307 84.4629 139.307 84.5508 139.219C84.8694 139.537 85.199 139.252 85.5176 139.57C85.6055 139.482 85.6055 139.482 85.6934 139.395C85.9079 139.609 87.2722 139.837 87.5391 139.57C87.9348 139.966 88.65 139.717 89.209 139.746C90.7616 139.828 92.4399 139.834 93.9551 139.834C94.6637 139.834 95.5634 140.071 96.0645 139.57C96.4442 139.76 97.4517 139.677 97.7344 139.395C98.0764 139.566 99.5456 139.341 99.8438 139.043C99.9316 139.131 99.9316 139.131 100.02 139.219C100.278 138.96 100.464 139.126 100.723 138.867C100.811 138.955 100.811 138.955 100.898 139.043C101.375 138.566 104.187 137.794 105.029 137.373C107.904 135.936 110.794 133.064 112.676 130.43C114.516 127.854 116.134 124.595 116.895 121.553C117.126 120.626 117.273 117.307 117.686 116.895C117.598 116.807 117.598 116.807 117.51 116.719C117.598 116.631 117.598 116.631 117.686 116.543C117.598 116.455 117.598 116.455 117.51 116.367C117.568 116.309 117.682 116.274 117.686 116.191C117.741 115.021 117.713 113.847 117.686 112.676C117.678 112.351 117.413 111.981 117.686 111.709C117.598 111.621 117.598 111.621 117.51 111.533C117.598 111.445 117.598 111.445 117.686 111.357C117.495 111.166 117.587 110.825 117.51 110.566C117.281 109.804 116.201 108.427 115.752 107.754C114.801 106.328 113.539 104.719 113.027 103.184C110.863 96.6907 110.12 89.6117 108.809 83.0566C108.213 80.0791 107.52 77.1104 106.787 74.1797C106.579 73.348 106.534 71.9015 105.732 71.3672C105.214 71.0217 104.755 72.1461 104.326 72.5977C103.309 73.6681 102.755 74.9241 102.041 76.1133C101.619 76.817 101.346 77.815 100.898 78.4863C99.3523 80.8055 96.6332 81.7328 93.9551 82.0898C92.4058 82.2964 90.7718 82.5939 89.209 82.3535C85.0703 81.7168 82.5401 77.5046 80.2441 74.4434C79.2816 73.16 77.4743 71.5856 76.7285 70.8398Z"
   fill="#68c40c"
   fill-rule="nonzero"
   opacity="1"
   stroke="none"
   id="path4017"
   style="fill:#000000" />
<path
   d="M73.125 73.916C73.3831 74.1741 72.8264 75.8315 72.5977 76.2891C71.6743 78.1358 70.9988 80.2067 70.3125 82.2656C68.107 88.8822 65.7397 95.7228 64.1602 102.041C63.6831 103.949 63.2825 105.987 63.0176 107.842C62.9432 108.362 63.0694 109.636 62.666 110.039C62.7539 110.127 62.7539 110.127 62.8418 110.215C62.3757 110.681 62.5802 115.139 62.7539 115.313C63.2494 114.817 63.2106 113.662 63.3691 113.027C63.6974 111.714 64.5206 110.017 65.0391 108.721C65.9509 106.441 67.4778 104.283 68.5547 102.129C68.8087 101.621 69.3586 101.117 69.5215 100.547C71.2525 94.4883 72.241 87.8233 73.7402 81.8262C74.3627 79.3362 74.9881 77.0985 75.5859 74.707C75.8346 73.7122 76.064 71.6801 76.7285 71.0156C77.7246 71.9824 78.7352 72.9345 79.7168 73.916C80.6992 74.8984 81.2817 76.3563 82.1777 77.4316C85.1747 81.028 87.9395 82.9207 92.6367 82.5293C93.7317 82.4381 94.9119 82.2183 95.9766 81.9141C97.9028 81.3637 100.02 80.3316 101.074 78.4863C101.681 77.4237 102.015 76.2556 102.744 75.2344C103.151 74.6644 105.098 71.2256 105.732 71.543C106.326 71.8395 106.47 73.7908 106.611 74.3555C107.321 77.1933 107.968 80.0858 108.545 82.9688C108.747 83.9811 109.288 85.2268 109.424 86.1328C109.943 89.596 110.328 92.9708 111.094 96.416C111.589 98.6427 111.817 101.115 112.852 103.184C114.068 105.616 115.639 108.306 117.334 110.566C117.728 110.173 117.319 109.718 117.51 109.336C116.757 108.583 117.825 107.278 117.07 106.523C117.27 106.124 117.204 105.691 116.895 105.381C116.982 105.293 116.982 105.293 117.07 105.205C116.374 104.509 116.53 102.313 116.367 101.338C115.772 97.7693 114.713 94.4557 113.818 90.8789C113.562 89.8529 113.588 87.9239 112.852 87.1875C113.072 86.7476 111.732 83.3899 111.533 82.793C110.962 81.0798 110.428 79.2125 109.863 77.5195C109.542 76.5565 108.874 75.6068 108.545 74.6191C108.058 73.1586 107.566 71.6999 106.699 70.4004C107.808 69.2921 109.67 66.0953 109.248 64.5117C109.094 63.933 107.522 64.0739 107.051 63.7207C105.483 62.5452 103.637 61.8079 102.393 59.9414C102.14 59.563 101.62 58.4512 101.602 58.0078C101.515 55.9315 101.521 52.8382 98.7891 52.3828C98.3071 52.3025 97.8624 52.095 97.3828 52.3828C95.5259 53.497 95.3613 56.1939 95.3613 58.1836C95.3613 61.9936 98.4594 69.8181 93.7793 72.1582C90.5198 73.788 86.8782 70.559 86.5723 67.5C86.1717 63.4945 89.2842 60.3944 89.7363 56.7773C89.9125 55.368 88.8286 52.7052 87.1875 52.2949C85.7443 51.9341 84.8121 52.9125 83.8477 53.877C82.7088 55.0158 82.0546 56.76 81.3867 58.0957C80.3797 60.1098 78.2501 62.1992 76.7285 63.7207C75.9883 64.4609 74.6085 65.0715 74.0039 65.918C73.7495 66.2742 74.9855 68.6465 75.2344 69.082C75.3006 69.1979 73.4361 73.5013 73.125 73.916Z"
   fill="#e6c583"
   fill-rule="nonzero"
   opacity="1"
   stroke="none"
   id="path4019"
   style="fill:#ffffff" />
<path
   d="M90.5273 43.6816C90.2087 44.0003 89.8792 43.7146 89.5605 44.0332C89.4727 43.9453 89.4727 43.9453 89.3848 43.8574C88.9199 44.3223 86.711 44.4472 85.957 44.8242C83.4452 46.0802 81.0174 47.8479 79.1895 50.3613C77.3659 52.8687 76.0328 55.9641 75.0586 58.8867C74.8088 59.6362 74.3363 62.6852 74.0039 63.0176C74.0918 63.1055 74.0918 63.1055 74.1797 63.1934C73.5775 63.7956 73.9453 64.8926 74.0039 65.7422C74.0096 65.8249 74.1211 65.8594 74.1797 65.918C76.0425 64.0551 78.2353 62.5995 79.8926 60.4688C81.132 58.8752 82.0506 57.2075 82.8809 55.5469C84.0282 53.2522 86.7658 50.9153 88.6816 53.7891C89.0373 54.3226 89.4894 54.9775 89.5605 55.5469C90.212 60.7582 83.8541 64.5215 87.5391 70.0488C88.1019 70.8931 88.9246 71.8402 89.9121 72.334C90.6553 72.7056 92.115 72.6855 92.7246 72.6855C95.2255 72.6855 96.3964 69.0828 96.5039 67.1484C96.5882 65.6308 96.5943 64.5319 96.416 63.1055C96.0328 60.0395 94.2113 55.1515 97.0313 52.7344C98.1921 51.7394 99.7068 52.8611 100.547 53.7012C101.541 54.6949 101.328 56.7826 101.426 58.0078C101.478 58.6656 102.164 59.9493 102.568 60.4688C103.579 61.7686 105.608 63.5796 107.227 63.9844C107.703 64.1034 108.734 64.173 109.072 64.5117C109.571 64.0128 109.307 63.1055 109.248 62.4023C109.241 62.3198 109.131 62.2852 109.072 62.2266C109.16 62.1387 109.16 62.1387 109.248 62.0508C108.929 61.7322 109.215 61.4026 108.896 61.084C109.01 60.8571 107.487 54.8402 107.227 54.5801C107.353 54.3266 107.245 54.0709 107.051 53.877C107.139 53.7891 107.139 53.7891 107.227 53.7012C106.551 53.0258 106.638 51.8406 106.084 51.0645C105.365 50.058 104.579 49.0321 103.623 48.0762C102.494 46.9468 101.143 46.1768 99.8438 45.5273C99.3058 45.2583 98.5318 45.1822 98.0859 44.7363C97.6532 44.9527 95.8551 44.3512 95.5371 44.0332C95.4492 44.1211 95.4492 44.1211 95.3613 44.209C95.0829 43.9305 94.8488 44.1359 94.5703 43.8574C94.4824 43.9453 94.4824 43.9453 94.3945 44.0332C94.1823 43.821 92.8492 43.557 92.5488 43.8574C92.141 43.4496 91.4625 43.4497 91.0547 43.8574C90.9668 43.7695 90.9668 43.7695 90.8789 43.6816C90.791 43.7695 90.791 43.7695 90.7031 43.8574C90.6152 43.7695 90.6152 43.7695 90.5273 43.6816Z"
   fill="#68c40c"
   fill-rule="nonzero"
   opacity="1"
   stroke="none"
   id="path4021"
   style="fill:#000000" />
<path
   d="M72.8613 73.8281C72.3455 73.9819 71.8479 74.1952 71.3672 74.3555C69.6866 74.9157 67.4035 75.9311 65.918 76.9922C60.4915 80.8682 54.9121 85.2831 51.0645 91.0547C50.6856 91.6229 50.0924 92.0061 49.6582 92.5488C48.8885 93.5109 48.2748 94.745 47.5488 95.7129C47.1362 96.2631 46.6507 96.581 46.4941 97.207C46.2784 98.0702 45.3897 98.9764 45 99.7559C44.2337 101.288 43.7964 102.839 43.2422 104.502C43.193 104.65 42.7491 107.024 43.5059 107.402C46.6059 108.952 49.5001 104.754 51.8555 103.184C55.531 100.733 58.9767 97.7457 62.8418 95.5371C63.5429 95.1365 66.334 94.0157 66.709 93.5156C67.0234 93.0964 67.0899 92.2704 67.2363 91.7578C67.7322 90.0223 68.257 88.2834 68.9063 86.6602C70.2658 83.2612 71.5049 79.7598 72.7734 76.377C73.005 75.7594 73.7202 73.5721 72.8613 73.8281Z"
   fill="#f5891d"
   fill-rule="nonzero"
   opacity="1"
   stroke="none"
   id="path4023"
   style="fill:#000000" />
<path
   d="M116.191 96.8555C116.279 96.7676 116.279 96.7676 116.367 96.6797C116.686 96.9983 117.015 96.7126 117.334 97.0313C117.647 96.8746 118.298 96.9405 118.564 97.207C118.652 97.1191 118.652 97.1191 118.74 97.0313C119.019 97.3097 119.253 97.1044 119.531 97.3828C119.619 97.2949 119.619 97.2949 119.707 97.207C120.421 97.9209 122.156 97.904 123.047 98.3496C126.012 99.8321 128.831 102.06 131.572 103.887C133.144 104.935 135.712 105.741 137.021 107.051C137.109 106.963 137.109 106.963 137.197 106.875C138.562 108.24 138.212 104.608 138.076 104.063C137.423 101.449 135.249 98.3244 133.857 95.8887C130.978 90.8494 126.973 85.9696 122.344 82.002C119.982 79.978 117.315 78.6484 114.873 76.9043C113.282 75.7678 111.565 75.0303 109.863 74.1797C109.606 74.0513 108.629 73.4347 108.369 73.5645C108.042 73.728 109.804 78.249 110.039 78.8379C111.419 82.2876 111.996 85.8388 113.379 89.2969C114.296 91.5887 114.32 94.229 115.049 96.416C115.218 96.9246 115.875 96.5389 116.191 96.8555Z"
   fill="#f5891d"
   fill-rule="nonzero"
   opacity="1"
   stroke="none"
   id="path4025"
   style="fill:#000000" />
<path
   d="M105.732 136.67C104.506 137.897 102.237 137.704 101.074 138.867C102.156 141.031 104.121 142.629 105.908 144.229C106.544 144.797 107.855 144.681 108.369 145.195C108.457 145.107 108.457 145.107 108.545 145.02C108.633 145.107 108.633 145.107 108.721 145.195C108.809 145.107 108.809 145.107 108.896 145.02C108.984 145.107 108.984 145.107 109.072 145.195C109.16 145.107 109.16 145.107 109.248 145.02C109.38 145.107 109.38 145.107 109.512 145.195C110.102 144.605 110.825 145.202 111.357 144.404C111.117 144.164 111.117 144.117 111.357 143.877C112.139 144.659 114.207 143.211 113.203 142.207C113.467 141.943 113.467 141.943 113.73 141.68C112.034 139.134 108.149 138.926 105.732 136.67Z"
   fill="#e3b02b"
   fill-rule="nonzero"
   opacity="1"
   stroke="none"
   id="path4027" />
<path
   d="M67.6758 140.713C67.9435 140.981 67.9239 141.171 68.291 141.416C67.8309 141.876 67.88 141.703 68.0273 142.734C68.1195 143.38 69.1722 143.286 69.5215 143.35C69.8397 143.407 69.6587 143.956 69.6973 144.053C69.82 144.36 71.1749 144.654 71.543 144.58C72.6284 144.363 74.2455 144.192 75.1465 143.35C76.0089 142.543 76.8189 141.68 77.6953 140.889C78.2116 140.422 78.9246 139.88 79.3652 139.219C79.4882 139.034 79.7973 138.406 79.7168 138.164C79.6902 138.084 75.7745 136.406 75.4102 136.406C75.2254 136.406 73.4413 137.874 73.0371 138.076C71.8307 138.679 69.5432 138.849 68.5547 139.658C68.2982 139.868 68.0586 140.103 67.8516 140.361C67.7697 140.464 67.7684 140.62 67.6758 140.713Z"
   fill="#e3b02b"
   fill-rule="nonzero"
   opacity="1"
   stroke="none"
   id="path4029" />
<path
   d="M91.1426 63.0176C88.161 63.2343 88.2255 69.6973 91.6699 69.6973C95.324 69.6973 95.4337 62.7057 91.1426 63.0176Z"
   fill="#e3b02b"
   fill-rule="nonzero"
   opacity="1"
   stroke="none"
   id="path4031" />
<path
   d="M85.2539 53.877C83.6067 54.3173 83.092 56.1629 83.4961 58.1836C83.699 59.1982 85.1098 61.1701 86.3965 60.2051C88.4714 58.6489 88.4465 53.0235 85.2539 53.877Z"
   fill="#2e3a42"
   fill-rule="nonzero"
   opacity="1"
   stroke="none"
   id="path4033" />
<path
   d="M98.5254 53.7891C95.3077 53.6898 95.3771 60.293 98.7012 60.293C101.02 60.293 101.525 53.8816 98.5254 53.7891Z"
   fill="#2e3a42"
   fill-rule="nonzero"
   opacity="1"
   stroke="none"
   id="path4035" />
<path
   d="M93.1641 66.0938C92.0801 66.123 90.9933 66.0985 89.9121 66.1816C89.2222 66.2347 90.5106 67.8025 90.8789 67.8516C92.1071 68.0153 93.2798 67.4444 93.8672 66.2695C93.7793 66.1816 93.7793 66.1816 93.1641 66.0938Z"
   fill="#232a24"
   fill-rule="nonzero"
   opacity="1"
   stroke="none"
   id="path4037" />
</g>
</g>
</svg>
