<?xml version="1.0" encoding="UTF-8" standalone="no"?>
<!DOCTYPE svg PUBLIC "-//W3C//DTD SVG 1.1//EN" "http://www.w3.org/Graphics/SVG/1.1/DTD/svg11.dtd">
<!-- Created with Vectornator (http://vectornator.io/) -->
<svg height="100%" stroke-miterlimit="10" style="fill-rule:nonzero;clip-rule:evenodd;stroke-linecap:round;stroke-linejoin:round;" version="1.1" viewBox="0 0 1080 1080" width="100%" xml:space="preserve" xmlns="http://www.w3.org/2000/svg" xmlns:vectornator="http://vectornator.io" xmlns:xlink="http://www.w3.org/1999/xlink">
<defs/>
<g id="Layer-1" vectornator:layerName="Layer 1">
<g opacity="1">
<path d="M460.371 432.422C455.459 437.334 449.063 465.523 447.188 473.027C446.356 476.353 446.789 481.336 444.023 484.102C445.593 487.24 441.803 496.091 440.859 499.395C437.447 511.339 435.986 522.581 432.949 534.727C427.183 557.792 422.925 582.209 418.184 605.918C416.9 612.334 410.624 618.226 408.164 624.375C403.712 635.504 397.015 647.05 391.289 657.07C384.642 668.704 378.364 685.369 374.941 698.203C374.329 700.5 375.643 712.616 377.051 714.023C374.871 718.383 381.464 737.712 383.379 742.5C385.683 748.261 387.263 754.68 389.18 760.43C396.913 783.631 425.107 812.671 446.133 823.184C455.011 827.623 465.859 832.445 475.664 836.367C479.329 837.833 485.17 837.436 487.793 840.059C489.721 839.094 495.967 840.849 497.285 842.168C497.813 841.641 497.813 841.641 498.34 841.113C500.011 842.784 501.415 841.552 503.086 843.223C503.613 842.695 503.613 842.695 504.141 842.168C505.931 843.959 507.623 842.487 509.414 844.277C512.086 842.941 515.23 843.238 517.324 845.332C517.852 844.805 517.852 844.805 518.379 844.277C521.272 847.17 525.506 843.494 528.398 846.387C528.926 845.859 528.926 845.859 529.453 845.332C531.44 846.326 532.544 846.987 534.199 845.332C535.806 846.939 537.31 846.387 539.473 846.387C548.438 846.387 557.409 846.725 566.367 846.387C566.864 846.368 567.07 845.684 567.422 845.332C567.949 845.859 567.949 845.859 568.477 846.387C569.268 845.859 569.268 845.859 570.059 845.332C570.586 845.859 570.586 845.859 571.113 846.387C574.006 843.494 578.24 847.17 581.133 844.277C581.66 844.805 581.66 844.805 582.188 845.332C584.588 842.932 587.697 845.623 590.098 843.223C590.625 843.75 590.625 843.75 591.152 844.277C594.577 840.853 614.374 839.786 621.211 836.367C637.213 828.366 652.612 817.268 665.508 803.145C679.372 787.96 690.868 768.198 697.148 749.355C699.392 742.624 702.102 735.134 703.477 728.262C704.166 724.814 702.383 719.863 705.059 717.188C703.581 714.232 703.778 710.558 706.113 708.223C705.586 707.695 705.586 707.695 705.059 707.168C710.461 701.765 701.59 684.797 706.113 680.273C705.586 679.746 705.586 679.746 705.059 679.219C705.586 678.691 705.586 678.691 706.113 678.164C705.586 677.637 705.586 677.637 705.059 677.109C705.586 676.582 705.586 676.582 706.113 676.055C703.705 673.646 706.255 676.694 705.059 671.309C703.851 665.872 697.022 659.454 694.512 654.434C688.199 641.808 680.816 631.795 675.527 618.574C671.549 608.629 670.222 597.319 668.145 586.934C662.34 557.91 657.601 529.472 651.797 500.449C648.593 484.431 644.665 468.231 640.723 452.461C639.84 448.931 638.683 437.015 634.395 435.586C632.21 434.858 622.461 447.278 620.156 450.352C608.012 466.544 605.375 486.368 584.824 495.176C577.943 498.125 568.079 499.565 560.566 500.449C553.217 501.314 545.827 502.031 538.418 502.031C534.517 502.031 532.177 499.772 528.398 499.395C523.009 498.856 514.04 492.115 509.941 488.32C505.654 484.35 501.417 480.323 497.285 476.191C482.717 461.623 478.473 445.998 460.371 432.422Z" fill="#221b43" fill-rule="nonzero" opacity="1" stroke="none"/>
<path d="M451.406 422.402C443.003 435.007 441.583 451.493 435.059 466.172C411.018 520.263 394.362 577.37 383.379 632.285C380.382 647.27 375.996 662.469 375.996 678.691C375.996 681.773 373.263 695.47 376.523 698.73C378.182 697.072 377.72 694.188 378.105 691.875C379.785 681.795 386.106 668.469 390.234 659.18C395.578 647.156 403.13 636.553 409.219 624.375C412.032 618.749 418.001 612.106 419.238 605.918C423.099 586.616 429.29 565.648 432.422 546.855C435.986 525.472 439.101 504.143 446.133 483.047C447.882 477.798 448.038 472.381 450.352 467.754C455.383 457.69 454.221 444.02 460.898 434.004C466.612 439.717 472.587 445.165 478.301 450.879C484.331 456.909 487.518 465.315 493.066 471.973C513.459 496.444 531.588 506.861 563.73 501.504C586.172 497.764 603.789 487.315 612.246 466.172C615.521 457.984 621.805 449.486 628.066 442.441C629.803 440.488 631.693 435.718 633.867 437.168C638.747 440.421 638.899 450.965 640.195 456.152C644.238 472.323 647.65 488.909 651.27 505.195C657.649 533.902 661.841 562.269 667.617 591.152C669.384 599.985 670.55 609.557 673.945 618.047C681.626 637.249 692.611 654.22 704.004 671.309C706.366 668.947 703.913 666.217 705.059 663.926C700.645 659.512 706.812 651.968 702.422 647.578C703.362 645.699 702.966 641.795 701.367 640.195C701.895 639.668 701.895 639.668 702.422 639.141C700.51 637.229 702.224 635.252 700.313 633.34C700.84 632.813 700.84 632.813 701.367 632.285C699.576 630.494 701.049 628.803 699.258 627.012C700.327 624.874 699.834 622.842 698.203 621.211C698.73 620.684 698.73 620.684 699.258 620.156C696.506 617.404 698.805 612.848 696.094 610.137C696.621 609.609 696.621 609.609 697.148 609.082C693.143 605.077 695.527 595.983 693.457 591.152C689.466 581.84 687.472 569.848 685.02 560.039C683.658 554.592 684.209 544.463 680.273 540.527C681.175 538.724 672.647 514.484 671.309 510.469C666.886 497.202 661.949 483.249 658.125 469.863C655.96 462.284 650.477 454.302 648.105 447.188C646.364 441.963 644.338 434.455 640.195 430.313C647.79 422.718 657.893 405.675 655.488 394.453C654.873 391.58 643.674 390.36 640.723 389.18C631.41 385.455 618.811 375.415 614.355 366.504C607.325 352.444 612.356 317.622 585.879 321.152C577.354 322.289 574.697 335.086 573.223 341.719C567.561 367.195 583.439 393.138 576.914 419.238C573.201 434.092 558.054 449.886 541.055 441.387C523.167 432.443 513.789 409.558 522.07 390.234C526.476 379.953 532.761 369.237 536.309 358.594C540.277 346.689 537.426 325.919 523.125 321.152C514.407 318.246 508.021 326.237 502.559 331.699C495.994 338.264 492.29 348.017 488.32 355.957C482.341 367.916 469.904 380.174 460.898 389.18C456.04 394.038 448.359 397.688 444.023 402.891C443.255 403.813 449.359 420.355 451.406 422.402Z" fill="#f0eeea" fill-rule="nonzero" opacity="1" stroke="none"/>
<path d="M540.527 271.055C538.832 270.207 535.614 270.694 534.199 272.109C533.672 271.582 533.672 271.582 533.145 271.055C529.651 274.548 515.806 275.762 510.469 278.965C497.576 286.701 482.924 297.869 474.082 311.133C465.874 323.444 457.692 338.154 452.988 352.266C451.095 357.945 448.383 374.8 445.078 378.105C445.605 378.633 445.605 378.633 446.133 379.16C444.621 380.672 445.256 383.357 445.078 385.488C445 386.432 444.056 387.179 444.023 388.125C443.866 392.693 443.698 397.277 444.023 401.836C444.059 402.332 444.727 402.539 445.078 402.891C452.09 395.878 461.189 390.471 468.281 383.379C484.051 367.609 490.042 347.607 503.613 332.227C507.985 327.272 515.17 318.798 523.125 322.207C535.497 327.509 538.714 342.874 536.309 354.902C532.296 374.966 516.864 389.128 518.379 411.855C519.344 426.329 541.325 451.798 557.93 443.496C588.931 427.995 578.509 388.743 574.277 359.121C573.086 350.785 573.149 323.904 585.879 322.207C608.988 319.126 606.574 345.925 610.137 360.176C612.964 371.483 625.697 381.931 635.977 387.07C641.482 389.823 649.123 395.52 655.488 393.398C655.488 389.34 657.303 384.139 654.434 381.27C654.961 380.742 654.961 380.742 655.488 380.215C653.333 378.06 655.534 375.515 653.379 373.359C653.906 372.832 653.906 372.832 654.434 372.305C651.296 369.167 653.352 363.313 650.215 360.176C650.742 359.648 650.742 359.648 651.27 359.121C646.305 354.156 649.27 343.938 644.414 339.082C646.347 335.215 641.501 328.235 640.195 324.316C636.389 312.897 629.557 300.109 618.047 293.203C615.511 291.681 608.791 283.329 605.918 284.766C599.862 278.709 589.015 279.992 583.242 274.219C582.715 274.746 582.715 274.746 582.188 275.273C580.223 273.309 577.335 274.112 575.332 272.109C574.805 272.637 574.805 272.637 574.277 273.164C573.014 271.901 570.565 271.329 569.004 272.109C567.092 270.198 565.115 271.912 563.203 270C562.676 270.527 562.676 270.527 562.148 271.055C559.777 268.684 542.468 269.114 540.527 271.055Z" fill="#221b43" fill-rule="nonzero" opacity="1" stroke="none"/>
<path d="M489.375 220.957C488.848 221.484 488.848 221.484 488.32 222.012C483.122 219.413 475.245 223.962 470.391 225.176C449.134 230.49 427.921 247.994 411.328 263.145C406.97 267.123 398.876 275.847 394.453 281.074C389.324 287.135 382.698 295.774 380.215 303.223C377.232 312.171 375.157 322.337 373.359 332.227C372.799 335.311 373.57 340.981 371.25 343.301C371.777 343.828 371.777 343.828 372.305 344.355C370.149 346.511 372.351 349.056 370.195 351.211C370.723 351.738 370.723 351.738 371.25 352.266C368.85 354.666 371.541 357.775 369.141 360.176C369.668 360.703 369.668 360.703 370.195 361.23C367.549 363.877 370.732 367.549 368.086 370.195C369.526 371.636 369.526 371.919 368.086 373.359C368.613 373.887 368.613 373.887 369.141 374.414C368.818 375.06 368.097 376.377 368.086 377.051C367.919 387.069 367.746 397.096 368.086 407.109C368.103 407.606 368.789 407.813 369.141 408.164C368.613 408.691 368.613 408.691 368.086 409.219C368.613 409.746 368.613 409.746 369.141 410.273C368.613 410.801 368.613 410.801 368.086 411.328C371.226 414.468 367.056 419.263 370.195 422.402C368.859 425.075 369.155 428.218 371.25 430.313C370.723 430.84 370.723 430.84 370.195 431.367C372.107 433.279 370.393 435.256 372.305 437.168C371.777 437.695 371.777 437.695 371.25 438.223C376.545 443.518 371.557 456.459 377.051 461.953C374.982 466.09 380.709 478.482 382.324 482.52C385.791 491.187 388.382 500.694 391.289 509.414C393.966 517.444 399.248 524.302 402.363 532.09C403.615 535.219 404.646 539.646 407.109 542.109C412.894 537.771 412.14 525.463 416.074 518.906C418.289 515.215 420.742 507.853 421.348 503.613C423.265 490.195 431.646 478.086 436.113 466.172C438.231 460.524 439.162 454.273 441.914 448.77C439.663 446.519 434.597 435.982 436.113 432.949C433.419 430.255 435.12 426.155 432.422 423.457C433.562 421.176 430.761 409.668 429.258 408.164C429.785 407.637 429.785 407.637 430.313 407.109C428.642 405.439 429.874 404.034 428.203 402.363C428.73 401.836 428.73 401.836 429.258 401.309C425.109 397.16 430.202 387.487 426.094 383.379C426.621 382.852 426.621 382.852 427.148 382.324C426.621 381.797 426.621 381.797 426.094 381.27C426.621 380.742 426.621 380.742 427.148 380.215C426.621 379.688 426.621 379.688 426.094 379.16C426.621 378.633 426.621 378.633 427.148 378.105C426.797 377.754 426.114 377.548 426.094 377.051C425.757 368.796 425.757 360.52 426.094 352.266C426.114 351.769 426.797 351.563 427.148 351.211C425.708 349.771 425.708 349.487 427.148 348.047C425.54 344.829 425.681 336.858 428.203 334.336C427.676 333.809 427.676 333.809 427.148 333.281C428.939 331.49 427.467 329.799 429.258 328.008C427.49 324.472 435.279 308.056 437.168 304.277C445.94 286.734 456.891 273.707 473.027 258.398C478.444 253.26 503.545 236.605 499.395 226.23C497.457 221.387 492.338 222.933 489.375 220.957Z" fill="#221b43" fill-rule="nonzero" opacity="1" stroke="none"/>
<path d="M601.172 221.484C601.699 222.275 601.699 222.275 602.227 223.066C599.39 225.903 605.207 234.888 606.973 237.832C616.074 253 633.499 264.332 640.195 281.074C649.346 303.95 665.305 325.089 671.309 349.102C672.145 352.447 674.468 374.409 676.055 375.996C675.352 377.402 675.352 376.699 676.055 378.105C675.527 378.633 675.527 378.633 675 379.16C676.44 380.6 676.44 380.884 675 382.324C676.522 383.846 676.406 388.828 675 390.234C675.527 390.762 675.527 390.762 676.055 391.289C675.527 391.816 675.527 391.816 675 392.344C675.527 392.871 675.527 392.871 676.055 393.398C674.652 394.801 671.717 418.012 670.254 422.402C668.068 428.961 664.429 436.162 661.289 442.441C658.793 447.434 651.797 451.836 651.797 457.734C651.797 464.682 658.463 472.099 660.234 478.301C663.301 489.035 667.773 500.916 671.309 511.523C674.472 521.014 674.727 531.68 680.273 540C686.573 536.85 691.248 526.455 694.512 521.016C707.579 499.237 717.203 473.463 721.406 448.242C722.055 444.347 723.422 419.859 725.098 418.184C723.105 414.198 723.059 404.402 726.152 401.309C724.712 399.868 724.712 399.585 726.152 398.145C725.625 397.617 725.625 397.617 725.098 397.09C726.582 394.863 725.167 395.37 726.152 393.398C725.625 392.871 725.625 392.871 725.098 392.344C725.625 391.816 725.625 391.816 726.152 391.289C724.712 389.849 724.712 389.565 726.152 388.125C725.625 387.598 725.625 387.598 725.098 387.07C726.91 384.352 724.34 385.042 726.152 382.324C724.463 380.635 723.423 369.327 725.098 365.977C721.307 362.186 725.519 353.215 721.406 349.102C723.086 345.741 713.904 327.651 712.441 323.262C702.251 292.691 674.675 257.162 650.215 234.141C645.281 229.497 637.463 224.073 631.23 220.957C627.604 219.144 623.106 219.16 620.156 216.211C619.629 216.738 619.629 216.738 619.102 217.266C612.491 210.655 605.492 217.165 601.172 221.484Z" fill="#221b43" fill-rule="nonzero" opacity="1" stroke="none"/>
<path d="M456.152 872.227C456.68 872.754 456.68 872.754 457.207 873.281C460.484 870.004 464.345 869.963 468.281 865.371C471.481 868.571 473.613 873.325 479.355 871.172C483.288 869.697 487.723 857.919 485.156 855.352C485.684 854.824 485.684 854.824 486.211 854.297C485.684 853.77 485.684 853.77 485.156 853.242C485.684 852.715 485.684 852.715 486.211 852.188C484.17 850.147 485.194 846.424 483.047 844.277C483.574 843.75 483.574 843.75 484.102 843.223C482.209 841.33 483.825 838.664 481.465 836.895C480.811 836.404 457.131 827.239 456.152 827.402C452.561 828.001 435.899 839.01 434.004 842.168C430.471 848.056 417.512 854.312 421.348 863.262C422.229 865.318 424.175 866.857 426.094 868.008C428.773 869.615 433.243 865.518 435.059 866.426C438.29 868.042 439.753 872.969 443.496 873.281C447.715 873.633 453.159 875.22 456.152 872.227Z" fill="#dfad2b" fill-rule="nonzero" opacity="1" stroke="none"/>
<path d="M626.484 832.148C619.101 839.532 603.504 836.068 595.371 842.168C589.689 846.43 591.057 860.193 587.988 863.262C594.024 869.297 601.539 876.078 610.137 867.48C612.625 869.969 618.598 876.948 622.266 873.281C622.793 873.809 622.793 873.809 623.32 874.336C625.276 872.381 629.459 868.39 631.758 866.953C633.008 866.172 636.224 869.063 637.559 869.063C644.994 869.063 652.742 865.888 649.16 856.934C648.54 855.384 647.726 852.027 646.523 850.605C644.918 848.708 642.841 847.242 641.25 845.332C640.125 843.982 639.492 842.168 638.086 841.113C634.893 838.719 629.923 835.096 626.484 832.148Z" fill="#dfad2b" fill-rule="nonzero" opacity="1" stroke="none"/>
<path d="M548.438 385.488C531.688 386.452 527.788 417.94 544.219 424.512C547.161 425.689 550.542 425.039 553.711 425.039C565.202 425.039 566.367 407.37 566.367 400.254C566.367 391.685 555.577 385.077 548.438 385.488Z" fill="#dfad2b" fill-rule="nonzero" opacity="1" stroke="none"/>
<path d="M510.469 331.172C498.659 334.73 500.977 342.383 500.977 356.484C500.977 363.215 512.079 374.758 518.906 368.613C531.372 357.394 529.838 325.337 510.469 331.172Z" fill="#2d3841" fill-rule="nonzero" opacity="1" stroke="none"/>
<path d="M588.516 330.117C571.341 334.002 572.589 369.141 593.262 369.141C599.686 369.141 602.776 357.865 603.281 353.32C604.522 342.156 600.585 327.387 588.516 330.117Z" fill="#2d3841" fill-rule="nonzero" opacity="1" stroke="none"/>
<path d="M539.473 404.473C536.495 407.45 541.167 414.094 544.746 414.492C553.528 415.468 556.301 413.488 562.148 407.109C562.542 406.68 561.637 404.521 561.621 404.473C554.149 404.473 548.699 405 539.473 404.473Z" fill="#2d3841" fill-rule="nonzero" opacity="1" stroke="none"/>
</g>
</g>
</svg>
