<?xml version="1.0" encoding="UTF-8" standalone="no"?>
<!DOCTYPE svg PUBLIC "-//W3C//DTD SVG 1.1//EN" "http://www.w3.org/Graphics/SVG/1.1/DTD/svg11.dtd">
<!-- Created with Vectornator (http://vectornator.io/) -->
<svg height="100%" stroke-miterlimit="10" style="fill-rule:nonzero;clip-rule:evenodd;stroke-linecap:round;stroke-linejoin:round;" version="1.1" viewBox="0 0 1080 1080" width="100%" xml:space="preserve" xmlns="http://www.w3.org/2000/svg" xmlns:vectornator="http://vectornator.io" xmlns:xlink="http://www.w3.org/1999/xlink">
<defs/>
<g id="Layer-1" vectornator:layerName="Layer 1">
<g opacity="1">
<path d="M460.371 383.906C453.355 390.923 454.101 406.075 450.352 416.074C442.639 436.641 439.434 459.218 434.004 480.938C431.218 492.082 429.876 504.304 427.148 515.215C426.372 518.322 427.574 521.645 425.039 524.18C426.046 526.194 425.507 527.931 423.984 529.453C424.248 529.98 424.248 529.98 424.512 530.508C421.935 533.084 422.759 540.983 421.348 544.746C418.291 552.896 417.358 563.073 411.328 571.113C399.759 586.539 390.641 607.429 383.379 624.375C381.366 629.071 381.553 634.694 379.688 639.668C378.342 643.256 375.775 646.601 374.941 650.215C372.971 658.754 377.643 670.576 379.16 678.164C383.779 701.259 393.455 727.233 410.273 745.137C424.202 759.964 437.396 770.3 453.516 778.359C461.069 782.136 472.905 788.354 480.938 789.961C484.479 790.669 492.233 790.182 495.176 793.125C495.703 792.598 495.703 792.598 496.23 792.07C497.782 793.622 498.897 792.628 500.449 794.18C502.587 793.111 504.619 793.604 506.25 795.234C506.777 794.707 506.777 794.707 507.305 794.18C509.46 796.335 512.005 794.134 514.16 796.289C514.688 795.762 514.688 795.762 515.215 795.234C517.615 797.635 520.725 794.943 523.125 797.344C523.652 796.816 523.652 796.816 524.18 796.289C524.707 796.816 524.707 796.816 525.234 797.344C525.762 796.816 525.762 796.816 526.289 796.289C529.676 799.676 535.031 795.012 538.418 798.398C538.945 797.871 538.945 797.871 539.473 797.344C540.264 797.871 540.264 797.871 541.055 798.398C541.582 797.871 541.582 797.871 542.109 797.344C542.637 797.871 542.637 797.871 543.164 798.398C543.691 797.871 543.691 797.871 544.219 797.344C544.746 797.871 544.746 797.871 545.273 798.398C545.801 797.871 545.801 797.871 546.328 797.344C546.855 797.871 546.855 797.871 547.383 798.398C547.91 797.871 547.91 797.871 548.438 797.344C550.165 798.208 550.648 798.824 552.129 797.344C552.656 797.871 552.656 797.871 553.184 798.398C553.711 797.871 553.711 797.871 554.238 797.344C554.766 797.871 554.766 797.871 555.293 798.398C555.82 797.871 555.82 797.871 556.348 797.344C558.437 798.388 560.321 796.571 562.148 798.398C565.783 794.764 571.698 799.924 575.332 796.289C575.859 796.816 575.859 796.816 576.387 797.344C576.914 796.816 576.914 796.816 577.441 796.289C580.114 797.625 583.257 797.329 585.352 795.234C585.879 795.762 585.879 795.762 586.406 796.289C588.562 794.134 591.106 796.335 593.262 794.18C593.789 794.707 593.789 794.707 594.316 795.234C597.987 791.564 615.584 791.333 622.266 787.324C641.683 775.674 657.672 764.032 673.418 745.137C684.841 731.43 694.443 711.891 699.258 695.039C700.496 690.705 703.403 670.328 705.059 668.672C704.013 666.581 704.31 662.038 706.113 660.234C705.586 659.707 705.586 659.707 705.059 659.18C705.586 658.652 705.586 658.652 706.113 658.125C702.654 651.207 706.113 642.656 706.113 634.922C706.113 632.887 704.178 633.165 706.113 631.23C705.586 630.703 705.586 630.703 705.059 630.176C705.586 629.648 705.586 629.648 706.113 629.121C705.41 627.715 705.41 628.418 706.113 627.012C704.967 625.866 705.682 623.762 705.059 622.266C702.251 615.528 695.437 606.779 691.348 600.645C684.184 589.899 679.927 578.859 674.473 567.949C670.451 559.907 671.608 548.467 669.727 540C663.749 513.1 658.391 484.902 652.852 457.207C649.652 441.21 644.374 424.837 641.25 409.219C640.028 403.109 640.53 391.16 634.395 387.07C631.285 384.997 628.527 391.74 625.957 394.453C620.406 400.313 616.889 407.685 613.301 413.965C610.276 419.257 608.062 424.443 605.391 429.785C598.673 443.221 580.74 448.458 567.422 450.879C532.758 457.182 513.829 449.399 492.012 421.348C481.233 407.489 475.736 398.744 461.426 384.434C461.148 384.156 460.723 384.082 460.371 383.906Z" fill="#221b43" fill-rule="nonzero" opacity="1" stroke="none"/>
<path d="M403.418 503.613C404.975 506.727 398.034 521.456 397.09 525.234C391.79 546.433 384.87 567.439 381.27 589.043C380.337 594.64 380.999 607.243 377.051 611.191C377.578 611.719 377.578 611.719 378.105 612.246C375.22 615.131 375.996 626.895 375.996 630.703C375.996 634.574 375.69 638.44 375.469 642.305C375.307 645.134 374.519 648.738 376.523 650.742C380.669 646.597 381.235 630.773 384.434 624.375C391.926 609.389 400.258 593.253 408.164 577.441C411.216 571.338 417.916 564.011 419.238 557.402C420.097 553.107 422.831 533.243 425.566 530.508C425.303 529.98 425.303 529.98 425.039 529.453C428.707 525.786 431.087 500.796 432.422 494.121C435.573 478.367 438.019 463.364 441.387 448.77C443.919 437.795 448.809 426.465 451.406 416.074C453.207 408.873 456.499 388.833 460.371 384.961C467.821 388.686 472.493 396.394 478.301 402.363C481.586 405.739 482.858 409.99 485.156 413.438C506.784 445.879 528.723 459.401 566.895 452.461C581.579 449.791 595.993 443.897 605.391 431.367C609.173 426.324 611.217 419.457 614.355 413.965C617.843 407.862 621.792 400.853 627.012 394.98C629.243 392.47 631.391 386.623 634.395 388.125C638.896 390.376 639.07 405.091 640.195 409.219C644.347 424.442 648.101 440.836 651.27 456.68C655.017 475.418 657.554 494.428 661.289 513.105C662.782 520.57 664.368 528.281 666.035 535.781C666.349 537.192 668.51 539.085 668.672 540C669.623 545.392 669.166 550.909 670.254 556.348C674.776 578.961 688.881 604.118 704.004 622.266C706.366 619.904 703.913 617.174 705.059 614.883C700.645 610.469 706.812 602.925 702.422 598.535C703.362 596.656 702.966 592.752 701.367 591.152C702.329 589.228 700.632 579.871 699.258 578.496C699.792 577.427 692.852 538.868 691.348 537.363C691.875 536.836 691.875 536.836 692.402 536.309C690.156 534.063 691.456 530.616 689.238 528.398C689.766 527.871 689.766 527.871 690.293 527.344C685.298 522.349 684.13 502.001 681.328 493.594C672.112 465.946 664.102 438.135 653.379 411.328C649.873 402.564 647.235 388.31 640.195 381.27C644.837 376.628 650.268 369.507 652.324 363.34C653.403 360.103 652.981 354.773 655.488 352.266C654.961 351.738 654.961 351.738 654.434 351.211C656.175 349.469 656.805 345.443 653.906 344.355C639.228 338.851 628.513 335.45 616.465 321.68C614.273 319.175 611.914 314.025 611.191 311.133C607.893 297.94 612.066 279.29 594.316 274.219C590.199 273.042 586.459 271.015 582.188 274.219C573.21 280.952 572.168 297.024 572.168 306.914C572.168 329.246 582.935 349.913 576.387 372.832C572.401 386.783 555.524 401.658 540 392.344C532.878 388.07 525.113 380.966 522.07 373.359C521.2 371.185 521.806 367.622 521.016 365.449C513.103 343.691 535.855 323.014 537.891 301.641C539.203 287.861 530.039 268.476 513.633 273.164C508.608 274.6 505.727 280.015 502.031 283.711C492.492 293.25 488.652 307.526 480.41 318.516C473.734 327.417 466.152 335.41 458.262 343.301C454.334 347.228 447.226 349.891 444.023 354.375C442.279 356.817 451.778 373.671 451.406 374.414C445.377 386.473 443.043 399.165 437.168 412.383C432.044 423.912 428.199 435.86 423.457 447.715C422.455 450.22 419.709 454.326 419.238 456.68C417.036 467.69 410.924 478.335 408.164 489.375C407.106 493.608 406.731 500.3 403.418 503.613Z" fill="#fcfaf5" fill-rule="nonzero" opacity="1" stroke="none"/>
<path d="M542.109 220.957C540.198 222.869 538.22 221.155 536.309 223.066C535.781 222.539 535.781 222.539 535.254 222.012C532.742 224.523 526.511 224.329 523.125 225.176C516.745 226.771 507.558 231.511 502.031 235.195C473.289 254.357 460.217 284.701 450.352 314.297C446.29 326.482 443.017 338.72 444.023 353.32C444.058 353.816 444.727 354.023 445.078 354.375C453.461 345.993 463.448 339.169 471.973 330.645C486.158 316.459 490.625 298.257 503.086 284.238C508.274 278.402 513.693 271.641 522.07 273.164C533.461 275.235 537.824 291.905 537.363 301.113C537.006 308.262 532.946 313.88 530.508 319.57C524.326 333.995 516.775 348.881 518.379 364.922C520.039 381.522 541.366 401.06 558.984 394.453C591.511 382.256 575.435 332.718 573.75 307.441C573.035 296.723 574.516 270.787 591.152 273.164C609.641 275.805 606.883 298.119 610.137 311.133C613.132 323.115 642.23 349.302 655.488 344.883C655.488 340.649 657.427 335.22 654.434 332.227C654.961 331.699 654.961 331.699 655.488 331.172C653.577 329.26 655.291 327.283 653.379 325.371C653.906 324.844 653.906 324.844 654.434 324.316C651.949 321.832 646.704 299.197 645.469 294.258C644.809 291.619 645.405 288.394 643.359 286.348C643.887 285.82 643.887 285.82 644.414 285.293C639.697 280.576 640.526 270.885 636.504 265.254C633.102 260.492 627.971 255.571 625.43 250.488C623.758 247.146 619.724 245.655 616.992 243.105C609.27 235.898 597.81 234.998 591.152 228.34C590.625 228.867 590.625 228.867 590.098 229.395C588.526 227.823 586.759 227.638 585.352 226.23C584.824 226.758 584.824 226.758 584.297 227.285C581.606 224.594 575.88 225.723 573.223 223.066C572.695 223.594 572.695 223.594 572.168 224.121C569.517 221.47 559.852 220.523 556.875 222.012C553.849 218.986 548.299 218.986 545.273 222.012C544.746 221.484 544.746 221.484 544.219 220.957C543.691 221.484 543.691 221.484 543.164 222.012C542.637 221.484 542.637 221.484 542.109 220.957Z" fill="#221b43" fill-rule="nonzero" opacity="1" stroke="none"/>
<path d="M665.508 445.078C664.078 447.937 668.416 453.937 669.199 456.68C672.645 468.738 677.185 481.238 680.273 493.594C681.066 496.765 681.097 507.001 684.492 508.359C686.277 509.073 706.001 494.654 708.223 493.066C724.714 481.287 739.375 467.573 754.102 453.516C767.002 441.202 779.969 431.325 789.434 417.129C791.254 414.398 792.07 410.274 793.125 407.109C796.5 396.983 802.911 387.592 805.254 377.051C806.126 373.128 805.959 362.635 808.418 360.176C806.821 358.579 805.743 353.886 807.363 352.266C806.836 351.738 806.836 351.738 806.309 351.211C813.448 344.072 803.083 337.267 797.344 340.137C780.021 348.798 766.575 363.52 749.355 373.359C742.242 377.424 734.837 381.89 727.207 384.434C723.518 385.663 717.577 385.053 714.551 387.07C712.482 388.449 711.187 390.752 709.277 392.344C703.674 397.013 690.918 400.044 683.965 401.309C676.406 402.683 667.325 403.945 659.707 403.945C656.673 403.945 651.119 402.516 650.742 405.527C650.029 411.233 660.351 429.609 662.344 435.586C663.316 438.502 663.016 442.587 665.508 445.078Z" fill="#221b43" fill-rule="nonzero" opacity="1" stroke="none"/>
<path d="M276.328 355.43C277.277 357.327 276.695 358.755 275.273 360.176C277.543 362.445 278.92 366.799 281.074 369.141C293.232 382.356 307.178 393.604 321.152 404.473C334.842 415.12 349.855 424.043 361.23 437.168C362.336 438.443 361.891 440.865 362.285 442.441C363.83 448.621 368.469 455.865 371.25 461.426C378.861 476.647 392.133 491.273 404.473 503.613C408.592 499.494 409.522 489.52 411.328 484.102C417.337 466.074 422.62 447.734 430.313 429.785C432.552 424.56 441.619 406.918 440.859 402.363C440.176 398.266 432.288 403.284 429.258 400.254C428.73 400.781 428.73 400.781 428.203 401.309C425.803 398.908 422.693 401.6 420.293 399.199C419.766 399.727 419.766 399.727 419.238 400.254C414.635 395.65 403.884 399.666 399.199 394.98C398.672 395.508 398.672 395.508 398.145 396.035C395.47 393.361 390.064 395.337 387.07 392.344C384.688 393.535 378.84 390.969 377.051 389.18C373.439 390.985 355.492 381.642 351.211 380.215C337.822 375.752 322.651 371.979 311.133 363.34C302.067 356.541 294.082 343.863 281.074 346.465C278.169 347.046 278.237 353.521 276.328 355.43Z" fill="#221b43" fill-rule="nonzero" opacity="1" stroke="none"/>
<path d="M477.246 815.273C476.719 814.746 476.719 814.746 476.191 814.219C478.993 811.417 482.348 794.891 480.41 791.016C480.938 790.488 480.938 790.488 481.465 789.961C477.455 784.615 464.746 782.008 458.262 779.414C456.97 778.897 452.285 775.664 451.406 776.25C444.12 781.108 437.685 786.592 430.313 791.016C424.66 794.407 411.455 801.793 410.273 809.473C409.169 816.653 412.291 814.904 413.438 819.492C415.71 828.581 419.332 831.996 429.258 831.094C430.667 830.966 438.201 825.275 438.223 825.293C444.851 830.596 449.995 836.555 459.316 835.313C469.67 833.932 471.68 820.84 477.246 815.273Z" fill="#e1ae2a" fill-rule="nonzero" opacity="1" stroke="none"/>
<path d="M629.648 781.523C622.54 788.632 610.905 786.352 603.281 792.07C600.614 794.071 602.507 798.646 600.117 801.035C600.645 801.563 600.645 801.563 601.172 802.09C598.526 804.736 601.709 808.408 599.063 811.055C599.59 811.582 599.59 811.582 600.117 812.109C599.59 812.637 599.59 812.637 599.063 813.164C601.096 815.197 599.139 817.459 601.172 819.492C599.029 823.779 606.796 835.136 610.137 838.477C612.285 840.625 615.032 839.153 616.992 841.113C620.519 838.762 622.338 839.177 625.43 835.313C631.501 841.384 634.34 843.104 642.305 841.113C646.787 839.993 652.362 831.659 648.105 827.402C648.633 826.875 648.633 826.875 649.16 826.348C649.688 826.875 649.688 826.875 650.215 827.402C650.742 826.875 650.742 826.875 651.27 826.348C651.797 826.875 651.797 826.875 652.324 827.402C655.251 824.476 662.369 825.684 663.398 820.02C666.487 803.035 639.107 790.982 629.648 781.523Z" fill="#e1ae2a" fill-rule="nonzero" opacity="1" stroke="none"/>
<path d="M547.383 336.973C526.49 340.13 530.807 377.767 553.184 376.523C564.758 375.88 566.758 359.415 566.367 351.211C565.961 342.683 554.697 335.867 547.383 336.973Z" fill="#e1ae2a" fill-rule="nonzero" opacity="1" stroke="none"/>
<path d="M512.051 282.129C495.61 286.32 495.909 321.152 516.27 321.152C520.907 321.152 523.89 314.494 525.234 311.133C529.522 300.413 526.187 278.525 512.051 282.129Z" fill="#2c3841" fill-rule="nonzero" opacity="1" stroke="none"/>
<path d="M589.57 281.602C573.239 280.654 573.037 317.635 587.988 320.625C605.976 324.222 611.758 282.889 589.57 281.602Z" fill="#2c3841" fill-rule="nonzero" opacity="1" stroke="none"/>
<path d="M559.512 355.43C556.172 355.605 552.829 355.735 549.492 355.957C548.413 356.029 541.069 355.527 539.473 356.484C535.656 358.774 542.357 365.782 545.273 365.977C553.563 366.529 559.201 364.49 563.203 356.484C562.676 355.957 562.676 355.957 559.512 355.43Z" fill="#2c3841" fill-rule="nonzero" opacity="1" stroke="none"/>
</g>
</g>
</svg>
