<?xml version="1.0" encoding="UTF-8" standalone="no"?>
<!DOCTYPE svg PUBLIC "-//W3C//DTD SVG 1.1//EN" "http://www.w3.org/Graphics/SVG/1.1/DTD/svg11.dtd">
<!-- Created with Vectornator (http://vectornator.io/) -->
<svg height="100%" stroke-miterlimit="10" style="fill-rule:nonzero;clip-rule:evenodd;stroke-linecap:round;stroke-linejoin:round;" version="1.1" viewBox="0 0 1080 1080" width="100%" xml:space="preserve" xmlns="http://www.w3.org/2000/svg" xmlns:vectornator="http://vectornator.io" xmlns:xlink="http://www.w3.org/1999/xlink">
<defs/>
<g id="Layer-1" vectornator:layerName="Layer 1">
<g opacity="1">
<path d="M375.996 681.328C374.66 684 374.956 687.144 377.051 689.238C376.523 689.766 376.523 689.766 375.996 690.293C377.667 691.964 376.435 693.368 378.105 695.039C377.578 695.566 377.578 695.566 377.051 696.094C378.318 697.361 377.754 699.609 378.105 701.367C379.838 710.031 383.115 719.56 386.016 728.262C392.041 746.338 406.011 765.133 420.293 779.414C434.196 793.317 450.352 800.719 468.281 807.891C474.008 810.181 490.354 813.615 493.066 816.328C493.594 815.801 493.594 815.801 494.121 815.273C495.673 816.825 496.788 815.831 498.34 817.383C498.867 816.855 498.867 816.855 499.395 816.328C501.494 818.427 509.01 819.694 511.523 818.438C516.243 823.157 524.951 816.044 529.98 821.074C531.116 820.506 533.063 820.506 534.199 821.074C534.727 820.547 534.727 820.547 535.254 820.02C536.528 821.294 536.732 821.074 538.418 821.074C546.68 821.074 554.948 821.411 563.203 821.074C563.7 821.054 563.906 820.371 564.258 820.02C566.311 822.073 568.305 819.934 570.586 821.074C575.485 816.175 584.173 823.308 589.043 818.438C590.922 819.377 594.827 818.982 596.426 817.383C602.357 820.349 623.018 809.971 629.121 806.309C660.399 787.542 684.978 758.446 696.094 725.098C697.633 720.481 704.596 706.244 702.422 701.895C705.081 699.235 707.289 681.449 705.059 679.219C709.788 674.489 706.465 665.859 706.113 659.18C706.087 658.683 705.41 658.477 705.059 658.125C707.617 655.566 703.841 652.487 706.113 650.215C705.088 649.19 705.597 647.342 705.059 645.996C702.943 640.707 697.666 635.429 695.039 630.176C688.575 617.247 678.42 606.414 675 592.734C666.196 557.518 661.05 521.403 653.906 485.684C649.722 464.762 645.81 442.99 640.195 422.402C639.946 421.487 635.453 409.11 633.867 410.273C614.8 424.256 612.424 447.009 596.426 463.008C586.276 473.158 565.006 474.925 551.074 476.191C543.128 476.914 534.76 477.79 527.344 474.082C514.316 467.568 502.57 457.749 493.066 446.133C487.483 439.309 484.314 431.386 478.301 425.039C473.086 419.534 467.843 414.053 462.48 408.691C462.19 408.401 460.015 407.602 459.844 407.637C458.442 407.917 457.918 413.071 457.207 414.492C453.228 422.45 451.792 434.238 449.297 442.969C438.629 480.306 431.261 519.965 423.457 558.984C416.827 592.137 394.555 616.686 383.906 648.633C382.099 654.055 372.432 677.764 375.996 681.328Z" fill="#221b43" fill-rule="nonzero" opacity="1" stroke="none"/>
<path d="M405.527 520.488C405.791 521.016 405.791 521.016 406.055 521.543C402.277 525.321 401.69 536.028 400.254 541.055C395.287 558.44 388.498 576.633 384.961 594.316C383.763 600.307 382.807 618.619 379.16 622.266C379.688 622.793 379.688 622.793 380.215 623.32C378.544 624.991 379.776 626.396 378.105 628.066C378.633 628.594 378.633 628.594 379.16 629.121C375.718 632.563 379.436 638.864 375.996 642.305C376.523 642.832 376.523 642.832 377.051 643.359C373.806 646.604 375.824 673.773 376.523 674.473C380.794 670.202 379.335 659.972 381.797 654.434C384.555 648.229 387.832 640.927 390.234 634.922C397.154 617.623 409.824 602.923 417.129 585.879C422.077 574.334 422.355 561.812 425.566 548.965C431.207 526.401 436.818 500.618 441.387 477.773C443.412 467.649 445.2 457.328 448.242 447.188C449.831 441.891 453.065 435.652 454.043 429.785C455.132 423.25 456.366 413.752 460.898 409.219C467.573 412.556 471.97 419.235 477.246 424.512C480.373 427.639 482.261 431.378 484.102 435.059C489.267 445.39 500.963 457.148 509.414 464.063C537.299 486.877 580.237 480.252 604.336 456.152C608.877 451.611 610.599 443.098 613.301 437.695C617.971 428.355 626.039 419.359 633.34 411.328C639.002 415.103 638.743 425.56 640.195 431.367C644.651 449.188 648.731 467.189 652.324 485.156C663.944 543.257 666.739 599.415 704.004 645.996C706.479 643.521 703.86 640.483 705.059 638.086C700.826 633.853 706.75 626.593 702.422 622.266C702.949 621.738 702.949 621.738 703.477 621.211C700.036 617.771 703.755 611.47 700.313 608.027C701.58 605.493 699.054 592.003 697.148 590.098C697.676 589.57 697.676 589.57 698.203 589.043C692.813 583.653 698.072 570.982 692.402 565.313C692.93 564.785 692.93 564.785 693.457 564.258C688.517 559.318 692.014 548.049 687.129 543.164C687.656 542.637 687.656 542.637 688.184 542.109C686.312 540.237 686.881 537.115 685.02 535.254C685.547 534.727 685.547 534.727 686.074 534.199C683.84 531.965 684.177 527.138 683.438 524.18C680.878 513.941 677.575 504.452 674.473 493.594C666.169 464.533 655.89 432.729 641.25 407.109C639.703 404.402 645.206 399.688 645.996 398.672C650.753 392.555 657.224 377.24 655.488 369.141C655.352 368.504 641.451 364.264 639.141 363.34C631.847 360.422 623.678 352.623 618.047 346.992C606.669 335.615 614.484 317.622 605.918 306.914C586.368 282.476 574.707 302.946 572.168 323.262C568.851 349.8 597.654 417.656 548.438 417.656C541.788 417.656 539.925 413.619 534.199 411.328C522.224 406.538 521.859 391.775 520.488 381.27C517.98 362.036 534.82 347.392 537.363 329.59C538.735 319.99 537.859 301.959 525.762 297.422C504.189 289.332 488.07 332.671 476.191 347.52C469.593 355.767 462.149 363.44 454.043 370.195C451.467 372.342 445.873 374.804 444.023 377.578C442.028 380.571 451.808 397.341 451.406 398.145C444.929 411.098 440.725 424.914 436.113 438.75C431.598 452.297 423.218 466.481 419.238 480.41C416.607 489.62 411.528 500.175 409.219 509.414C408.286 513.144 408.281 517.735 405.527 520.488Z" fill="#f2f0ec" fill-rule="nonzero" opacity="1" stroke="none"/>
<path d="M548.438 244.16C546.4 246.198 524.575 247.758 519.434 249.961C504.886 256.196 492.216 265.121 480.41 277.91C470.142 289.034 458.72 310.284 454.043 324.316C452.16 329.966 449.808 344.372 446.133 348.047C446.66 348.574 446.66 348.574 447.188 349.102C445.636 350.653 446.63 351.768 445.078 353.32C445.605 353.848 445.605 353.848 446.133 354.375C444.221 356.287 445.935 358.264 444.023 360.176C444.551 360.703 444.551 360.703 445.078 361.23C441.465 364.844 443.672 371.426 444.023 376.523C444.058 377.019 444.727 377.227 445.078 377.578C463.257 368.489 478.93 348.053 489.375 330.645C492.161 326.001 494.213 320.247 497.285 316.406C503.173 309.047 508.351 296.367 519.434 296.367C532.561 296.367 537.856 314.983 537.363 324.844C537.199 328.121 534.845 330.172 534.199 332.754C528.737 354.603 511.01 374.968 523.125 399.199C525.462 403.874 529.078 409.822 534.199 412.383C542.562 416.564 546.039 420.456 557.402 418.184C568.966 415.871 572.987 405.629 576.387 396.563C585.476 372.324 572.097 346.187 574.277 322.207C575.216 311.881 576.204 296.895 590.625 296.895C606.563 296.895 609.082 319.536 609.082 330.645C609.082 344.462 641.373 372.791 655.488 368.086C655.488 363.853 657.427 358.423 654.434 355.43C655.373 353.55 654.978 349.646 653.379 348.047C654.327 346.15 653.745 344.722 652.324 343.301C652.852 342.773 652.852 342.773 653.379 342.246C652.019 340.886 646.299 321.601 647.051 320.098C643.346 316.392 643.516 307.013 642.305 302.168C640.19 293.71 634.187 284.269 628.066 277.383C620.207 268.54 607.492 257.341 596.426 254.18C592.042 252.927 583.999 251.772 580.605 248.379C579.084 249.139 577.551 248.488 576.387 247.324C575.859 247.852 575.859 247.852 575.332 248.379C573.78 246.827 572.665 247.821 571.113 246.27C570.586 246.797 570.586 246.797 570.059 247.324C568.147 245.412 566.17 247.127 564.258 245.215C563.73 245.742 563.73 245.742 563.203 246.27C561.048 244.114 558.503 246.316 556.348 244.16C554.907 245.6 554.624 245.6 553.184 244.16C552.656 244.688 552.656 244.688 552.129 245.215C551.602 244.688 551.602 244.688 551.074 244.16C550.547 244.688 550.547 244.688 550.02 245.215C549.229 244.688 549.229 244.688 548.438 244.16Z" fill="#221b43" fill-rule="nonzero" opacity="1" stroke="none"/>
<path d="M679.219 268.418C679.746 268.945 679.746 268.945 680.273 269.473C679.746 270.264 679.746 270.264 679.219 271.055C682.154 273.99 682.646 290.829 686.074 294.258C685.547 294.785 685.547 294.785 685.02 295.313C686.106 296.399 691.151 325.764 690.293 327.48C690.891 328.079 693.051 340.543 691.348 342.246C692.788 343.686 692.788 343.97 691.348 345.41C693.291 349.297 691.424 359.045 688.184 362.285C688.711 362.813 688.711 362.813 689.238 363.34C688.711 363.867 688.711 363.867 688.184 364.395C688.711 364.922 688.711 364.922 689.238 365.449C688.303 367.32 689.819 367.506 688.184 369.141C689.624 370.581 689.624 370.864 688.184 372.305C688.711 372.832 688.711 372.832 689.238 373.359C687.849 374.749 688.535 377.227 688.184 379.16C686.97 385.835 683.433 396.744 679.219 402.363C673.554 409.916 667.36 416.979 660.234 423.457C658.526 425.01 651.341 427.389 650.742 429.785C650.189 431.996 655.823 444.358 657.598 446.133C656.529 448.271 663.405 461.464 663.926 464.59C666.296 478.812 673.47 491.693 677.109 506.25C678.25 510.814 678.336 518.551 681.855 522.07C706.566 500.448 722.696 464.412 732.48 435.059C736.114 424.159 739.433 413.626 742.5 402.891C744.072 397.388 743.231 387.394 747.246 383.379C746.719 382.852 746.719 382.852 746.191 382.324C747.632 380.884 747.632 380.6 746.191 379.16C748.549 376.802 745.042 375.564 747.246 373.359C746.719 372.832 746.719 372.832 746.191 372.305C746.719 371.777 746.719 371.777 747.246 371.25C744.846 368.85 747.537 365.74 745.137 363.34C745.664 362.813 745.664 362.813 746.191 362.285C744.776 360.87 744.289 357.652 745.137 355.957C743.702 354.522 744.462 353.701 743.027 352.266C743.555 351.738 743.555 351.738 744.082 351.211C741.688 346.424 741.734 341.146 740.391 336.445C735.346 318.79 726.374 294.712 713.496 280.547C710.152 276.868 706.628 273.344 702.949 270C700.259 267.555 689.384 257.723 684.492 259.98C679.97 262.068 681.865 265.772 679.219 268.418Z" fill="#221b43" fill-rule="nonzero" opacity="1" stroke="none"/>
<path d="M373.359 331.172C373.887 331.699 373.887 331.699 374.414 332.227C372.014 334.627 374.705 337.736 372.305 340.137C372.832 340.664 372.832 340.664 373.359 341.191C370.959 343.592 373.65 346.701 371.25 349.102C372.69 350.542 372.69 350.825 371.25 352.266C371.777 352.793 371.777 352.793 372.305 353.32C370.149 355.476 372.351 358.02 370.195 360.176C370.723 360.703 370.723 360.703 371.25 361.23C368.85 363.631 371.541 366.74 369.141 369.141C369.668 369.668 369.668 369.668 370.195 370.195C367.056 373.335 371.226 378.13 368.086 381.27C370.645 383.828 366.868 386.907 369.141 389.18C368.613 389.707 368.613 389.707 368.086 390.234C368.613 390.762 368.613 390.762 369.141 391.289C368.613 391.816 368.613 391.816 368.086 392.344C368.613 392.871 368.613 392.871 369.141 393.398C368.441 394.797 368.01 398.069 369.141 399.199C368.613 399.727 368.613 399.727 368.086 400.254C368.613 400.781 368.613 400.781 369.141 401.309C368.613 401.836 368.613 401.836 368.086 402.363C371.473 405.75 366.808 411.105 370.195 414.492C368.859 417.164 369.155 420.308 371.25 422.402C370.723 422.93 370.723 422.93 370.195 423.457C373.924 427.186 370.487 435.35 374.414 439.277C373.887 439.805 373.887 439.805 373.359 440.332C376.623 443.596 377.008 454.927 378.105 459.316C382.118 475.368 390.666 491.293 398.145 506.25C400.373 510.707 402.51 517.471 406.055 521.016C410.172 516.898 410.977 508.707 412.383 503.086C413.416 498.952 416.99 494.08 418.184 489.902C422.135 476.073 427.293 461.328 432.949 447.188C434.068 444.39 441.909 425.179 441.387 424.512C428.801 408.43 414.483 394.429 407.109 375.996C403.429 366.795 399.024 358.068 396.035 349.102C394.79 345.367 395.157 340.313 392.344 337.5C393.191 335.805 392.704 332.587 391.289 331.172C391.816 330.645 391.816 330.645 392.344 330.117C391.816 329.59 391.816 329.59 391.289 329.063C392.153 327.335 392.77 326.852 391.289 325.371C391.816 324.844 391.816 324.844 392.344 324.316C391.816 323.789 391.816 323.789 391.289 323.262C394.694 319.857 393.324 310.905 396.035 306.387C400.236 299.386 405.072 292.229 410.273 285.293C412.134 282.812 411.286 278.48 413.438 276.328C412.91 275.801 412.91 275.801 412.383 275.273C418.635 269.022 407.713 266.931 404.473 267.363C397.555 268.286 388.142 274.185 384.961 280.547C380.083 290.303 378.596 302.842 375.996 313.242C374.891 317.664 376.556 327.975 373.359 331.172Z" fill="#221b43" fill-rule="nonzero" opacity="1" stroke="none"/>
<path d="M459.316 845.332C462.28 848.296 464.781 848.687 467.227 851.133C467.754 850.605 467.754 850.605 468.281 850.078C468.809 850.605 468.809 850.605 469.336 851.133C472.415 848.054 474.783 849.855 478.301 845.332C484.031 837.964 485.255 821.754 482.52 812.637C481.876 810.49 471.241 808.336 468.809 807.363C465.757 806.143 456.783 799.861 454.043 801.035C449.179 803.12 439.611 810.129 435.059 813.164C431.566 815.492 415.271 833.305 417.129 837.949C418.362 841.033 422.034 848.464 427.148 847.441C428.57 847.157 429.961 846.035 431.367 846.387C439.409 848.397 452.507 852.141 459.316 845.332Z" fill="#e8b32a" fill-rule="nonzero" opacity="1" stroke="none"/>
<path d="M628.594 805.781C620.954 813.421 607.274 812.357 598.008 816.328C594.722 817.736 595.721 827.58 593.262 830.039C593.789 830.566 593.789 830.566 594.316 831.094C588.088 837.323 599.644 852.715 606.445 852.715C610.274 852.715 613.335 851.116 616.465 849.551C627.699 860.785 630.749 853.724 639.141 845.332C645.826 852.017 656.35 841.778 655.488 835.313C653.994 824.103 636.119 813.307 628.594 805.781Z" fill="#e8b32a" fill-rule="nonzero" opacity="1" stroke="none"/>
<path d="M548.438 360.176C527.878 360.145 532.002 387.509 543.164 398.672C543.56 399.068 545.773 400.214 546.328 400.254C571.854 402.077 574.205 360.214 548.438 360.176Z" fill="#e8b32a" fill-rule="nonzero" opacity="1" stroke="none"/>
<path d="M514.16 305.332C497.384 303.341 496.238 342.247 510.996 344.355C530.827 347.188 534.232 307.714 514.16 305.332Z" fill="#2c3841" fill-rule="nonzero" opacity="1" stroke="none"/>
<path d="M587.988 305.332C571.062 308.929 574.286 346.288 591.68 344.355C607.779 342.567 608.469 300.98 587.988 305.332Z" fill="#2c3841" fill-rule="nonzero" opacity="1" stroke="none"/>
<path d="M562.148 378.633C555.465 375.098 547.017 378.657 539.473 379.16C534.662 379.481 542.869 388.104 543.691 388.652C548.542 391.886 568.998 382.256 562.148 378.633Z" fill="#2c3841" fill-rule="nonzero" opacity="1" stroke="none"/>
</g>
</g>
</svg>
