<?xml version="1.0" encoding="UTF-8" standalone="no"?>
<!-- Created with Vectornator (http://vectornator.io/) -->

<svg
   height="100%"
   stroke-miterlimit="10"
   style="fill-rule:nonzero;clip-rule:evenodd;stroke-linecap:round;stroke-linejoin:round;"
   version="1.1"
   viewBox="0 0 180 180"
   width="100%"
   xml:space="preserve"
   id="svg521"
   sodipodi:docname="peng-6.svg"
   inkscape:version="1.2.2 (b0a84865, 2022-12-01)"
   xmlns:inkscape="http://www.inkscape.org/namespaces/inkscape"
   xmlns:sodipodi="http://sodipodi.sourceforge.net/DTD/sodipodi-0.dtd"
   xmlns="http://www.w3.org/2000/svg"
   xmlns:svg="http://www.w3.org/2000/svg"
   xmlns:vectornator="http://vectornator.io"><sodipodi:namedview
   id="namedview523"
   pagecolor="#ffffff"
   bordercolor="#666666"
   borderopacity="1.0"
   inkscape:showpageshadow="2"
   inkscape:pageopacity="0.0"
   inkscape:pagecheckerboard="0"
   inkscape:deskcolor="#d1d1d1"
   showgrid="false"
   inkscape:zoom="3.4481915"
   inkscape:cx="104.54756"
   inkscape:cy="65.831611"
   inkscape:window-width="1440"
   inkscape:window-height="900"
   inkscape:window-x="0"
   inkscape:window-y="0"
   inkscape:window-maximized="0"
   inkscape:current-layer="g518" />
<defs
   id="defs494" />
<g
   id="Layer-1"
   vectornator:layerName="Layer 1">
<g
   opacity="1"
   id="g518">
<path
   d="M70.8398 86.0449C71.1452 86.6556 70.0517 89.549 69.873 90.2637C68.7538 94.7408 65.2612 97.9886 64.1602 102.393C63.8896 103.475 62.0544 107.582 62.666 108.193C62.2078 109.11 63.4575 112.809 63.7207 113.73C65.0753 118.472 67.5624 122.786 71.8945 126.035C72.9397 126.819 74.1586 128.007 75.4102 128.32C77.6747 128.886 79.6932 130.2 81.9141 130.693C82.5547 130.836 84.0531 130.723 84.5508 131.221C84.6387 131.133 84.6387 131.133 84.7266 131.045C85.0452 131.364 85.3747 131.078 85.6934 131.396C85.7813 131.309 85.7813 131.309 85.8691 131.221C86.3102 131.662 86.9222 131.131 87.3633 131.572C87.4512 131.484 87.4512 131.484 87.5391 131.396C87.627 131.484 87.627 131.484 87.7148 131.572C87.8027 131.484 87.8027 131.484 87.8906 131.396C88.6063 132.112 89.946 131.167 90.5273 131.748C90.6152 131.66 90.6152 131.66 90.7031 131.572C90.791 131.66 90.791 131.66 90.8789 131.748C90.9668 131.66 90.9668 131.66 91.0547 131.572C91.2909 131.69 92.2032 131.742 92.373 131.572C92.4609 131.66 92.4609 131.66 92.5488 131.748C93.2036 131.093 94.7125 132.221 95.5371 131.396C95.625 131.484 95.625 131.484 95.7129 131.572C95.8008 131.484 95.8008 131.484 95.8887 131.396C95.9766 131.484 95.9766 131.484 96.0645 131.572C96.5055 131.131 97.1175 131.662 97.5586 131.221C97.6465 131.309 97.6465 131.309 97.7344 131.396C98.053 131.078 98.3825 131.364 98.7012 131.045C98.7891 131.133 98.7891 131.133 98.877 131.221C99.1554 130.942 99.3895 131.148 99.668 130.869C99.7559 130.957 99.7559 130.957 99.8438 131.045C100.102 130.786 100.288 130.952 100.547 130.693C100.635 130.781 100.635 130.781 100.723 130.869C101.02 130.571 101.714 130.568 102.129 130.43C103.321 130.032 104.493 129.586 105.469 128.936C107.468 127.603 109.175 126.162 111.006 124.277C113.445 121.767 114.581 118.953 115.84 116.016C116.158 115.273 117.303 113.316 116.895 112.5C117.532 111.862 116.899 110.65 117.51 110.039C117.287 109.594 117.336 109.07 117.686 108.721C117.598 108.633 117.598 108.633 117.51 108.545C117.75 108.305 117.75 108.258 117.51 108.018C117.865 107.663 118.107 104.484 117.51 103.887C117.598 103.799 117.598 103.799 117.686 103.711C117.598 103.623 117.598 103.623 117.51 103.535C117.598 103.447 117.598 103.447 117.686 103.359C117.568 103.125 117.568 103.242 117.686 103.008C117.535 102.857 117.596 102.587 117.51 102.393C117.043 101.342 116.102 100.368 115.576 99.3164C114.804 97.7725 113.76 96.3875 113.027 94.9219C112.163 93.1936 111.874 90.9945 111.533 89.1211C110.669 84.3704 109.754 79.6108 108.809 74.8828C108.209 71.8856 107.527 68.8761 106.787 65.918C106.66 65.4075 106.411 63.3901 105.82 63.1934C105.071 62.9434 104.274 64.4526 103.887 64.9512C103.144 65.9056 102.072 67.1423 101.689 68.291C101.497 68.8675 101.313 69.672 100.898 70.2246C98.4482 73.4916 93.5074 74.7177 89.4727 74.1797C85.6775 73.6737 82.6889 69.9806 80.6836 66.9727C79.9062 65.8066 79.0069 64.7686 77.959 63.7207C77.6623 63.424 77.167 62.3328 76.6406 62.7539C75.858 63.38 75.5286 66.9306 75.0586 68.0273C73.5043 71.6541 72.8845 76.1618 72.1582 80.1563C71.9535 81.2824 71.4242 85.4606 70.8398 86.0449Z"
   fill="#68c40c"
   fill-rule="nonzero"
   opacity="1"
   stroke="none"
   id="path496"
   style="fill:#000000" />
<path
   d="M74.0918 57.6563C74.5842 58.641 74.3472 60.021 75.2344 60.9082C73.9882 62.7774 73.6094 65.4428 72.8613 67.5C72.1424 69.4771 71.1342 71.344 70.4004 73.3008C70.1537 73.9585 70.13 74.8127 69.873 75.498C67.9795 80.5475 66.2596 85.4692 65.0391 90.3516C64.4228 92.8164 63.9222 95.4212 63.3691 97.9102C63.208 98.6352 63.3759 100.013 62.8418 100.547C62.9297 100.635 62.9297 100.635 63.0176 100.723C62.5477 101.193 62.5263 106.735 62.7539 106.963C63.2464 106.47 63.172 105.631 63.3691 104.941C63.8371 103.304 64.5914 101.578 65.2148 100.02C66.1373 97.7134 67.6516 95.7612 68.7305 93.6035C68.9473 93.1698 69.3935 92.797 69.5215 92.2852C70.2451 89.3905 71.1389 86.3955 71.7188 83.4961C72.0774 81.7029 72.0946 79.6441 72.6855 77.8711C72.9547 77.0636 73.269 75.9845 73.3887 75.1465C73.8329 72.0368 74.6399 68.6528 75.8496 65.8301C76.2522 64.8906 76.1091 63.5491 76.8164 62.8418C77.8737 63.8991 79.4301 65.0549 80.2441 66.3574C83.2041 71.0934 86.8622 75.0609 92.8125 74.2676C94.0547 74.1019 95.3086 73.9629 96.5039 73.5645C99.8419 72.4518 101.036 70.213 102.48 67.3242C102.812 66.6608 105.306 63.1561 105.732 63.3691C106.404 63.7051 106.527 65.9303 106.699 66.6211C107.373 69.3165 107.999 72.0632 108.545 74.7949C110.522 84.6817 111.016 94.4948 117.334 102.393C117.728 101.999 117.319 101.544 117.51 101.162C116.774 100.427 117.802 99.1691 117.07 98.4375C117.227 98.1243 117.161 97.4736 116.895 97.207C116.982 97.1191 116.982 97.1191 117.07 97.0313C116.535 96.4959 117.077 95.5437 116.543 95.0098C116.721 94.6535 116.639 94.3147 116.367 94.043C116.455 93.9551 116.455 93.9551 116.543 93.8672C116.084 93.4085 116.467 92.6491 116.016 92.1973C116.104 92.1094 116.104 92.1094 116.191 92.0215C115.832 91.6619 115.84 90.7956 115.84 90.3516C115.84 89.8193 114.793 85.438 114.521 85.166C114.795 84.6183 113.882 82.7846 113.73 82.1777C113.2 80.0578 112.427 77.9288 111.885 75.7617C111.691 74.9871 111.587 73.6185 111.006 73.0371C111.05 72.9492 111.05 72.9492 111.094 72.8613C110.543 72.3106 110.383 70.8933 110.215 70.1367C110.069 69.4798 109.517 68.6992 109.248 68.0273C108.619 66.4544 107.859 63.3868 106.699 62.2266C107.84 61.0854 109.672 57.9475 109.248 56.25C109.197 56.0451 107.054 55.5129 106.699 55.3711C105.03 54.7036 103.022 53.0268 102.217 51.416C101.101 49.1853 102.309 43.6813 97.7344 44.0332C95.6126 44.1964 95.3613 48.4489 95.3613 49.7461C95.3613 53.4042 98.6043 62.8001 93.1641 64.1602C88.7895 65.2538 85.9641 60.6938 86.6602 56.8652C87.1604 54.1141 89.3568 51.9827 89.5605 49.1309C89.6848 47.3913 89.3347 44.3651 87.0117 44.0332C85.5697 43.8272 84.5458 44.8744 83.6719 45.9668C82.6184 47.2837 82.1096 48.8376 81.2109 50.1855C80.1528 51.7727 78.8209 53.4545 77.4316 54.8438C76.3719 55.9035 75.2434 56.735 74.0918 57.6563Z"
   fill="#e6c583"
   fill-rule="nonzero"
   opacity="1"
   stroke="none"
   id="path498"
   style="fill:#ffffff" />
<path
   d="M90.3516 35.5078C89.8542 36.0052 89.0133 35.5277 88.5059 36.0352C87.578 35.5712 84.1848 37.6561 83.3203 38.2324C78.5755 41.3956 75.9798 47.1161 74.707 52.207C74.4492 53.2385 73.349 56.9134 74.1797 57.7441C75.494 56.4298 77.0673 55.3839 78.3984 54.0527C80.8382 51.6129 81.7829 48.6357 83.8477 46.0547C84.8298 44.8271 85.858 43.7475 87.4512 44.3848C89.3071 45.1271 89.4727 47.4068 89.4727 49.043C89.4727 49.6819 89.1408 49.7894 89.0332 50.2734C88.2902 53.617 84.8089 57.5005 87.0117 61.1719C87.4608 61.9203 87.9958 62.5955 88.6816 63.2813C89.7789 64.3785 91.594 64.7944 93.0762 64.4238C98.5227 63.0622 95.8939 53.5983 95.625 49.834C95.5242 48.4228 95.6081 44.5634 97.7344 44.209C98.6553 44.0555 98.8957 44.3942 99.5801 44.7363C101.907 45.8997 101.017 48.5204 101.689 50.5371C102.313 52.4087 106.771 56.8999 109.248 56.0742C109.248 55.3978 109.551 54.531 109.072 54.0527C109.16 53.9648 109.16 53.9648 109.248 53.877C108.635 53.2634 109.185 51.8801 108.545 51.2402C108.633 51.1523 108.633 51.1523 108.721 51.0645C107.894 50.2374 108.394 48.5405 107.578 47.7246C107.947 46.9871 106.941 45.2856 106.699 44.5605C105.781 41.8044 103.737 39.7144 101.25 38.0566C100.194 37.3524 97.814 36.9936 97.0313 36.2109C96.9434 36.2988 96.9434 36.2988 96.8555 36.3867C96.5217 36.0529 96.0404 36.1868 95.7129 35.8594C95.625 35.9473 95.625 35.9473 95.5371 36.0352C95.0853 35.5833 94.1431 35.9595 93.6914 35.5078C93.6035 35.5957 93.6035 35.5957 93.5156 35.6836C93.2813 35.5664 93.3984 35.5664 93.1641 35.6836C92.5825 35.1021 91.5234 35.4492 90.7031 35.5078C90.6205 35.5137 90.5859 35.625 90.5273 35.6836C90.4395 35.5957 90.4395 35.5957 90.3516 35.5078Z"
   fill="#68c40c"
   fill-rule="nonzero"
   opacity="1"
   stroke="none"
   id="path500"
   style="fill:#000000" />
<path
   d="M72.2461 66.0059C71.9926 65.8791 71.737 65.9876 71.543 66.1816C71.4551 66.0938 71.4551 66.0938 71.3672 66.0059C71.147 66.226 71.06 66.1373 70.8398 66.3574C70.4809 66.1779 69.6158 66.4389 69.3457 66.709C69.2578 66.6211 69.2578 66.6211 69.1699 66.5332C68.6008 67.1023 67.4539 66.6672 66.8848 67.2363C66.7969 67.1484 66.7969 67.1484 66.709 67.0605C66.1188 67.6507 64.6895 67.0585 64.0723 67.6758C63.6819 67.4806 62.1967 67.7056 61.875 68.0273C61.7871 67.9395 61.7871 67.9395 61.6992 67.8516C61.34 68.2108 60.9159 67.8439 60.5566 68.2031C60.4688 68.1152 60.4688 68.1152 60.3809 68.0273C60.0216 68.3866 59.5975 68.0197 59.2383 68.3789C59.1504 68.291 59.1504 68.291 59.0625 68.2031C58.8264 68.4392 53.8492 68.8785 53.7012 68.7305C52.9365 69.4951 51.2922 68.4148 50.5371 69.1699C50.4492 69.082 50.4492 69.082 50.3613 68.9941C49.77 69.3883 48.83 68.7677 48.252 69.3457C48.0176 69.2285 48.1348 69.2285 47.9004 69.3457C47.8125 69.2578 47.8125 69.2578 47.7246 69.1699C47.1601 69.7344 46.2676 68.957 45.7031 69.5215C45.6152 69.4336 45.6152 69.4336 45.5273 69.3457C45.4395 69.4336 45.4395 69.4336 45.3516 69.5215C45.2637 69.4336 45.2637 69.4336 45.1758 69.3457C44.5494 69.9721 43.517 69.0709 42.8906 69.6973C42.8027 69.6094 42.8027 69.6094 42.7148 69.5215C42.627 69.6094 42.627 69.6094 42.5391 69.6973C42.4512 69.6094 42.4512 69.6094 42.3633 69.5215C42.2754 69.6094 42.2754 69.6094 42.1875 69.6973C42.0996 69.6094 42.0996 69.6094 42.0117 69.5215C41.9238 69.6094 41.9238 69.6094 41.8359 69.6973C41.3746 69.4666 41.2119 69.8643 40.8691 69.5215C40.7813 69.6094 40.7813 69.6094 40.6934 69.6973C40.6055 69.6094 40.6055 69.6094 40.5176 69.5215C40.4297 69.6094 40.4297 69.6094 40.3418 69.6973C40.0539 69.5533 39.9733 69.4505 39.7266 69.6973C39.6387 69.6094 39.6387 69.6094 39.5508 69.5215C39.4629 69.6094 39.4629 69.6094 39.375 69.6973C38.8517 69.174 38.0526 69.869 37.5293 69.3457C36.992 69.883 36.1011 69.3676 35.5078 69.6973C34.9178 70.025 35.2241 70.1568 34.8926 70.4883C35.7778 71.8161 36.8997 72.8517 38.2324 73.7402C38.6418 74.0131 39.3163 74.0819 39.7266 74.3555C40.1782 74.6565 40.5584 75.0722 41.0449 75.2344C41.4667 75.375 41.9566 75.4298 42.3633 75.6738C44.7036 77.078 47.417 78.1494 50.0098 79.0137C51.0452 79.3588 52.0457 80.0732 53.0859 80.4199C54.735 80.9696 56.2086 81.6366 57.832 82.1777C58.3659 82.3557 59.078 82.2811 59.502 82.7051C59.5898 82.6172 59.5898 82.6172 59.6777 82.5293C60.1966 83.0482 61.6847 82.9968 62.4023 83.0566C63.9456 83.1852 65.4479 83.7959 67.0605 83.6719C67.2576 83.6567 67.8986 81.4215 68.0273 81.0352C68.8744 78.4939 70.3101 75.5101 70.8398 72.8613C71.2255 70.9329 72.3742 69.3231 73.0371 67.5C73.2561 66.8977 73.5264 64.7255 72.2461 66.0059Z"
   fill="#f5891d"
   fill-rule="nonzero"
   opacity="1"
   stroke="none"
   id="path502"
   style="fill:#000000" />
<path
   d="M108.633 65.8301C108.169 66.294 108.689 67.0703 108.896 67.5879C109.193 68.329 109.882 69.3534 110.039 70.1367C110.189 70.8861 110.377 72.3206 110.918 72.8613C110.874 72.9492 110.874 72.9492 110.83 73.0371C111.411 73.6185 111.515 74.9871 111.709 75.7617C112.26 77.9647 113.127 80.2428 113.73 82.3535C113.979 83.2233 113.833 84.3022 114.521 84.9902C115.975 84.2635 118.139 84.2562 119.707 83.584C125.907 80.9269 133.006 78.8488 138.691 75.0586C139.974 74.2038 141.252 73.3809 142.559 72.5098C143.192 72.0875 144.123 72.0607 144.668 71.4551C144.922 71.1725 146.14 69.8279 145.898 69.3457C145.409 68.366 144.725 68.8757 144.053 68.2031C143.965 68.291 143.965 68.291 143.877 68.3789C143.789 68.291 143.789 68.291 143.701 68.2031C143.613 68.291 143.613 68.291 143.525 68.3789C143.438 68.291 143.438 68.291 143.35 68.2031C143.262 68.291 143.262 68.291 143.174 68.3789C143.086 68.291 143.086 68.291 142.998 68.2031C141.622 68.8914 138.216 68.3266 137.197 69.3457C137.109 69.2578 137.109 69.2578 137.021 69.1699C136.569 69.6221 135.806 69.2428 135.352 69.6973C135.264 69.6094 135.264 69.6094 135.176 69.5215C134.776 69.9215 134.257 69.473 133.857 69.873C133.77 69.7852 133.77 69.7852 133.682 69.6973C133.2 70.1794 132.494 69.5667 132.012 70.0488C131.924 69.9609 131.924 69.9609 131.836 69.873C131.548 70.017 131.467 70.1198 131.221 69.873C131.133 69.9609 131.133 69.9609 131.045 70.0488C130.957 69.9609 130.957 69.9609 130.869 69.873C130.629 70.1131 130.582 70.1131 130.342 69.873C130.254 69.9609 130.254 69.9609 130.166 70.0488C130.034 69.9609 130.034 69.9609 129.902 69.873C129.662 70.1131 129.615 70.1131 129.375 69.873C129.287 69.9609 129.287 69.9609 129.199 70.0488C129.111 69.9609 129.111 69.9609 129.023 69.873C128.936 69.9609 128.936 69.9609 128.848 70.0488C128.76 69.9609 128.76 69.9609 128.672 69.873C128.106 70.1559 126.623 70.1096 126.211 69.6973C126.123 69.7852 126.123 69.7852 126.035 69.873C125.594 69.432 124.982 69.9625 124.541 69.5215C124.453 69.6094 124.453 69.6094 124.365 69.6973C124.047 69.3786 123.717 69.6643 123.398 69.3457C123.311 69.4336 123.311 69.4336 123.223 69.5215C122.663 68.9615 121.181 69.1633 120.41 68.9063C118.607 68.3052 116.637 68.0297 114.873 67.3242C114.474 67.1645 114.077 67.4072 113.73 67.0605C113.643 67.1484 113.643 67.1484 113.555 67.2363C113.335 67.0162 113.248 67.1049 113.027 66.8848C112.939 66.9727 112.939 66.9727 112.852 67.0605C112.601 66.8101 112.745 66.9307 112.412 66.709C112.324 66.7969 112.324 66.7969 112.236 66.8848C112.016 66.6646 111.929 66.7534 111.709 66.5332C111.621 66.6211 111.621 66.6211 111.533 66.709C110.861 66.0369 109.443 66.3704 108.633 65.8301Z"
   fill="#f5891d"
   fill-rule="nonzero"
   opacity="1"
   stroke="none"
   id="path504"
   style="fill:#000000" />
<path
   d="M68.3789 135.352C68.4668 135.439 68.4668 135.439 68.5547 135.527C68.8027 135.279 68.922 135.279 69.1699 135.527C68.7553 135.942 68.5505 136.498 68.2031 136.846C68.5696 137.212 68.9144 137.613 69.3457 137.9C69.4336 137.813 69.4336 137.813 69.5215 137.725C69.9744 138.178 71.5992 137.317 71.9824 136.934C72.4095 137.361 72.1701 137.821 72.7734 138.252C73.166 138.532 73.8208 138.333 74.1797 138.691C74.2676 138.604 74.2676 138.604 74.3555 138.516C74.5955 138.756 74.6428 138.756 74.8828 138.516C74.9707 138.604 74.9707 138.604 75.0586 138.691C75.293 138.574 75.1758 138.574 75.4102 138.691C75.7081 138.393 76.3814 138.074 76.7285 137.9C77.5127 137.508 78.4906 135.778 78.75 135C78.9204 134.489 79.5597 131.993 79.7168 131.836C79.4324 131.267 80.0422 130.397 79.7168 129.99C79.512 129.734 75.3529 128.095 75.1465 128.232C72.6286 129.911 70.0779 131.695 67.5 133.242C66.367 133.922 67.5138 136.217 68.3789 135.352Z"
   fill="#deab2a"
   fill-rule="nonzero"
   opacity="1"
   stroke="none"
   id="path506" />
<path
   d="M100.723 131.396C100.811 131.484 100.811 131.484 100.898 131.572C100.651 131.943 100.887 131.859 100.723 132.188C100.811 132.275 100.811 132.275 100.898 132.363C100.811 132.451 100.811 132.451 100.723 132.539C100.811 132.627 100.811 132.627 100.898 132.715C100.348 133.265 101.162 134.605 101.162 135.264C101.162 137.523 103.524 141.602 106.084 139.043C106.877 139.677 107.904 140.067 108.896 139.57C109.485 139.276 110.321 138.534 109.688 137.9C109.775 137.813 109.775 137.813 109.863 137.725C109.775 137.637 109.775 137.637 109.688 137.549C109.775 137.461 109.775 137.461 109.863 137.373C109.011 136.521 112.09 136.245 111.709 134.912C111.255 133.325 109.56 132.349 108.369 131.396C107.359 130.588 106.536 129.507 105.469 128.76C105.283 128.63 105.04 128.944 104.941 129.023C103.883 129.871 102.285 129.791 101.074 130.518C100.708 130.737 101.018 131.101 100.723 131.396Z"
   fill="#deab2a"
   fill-rule="nonzero"
   opacity="1"
   stroke="none"
   id="path508" />
<path
   d="M91.0547 54.8438C87.9849 55.8658 88.3217 61.4355 92.0215 61.4355C94.1618 61.4355 94.3945 58.6626 94.3945 57.2168C94.3945 55.6628 92.1605 54.4756 91.0547 54.8438Z"
   fill="#deab2a"
   fill-rule="nonzero"
   opacity="1"
   stroke="none"
   id="path510" />
<path
   d="M96.5918 47.4609C95.9277 47.8153 96.1958 48.5937 96.2402 49.4824C96.2435 49.5486 96.5149 49.7444 96.5918 49.7461C97.8513 49.7741 99.1126 49.802 100.371 49.7461C100.642 49.7341 100.796 47.5762 100.371 47.5488C99.5232 47.4941 98.6716 47.5686 97.8223 47.5488C97.4112 47.5393 96.9546 47.2673 96.5918 47.4609Z"
   fill="#454e54"
   fill-rule="nonzero"
   opacity="1"
   stroke="none"
   id="path512" />
<path
   d="M83.8477 47.373C83.3879 47.4708 83.533 48.3361 83.4961 48.7793C83.3577 50.4399 85.2086 49.3327 86.3965 49.5703C86.4786 49.5867 87.8271 49.7123 87.8906 49.3945C88.0346 48.6746 87.8125 47.3855 87.5391 47.373C86.3099 47.3172 85.0512 47.1171 83.8477 47.373Z"
   fill="#28353e"
   fill-rule="nonzero"
   opacity="1"
   stroke="none"
   id="path514" />
<path
   d="M93.6035 57.832C92.3719 57.8566 91.1402 57.9109 89.9121 58.0078C89.2317 58.0615 90.4718 59.51 90.791 59.5898C92.1234 59.9229 92.8358 59.3575 93.6914 58.3594C93.8899 58.1278 93.9154 57.8258 93.6035 57.832Z"
   fill="#28353e"
   fill-rule="nonzero"
   opacity="1"
   stroke="none"
   id="path516" />
</g>
</g>
</svg>
