<?xml version="1.0" encoding="UTF-8" standalone="no"?>
<!-- Created with Vectornator (http://vectornator.io/) -->

<svg
   height="100%"
   stroke-miterlimit="10"
   style="fill-rule:nonzero;clip-rule:evenodd;stroke-linecap:round;stroke-linejoin:round;"
   version="1.1"
   viewBox="0 0 777 830"
   width="100%"
   xml:space="preserve"
   id="svg7"
   sodipodi:docname="logo.svg"
   inkscape:export-filename="logo-colored-300*320.svg"
   inkscape:export-xdpi="37.065636"
   inkscape:export-ydpi="37.065636"
   inkscape:version="1.2.2 (b0a84865, 2022-12-01)"
   xmlns:inkscape="http://www.inkscape.org/namespaces/inkscape"
   xmlns:sodipodi="http://sodipodi.sourceforge.net/DTD/sodipodi-0.dtd"
   xmlns="http://www.w3.org/2000/svg"
   xmlns:svg="http://www.w3.org/2000/svg"
   xmlns:vectornator="http://vectornator.io"><sodipodi:namedview
   id="namedview9"
   pagecolor="#ffffff"
   bordercolor="#666666"
   borderopacity="1.0"
   inkscape:showpageshadow="2"
   inkscape:pageopacity="0.0"
   inkscape:pagecheckerboard="0"
   inkscape:deskcolor="#d1d1d1"
   showgrid="false"
   inkscape:zoom="0.80937033"
   inkscape:cx="283.55376"
   inkscape:cy="406.48883"
   inkscape:window-width="1440"
   inkscape:window-height="900"
   inkscape:window-x="0"
   inkscape:window-y="0"
   inkscape:window-maximized="0"
   inkscape:current-layer="svg7" />
<defs
   id="defs2" />
<g
   id="Layer-1"
   vectornator:layerName="Layer 1"
   style="fill:#221b43;fill-opacity:1"
   transform="translate(-2.92e-6,-1.1111111e-4)">
<path
   d="m 331,132.5 c -40,13 -61.167,20 -63.5,21 -2.333,1 -3.667,2.333 -4,4 -0.333,1.667 8.833,5.667 27.5,12 18.667,6.333 28,14.5 28,24.5 0,10 -4,19.333 -12,28 -8,8.667 -14.5,18 -19.5,28 -5,10 -8.167,19 -9.5,27 -1.333,8 -1.833,15.167 -1.5,21.5 0.333,6.333 1.667,13.167 4,20.5 2.333,7.333 3.333,12.833 3,16.5 -0.333,3.667 -0.167,6.167 0.5,7.5 0.667,1.333 3.5,3.333 8.5,6 5,2.667 7.5,11.167 7.5,25.5 0,14.333 0.333,22.167 1,23.5 0.667,1.333 2.333,3 5,5 2.667,2 10.333,2.167 23,0.5 6.333,-0.833 12.667,-1.667 19,-2.5 0,1.833 0,3.667 0,5.5 0,3.667 -3.667,6.833 -11,9.5 -7.333,2.667 -13.167,7.667 -17.5,15 -4.333,7.333 -9.667,15.167 -16,23.5 -6.333,8.333 -7.167,16 -2.5,23 4.667,7 11.833,14.333 21.5,22 9.667,7.667 20,13.5 31,17.5 11,4 22.167,6.333 33.5,7 11.333,0.667 23.667,-0.5 37,-3.5 13.333,-3 27.667,-8.167 43,-15.5 15.333,-7.333 25.833,-11.667 31.5,-13 5.667,-1.333 11,-2 16,-2 2.5,0 5,0 7.5,0 -6,-7 -12,-14 -18,-21 -12,-14 -19.333,-20.667 -22,-20 -1.333,0.333 -2.667,0.667 -4,1 1.5,-1.5 3,-3 4.5,-4.5 3,-3 5.333,-7.167 7,-12.5 1.667,-5.333 2.167,-32.333 1.5,-81 -0.667,-48.667 -2.167,-77.5 -4.5,-86.5 -2.333,-9 -5,-16.167 -8,-21.5 -3,-5.333 -6.5,-10.167 -10.5,-14.5 -4,-4.333 -5.5,-7.5 -4.5,-9.5 1,-2 1.5,-3.833 1.5,-5.5 0,-1.667 -0.5,-2.833 -1.5,-3.5 -1,-0.667 -1.5,-6.167 -1.5,-16.5 0,-10.333 8,-18 24,-23 8,-2.5 16,-5 24,-7.5 0,10.167 0,20.333 0,30.5 0,20.333 -0.833,31 -2.5,32 -1.667,1 -2.833,2.667 -3.5,5 -0.667,2.333 -0.667,4.333 0,6 0.667,1.667 1,24.333 1,68 0,21.833 0,43.667 0,65.5 0.667,0 1.333,0 2,0 0.667,0 1.333,0 2,0 -0.167,-21 -0.333,-42 -0.5,-63 -0.167,-21 -0.333,-42 -0.5,-63 0.333,0 0.667,0 1,0 0.333,0 0.667,0 1,0 0,21 0,42 0,63 0,21 0,42 0,63 1,0 2,0 3,0 1,0 2,0 3,0 0.167,-21 0.333,-42 0.5,-63 0.167,-21 0.333,-42 0.5,-63 0.167,21 0.333,42 0.5,63 0.167,21 0.333,42 0.5,63 0.833,0 1.667,0 2.5,0 0.833,0 1.667,0 2.5,0 0,-21.833 0,-43.667 0,-65.5 0,-43.667 0.333,-66.667 1,-69 0.667,-2.333 0.167,-4.667 -1.5,-7 -1.667,-2.333 -3.167,-3.667 -4.5,-4 -1.333,-0.333 -2,-11 -2,-32 0,-21 0.5,-31.833 1.5,-32.5 1,-0.667 1.167,-1.833 0.5,-3.5 -0.667,-1.667 -22,-9.5 -64,-23.5 -42,-14 -83,-14.5 -123,-1.5 z m -2.5,94 c 6.333,2.333 11.667,5.333 16,9 4.333,3.667 9.833,7 16.5,10 6.667,3 13.667,5.333 21,7 7.333,1.667 16.833,3 28.5,4 11.667,1 19.667,2.667 24,5 4.333,2.333 8,5.167 11,8.5 3,3.333 5,6.333 6,9 1,2.667 1.667,28 2,76 0.333,48 -0.167,73.833 -1.5,77.5 -1.333,3.667 -3.167,6.667 -5.5,9 -2.333,2.333 -5.667,4 -10,5 -2.167,0.5 -4.333,1 -6.5,1.5 1,-1.833 2,-3.667 3,-5.5 2,-3.667 3.333,-8.5 4,-14.5 0.667,-6 0.833,-29 0.5,-69 -0.333,-40 -1.333,-62.167 -3,-66.5 -1.667,-4.333 -3.667,-7.667 -6,-10 -2.333,-2.333 -5,-4.167 -8,-5.5 -3,-1.333 -11.167,-2.5 -24.5,-3.5 -13.333,-1 -25.667,-3.333 -37,-7 -11.333,-3.667 -19,-6.833 -23,-9.5 -4,-2.667 -8.167,-6.5 -12.5,-11.5 -4.333,-5 -7.167,-9 -8.5,-12 -1.333,-3 -1,-5.5 1,-7.5 2,-2 6.167,-1.833 12.5,0.5 z m 121.5,6 c 5.333,1.667 9.5,3.833 12.5,6.5 3,2.667 6,7 9,13 3,6 5.333,12.333 7,19 1.667,6.667 2.667,34.333 3,83 0.333,48.667 -0.167,74.667 -1.5,78 -1.333,3.333 -2.833,5.833 -4.5,7.5 -1.667,1.667 -4.5,3.333 -8.5,5 -4,1.667 -7,2.5 -9,2.5 -1,0 -2,0 -3,0 1.333,-2.667 2.667,-5.333 4,-8 2.667,-5.333 4,-32.833 4,-82.5 0,-49.667 -0.5,-76.5 -1.5,-80.5 -1,-4 -2.833,-8 -5.5,-12 -2.667,-4 -6.167,-7.333 -10.5,-10 -4.333,-2.667 -8.333,-4.5 -12,-5.5 -3.667,-1 -11.5,-1.833 -23.5,-2.5 -12,-0.667 -22.167,-2.5 -30.5,-5.5 -4.167,-1.5 -8.333,-3 -12.5,-4.5 7.5,0 15,0 22.5,0 15,0 27.5,-1 37.5,-3 10,-2 17.667,-2.167 23,-0.5 z m 63,-2.5 c 1.333,0 2.5,0.5 3.5,1.5 1,1 1.333,2.5 1,4.5 -0.333,2 -1.5,3.167 -3.5,3.5 -2,0.333 -3.5,0 -4.5,-1 -1,-1 -1.5,-2.167 -1.5,-3.5 0,-1.333 0.5,-2.5 1.5,-3.5 1,-1 2.167,-1.5 3.5,-1.5 z m -208,7 c 1.5,2.167 3,4.333 4.5,6.5 3,4.333 8,9.5 15,15.5 7,6 14.5,10.667 22.5,14 8,3.333 14.167,5.333 18.5,6 4.333,0.667 7.333,4.333 9,11 0.833,3.333 1.667,6.667 2.5,10 -4.667,-0.667 -9.333,-1.333 -14,-2 -9.333,-1.333 -17.333,-3.5 -24,-6.5 -6.667,-3 -12.167,-6 -16.5,-9 -4.333,-3 -9.833,-8.333 -16.5,-16 -6.667,-7.667 -10,-12.167 -10,-13.5 0,-1.333 1.5,-4.333 4.5,-9 1.5,-2.333 3,-4.667 4.5,-7 z m -16,32 c 1.833,1.667 3.667,3.333 5.5,5 3.667,3.333 5.5,9.5 5.5,18.5 0,9 -1.333,15.667 -4,20 -1.333,2.167 -2.667,4.333 -4,6.5 -0.5,-0.5 -1,-1 -1.5,-1.5 -1,-1 -2,-4.5 -3,-10.5 -1,-6 -1,-13.833 0,-23.5 0.5,-4.833 1,-9.667 1.5,-14.5 z m 94,13 c 1.5,0.167 3,0.333 4.5,0.5 3,0.333 4.833,2.167 5.5,5.5 0.667,3.333 1.833,6.5 3.5,9.5 1.667,3 4.667,6.333 9,10 4.333,3.667 9,6 14,7 5,1 7.667,2.667 8,5 0.167,1.167 0.333,2.333 0.5,3.5 -2.667,-0.167 -5.333,-0.333 -8,-0.5 -5.333,-0.333 -10.333,-1.667 -15,-4 -4.667,-2.333 -9,-6.333 -13,-12 -4,-5.667 -6.5,-11.167 -7.5,-16.5 -0.5,-2.667 -1,-5.333 -1.5,-8 z m 19,2 c 1.667,0 3.333,0 5,0 3.333,0 6.667,0.833 10,2.5 3.333,1.667 5.833,4.167 7.5,7.5 1.667,3.333 2.5,6.333 2.5,9 0,1.333 0,2.667 0,4 -2.667,-1 -5.333,-2 -8,-3 -5.333,-2 -9,-4.167 -11,-6.5 -2,-2.333 -3.5,-5.167 -4.5,-8.5 -0.5,-1.667 -1,-3.333 -1.5,-5 z m -94,3 c 1.833,1.333 3.667,2.667 5.5,4 3.667,2.667 9.5,5.667 17.5,9 8,3.333 15.5,5.667 22.5,7 7,1.333 13.167,2 18.5,2 5.333,0 10,2.333 14,7 4,4.667 8,8.167 12,10.5 4,2.333 9.5,3.833 16.5,4.5 3.5,0.333 7,0.667 10.5,1 -0.5,1.333 -1,2.667 -1.5,4 -1,2.667 -4.833,4.5 -11.5,5.5 -6.667,1 -10.333,1.833 -11,2.5 -0.667,0.667 -0.667,2.167 0,4.5 0.667,2.333 2.333,3.5 5,3.5 1.333,0 2.667,0 4,0 -0.167,4.333 -0.333,8.667 -0.5,13 -0.333,8.667 -1.167,13.5 -2.5,14.5 -1.333,1 -17.667,4 -49,9 -31.333,5 -47.5,7 -48.5,6 -1,-1 -1.5,-9.167 -1.5,-24.5 0,-15.333 -2.667,-24.5 -8,-27.5 -5.333,-3 -7.667,-5.667 -7,-8 0.667,-2.333 3.333,-7.333 8,-15 4.667,-7.667 7,-15 7,-22 0,-3.5 0,-7 0,-10.5 z m 13.5,22 c -2.333,0.667 -4.5,2 -6.5,4 -2,2 -3.167,5 -3.5,9 -0.333,4 0.667,7.5 3,10.5 2.333,3 5.667,4.667 10,5 4.333,0.333 7.667,-0.333 10,-2 2.333,-1.667 4,-4.5 5,-8.5 1,-4 0.5,-7.667 -1.5,-11 -2,-3.333 -4.667,-5.5 -8,-6.5 -3.333,-1 -6.167,-1.167 -8.5,-0.5 z m 6,10.5 c 2.333,1 3.333,2.5 3,4.5 -0.333,2 -1,3.333 -2,4 -1,0.667 -2.333,0.833 -4,0.5 -1.667,-0.333 -2.833,-1.167 -3.5,-2.5 -0.667,-1.333 -0.333,-3 1,-5 1.333,-2 3.167,-2.5 5.5,-1.5 z M 427,347 c 0.167,13.333 0.333,26.667 0.5,40 0.333,26.667 0.167,41.667 -0.5,45 -0.667,3.333 -3,7 -7,11 -4,4 -7.667,6.5 -11,7.5 -3.333,1 -7.833,1.333 -13.5,1 -5.667,-0.333 -9.5,-1 -11.5,-2 -2,-1 -4.167,-3 -6.5,-6 -2.333,-3 -3.5,-6.833 -3.5,-11.5 0,-4.667 1.5,-8.667 4.5,-12 3,-3.333 7.167,-5.167 12.5,-5.5 5.333,-0.333 9,0.5 11,2.5 2,2 2.833,4.5 2.5,7.5 -0.333,3 -1,5 -2,6 -1,1 -3,1.5 -6,1.5 -3,0 -4.833,-0.833 -5.5,-2.5 -0.667,-1.667 -0.5,-3.5 0.5,-5.5 0.5,-1 1,-2 1.5,-3 -1,-0.5 -2,-1 -3,-1.5 -2,-1 -4,-0.5 -6,1.5 -2,2 -2.833,4.833 -2.5,8.5 0.333,3.667 2,6.5 5,8.5 3,2 6.167,3 9.5,3 3.333,0 6.833,-1.167 10.5,-3.5 3.667,-2.333 6,-5.667 7,-10 1,-4.333 1,-8 0,-11 -1,-3 -2.333,-5.167 -4,-6.5 -1.667,-1.333 -2.667,-4.833 -3,-10.5 -0.333,-5.667 0.667,-8.833 3,-9.5 2.333,-0.667 4.5,-2.333 6.5,-5 2,-2.667 3,-9 3,-19 0,-10 1.333,-15.667 4,-17 1.333,-0.667 2.667,-1.333 4,-2 z m -29,46 c 0.667,0.667 0.833,2.833 0.5,6.5 -0.333,3.667 -2.167,5.5 -5.5,5.5 -3.333,0 -7.667,1.333 -13,4 -5.333,2.667 -10,4.167 -14,4.5 -2,0.167 -4,0.333 -6,0.5 0,-2.5 0,-5 0,-7.5 0,-5 6.167,-8.667 18.5,-11 12.333,-2.333 18.833,-3.167 19.5,-2.5 z m -247.5,64 c -5.667,16 -12.333,26.333 -20,31 -7.667,4.667 -15.833,9 -24.5,13 -4.333,2 -8.6667,4 -13,6 5.1667,5.667 10.333,11.333 15.5,17 10.333,11.333 20.833,21.5 31.5,30.5 5.333,4.5 10.667,9 16,13.5 6.167,-10.167 12.333,-20.333 18.5,-30.5 12.333,-20.333 23.333,-29.333 33,-27 9.667,2.333 20.167,3.167 31.5,2.5 5.667,-0.333 11.333,-0.667 17,-1 -6,-2.667 -12,-5.333 -18,-8 -12,-5.333 -21.833,-10.667 -29.5,-16 -7.667,-5.333 -14.5,-11 -20.5,-17 -6,-6 -12.333,-13.833 -19,-23.5 -3.333,-4.833 -6.667,-9.667 -10,-14.5 -2.833,8 -5.667,16 -8.5,24 z M 631,446.5 c -6,9 -13,17.667 -21,26 -8,8.333 -18.833,17 -32.5,26 -6.833,4.5 -13.667,9 -20.5,13.5 5.167,0 10.333,0 15.5,0 10.333,0 18.833,-0.833 25.5,-2.5 6.667,-1.667 15.667,7.167 27,26.5 11.333,19.333 17.5,29.333 18.5,30 1,0.667 6.333,-3 16,-11 9.667,-8 19.167,-16.667 28.5,-26 9.333,-9.333 14.833,-15.333 16.5,-18 0.833,-1.333 1.667,-2.667 2.5,-4 -4,-1.833 -8,-3.667 -12,-5.5 -8,-3.667 -16.167,-8 -24.5,-13 -8.333,-5 -14.167,-12.833 -17.5,-23.5 -3.333,-10.667 -6.333,-18.667 -9,-24 -1.333,-2.667 -2.667,-5.333 -4,-8 -3,4.5 -6,9 -9,13.5 z M 279,483 c -5.333,5.333 -8,8.833 -8,10.5 0,1.667 1.667,5.167 5,10.5 3.333,5.333 7.5,10.333 12.5,15 5,4.667 10.5,9 16.5,13 6,4 11.333,7.167 16,9.5 4.667,2.333 12,4.833 22,7.5 10,2.667 23.5,4.333 40.5,5 17,0.667 32.167,0.167 45.5,-1.5 13.333,-1.667 28.833,-4.833 46.5,-9.5 17.667,-4.667 32.333,-9.833 44,-15.5 5.833,-2.833 11.667,-5.667 17.5,-8.5 -2.333,-3 -4.667,-6 -7,-9 -4.667,-6 -8.167,-9.5 -10.5,-10.5 -2.333,-1 -5.5,-1.5 -9.5,-1.5 -4,0 -7.667,0.5 -11,1.5 -3.333,1 -10.833,4.667 -22.5,11 -11.667,6.333 -22.167,11.167 -31.5,14.5 -9.333,3.333 -17.667,5.667 -25,7 -7.333,1.333 -17.167,1.833 -29.5,1.5 -12.333,-0.333 -23.5,-2 -33.5,-5 -10,-3 -19,-6.833 -27,-11.5 -8,-4.667 -15.167,-10 -21.5,-16 -6.333,-6 -11.5,-11.833 -15.5,-17.5 -2,-2.833 -4,-5.667 -6,-8.5 -2.667,2.667 -5.333,5.333 -8,8 z m -110,88.5 c -18,33 -20.167,54 -6.5,63 13.667,9 26.333,16.5 38,22.5 11.667,6 26.667,12.5 45,19.5 18.333,7 34,12.167 47,15.5 13,3.333 27.167,6.167 42.5,8.5 15.333,2.333 31.5,3.833 48.5,4.5 17,0.667 32.667,0.5 47,-0.5 14.333,-1 28.333,-2.667 42,-5 13.667,-2.333 26.167,-5 37.5,-8 11.333,-3 25.833,-7.833 43.5,-14.5 17.667,-6.667 33.833,-13.833 48.5,-21.5 14.667,-7.667 27.667,-15.333 39,-23 11.333,-7.667 8,-27.833 -10,-60.5 -9,-16.333 -18,-32.667 -27,-49 -5.833,3.667 -11.667,7.333 -17.5,11 -11.667,7.333 -22.5,13.5 -32.5,18.5 -10,5 -22.333,10.167 -37,15.5 -14.667,5.333 -31,9.833 -49,13.5 -18,3.667 -37,5.833 -57,6.5 -20,0.667 -38.667,-0.167 -56,-2.5 -17.333,-2.333 -34,-5.833 -50,-10.5 -16,-4.667 -31.667,-10.5 -47,-17.5 -15.333,-7 -29.5,-14.667 -42.5,-23 -6.5,-4.167 -13,-8.333 -19.5,-12.5 -9,16.5 -18,33 -27,49.5 z m 58,-1.5 c 3.5,1.833 7,3.667 10.5,5.5 7,3.667 16.167,7.667 27.5,12 11.333,4.333 16.667,8 16,11 -0.333,1.5 -0.667,3 -1,4.5 -4,-1.333 -8,-2.667 -12,-4 -4,-1.333 -8,-2.667 -12,-4 -3,9.333 -6,18.667 -9,28 -3,9.333 -6,18.667 -9,28 -2,-1 -4,-2 -6,-3 -4,-2 -2.667,-12.167 4,-30.5 6.667,-18.333 6.167,-29.333 -1.5,-33 -7.667,-3.667 -10.833,-7 -9.5,-10 0.667,-1.5 1.333,-3 2,-4.5 z m 327.5,9 c 3,0 5.833,0.5 8.5,1.5 2.667,1 5.333,3.333 8,7 2.667,3.667 3.833,7.5 3.5,11.5 -0.333,4 -2.5,8.5 -6.5,13.5 -2,2.5 -4,5 -6,7.5 4.667,1.667 9.333,3.333 14,5 4.667,1.667 9.333,3.333 14,5 -1.333,1.5 -2.667,3 -4,4.5 -2.667,3 -9.5,2.333 -20.5,-2 -11,-4.333 -18.5,-5.833 -22.5,-4.5 -4,1.333 -4.833,6.333 -2.5,15 2.333,8.667 1.5,13.667 -2.5,15 -2,0.667 -4,1.333 -6,2 -2.5,-10.167 -5,-20.333 -7.5,-30.5 -5,-20.333 -6.5,-32 -4.5,-35 2,-3 7.5,-6.333 16.5,-10 9,-3.667 15,-5.5 18,-5.5 z M 539,594 c -7.333,3.333 -10,8.667 -8,16 1,3.667 2,7.333 3,11 2.833,-1 5.667,-2 8.5,-3 5.667,-2 10.167,-4.167 13.5,-6.5 3.333,-2.333 5.5,-4.667 6.5,-7 1,-2.333 1.167,-4.833 0.5,-7.5 -0.667,-2.667 -1.667,-4.5 -3,-5.5 -1.333,-1 -3.333,-1.667 -6,-2 -2.667,-0.333 -7.667,1.167 -15,4.5 z m -244,4 c 1.833,0.5 3.667,1 5.5,1.5 3.667,1 4,8.333 1,22 -3,13.667 -4.5,22.167 -4.5,25.5 0,3.333 1,6.5 3,9.5 2,3 4.333,5.167 7,6.5 2.667,1.333 5.667,2.167 9,2.5 3.333,0.333 6.833,-0.333 10.5,-2 3.667,-1.667 6,-3.333 7,-5 1,-1.667 2.333,-10.333 4,-26 0.833,-7.833 1.667,-15.667 2.5,-23.5 1.833,0.167 3.667,0.333 5.5,0.5 1.833,0.167 3.667,0.333 5.5,0.5 -0.667,7.833 -1.333,15.667 -2,23.5 -1.333,15.667 -2.667,25 -4,28 -1.333,3 -3,5.333 -5,7 -2,1.667 -4.667,3.167 -8,4.5 -3.333,1.333 -7.667,2 -13,2 -5.333,0 -10,-0.833 -14,-2.5 -4,-1.667 -7.667,-4 -11,-7 -3.333,-3 -5.667,-6 -7,-9 -1.333,-3 -2,-6.333 -2,-10 0,-3.667 1.667,-12.667 5,-27 1.667,-7.167 3.333,-14.333 5,-21.5 z m 177.5,7 c 5,0 9.5,0.833 13.5,2.5 4,1.667 7.333,4 10,7 2.667,3 5,8.667 7,17 2,8.333 2.833,14 2.5,17 -0.333,3 -1.167,5.833 -2.5,8.5 -1.333,2.667 -3.5,5.5 -6.5,8.5 -3,3 -7,5.5 -12,7.5 -5,2 -11.333,2.667 -19,2 -7.667,-0.667 -13.333,-2.5 -17,-5.5 -3.667,-3 -6,-5.5 -7,-7.5 -1,-2 -1.667,-8.5 -2,-19.5 -0.333,-11 1.5,-19 5.5,-24 4,-5 8.333,-8.5 13,-10.5 4.667,-2 9.5,-3 14.5,-3 z M 366,611 c 2.667,0.333 5.333,0.667 8,1 5.333,0.667 15,0.833 29,0.5 7,-0.167 14,-0.333 21,-0.5 -0.167,1.667 -0.333,3.333 -0.5,5 -0.333,3.333 -4.333,5 -12,5 -3.833,0 -7.667,0 -11.5,0 0,10.167 0,20.333 0,30.5 0,10.167 0,20.333 0,30.5 -2,0 -4,0 -6,0 -2,0 -4,0 -6,0 0.167,-10.167 0.333,-20.333 0.5,-30.5 0.333,-20.333 -3.5,-30.667 -11.5,-31 -4,-0.167 -8,-0.333 -12,-0.5 0.167,-1.667 0.333,-3.333 0.5,-5 0.167,-1.667 0.333,-3.333 0.5,-5 z m 98.5,5 c -4.333,1.333 -7.5,3 -9.5,5 -2,2 -3.5,4.167 -4.5,6.5 -1,2.333 -1,7.833 0,16.5 1,8.667 2.5,14.167 4.5,16.5 2,2.333 4.5,4 7.5,5 3,1 7.167,1 12.5,0 5.333,-1 9.333,-2.667 12,-5 2.667,-2.333 4.5,-4.667 5.5,-7 1,-2.333 0.667,-8 -1,-17 -1.667,-9 -3.5,-14.5 -5.5,-16.5 -2,-2 -5,-3.5 -9,-4.5 -4,-1 -8.167,-0.833 -12.5,0.5 z"
   fill="#000000"
   fill-rule="nonzero"
   opacity="1"
   stroke="none"
   id="path4"
   style="fill:#221b43;fill-opacity:1" />
</g>
</svg>
