<?xml version="1.0" encoding="UTF-8" standalone="no"?>
<!DOCTYPE svg PUBLIC "-//W3C//DTD SVG 1.1//EN" "http://www.w3.org/Graphics/SVG/1.1/DTD/svg11.dtd">
<!-- Created with Vectornator (http://vectornator.io/) -->
<svg height="100%" stroke-miterlimit="10" style="fill-rule:nonzero;clip-rule:evenodd;stroke-linecap:round;stroke-linejoin:round;" version="1.1" viewBox="0 0 777 830" width="100%" xml:space="preserve" xmlns="http://www.w3.org/2000/svg" xmlns:vectornator="http://vectornator.io" xmlns:xlink="http://www.w3.org/1999/xlink">
<defs/>
<g id="Layer-1" vectornator:layerName="Layer 1">
<path d="M338.685 252.275C319.138 258.628 308.794 262.048 307.654 262.537C306.514 263.026 305.862 263.677 305.7 264.492C305.537 265.306 310.016 267.261 319.138 270.356C328.26 273.45 332.821 277.441 332.821 282.328C332.821 287.215 330.866 291.775 326.957 296.011C323.047 300.246 319.871 304.807 317.428 309.693C314.984 314.58 313.437 318.978 312.785 322.887C312.134 326.797 311.889 330.299 312.052 333.394C312.215 336.488 312.867 339.828 314.007 343.411C315.147 346.995 315.636 349.682 315.473 351.474C315.31 353.266 315.391 354.488 315.717 355.139C316.043 355.791 317.428 356.768 319.871 358.071C322.314 359.374 323.536 363.528 323.536 370.532C323.536 377.536 323.699 381.364 324.025 382.016C324.35 382.667 325.165 383.482 326.468 384.459C327.771 385.436 331.517 385.518 337.707 384.703C340.802 384.296 343.897 383.889 346.992 383.482C346.992 384.378 346.992 385.274 346.992 386.169C346.992 387.961 345.2 389.509 341.617 390.812C338.033 392.115 335.182 394.558 333.065 398.142C330.947 401.725 328.341 405.553 325.246 409.625C322.151 413.698 321.744 417.444 324.025 420.865C326.305 424.285 329.807 427.869 334.531 431.615C339.255 435.362 344.304 438.212 349.679 440.167C355.055 442.122 360.512 443.262 366.05 443.588C371.588 443.914 377.615 443.343 384.13 441.877C390.646 440.411 397.65 437.886 405.143 434.303C412.636 430.72 417.767 428.602 420.536 427.95C423.305 427.299 425.911 426.973 428.355 426.973C429.576 426.973 430.798 426.973 432.02 426.973C429.088 423.552 426.156 420.132 423.224 416.711C417.36 409.87 413.776 406.612 412.473 406.938C411.822 407.101 411.17 407.264 410.518 407.426C411.251 406.693 411.984 405.96 412.717 405.227C414.183 403.761 415.323 401.725 416.138 399.119C416.953 396.513 417.197 383.319 416.871 359.537C416.545 335.755 415.812 321.666 414.672 317.268C413.532 312.87 412.229 309.367 410.763 306.761C409.297 304.155 407.586 301.793 405.632 299.676C403.677 297.558 402.944 296.011 403.433 295.033C403.921 294.056 404.166 293.16 404.166 292.346C404.166 291.531 403.921 290.961 403.433 290.635C402.944 290.309 402.7 287.622 402.7 282.572C402.7 277.523 406.609 273.776 414.428 271.333C418.337 270.111 422.246 268.89 426.156 267.668C426.156 272.636 426.156 277.604 426.156 282.572C426.156 292.508 425.749 297.721 424.934 298.21C424.119 298.698 423.55 299.513 423.224 300.653C422.898 301.793 422.898 302.77 423.224 303.585C423.55 304.4 423.712 315.476 423.712 336.814C423.712 347.483 423.712 358.153 423.712 368.822C424.038 368.822 424.364 368.822 424.69 368.822C425.016 368.822 425.341 368.822 425.667 368.822C425.585 358.56 425.504 348.298 425.423 338.036C425.341 327.774 425.26 317.512 425.178 307.25C425.341 307.25 425.504 307.25 425.667 307.25C425.83 307.25 425.993 307.25 426.156 307.25C426.156 317.512 426.156 327.774 426.156 338.036C426.156 348.298 426.156 358.56 426.156 368.822C426.644 368.822 427.133 368.822 427.622 368.822C428.11 368.822 428.599 368.822 429.088 368.822C429.169 358.56 429.25 348.298 429.332 338.036C429.414 327.774 429.495 317.512 429.576 307.25C429.658 317.512 429.739 327.774 429.821 338.036C429.902 348.298 429.983 358.56 430.065 368.822C430.472 368.822 430.88 368.822 431.287 368.822C431.694 368.822 432.101 368.822 432.508 368.822C432.508 358.153 432.508 347.483 432.508 336.814C432.508 315.476 432.671 304.236 432.997 303.096C433.323 301.956 433.079 300.816 432.264 299.676C431.449 298.536 430.716 297.884 430.065 297.721C429.414 297.558 429.088 292.346 429.088 282.084C429.088 271.822 429.332 266.528 429.821 266.202C430.309 265.876 430.391 265.306 430.065 264.492C429.739 263.677 419.314 259.849 398.79 253.008C378.266 246.167 358.231 245.922 338.685 252.275ZM337.463 298.21C340.558 299.35 343.164 300.816 345.281 302.608C347.399 304.4 350.087 306.028 353.344 307.494C356.602 308.96 360.023 310.1 363.606 310.915C367.19 311.73 371.832 312.381 377.533 312.87C383.235 313.358 387.144 314.173 389.261 315.313C391.379 316.453 393.171 317.838 394.637 319.467C396.103 321.095 397.08 322.561 397.569 323.865C398.057 325.168 398.383 337.547 398.546 361.003C398.709 384.459 398.464 397.083 397.813 398.875C397.162 400.667 396.265 402.133 395.125 403.273C393.985 404.413 392.356 405.227 390.239 405.716C389.18 405.96 388.121 406.205 387.062 406.449C387.551 405.553 388.04 404.657 388.528 403.761C389.506 401.97 390.157 399.608 390.483 396.676C390.809 393.744 390.89 382.504 390.727 362.958C390.565 343.411 390.076 332.579 389.261 330.462C388.447 328.344 387.47 326.715 386.329 325.575C385.189 324.435 383.886 323.539 382.42 322.887C380.954 322.236 376.963 321.666 370.448 321.177C363.932 320.688 357.905 319.548 352.367 317.756C346.829 315.964 343.082 314.417 341.128 313.114C339.173 311.811 337.137 309.938 335.02 307.494C332.902 305.051 331.517 303.096 330.866 301.63C330.214 300.164 330.377 298.943 331.355 297.965C332.332 296.988 334.368 297.07 337.463 298.21ZM396.836 301.142C399.442 301.956 401.478 303.015 402.944 304.318C404.41 305.621 405.876 307.739 407.342 310.671C408.808 313.603 409.948 316.697 410.763 319.955C411.577 323.213 412.066 336.733 412.229 360.515C412.391 384.296 412.147 397.002 411.496 398.63C410.844 400.259 410.111 401.481 409.297 402.295C408.482 403.11 407.098 403.924 405.143 404.739C403.188 405.553 401.722 405.96 400.745 405.96C400.256 405.96 399.768 405.96 399.279 405.96C399.93 404.657 400.582 403.354 401.234 402.051C402.537 399.445 403.188 386.007 403.188 361.736C403.188 337.466 402.944 324.353 402.455 322.399C401.967 320.444 401.071 318.489 399.768 316.535C398.464 314.58 396.754 312.951 394.637 311.648C392.519 310.345 390.565 309.449 388.773 308.96C386.981 308.472 383.153 308.065 377.289 307.739C371.425 307.413 366.457 306.517 362.385 305.051C360.349 304.318 358.313 303.585 356.276 302.852C359.941 302.852 363.606 302.852 367.271 302.852C374.601 302.852 380.71 302.363 385.596 301.386C390.483 300.409 394.23 300.327 396.836 301.142ZM427.622 299.92C428.273 299.92 428.843 300.164 429.332 300.653C429.821 301.142 429.983 301.875 429.821 302.852C429.658 303.829 429.088 304.4 428.11 304.562C427.133 304.725 426.4 304.562 425.911 304.074C425.423 303.585 425.178 303.015 425.178 302.363C425.178 301.712 425.423 301.142 425.911 300.653C426.4 300.164 426.97 299.92 427.622 299.92ZM325.979 303.341C326.712 304.4 327.445 305.458 328.178 306.517C329.644 308.634 332.088 311.159 335.508 314.091C338.929 317.023 342.594 319.304 346.503 320.933C350.412 322.561 353.426 323.539 355.543 323.865C357.661 324.191 359.127 325.982 359.941 329.24C360.349 330.869 360.756 332.498 361.163 334.127C358.883 333.801 356.602 333.475 354.322 333.149C349.761 332.498 345.852 331.439 342.594 329.973C339.336 328.507 336.648 327.041 334.531 325.575C332.413 324.109 329.726 321.503 326.468 317.756C323.21 314.01 321.581 311.811 321.581 311.159C321.581 310.508 322.314 309.042 323.78 306.761C324.513 305.621 325.246 304.481 325.979 303.341ZM318.161 318.978C319.056 319.793 319.952 320.607 320.848 321.421C322.64 323.05 323.536 326.064 323.536 330.462C323.536 334.86 322.884 338.117 321.581 340.235C320.93 341.294 320.278 342.352 319.627 343.411C319.382 343.167 319.138 342.923 318.894 342.678C318.405 342.19 317.916 340.479 317.428 337.547C316.939 334.615 316.939 330.787 317.428 326.064C317.672 323.702 317.916 321.34 318.161 318.978ZM364.095 325.331C364.828 325.412 365.561 325.493 366.294 325.575C367.76 325.738 368.656 326.634 368.982 328.263C369.308 329.891 369.878 331.439 370.692 332.905C371.507 334.371 372.973 336 375.09 337.792C377.208 339.583 379.488 340.724 381.931 341.212C384.375 341.701 385.678 342.515 385.841 343.656C385.922 344.226 386.004 344.796 386.085 345.366C384.782 345.284 383.479 345.203 382.176 345.122C379.57 344.959 377.126 344.307 374.846 343.167C372.565 342.027 370.448 340.072 368.493 337.303C366.538 334.534 365.317 331.846 364.828 329.24C364.584 327.937 364.339 326.634 364.095 325.331ZM373.38 326.308C374.194 326.308 375.009 326.308 375.823 326.308C377.452 326.308 379.081 326.715 380.71 327.53C382.339 328.344 383.56 329.566 384.375 331.195C385.189 332.823 385.596 334.289 385.596 335.593C385.596 336.244 385.596 336.896 385.596 337.547C384.293 337.059 382.99 336.57 381.687 336.081C379.081 335.104 377.289 334.045 376.312 332.905C375.334 331.765 374.601 330.38 374.113 328.751C373.868 327.937 373.624 327.122 373.38 326.308ZM327.445 327.774C328.341 328.425 329.237 329.077 330.133 329.729C331.925 331.032 334.775 332.498 338.685 334.127C342.594 335.755 346.259 336.896 349.679 337.547C353.1 338.199 356.114 338.525 358.72 338.525C361.326 338.525 363.606 339.665 365.561 341.945C367.516 344.226 369.47 345.936 371.425 347.076C373.38 348.216 376.067 348.949 379.488 349.275C381.198 349.438 382.909 349.601 384.619 349.764C384.375 350.415 384.13 351.067 383.886 351.719C383.397 353.022 381.524 353.918 378.266 354.406C375.009 354.895 373.217 355.302 372.891 355.628C372.565 355.954 372.565 356.687 372.891 357.827C373.217 358.967 374.031 359.537 375.334 359.537C375.986 359.537 376.638 359.537 377.289 359.537C377.208 361.655 377.126 363.772 377.045 365.89C376.882 370.125 376.475 372.487 375.823 372.976C375.172 373.464 367.19 374.93 351.878 377.373C336.567 379.817 328.667 380.794 328.178 380.305C327.69 379.817 327.445 375.826 327.445 368.333C327.445 360.84 326.142 356.361 323.536 354.895C320.93 353.429 319.789 352.126 320.115 350.986C320.441 349.845 321.744 347.402 324.025 343.656C326.305 339.909 327.445 336.326 327.445 332.905C327.445 331.195 327.445 329.484 327.445 327.774ZM334.042 338.525C332.902 338.85 331.843 339.502 330.866 340.479C329.889 341.457 329.318 342.923 329.156 344.877C328.993 346.832 329.481 348.542 330.622 350.008C331.762 351.474 333.391 352.289 335.508 352.452C337.626 352.614 339.255 352.289 340.395 351.474C341.535 350.66 342.35 349.275 342.838 347.321C343.327 345.366 343.082 343.574 342.105 341.945C341.128 340.316 339.825 339.258 338.196 338.769C336.567 338.28 335.182 338.199 334.042 338.525ZM336.974 343.656C338.114 344.144 338.603 344.877 338.44 345.855C338.277 346.832 337.952 347.483 337.463 347.809C336.974 348.135 336.323 348.216 335.508 348.054C334.694 347.891 334.124 347.483 333.798 346.832C333.472 346.18 333.635 345.366 334.287 344.389C334.938 343.411 335.834 343.167 336.974 343.656ZM385.596 357.094C385.678 363.609 385.759 370.125 385.841 376.641C386.004 389.672 385.922 397.002 385.596 398.63C385.271 400.259 384.13 402.051 382.176 404.006C380.221 405.96 378.429 407.182 376.8 407.671C375.172 408.159 372.973 408.322 370.203 408.159C367.434 407.997 365.561 407.671 364.584 407.182C363.606 406.693 362.548 405.716 361.407 404.25C360.267 402.784 359.697 400.911 359.697 398.63C359.697 396.35 360.43 394.395 361.896 392.766C363.362 391.138 365.398 390.242 368.004 390.079C370.611 389.916 372.402 390.323 373.38 391.3C374.357 392.278 374.764 393.499 374.601 394.965C374.439 396.431 374.113 397.409 373.624 397.897C373.135 398.386 372.158 398.63 370.692 398.63C369.226 398.63 368.33 398.223 368.004 397.409C367.679 396.594 367.76 395.698 368.249 394.721C368.493 394.232 368.737 393.744 368.982 393.255C368.493 393.011 368.004 392.766 367.516 392.522C366.538 392.033 365.561 392.278 364.584 393.255C363.606 394.232 363.199 395.617 363.362 397.409C363.525 399.201 364.339 400.585 365.805 401.562C367.271 402.54 368.819 403.028 370.448 403.028C372.077 403.028 373.787 402.458 375.579 401.318C377.371 400.178 378.511 398.549 378.999 396.431C379.488 394.314 379.488 392.522 378.999 391.056C378.511 389.59 377.859 388.531 377.045 387.88C376.23 387.228 375.742 385.518 375.579 382.749C375.416 379.98 375.905 378.432 377.045 378.106C378.185 377.781 379.244 376.966 380.221 375.663C381.198 374.36 381.687 371.265 381.687 366.379C381.687 361.492 382.339 358.723 383.642 358.071C384.293 357.745 384.945 357.42 385.596 357.094ZM371.425 379.572C371.751 379.898 371.832 380.957 371.669 382.749C371.507 384.541 370.611 385.436 368.982 385.436C367.353 385.436 365.235 386.088 362.629 387.391C360.023 388.694 357.742 389.427 355.788 389.59C354.81 389.672 353.833 389.753 352.856 389.834C352.856 388.613 352.856 387.391 352.856 386.169C352.856 383.726 355.869 381.934 361.896 380.794C367.923 379.654 371.099 379.247 371.425 379.572ZM250.48 410.847C247.711 418.666 244.454 423.715 240.707 425.996C236.96 428.276 232.97 430.394 228.735 432.348C226.617 433.326 224.5 434.303 222.382 435.28C224.907 438.05 227.431 440.818 229.956 443.588C235.006 449.126 240.137 454.094 245.349 458.492C247.955 460.691 250.562 462.89 253.168 465.089C256.182 460.121 259.195 455.153 262.208 450.185C268.235 440.249 273.61 435.851 278.334 436.991C283.058 438.131 288.189 438.538 293.727 438.212C296.496 438.05 299.265 437.886 302.035 437.724C299.103 436.42 296.171 435.118 293.239 433.814C287.375 431.208 282.57 428.602 278.823 425.996C275.076 423.39 271.737 420.62 268.805 417.688C265.873 414.756 262.779 410.929 259.521 406.205C257.892 403.843 256.263 401.481 254.634 399.119C253.25 403.028 251.865 406.938 250.48 410.847ZM485.284 405.716C482.352 410.114 478.932 414.349 475.022 418.421C471.113 422.494 465.819 426.729 459.141 431.127C455.802 433.326 452.462 435.525 449.123 437.724C451.648 437.724 454.172 437.724 456.697 437.724C461.747 437.724 465.9 437.317 469.158 436.502C472.416 435.687 476.814 440.004 482.352 449.452C487.89 458.899 490.904 463.786 491.393 464.112C491.881 464.438 494.487 462.646 499.211 458.736C503.935 454.827 508.578 450.592 513.138 446.031C517.699 441.47 520.387 438.538 521.201 437.235C521.608 436.584 522.016 435.932 522.423 435.28C520.468 434.385 518.514 433.488 516.559 432.593C512.65 430.801 508.659 428.683 504.587 426.24C500.515 423.797 497.664 419.969 496.035 414.756C494.406 409.544 492.94 405.635 491.637 403.028C490.986 401.725 490.334 400.422 489.682 399.119C488.216 401.318 486.75 403.517 485.284 405.716ZM313.274 423.552C310.668 426.159 309.365 427.869 309.365 428.683C309.365 429.498 310.179 431.208 311.808 433.814C313.437 436.42 315.473 438.864 317.916 441.144C320.36 443.425 323.047 445.542 325.979 447.497C328.911 449.452 331.517 450.999 333.798 452.139C336.078 453.279 339.662 454.501 344.548 455.804C349.435 457.108 356.032 457.922 364.339 458.248C372.647 458.574 380.058 458.329 386.574 457.515C393.089 456.7 400.663 455.153 409.297 452.872C417.93 450.592 425.097 448.067 430.798 445.298C433.648 443.914 436.499 442.529 439.35 441.144C438.21 439.678 437.069 438.212 435.929 436.746C433.648 433.814 431.938 432.104 430.798 431.615C429.658 431.127 428.11 430.882 426.156 430.882C424.201 430.882 422.409 431.127 420.78 431.615C419.152 432.104 415.487 433.896 409.785 436.991C404.084 440.085 398.953 442.448 394.392 444.076C389.832 445.705 385.759 446.846 382.176 447.497C378.592 448.148 373.787 448.393 367.76 448.23C361.733 448.067 356.276 447.253 351.39 445.787C346.503 444.321 342.105 442.448 338.196 440.167C334.287 437.886 330.784 435.28 327.69 432.348C324.595 429.416 322.07 426.566 320.115 423.797C319.138 422.412 318.161 421.028 317.183 419.643C315.88 420.946 314.577 422.249 313.274 423.552ZM259.521 466.799C250.725 482.925 249.666 493.187 256.344 497.585C263.023 501.983 269.212 505.648 274.914 508.58C280.615 511.512 287.945 514.689 296.904 518.109C305.862 521.53 313.518 524.055 319.871 525.684C326.224 527.312 333.146 528.697 340.639 529.837C348.132 530.977 356.032 531.71 364.339 532.036C372.647 532.362 380.303 532.281 387.307 531.792C394.311 531.303 401.152 530.489 407.831 529.349C414.509 528.209 420.618 526.905 426.156 525.439C431.694 523.973 438.779 521.612 447.413 518.354C456.046 515.096 463.946 511.594 471.113 507.847C478.28 504.101 484.633 500.355 490.171 496.608C495.709 492.861 494.08 483.007 485.284 467.044C480.886 459.062 476.488 451.08 472.09 443.099C469.24 444.891 466.389 446.682 463.539 448.474C457.837 452.058 452.544 455.071 447.657 457.515C442.77 459.958 436.744 462.483 429.576 465.089C422.409 467.695 414.428 469.894 405.632 471.686C396.836 473.478 387.551 474.536 377.778 474.862C368.004 475.188 358.883 474.781 350.412 473.641C341.942 472.501 333.798 470.79 325.979 468.51C318.161 466.229 310.505 463.379 303.012 459.958C295.519 456.537 288.596 452.791 282.244 448.719C279.067 446.682 275.891 444.647 272.715 442.61C268.317 450.673 263.919 458.736 259.521 466.799ZM287.863 466.066C289.574 466.962 291.284 467.858 292.994 468.754C296.415 470.546 300.894 472.501 306.433 474.618C311.971 476.735 314.577 478.527 314.251 479.993C314.088 480.726 313.925 481.459 313.763 482.192C311.808 481.541 309.853 480.889 307.899 480.238C305.944 479.586 303.989 478.934 302.035 478.283C300.569 482.844 299.103 487.405 297.637 491.966C296.171 496.526 294.705 501.088 293.239 505.648C292.261 505.16 291.284 504.671 290.307 504.182C288.352 503.205 289.003 498.237 292.261 489.278C295.519 480.319 295.275 474.944 291.528 473.152C287.782 471.36 286.235 469.731 286.886 468.265C287.212 467.532 287.537 466.799 287.863 466.066ZM447.901 470.464C449.367 470.464 450.752 470.709 452.055 471.197C453.358 471.686 454.661 472.826 455.964 474.618C457.268 476.41 457.837 478.283 457.675 480.238C457.512 482.192 456.453 484.391 454.498 486.835C453.521 488.056 452.544 489.278 451.566 490.5C453.847 491.314 456.127 492.128 458.408 492.943C460.688 493.758 462.968 494.572 465.249 495.386C464.598 496.119 463.946 496.852 463.294 497.585C461.991 499.051 458.652 498.725 453.277 496.608C447.901 494.491 444.236 493.758 442.282 494.409C440.327 495.06 439.92 497.504 441.06 501.739C442.2 505.974 441.793 508.418 439.838 509.069C438.861 509.395 437.884 509.72 436.906 510.046C435.685 505.078 434.463 500.11 433.241 495.142C430.798 485.206 430.065 479.505 431.042 478.039C432.02 476.573 434.707 474.944 439.105 473.152C443.503 471.36 446.435 470.464 447.901 470.464ZM440.327 477.794C436.744 479.423 435.44 482.03 436.418 485.613C436.906 487.405 437.395 489.196 437.884 490.988C439.268 490.5 440.653 490.011 442.037 489.522C444.807 488.545 447.006 487.486 448.634 486.346C450.263 485.206 451.322 484.065 451.811 482.925C452.299 481.785 452.381 480.564 452.055 479.26C451.729 477.957 451.24 477.061 450.589 476.573C449.938 476.084 448.96 475.758 447.657 475.595C446.354 475.433 443.91 476.166 440.327 477.794ZM321.093 479.749C321.988 479.993 322.884 480.238 323.78 480.482C325.572 480.971 325.735 484.554 324.269 491.233C322.803 497.911 322.07 502.065 322.07 503.694C322.07 505.322 322.559 506.87 323.536 508.336C324.513 509.802 325.653 510.861 326.957 511.512C328.26 512.164 329.726 512.571 331.355 512.734C332.983 512.897 334.694 512.571 336.486 511.757C338.277 510.942 339.418 510.128 339.906 509.313C340.395 508.499 341.046 504.264 341.861 496.608C342.268 492.78 342.675 488.952 343.082 485.124C343.978 485.206 344.874 485.287 345.77 485.369C346.666 485.45 347.562 485.531 348.458 485.613C348.132 489.441 347.806 493.269 347.48 497.097C346.829 504.753 346.177 509.313 345.526 510.779C344.874 512.245 344.06 513.385 343.082 514.2C342.105 515.015 340.802 515.748 339.173 516.399C337.544 517.05 335.427 517.376 332.821 517.376C330.214 517.376 327.934 516.969 325.979 516.155C324.025 515.34 322.233 514.2 320.604 512.734C318.975 511.268 317.835 509.802 317.183 508.336C316.532 506.87 316.206 505.241 316.206 503.449C316.206 501.657 317.02 497.259 318.649 490.255C319.464 486.753 320.278 483.251 321.093 479.749ZM407.831 483.17C410.274 483.17 412.473 483.577 414.428 484.391C416.382 485.206 418.011 486.346 419.314 487.812C420.618 489.278 421.758 492.047 422.735 496.119C423.712 500.191 424.119 502.961 423.957 504.427C423.794 505.893 423.386 507.277 422.735 508.58C422.084 509.884 421.025 511.268 419.559 512.734C418.093 514.2 416.138 515.422 413.695 516.399C411.251 517.376 408.157 517.702 404.41 517.376C400.663 517.05 397.895 516.155 396.103 514.689C394.311 513.223 393.171 512.001 392.682 511.024C392.193 510.046 391.868 506.87 391.705 501.495C391.542 496.119 392.438 492.21 394.392 489.767C396.347 487.323 398.464 485.613 400.745 484.636C403.026 483.658 405.387 483.17 407.831 483.17ZM355.788 486.102C357.091 486.264 358.394 486.428 359.697 486.59C362.303 486.916 367.027 486.997 373.868 486.835C377.289 486.753 380.71 486.672 384.13 486.59C384.049 487.405 383.968 488.219 383.886 489.034C383.723 490.662 381.769 491.477 378.022 491.477C376.149 491.477 374.276 491.477 372.402 491.477C372.402 496.445 372.402 501.413 372.402 506.381C372.402 511.35 372.402 516.317 372.402 521.286C371.425 521.286 370.448 521.286 369.47 521.286C368.493 521.286 367.516 521.286 366.538 521.286C366.62 516.317 366.701 511.35 366.783 506.381C366.946 496.445 365.072 491.395 361.163 491.233C359.208 491.151 357.254 491.07 355.299 490.988C355.381 490.174 355.462 489.36 355.543 488.545C355.625 487.73 355.706 486.916 355.788 486.102ZM403.921 488.545C401.804 489.196 400.256 490.011 399.279 490.988C398.302 491.966 397.569 493.025 397.08 494.165C396.591 495.305 396.591 497.992 397.08 502.228C397.569 506.463 398.302 509.151 399.279 510.291C400.256 511.431 401.478 512.245 402.944 512.734C404.41 513.223 406.446 513.223 409.052 512.734C411.658 512.245 413.613 511.431 414.916 510.291C416.22 509.151 417.115 508.01 417.604 506.87C418.093 505.73 417.93 502.961 417.115 498.563C416.301 494.165 415.405 491.477 414.428 490.5C413.45 489.522 411.984 488.789 410.03 488.301C408.075 487.812 406.039 487.894 403.921 488.545Z" fill="#221b43" fill-rule="nonzero" opacity="1" stroke="none" vectornator:layerName="path"/>
</g>
</svg>
