<?xml version="1.0" encoding="UTF-8" standalone="no"?>
<!DOCTYPE svg PUBLIC "-//W3C//DTD SVG 1.1//EN" "http://www.w3.org/Graphics/SVG/1.1/DTD/svg11.dtd">
<!-- Created with Vectornator (http://vectornator.io/) -->
<svg height="100%" stroke-miterlimit="10" style="fill-rule:nonzero;clip-rule:evenodd;stroke-linecap:round;stroke-linejoin:round;" version="1.1" viewBox="0 0 777 830" width="100%" xml:space="preserve" xmlns="http://www.w3.org/2000/svg" xmlns:vectornator="http://vectornator.io" xmlns:xlink="http://www.w3.org/1999/xlink">
<defs/>
<g id="Layer-1" vectornator:layerName="Layer 1">
<path d="M399.306 344.031C392.966 346.092 389.612 347.201 389.242 347.36C388.872 347.518 388.661 347.729 388.608 347.994C388.555 348.258 390.008 348.892 392.966 349.896C395.925 350.899 397.404 352.194 397.404 353.779C397.404 355.364 396.77 356.843 395.502 358.216C394.234 359.59 393.204 361.069 392.412 362.654C391.619 364.239 391.117 365.666 390.906 366.933C390.695 368.201 390.616 369.337 390.668 370.341C390.721 371.345 390.933 372.428 391.302 373.59C391.672 374.752 391.831 375.624 391.778 376.205C391.725 376.786 391.751 377.183 391.857 377.394C391.963 377.605 392.412 377.922 393.204 378.345C393.997 378.768 394.393 380.115 394.393 382.386C394.393 384.658 394.446 385.9 394.551 386.111C394.657 386.322 394.921 386.586 395.344 386.903C395.767 387.22 396.982 387.247 398.989 386.983C399.993 386.851 400.997 386.718 402 386.586C402 386.877 402 387.168 402 387.458C402 388.039 401.419 388.541 400.257 388.964C399.095 389.387 398.17 390.179 397.483 391.341C396.797 392.503 395.951 393.745 394.948 395.066C393.944 396.387 393.812 397.602 394.551 398.711C395.291 399.821 396.427 400.983 397.959 402.198C399.491 403.413 401.129 404.338 402.872 404.972C404.616 405.606 406.385 405.975 408.182 406.081C409.978 406.187 411.933 406.002 414.046 405.526C416.159 405.051 418.431 404.232 420.861 403.07C423.291 401.907 424.955 401.221 425.854 401.009C426.752 400.798 427.597 400.692 428.389 400.692C428.786 400.692 429.182 400.692 429.578 400.692C428.627 399.583 427.676 398.473 426.725 397.364C424.823 395.145 423.661 394.088 423.238 394.194C423.027 394.247 422.816 394.3 422.604 394.353C422.842 394.115 423.08 393.877 423.318 393.639C423.793 393.164 424.163 392.503 424.427 391.658C424.691 390.813 424.771 386.534 424.665 378.82C424.559 371.107 424.321 366.537 423.952 365.111C423.582 363.684 423.159 362.548 422.684 361.703C422.208 360.858 421.653 360.092 421.02 359.405C420.386 358.718 420.148 358.216 420.306 357.899C420.465 357.582 420.544 357.292 420.544 357.028C420.544 356.764 420.465 356.579 420.306 356.473C420.148 356.367 420.069 355.496 420.069 353.858C420.069 352.22 421.337 351.005 423.872 350.213C425.14 349.816 426.408 349.42 427.676 349.024C427.676 350.635 427.676 352.246 427.676 353.858C427.676 357.08 427.544 358.771 427.28 358.93C427.016 359.088 426.831 359.352 426.725 359.722C426.62 360.092 426.62 360.409 426.725 360.673C426.831 360.937 426.884 364.53 426.884 371.45C426.884 374.911 426.884 378.371 426.884 381.832C426.989 381.832 427.095 381.832 427.201 381.832C427.306 381.832 427.412 381.832 427.518 381.832C427.491 378.503 427.465 375.175 427.438 371.847C427.412 368.518 427.386 365.19 427.359 361.862C427.412 361.862 427.465 361.862 427.518 361.862C427.57 361.862 427.623 361.862 427.676 361.862C427.676 365.19 427.676 368.518 427.676 371.847C427.676 375.175 427.676 378.503 427.676 381.832C427.835 381.832 427.993 381.832 428.152 381.832C428.31 381.832 428.469 381.832 428.627 381.832C428.654 378.503 428.68 375.175 428.706 371.847C428.733 368.518 428.759 365.19 428.786 361.862C428.812 365.19 428.838 368.518 428.865 371.847C428.891 375.175 428.918 378.503 428.944 381.832C429.076 381.832 429.208 381.832 429.34 381.832C429.472 381.832 429.605 381.832 429.737 381.832C429.737 378.371 429.737 374.911 429.737 371.45C429.737 364.53 429.789 360.884 429.895 360.515C430.001 360.145 429.922 359.775 429.657 359.405C429.393 359.035 429.155 358.824 428.944 358.771C428.733 358.718 428.627 357.028 428.627 353.699C428.627 350.371 428.706 348.654 428.865 348.548C429.023 348.443 429.05 348.258 428.944 347.994C428.838 347.729 425.457 346.488 418.801 344.269C412.144 342.05 405.646 341.971 399.306 344.031ZM398.91 358.93C399.914 359.299 400.759 359.775 401.446 360.356C402.133 360.937 403.004 361.465 404.061 361.941C405.118 362.416 406.227 362.786 407.389 363.05C408.551 363.315 410.057 363.526 411.906 363.684C413.755 363.843 415.023 364.107 415.71 364.477C416.397 364.847 416.978 365.296 417.453 365.824C417.929 366.352 418.246 366.828 418.404 367.25C418.563 367.673 418.669 371.688 418.721 379.296C418.774 386.903 418.695 390.998 418.484 391.579C418.272 392.16 417.982 392.636 417.612 393.005C417.242 393.375 416.714 393.639 416.027 393.798C415.684 393.877 415.34 393.956 414.997 394.036C415.155 393.745 415.314 393.454 415.472 393.164C415.789 392.583 416.001 391.817 416.106 390.866C416.212 389.915 416.238 386.269 416.186 379.93C416.133 373.59 415.974 370.077 415.71 369.39C415.446 368.703 415.129 368.175 414.759 367.805C414.389 367.435 413.967 367.145 413.491 366.933C413.016 366.722 411.721 366.537 409.608 366.379C407.495 366.22 405.54 365.85 403.744 365.269C401.948 364.688 400.733 364.186 400.099 363.764C399.465 363.341 398.804 362.733 398.117 361.941C397.431 361.149 396.982 360.515 396.77 360.039C396.559 359.564 396.612 359.167 396.929 358.85C397.246 358.533 397.906 358.56 398.91 358.93ZM418.167 359.881C419.012 360.145 419.672 360.488 420.148 360.911C420.623 361.333 421.099 362.02 421.574 362.971C422.05 363.922 422.419 364.926 422.684 365.983C422.948 367.039 423.106 371.424 423.159 379.137C423.212 386.851 423.133 390.971 422.921 391.5C422.71 392.028 422.472 392.424 422.208 392.688C421.944 392.953 421.495 393.217 420.861 393.481C420.227 393.745 419.752 393.877 419.435 393.877C419.276 393.877 419.118 393.877 418.959 393.877C419.17 393.454 419.382 393.032 419.593 392.609C420.016 391.764 420.227 387.405 420.227 379.534C420.227 371.662 420.148 367.409 419.989 366.775C419.831 366.141 419.54 365.507 419.118 364.873C418.695 364.239 418.14 363.711 417.453 363.288C416.767 362.865 416.133 362.575 415.552 362.416C414.97 362.258 413.729 362.126 411.827 362.02C409.925 361.914 408.314 361.624 406.993 361.149C406.333 360.911 405.672 360.673 405.012 360.435C406.201 360.435 407.389 360.435 408.578 360.435C410.955 360.435 412.936 360.277 414.521 359.96C416.106 359.643 417.321 359.616 418.167 359.881ZM428.152 359.484C428.363 359.484 428.548 359.564 428.706 359.722C428.865 359.881 428.918 360.118 428.865 360.435C428.812 360.752 428.627 360.937 428.31 360.99C427.993 361.043 427.755 360.99 427.597 360.832C427.438 360.673 427.359 360.488 427.359 360.277C427.359 360.066 427.438 359.881 427.597 359.722C427.755 359.564 427.94 359.484 428.152 359.484ZM395.185 360.594C395.423 360.937 395.661 361.281 395.899 361.624C396.374 362.311 397.166 363.13 398.276 364.081C399.385 365.032 400.574 365.771 401.842 366.299C403.11 366.828 404.087 367.145 404.774 367.25C405.461 367.356 405.936 367.937 406.201 368.994C406.333 369.522 406.465 370.051 406.597 370.579C405.857 370.473 405.118 370.368 404.378 370.262C402.899 370.051 401.631 369.707 400.574 369.232C399.517 368.756 398.646 368.281 397.959 367.805C397.272 367.33 396.4 366.484 395.344 365.269C394.287 364.054 393.759 363.341 393.759 363.13C393.759 362.918 393.997 362.443 394.472 361.703C394.71 361.333 394.948 360.964 395.185 360.594ZM392.649 365.666C392.94 365.93 393.231 366.194 393.521 366.458C394.102 366.986 394.393 367.964 394.393 369.39C394.393 370.817 394.182 371.873 393.759 372.56C393.548 372.903 393.336 373.247 393.125 373.59C393.046 373.511 392.966 373.432 392.887 373.352C392.729 373.194 392.57 372.639 392.412 371.688C392.253 370.737 392.253 369.496 392.412 367.964C392.491 367.198 392.57 366.432 392.649 365.666ZM407.548 367.726C407.785 367.752 408.023 367.779 408.261 367.805C408.736 367.858 409.027 368.149 409.133 368.677C409.238 369.205 409.423 369.707 409.687 370.183C409.952 370.658 410.427 371.186 411.114 371.767C411.801 372.349 412.54 372.718 413.333 372.877C414.125 373.035 414.548 373.3 414.601 373.669C414.627 373.854 414.653 374.039 414.68 374.224C414.257 374.198 413.835 374.171 413.412 374.145C412.567 374.092 411.774 373.881 411.035 373.511C410.295 373.141 409.608 372.507 408.974 371.609C408.34 370.711 407.944 369.839 407.785 368.994C407.706 368.571 407.627 368.149 407.548 367.726ZM410.559 368.043C410.823 368.043 411.087 368.043 411.352 368.043C411.88 368.043 412.408 368.175 412.936 368.439C413.465 368.703 413.861 369.1 414.125 369.628C414.389 370.156 414.521 370.632 414.521 371.054C414.521 371.266 414.521 371.477 414.521 371.688C414.099 371.53 413.676 371.371 413.253 371.213C412.408 370.896 411.827 370.552 411.51 370.183C411.193 369.813 410.955 369.364 410.797 368.835C410.718 368.571 410.638 368.307 410.559 368.043ZM395.661 368.518C395.951 368.73 396.242 368.941 396.533 369.152C397.114 369.575 398.038 370.051 399.306 370.579C400.574 371.107 401.763 371.477 402.872 371.688C403.982 371.899 404.959 372.005 405.804 372.005C406.65 372.005 407.389 372.375 408.023 373.115C408.657 373.854 409.291 374.409 409.925 374.779C410.559 375.149 411.431 375.386 412.54 375.492C413.095 375.545 413.65 375.598 414.204 375.651C414.125 375.862 414.046 376.073 413.967 376.284C413.808 376.707 413.201 376.998 412.144 377.156C411.087 377.315 410.506 377.447 410.401 377.552C410.295 377.658 410.295 377.896 410.401 378.266C410.506 378.635 410.77 378.82 411.193 378.82C411.404 378.82 411.616 378.82 411.827 378.82C411.801 379.507 411.774 380.194 411.748 380.881C411.695 382.254 411.563 383.02 411.352 383.179C411.14 383.337 408.551 383.813 403.585 384.605C398.619 385.398 396.057 385.715 395.899 385.556C395.74 385.398 395.661 384.103 395.661 381.673C395.661 379.243 395.238 377.79 394.393 377.315C393.548 376.839 393.178 376.417 393.283 376.047C393.389 375.677 393.812 374.885 394.551 373.669C395.291 372.454 395.661 371.292 395.661 370.183C395.661 369.628 395.661 369.073 395.661 368.518ZM397.8 372.005C397.431 372.111 397.087 372.322 396.77 372.639C396.453 372.956 396.268 373.432 396.216 374.066C396.163 374.7 396.321 375.254 396.691 375.73C397.061 376.205 397.589 376.469 398.276 376.522C398.963 376.575 399.491 376.469 399.861 376.205C400.231 375.941 400.495 375.492 400.653 374.858C400.812 374.224 400.733 373.643 400.416 373.115C400.099 372.586 399.676 372.243 399.148 372.084C398.619 371.926 398.17 371.899 397.8 372.005ZM398.751 373.669C399.121 373.828 399.28 374.066 399.227 374.383C399.174 374.7 399.068 374.911 398.91 375.017C398.751 375.122 398.54 375.149 398.276 375.096C398.012 375.043 397.827 374.911 397.721 374.7C397.615 374.488 397.668 374.224 397.88 373.907C398.091 373.59 398.382 373.511 398.751 373.669ZM414.521 378.028C414.548 380.141 414.574 382.254 414.601 384.368C414.653 388.594 414.627 390.971 414.521 391.5C414.416 392.028 414.046 392.609 413.412 393.243C412.778 393.877 412.197 394.273 411.668 394.432C411.14 394.59 410.427 394.643 409.529 394.59C408.631 394.538 408.023 394.432 407.706 394.273C407.389 394.115 407.046 393.798 406.676 393.322C406.306 392.847 406.121 392.239 406.121 391.5C406.121 390.76 406.359 390.126 406.834 389.598C407.31 389.07 407.97 388.779 408.816 388.726C409.661 388.673 410.242 388.805 410.559 389.122C410.876 389.439 411.008 389.836 410.955 390.311C410.903 390.787 410.797 391.103 410.638 391.262C410.48 391.42 410.163 391.5 409.687 391.5C409.212 391.5 408.921 391.368 408.816 391.103C408.71 390.839 408.736 390.549 408.895 390.232C408.974 390.073 409.053 389.915 409.133 389.756C408.974 389.677 408.816 389.598 408.657 389.519C408.34 389.36 408.023 389.439 407.706 389.756C407.389 390.073 407.257 390.522 407.31 391.103C407.363 391.685 407.627 392.134 408.102 392.451C408.578 392.768 409.08 392.926 409.608 392.926C410.136 392.926 410.691 392.741 411.272 392.371C411.853 392.002 412.223 391.473 412.382 390.787C412.54 390.1 412.54 389.519 412.382 389.043C412.223 388.568 412.012 388.224 411.748 388.013C411.484 387.802 411.325 387.247 411.272 386.349C411.219 385.451 411.378 384.949 411.748 384.843C412.118 384.737 412.461 384.473 412.778 384.051C413.095 383.628 413.253 382.624 413.253 381.039C413.253 379.454 413.465 378.556 413.887 378.345C414.099 378.239 414.31 378.134 414.521 378.028ZM409.925 385.319C410.031 385.424 410.057 385.768 410.004 386.349C409.952 386.93 409.661 387.22 409.133 387.22C408.604 387.22 407.917 387.432 407.072 387.854C406.227 388.277 405.487 388.515 404.853 388.568C404.536 388.594 404.219 388.62 403.902 388.647C403.902 388.251 403.902 387.854 403.902 387.458C403.902 386.666 404.88 386.085 406.834 385.715C408.789 385.345 409.819 385.213 409.925 385.319ZM370.698 395.462C369.8 397.998 368.744 399.636 367.528 400.375C366.313 401.115 365.019 401.802 363.645 402.436C362.959 402.753 362.272 403.07 361.585 403.387C362.404 404.285 363.223 405.183 364.042 406.081C365.679 407.877 367.344 409.489 369.034 410.915C369.879 411.628 370.725 412.341 371.57 413.055C372.547 411.443 373.525 409.832 374.502 408.221C376.457 404.998 378.2 403.572 379.732 403.941C381.264 404.311 382.929 404.443 384.725 404.338C385.623 404.285 386.521 404.232 387.419 404.179C386.468 403.756 385.517 403.334 384.566 402.911C382.664 402.066 381.106 401.221 379.891 400.375C378.676 399.53 377.593 398.632 376.642 397.681C375.691 396.73 374.687 395.488 373.63 393.956C373.102 393.19 372.574 392.424 372.045 391.658C371.596 392.926 371.147 394.194 370.698 395.462ZM446.854 393.798C445.903 395.224 444.793 396.598 443.525 397.919C442.257 399.239 440.541 400.613 438.374 402.039C437.291 402.753 436.208 403.466 435.125 404.179C435.944 404.179 436.763 404.179 437.582 404.179C439.22 404.179 440.567 404.047 441.623 403.783C442.68 403.519 444.107 404.919 445.903 407.983C447.699 411.047 448.676 412.632 448.835 412.738C448.993 412.843 449.839 412.262 451.371 410.994C452.903 409.726 454.409 408.353 455.888 406.873C457.367 405.394 458.239 404.443 458.503 404.021C458.635 403.809 458.767 403.598 458.899 403.387C458.265 403.096 457.631 402.805 456.997 402.515C455.729 401.934 454.435 401.247 453.114 400.455C451.793 399.662 450.869 398.421 450.341 396.73C449.812 395.039 449.337 393.771 448.914 392.926C448.703 392.503 448.491 392.081 448.28 391.658C447.805 392.371 447.329 393.085 446.854 393.798ZM391.065 399.583C390.219 400.428 389.797 400.983 389.797 401.247C389.797 401.511 390.061 402.066 390.589 402.911C391.117 403.756 391.778 404.549 392.57 405.289C393.363 406.028 394.234 406.715 395.185 407.349C396.136 407.983 396.982 408.485 397.721 408.855C398.461 409.224 399.623 409.621 401.208 410.043C402.793 410.466 404.933 410.73 407.627 410.836C410.321 410.941 412.725 410.862 414.838 410.598C416.952 410.334 419.408 409.832 422.208 409.092C425.008 408.353 427.333 407.534 429.182 406.636C430.106 406.187 431.031 405.738 431.955 405.289C431.586 404.813 431.216 404.338 430.846 403.862C430.106 402.911 429.552 402.356 429.182 402.198C428.812 402.039 428.31 401.96 427.676 401.96C427.042 401.96 426.461 402.039 425.933 402.198C425.405 402.356 424.216 402.938 422.367 403.941C420.518 404.945 418.853 405.711 417.374 406.239C415.895 406.768 414.574 407.138 413.412 407.349C412.25 407.56 410.691 407.639 408.736 407.587C406.782 407.534 405.012 407.27 403.427 406.794C401.842 406.319 400.416 405.711 399.148 404.972C397.88 404.232 396.744 403.387 395.74 402.436C394.736 401.485 393.917 400.56 393.283 399.662C392.966 399.213 392.649 398.764 392.332 398.315C391.91 398.738 391.487 399.16 391.065 399.583ZM373.63 413.609C370.778 418.84 370.434 422.168 372.6 423.594C374.766 425.021 376.774 426.209 378.623 427.16C380.472 428.111 382.849 429.142 385.755 430.251C388.661 431.36 391.144 432.179 393.204 432.708C395.265 433.236 397.51 433.685 399.94 434.055C402.37 434.425 404.933 434.662 407.627 434.768C410.321 434.874 412.804 434.847 415.076 434.689C417.348 434.53 419.567 434.266 421.733 433.896C423.899 433.527 425.88 433.104 427.676 432.628C429.472 432.153 431.771 431.387 434.571 430.33C437.371 429.274 439.933 428.138 442.257 426.923C444.582 425.708 446.642 424.493 448.439 423.277C450.235 422.062 449.707 418.866 446.854 413.689C445.427 411.1 444.001 408.511 442.574 405.922C441.65 406.504 440.725 407.085 439.801 407.666C437.952 408.828 436.235 409.806 434.65 410.598C433.065 411.39 431.11 412.209 428.786 413.055C426.461 413.9 423.872 414.613 421.02 415.194C418.167 415.775 415.155 416.119 411.985 416.224C408.816 416.33 405.857 416.198 403.11 415.828C400.363 415.458 397.721 414.904 395.185 414.164C392.649 413.424 390.166 412.5 387.736 411.39C385.306 410.281 383.061 409.066 381 407.745C379.97 407.085 378.94 406.424 377.91 405.764C376.483 408.379 375.057 410.994 373.63 413.609ZM382.823 413.372C383.378 413.662 383.932 413.953 384.487 414.243C385.597 414.825 387.049 415.458 388.846 416.145C390.642 416.832 391.487 417.413 391.382 417.889C391.329 418.126 391.276 418.364 391.223 418.602C390.589 418.391 389.955 418.179 389.321 417.968C388.687 417.757 388.053 417.545 387.419 417.334C386.944 418.813 386.468 420.292 385.993 421.772C385.517 423.251 385.042 424.73 384.566 426.209C384.249 426.051 383.932 425.892 383.615 425.734C382.981 425.417 383.193 423.806 384.249 420.9C385.306 417.994 385.227 416.251 384.012 415.67C382.796 415.089 382.295 414.56 382.506 414.085C382.612 413.847 382.717 413.609 382.823 413.372ZM434.729 414.798C435.205 414.798 435.654 414.877 436.076 415.036C436.499 415.194 436.921 415.564 437.344 416.145C437.767 416.726 437.952 417.334 437.899 417.968C437.846 418.602 437.503 419.315 436.869 420.108C436.552 420.504 436.235 420.9 435.918 421.296C436.657 421.56 437.397 421.824 438.137 422.089C438.876 422.353 439.616 422.617 440.356 422.881C440.144 423.119 439.933 423.357 439.722 423.594C439.299 424.07 438.216 423.964 436.472 423.277C434.729 422.591 433.54 422.353 432.906 422.564C432.272 422.775 432.14 423.568 432.51 424.942C432.88 426.315 432.748 427.108 432.114 427.319C431.797 427.425 431.48 427.53 431.163 427.636C430.767 426.025 430.371 424.413 429.974 422.802C429.182 419.579 428.944 417.73 429.261 417.255C429.578 416.779 430.45 416.251 431.876 415.67C433.303 415.089 434.254 414.798 434.729 414.798ZM432.272 417.175C431.11 417.704 430.688 418.549 431.005 419.711C431.163 420.292 431.321 420.874 431.48 421.455C431.929 421.296 432.378 421.138 432.827 420.979C433.725 420.662 434.439 420.319 434.967 419.949C435.495 419.579 435.839 419.209 435.997 418.84C436.156 418.47 436.182 418.074 436.076 417.651C435.971 417.228 435.812 416.938 435.601 416.779C435.39 416.621 435.073 416.515 434.65 416.462C434.227 416.409 433.435 416.647 432.272 417.175ZM393.6 417.809C393.891 417.889 394.182 417.968 394.472 418.047C395.053 418.206 395.106 419.368 394.631 421.534C394.155 423.7 393.917 425.047 393.917 425.575C393.917 426.104 394.076 426.606 394.393 427.081C394.71 427.557 395.08 427.9 395.502 428.111C395.925 428.323 396.4 428.455 396.929 428.508C397.457 428.56 398.012 428.455 398.593 428.191C399.174 427.926 399.544 427.662 399.702 427.398C399.861 427.134 400.072 425.76 400.336 423.277C400.468 422.036 400.601 420.794 400.733 419.553C401.023 419.579 401.314 419.606 401.604 419.632C401.895 419.659 402.185 419.685 402.476 419.711C402.37 420.953 402.265 422.194 402.159 423.436C401.948 425.919 401.736 427.398 401.525 427.874C401.314 428.349 401.05 428.719 400.733 428.983C400.416 429.247 399.993 429.485 399.465 429.696C398.936 429.908 398.249 430.013 397.404 430.013C396.559 430.013 395.819 429.881 395.185 429.617C394.551 429.353 393.97 428.983 393.442 428.508C392.914 428.032 392.544 427.557 392.332 427.081C392.121 426.606 392.015 426.077 392.015 425.496C392.015 424.915 392.28 423.489 392.808 421.217C393.072 420.081 393.336 418.945 393.6 417.809ZM421.733 418.919C422.525 418.919 423.238 419.051 423.872 419.315C424.506 419.579 425.035 419.949 425.457 420.425C425.88 420.9 426.25 421.798 426.567 423.119C426.884 424.44 427.016 425.338 426.963 425.813C426.91 426.289 426.778 426.738 426.567 427.16C426.355 427.583 426.012 428.032 425.537 428.508C425.061 428.983 424.427 429.379 423.635 429.696C422.842 430.013 421.838 430.119 420.623 430.013C419.408 429.908 418.51 429.617 417.929 429.142C417.348 428.666 416.978 428.27 416.819 427.953C416.661 427.636 416.555 426.606 416.502 424.862C416.45 423.119 416.74 421.851 417.374 421.058C418.008 420.266 418.695 419.711 419.435 419.394C420.174 419.077 420.94 418.919 421.733 418.919ZM404.853 419.87C405.276 419.923 405.699 419.976 406.121 420.028C406.967 420.134 408.499 420.16 410.718 420.108C411.827 420.081 412.936 420.055 414.046 420.028C414.019 420.292 413.993 420.557 413.967 420.821C413.914 421.349 413.28 421.613 412.065 421.613C411.457 421.613 410.85 421.613 410.242 421.613C410.242 423.225 410.242 424.836 410.242 426.447C410.242 428.059 410.242 429.67 410.242 431.281C409.925 431.281 409.608 431.281 409.291 431.281C408.974 431.281 408.657 431.281 408.34 431.281C408.367 429.67 408.393 428.059 408.419 426.447C408.472 423.225 407.865 421.587 406.597 421.534C405.963 421.507 405.329 421.481 404.695 421.455C404.721 421.191 404.748 420.926 404.774 420.662C404.801 420.398 404.827 420.134 404.853 419.87ZM420.465 420.662C419.778 420.874 419.276 421.138 418.959 421.455C418.642 421.772 418.404 422.115 418.246 422.485C418.087 422.855 418.087 423.726 418.246 425.1C418.404 426.474 418.642 427.345 418.959 427.715C419.276 428.085 419.672 428.349 420.148 428.508C420.623 428.666 421.284 428.666 422.129 428.508C422.974 428.349 423.608 428.085 424.031 427.715C424.454 427.345 424.744 426.975 424.903 426.606C425.061 426.236 425.008 425.338 424.744 423.911C424.48 422.485 424.189 421.613 423.872 421.296C423.555 420.979 423.08 420.741 422.446 420.583C421.812 420.425 421.152 420.451 420.465 420.662Z" fill="#221b43" fill-rule="nonzero" opacity="1" stroke="none" vectornator:layerName="path"/>
</g>
</svg>
