<?xml version="1.0" encoding="UTF-8" standalone="no"?>
<!DOCTYPE svg PUBLIC "-//W3C//DTD SVG 1.1//EN" "http://www.w3.org/Graphics/SVG/1.1/DTD/svg11.dtd">
<!-- Created with Vectornator (http://vectornator.io/) -->
<svg height="100%" stroke-miterlimit="10" style="fill-rule:nonzero;clip-rule:evenodd;stroke-linecap:round;stroke-linejoin:round;" version="1.1" viewBox="0 0 1080 1080" width="100%" xml:space="preserve" xmlns="http://www.w3.org/2000/svg" xmlns:vectornator="http://vectornator.io" xmlns:xlink="http://www.w3.org/1999/xlink">
<defs/>
<g id="Layer-1" vectornator:layerName="Layer 1">
<g opacity="1">
<path d="M444.023 479.355C446.088 483.485 440.94 488.892 440.332 492.539C438.935 500.921 438.772 510.425 435.059 517.852C433.142 521.684 432.736 531.692 432.422 535.781C431.837 543.384 428.643 551.206 427.148 557.93C424.914 567.986 424.641 579.162 421.348 589.043C414.852 608.529 405.05 624.275 396.035 642.305C389.37 655.635 380.763 670.108 378.633 685.02C377.959 689.734 372.209 697.053 375.996 700.84C374.951 702.931 375.247 707.474 377.051 709.277C376.523 709.805 376.523 709.805 375.996 710.332C378.084 712.42 380.075 728.828 381.27 733.008C386.271 750.513 394.699 770.736 407.109 785.215C418.738 798.782 432.946 811.844 448.242 819.492C455.813 823.278 476.273 828.011 481.992 833.73C482.52 833.467 482.52 833.467 483.047 833.203C486.374 836.53 493.84 833.976 497.285 837.422C497.813 836.895 497.813 836.895 498.34 836.367C502.869 840.897 512.51 835.772 516.797 840.059C519.598 838.658 525.919 838.634 528.398 841.113C529.309 840.658 530.623 840.586 531.563 840.586C543.868 840.586 556.171 841.113 568.477 841.113C589.649 841.113 619.142 836.205 636.504 823.184C656.539 808.157 684.315 781.527 692.402 757.266C695.741 747.249 699.899 737.298 702.422 727.207C703.27 723.813 702.491 715.009 705.059 712.441C704.067 710.459 704.414 706.231 706.113 704.531C702.645 697.595 712.743 685.848 705.059 678.164C707.617 675.605 703.841 672.526 706.113 670.254C703.45 667.59 706.889 671.527 705.059 666.035C703.671 661.872 698.36 655.573 696.094 651.797C689.706 641.15 683.558 628.247 677.109 618.574C671.647 610.38 671.074 595.782 669.199 586.406C663.17 556.259 658.455 525.663 651.797 495.703C648.016 478.687 643.886 461.161 640.195 444.551C639.495 441.399 637.797 431.099 633.867 430.313C631.134 429.766 624.887 439.472 623.32 441.387C618.413 447.385 612.918 454.999 610.137 461.953C608.835 465.208 607.735 469.902 605.391 473.027C591.013 492.198 555.888 501.916 533.145 496.23C507.944 489.93 496.055 465.595 480.41 447.715C478.083 445.056 462.544 427.123 459.844 428.203C457.458 429.157 456.489 436.924 456.152 439.277C454.746 449.122 449.972 459.926 447.188 468.281C446.022 471.777 446.891 476.488 444.023 479.355Z" fill="#221b43" fill-rule="nonzero" opacity="1" stroke="none"/>
<path d="M378.105 656.543C376.601 658.047 376.159 661.616 377.051 663.398C374.204 666.246 375.49 693.478 376.523 694.512C380.622 690.413 380.551 678.737 382.324 673.418C384.336 667.382 388.255 660.9 390.234 654.961C395.221 640.002 406.585 625.424 413.438 611.719C414.662 609.269 417.399 606.556 418.184 603.809C425.083 579.661 427.854 554.873 433.477 530.508C436.04 519.401 439.623 508.393 441.387 497.813C444.286 480.418 449.838 463.75 454.57 447.188C456.176 441.567 457.102 433.054 460.898 429.258C467.244 435.15 473.644 440.66 479.355 447.188C484.193 452.716 487.196 459.759 492.012 465.645C508.325 485.583 523.6 498.34 549.492 498.34C557.091 498.34 565.334 496.489 572.695 494.648C583.519 491.943 593.124 487.931 601.172 479.883C606.335 474.72 608.731 468.103 611.191 461.953C614.219 454.385 620.469 446.29 625.957 439.805C627.636 437.82 631.227 432.687 633.867 431.367C638.796 436.296 638.038 445.461 640.195 451.934C645.748 468.591 648.825 487.698 652.324 505.195C659.34 540.272 662.121 577.826 673.418 611.719C679.743 630.695 691.863 649.848 704.004 666.035C705.812 664.227 705.812 662.042 704.004 660.234C704.531 659.707 704.531 659.707 705.059 659.18C700.544 654.665 706.952 646.835 702.422 642.305C702.949 641.777 702.949 641.777 703.477 641.25C701.565 639.338 703.279 637.361 701.367 635.449C702.307 633.57 701.912 629.666 700.313 628.066C701.381 625.929 700.888 623.896 699.258 622.266C699.785 621.738 699.785 621.738 700.313 621.211C698.642 619.54 699.874 618.136 698.203 616.465C698.73 615.938 698.73 615.938 699.258 615.41C696.531 612.684 698.807 608.103 696.094 605.391C696.621 604.863 696.621 604.863 697.148 604.336C693.704 600.891 697.051 594.219 693.457 590.625C695.558 586.423 686.453 561.028 685.02 555.293C676.752 522.223 667.1 488.874 654.434 457.207C650.636 447.713 647.521 432.365 640.195 425.039C647.675 417.559 658.107 401.055 655.488 389.707C654.772 386.605 644.35 386.293 641.25 384.434C631.512 378.591 618.025 371.458 613.301 359.648C608.277 347.088 610.067 309.378 584.297 316.406C573.173 319.44 571.803 342.65 572.168 350.684C573.367 377.06 587.295 406.922 569.004 429.785C566.559 432.841 562.057 436.513 558.457 437.168C533.506 441.704 518.468 418.679 519.434 395.508C519.604 391.413 521.732 387.107 523.652 383.906C524.616 382.3 524.666 379.284 525.234 377.578C528.935 366.477 536.724 357.66 537.891 345.41C539.112 332.581 532.699 315.879 517.324 315.879C510.838 315.879 503.433 325.115 500.449 329.59C487.659 348.775 478.401 366.931 460.898 384.434C457.313 388.019 446.165 393.335 444.023 397.617C442.157 401.35 449.815 413.15 451.406 417.129C452.238 419.209 447.774 424.041 447.188 426.094C445.616 431.596 443.991 438.815 441.387 444.023C431.989 462.819 423.911 486.731 418.184 506.777C414.689 519.009 408.688 531.045 405 542.109C399.361 559.027 395.606 575.992 391.289 593.262C387.743 607.448 384.549 622.274 381.27 637.031C380.35 641.169 375.987 652.307 378.105 656.543Z" fill="#fcf9f5" fill-rule="nonzero" opacity="1" stroke="none"/>
<path d="M445.078 373.359C445.605 373.887 445.605 373.887 446.133 374.414C443.977 376.569 446.179 379.114 444.023 381.27C444.551 381.797 444.551 381.797 445.078 382.324C441.181 386.221 442.047 400.165 446.66 397.09C455.054 391.494 463.39 382.997 470.391 375.996C485.905 360.482 491.527 341.317 505.195 325.371C509.017 320.912 517.977 312.94 524.707 317.988C549.63 336.68 529.855 364.862 521.016 385.488C517.561 393.549 518.808 403.717 519.434 411.855C519.739 415.828 523.812 421.622 526.289 424.512C538.699 438.989 555.304 445.067 570.059 430.313C589.639 410.733 574.477 366.796 573.223 341.719C572.74 332.063 578.662 316.934 589.57 316.934C609.735 316.934 607.729 345.422 611.191 357.539C614.457 368.968 627.926 378.299 638.086 383.379C642.45 385.561 650.205 390.414 655.488 388.652C655.488 384.594 657.303 379.393 654.434 376.523C655.479 374.432 655.183 369.89 653.379 368.086C654.623 365.598 652.207 357.422 650.215 355.43C650.742 354.902 650.742 354.902 651.27 354.375C646.127 349.233 649.155 339.077 644.414 334.336C644.941 333.809 644.941 333.809 645.469 333.281C642.598 330.411 644.121 325.078 641.25 322.207C641.777 321.68 641.777 321.68 642.305 321.152C637.961 316.809 637.87 309.966 634.395 305.332C630.538 300.189 625.96 294.788 621.211 290.039C612.502 281.33 600.089 279.991 592.207 272.109C591.68 272.637 591.68 272.637 591.152 273.164C588.89 270.901 585.505 271.208 583.242 268.945C582.715 269.473 582.715 269.473 582.188 270C579.864 268.838 577.196 269.227 575.332 267.363C574.805 267.891 574.805 267.891 574.277 268.418C572.725 266.866 571.61 267.86 570.059 266.309C567.66 267.508 565.061 267.112 563.203 265.254C562.676 265.781 562.676 265.781 562.148 266.309C557.17 261.331 548.095 265.254 541.055 265.254C536.991 265.254 532.202 267.467 528.398 268.418C499.136 275.734 471.113 301.057 461.426 330.117C460.378 333.26 457.099 335.77 456.152 339.082C453.651 347.838 449.137 356.678 447.188 365.449C446.563 368.259 447.218 371.219 445.078 373.359Z" fill="#221b43" fill-rule="nonzero" opacity="1" stroke="none"/>
<path d="M485.156 216.211C483.486 217.882 482.081 216.65 480.41 218.32C479.883 217.793 479.883 217.793 479.355 217.266C475.88 220.741 459.728 222.44 454.043 226.23C436.781 237.738 419.824 249.376 404.473 264.727C394.218 274.982 383.449 288.248 379.16 301.113C377.465 306.199 376.618 322.64 373.359 325.898C374.207 327.593 373.72 330.811 372.305 332.227C372.832 332.754 372.832 332.754 373.359 333.281C371.689 334.952 372.921 336.357 371.25 338.027C371.777 338.555 371.777 338.555 372.305 339.082C370.027 341.36 372.473 344.187 370.195 346.465C371.673 349.42 371.476 353.094 369.141 355.43C369.668 355.957 369.668 355.957 370.195 356.484C366.895 359.784 370.821 365.351 368.086 368.086C368.613 368.613 368.613 368.613 369.141 369.141C367.7 370.581 367.7 370.864 369.141 372.305C368.789 372.656 368.103 372.863 368.086 373.359C367.747 383.021 367.747 392.701 368.086 402.363C368.103 402.86 368.789 403.066 369.141 403.418C367.532 406.636 367.673 414.606 370.195 417.129C369.668 417.656 369.668 417.656 369.141 418.184C371.296 420.339 369.095 422.884 371.25 425.039C370.723 425.566 370.723 425.566 370.195 426.094C372.229 428.127 370.271 430.389 372.305 432.422C371.777 432.949 371.777 432.949 371.25 433.477C372.921 435.147 371.689 436.552 373.359 438.223C372.832 438.75 372.832 438.75 372.305 439.277C375.954 442.927 375.863 456.609 377.051 461.953C381.388 481.47 390.729 499.841 398.145 518.379C400.323 523.825 402.8 533.054 407.109 537.363C410.89 534.528 415.021 516.792 417.129 510.469C420.506 500.337 426.124 489.797 429.258 478.828C432.38 467.9 436.232 453.337 442.441 444.023C435.898 437.48 433.102 422.111 431.367 413.438C430.774 410.47 431.509 405.669 429.258 403.418C429.785 402.891 429.785 402.891 430.313 402.363C426.869 398.92 430.597 392.628 427.148 389.18C427.676 388.652 427.676 388.652 428.203 388.125C425.828 385.75 427.325 381.459 427.148 378.105C427.032 375.889 425.172 373.227 427.148 371.25C426.797 370.898 426.116 370.692 426.094 370.195C425.758 362.644 425.758 355.071 426.094 347.52C426.116 347.023 426.797 346.816 427.148 346.465C425.742 344.355 425.742 345.41 427.148 343.301C426.621 342.773 426.621 342.773 426.094 342.246C426.621 341.719 426.621 341.719 427.148 341.191C426.621 340.664 426.621 340.664 426.094 340.137C428.987 337.244 425.31 333.01 428.203 330.117C427.676 329.59 427.676 329.59 427.148 329.063C429.06 327.151 427.346 325.173 429.258 323.262C428.73 322.734 428.73 322.734 428.203 322.207C433.1 317.31 432.567 305.738 436.113 299.531C445.931 282.351 461.64 257.764 480.41 248.379C485.12 246.024 498.375 231.839 499.395 226.23C500.214 221.725 492.544 213.042 488.32 217.266C487.793 216.738 487.793 216.738 487.266 216.211C486.738 216.738 486.738 216.738 486.211 217.266C485.684 216.738 485.684 216.738 485.156 216.211Z" fill="#221b43" fill-rule="nonzero" opacity="1" stroke="none"/>
<path d="M601.172 215.156C601.699 215.684 601.699 215.684 602.227 216.211C601.699 216.738 601.699 216.738 601.172 217.266C601.699 217.793 601.699 217.793 602.227 218.32C599.358 221.188 605.198 230.128 606.973 233.086C611.995 241.457 618.76 246.769 625.43 254.18C630.953 260.317 634.778 267.675 639.141 274.219C650.893 291.847 662.548 318.073 669.199 338.027C670.548 342.073 673.193 359.951 675 361.758C673.84 364.077 674.034 369.229 676.055 371.25C675.527 371.777 675.527 371.777 675 372.305C675.527 372.832 675.527 372.832 676.055 373.359C675.01 375.449 676.827 377.333 675 379.16C677.813 381.973 673.683 386.808 676.055 389.18C674.251 390.983 673.954 395.526 675 397.617C674.473 398.145 674.473 398.145 673.945 398.672C676.515 403.812 663.998 433.632 660.234 439.277C658.048 442.556 651.797 448.341 651.797 452.461C651.797 455.176 654.386 458.694 655.488 460.898C659.712 469.345 661.9 479.827 665.508 488.848C669.528 498.898 674.484 512.127 676.055 523.125C676.543 526.546 676.837 532.963 680.273 535.254C681.384 535.994 687.388 527.35 688.184 526.289C693.682 518.958 699.631 509.349 702.422 500.977C704.043 496.112 707.713 491.96 709.277 487.266C714.004 473.084 718.729 457.692 721.406 442.969C722.131 438.981 723.47 415.065 725.098 413.438C724.395 412.031 724.395 412.734 725.098 411.328C724.57 410.801 724.57 410.801 724.043 410.273C727.925 406.391 722.27 399.917 726.152 396.035C725.625 395.508 725.625 395.508 725.098 394.98C725.625 394.189 725.625 394.189 726.152 393.398C724.712 391.958 724.712 391.675 726.152 390.234C725.625 389.707 725.625 389.707 725.098 389.18C725.625 388.652 725.625 388.652 726.152 388.125C725.342 386.503 724.66 382.762 726.152 381.27C724.712 379.829 724.712 379.546 726.152 378.105C724.782 376.735 722.756 363.572 725.098 361.23C721.3 357.433 725.538 348.487 721.406 344.355C721.934 343.828 721.934 343.828 722.461 343.301C719.455 340.295 719.514 334.986 718.242 331.172C714.715 320.591 709.335 308.241 703.477 298.477C688.788 273.996 673.005 248.471 649.16 229.395C637.82 220.323 615.031 201.297 601.172 215.156Z" fill="#221b43" fill-rule="nonzero" opacity="1" stroke="none"/>
<path d="M434.531 861.152C438.044 863.494 434.555 863.629 440.332 867.48C444.868 870.505 451.228 868.008 456.68 868.008C463.085 868.008 464.467 863.912 468.281 860.098C470.989 862.806 474.855 865.089 477.246 867.48C479.508 865.219 482.88 863.762 484.102 860.098C484.932 857.606 484.236 854.163 486.211 852.188C485.684 851.66 485.684 851.66 485.156 851.133C486.776 849.513 485.698 844.819 484.102 843.223C484.629 842.695 484.629 842.695 485.156 842.168C483.992 841.004 483.341 839.47 484.102 837.949C482.095 835.943 483.534 833.699 480.938 831.621C480.203 831.033 456.471 822.065 456.152 822.129C451.316 823.096 437.056 834.049 434.004 837.422C429.655 842.229 422.264 845.77 421.348 852.188C420.096 860.95 428.074 867.61 434.531 861.152Z" fill="#e7b127" fill-rule="nonzero" opacity="1" stroke="none"/>
<path d="M610.137 862.207C612.614 864.685 615.605 866.621 618.047 869.063C620.457 867.857 624.439 869.481 627.012 867.48C628.984 865.947 629.388 862.47 631.758 861.68C634.612 860.728 636.141 866.261 639.141 863.262C639.668 863.789 639.668 863.789 640.195 864.316C640.723 863.789 640.723 863.789 641.25 863.262C641.777 863.789 641.777 863.789 642.305 864.316C644.549 862.072 649.571 861.53 650.215 857.988C652.357 846.206 635.451 833.556 627.539 827.402C626.552 826.634 620.69 830.142 619.629 830.566C612.088 833.583 602.399 833.381 595.371 836.895C593.616 837.772 592.969 841.699 592.207 843.223C590.121 847.395 586.054 856.456 589.043 861.152C593.875 868.746 604.197 866.959 610.137 862.207Z" fill="#e7b127" fill-rule="nonzero" opacity="1" stroke="none"/>
<path d="M547.383 380.742C527.124 382.969 529.995 421.611 553.711 420.293C564.355 419.702 567.314 402.552 566.367 394.98C565.27 386.204 555.062 379.898 547.383 380.742Z" fill="#e7b127" fill-rule="nonzero" opacity="1" stroke="none"/>
<path d="M587.988 325.371C571.828 328.657 572.76 366.21 592.734 364.395C606.631 363.131 609.082 321.083 587.988 325.371Z" fill="#303b43" fill-rule="nonzero" opacity="1" stroke="none"/>
<path d="M512.051 325.898C496.026 326.953 496.032 364.922 514.688 364.922C530.196 364.922 533.534 324.485 512.051 325.898Z" fill="#303b43" fill-rule="nonzero" opacity="1" stroke="none"/>
<path d="M553.184 400.254C549.474 398.399 543.619 401.8 539.473 399.727C536.709 402.49 541.123 408.334 544.219 409.219C552.668 411.633 558.714 406.987 563.203 400.254C560.908 397.959 555.413 398.025 553.184 400.254Z" fill="#192322" fill-rule="nonzero" opacity="1" stroke="none"/>
</g>
</g>
</svg>
