<?xml version="1.0" encoding="UTF-8" standalone="no"?>
<!DOCTYPE svg PUBLIC "-//W3C//DTD SVG 1.1//EN" "http://www.w3.org/Graphics/SVG/1.1/DTD/svg11.dtd">
<!-- Created with Vectornator (http://vectornator.io/) -->
<svg height="100%" stroke-miterlimit="10" style="fill-rule:nonzero;clip-rule:evenodd;stroke-linecap:round;stroke-linejoin:round;" version="1.1" viewBox="0 0 1080 1080" width="100%" xml:space="preserve" xmlns="http://www.w3.org/2000/svg" xmlns:vectornator="http://vectornator.io" xmlns:xlink="http://www.w3.org/1999/xlink">
<defs/>
<g id="Layer-1" vectornator:layerName="Layer 1">
<g opacity="1">
<path d="M377.051 706.113C376.523 706.641 376.523 706.641 375.996 707.168C377.787 708.959 376.315 710.651 378.105 712.441C377.157 714.338 377.739 715.766 379.16 717.188C378.633 717.715 378.633 717.715 378.105 718.242C381.09 721.227 385.223 741.704 387.07 747.246C392.388 763.198 404.945 778.716 416.074 792.07C429.933 808.701 451.245 818.478 470.918 826.348C475.915 828.346 485.934 828.708 489.375 832.148C491.54 831.066 502.528 833.7 504.141 835.313C504.668 834.785 504.668 834.785 505.195 834.258C507.603 836.665 534.399 838.277 535.254 837.422C535.781 837.949 535.781 837.949 536.309 838.477C536.836 837.949 536.836 837.949 537.363 837.422C537.715 837.773 537.921 838.453 538.418 838.477C545.617 838.811 552.84 838.811 560.039 838.477C560.536 838.453 560.742 837.773 561.094 837.422C562.534 838.862 562.818 838.862 564.258 837.422C564.785 837.949 564.785 837.949 565.313 838.477C565.84 837.949 565.84 837.949 566.367 837.422C569.166 838.821 577.205 838.185 579.023 836.367C579.551 836.895 579.551 836.895 580.078 837.422C582.478 835.022 585.588 837.713 587.988 835.313C595.433 839.035 621.802 828.063 629.121 823.184C640.418 815.653 653.269 808.921 663.398 797.344C673.862 785.385 680.8 773.087 689.238 760.43C694.109 753.124 697.896 740.409 700.313 731.953C701.284 728.552 700.885 722.943 703.477 720.352C702.949 719.824 702.949 719.824 702.422 719.297C705.313 716.406 702.017 712.319 705.059 709.277C704.531 708.75 704.531 708.75 704.004 708.223C706.404 705.822 703.713 702.713 706.113 700.313C705.586 699.785 705.586 699.785 705.059 699.258C705.586 698.73 705.586 698.73 706.113 698.203C705.586 697.676 705.586 697.676 705.059 697.148C710.037 692.17 706.289 683.093 706.113 676.055C706.065 674.108 704.481 671.886 706.113 670.254C705.586 669.727 705.586 669.727 705.059 669.199C705.586 668.672 705.586 668.672 706.113 668.145C705.586 667.617 705.586 667.617 705.059 667.09C707.54 663.368 702.708 661.477 701.367 658.125C698.117 649.998 690.968 639.061 685.547 632.285C672.85 616.414 669.9 586.133 665.508 566.367C657.756 531.483 652.676 496.229 644.941 461.426C643.628 455.515 639.481 430.2 634.395 427.148C632.163 425.81 626.408 434.273 624.902 436.113C616.958 445.823 612.759 455.127 607.5 465.645C597.857 484.931 577.872 490.545 557.93 492.539C528.058 495.526 506.216 485.208 489.375 458.262C482.853 447.826 472.179 430.152 460.898 424.512C459.061 423.593 456.484 431.095 456.152 432.422C453.917 441.364 451.466 451.166 449.297 459.844C445.549 474.836 442.059 495.077 436.113 509.941C433.64 516.126 432.943 526.887 432.422 533.145C432.118 536.794 429.898 541.545 429.258 544.746C427.189 555.092 425.828 565.189 423.457 575.859C421.229 585.886 418.825 594.823 415.02 604.336C408.631 620.308 397.324 633.067 391.289 649.16C388.377 656.926 382.13 664.809 381.27 673.418C380.537 680.747 370.262 699.325 377.051 706.113Z" fill="#221b43" fill-rule="nonzero" opacity="1" stroke="none"/>
<path d="M451.406 414.492C446.782 421.428 442.764 432.067 441.387 440.332C441.005 442.621 438.914 443.763 438.223 445.605C433.327 458.661 430.115 472.466 425.039 485.156C410.848 520.635 398.956 556.264 390.234 591.152C386.275 606.989 381.834 624.151 379.16 640.195C378.357 645.012 379.449 655.727 375.996 659.18C376.523 659.707 376.523 659.707 377.051 660.234C374.28 663.005 375.685 692.091 375.996 692.402C380.877 687.522 379.068 677.169 382.324 671.309C386.336 664.087 390.114 654.327 392.344 646.523C393.871 641.178 399.615 636.31 401.309 631.23C406.052 617 417.457 605.131 421.348 589.57C429.352 557.554 433.519 526.119 441.387 494.648C445.94 476.435 450.087 461.428 454.57 443.496C455.892 438.208 456.588 429.349 460.371 425.566C480.288 440.504 489.073 461.124 506.25 478.301C532.818 504.868 579.816 497.547 604.336 473.027C609.113 468.251 609.062 460.265 612.773 455.625C619.696 446.971 625.32 437.226 633.34 428.203C637.98 431.684 636.586 437.859 639.141 442.969C641.196 447.079 641.221 451.803 642.305 456.68C645.285 470.093 648.593 483.374 651.27 496.758C662.853 554.674 666.015 616.757 704.004 662.344C706.152 660.195 704.007 658.12 705.059 656.016C700.544 651.501 706.952 643.671 702.422 639.141C703.392 637.2 701.898 627.015 700.313 625.43C700.84 624.902 700.84 624.902 701.367 624.375C698.41 621.418 701.168 616.266 698.203 613.301C698.73 612.773 698.73 612.773 699.258 612.246C696.788 609.776 698.645 604.778 696.094 602.227C696.621 601.699 696.621 601.699 697.148 601.172C692.851 596.874 697.007 586.792 692.402 582.188C693.29 580.413 691.529 574.459 690.293 573.223C690.82 572.695 690.82 572.695 691.348 572.168C689.226 570.046 686.813 561.725 688.184 558.984C686.681 557.482 687.405 558.343 686.074 556.348C686.602 555.82 686.602 555.82 687.129 555.293C685.965 554.129 685.314 552.595 686.074 551.074C682.567 547.567 682.528 537.945 681.328 533.145C676.226 512.738 668.102 492.94 661.289 472.5C659.144 466.063 657.461 453.906 652.324 448.77C652.588 448.242 652.588 448.242 652.852 447.715C651.857 446.721 641.187 422.623 641.25 422.402C644.786 410.026 658.694 400.975 655.488 386.016C655.041 383.93 646.314 383.538 643.887 382.324C634.157 377.459 623.528 371.647 616.465 361.758C605.104 345.853 615.873 310.42 584.824 313.242C573.269 314.293 574.443 335.536 573.223 342.246C571.99 349.027 573.725 355.793 574.805 362.813C575.803 369.301 576.787 375.78 577.441 382.324C579.456 402.471 578.339 431.356 553.184 434.004C549.704 434.37 545.525 434.94 542.109 433.477C524.471 425.917 518.235 408.218 519.434 390.234C519.66 386.834 523.079 382.462 524.18 379.16C527.561 369.016 533.502 358.925 536.309 349.102C538.861 340.168 539.242 318.79 525.762 314.297C515.894 311.008 511.203 314.617 503.086 322.734C496.996 328.824 494.156 337.266 489.902 344.355C482.637 356.465 474.06 368.108 464.063 378.105C458.792 383.376 448.078 388.371 444.023 394.453C443.083 395.864 449.313 412.399 451.406 414.492Z" fill="#f1eeea" fill-rule="nonzero" opacity="1" stroke="none"/>
<path d="M546.328 261.035C543.928 263.436 540.818 260.744 538.418 263.145C537.891 262.617 537.891 262.617 537.363 262.09C535.811 263.642 534.696 262.647 533.145 264.199C532.617 263.672 532.617 263.672 532.09 263.145C528.199 267.036 519.629 265.98 514.688 268.945C500.854 277.245 487.054 285.123 476.191 300.059C466.21 313.784 460.388 329.557 452.988 344.355C449.969 350.393 448.954 366.319 445.078 370.195C445.605 370.723 445.605 370.723 446.133 371.25C444.836 372.547 444.096 376.976 444.023 379.16C443.865 383.904 443.697 388.664 444.023 393.398C444.058 393.894 444.727 394.102 445.078 394.453C471.528 381.228 484.346 352.69 499.395 330.117C504.038 323.151 511.143 311.907 520.488 313.242C531.72 314.847 538.587 330.871 537.363 340.664C535.722 353.797 527.519 365.977 523.125 379.16C522.132 382.14 518.585 387.139 518.379 390.234C516.86 413.02 530.462 439.203 557.402 435.059C568.762 433.311 573.788 422.004 576.387 412.91C580.294 399.233 579.683 384.236 577.441 369.668C576.005 360.334 572.669 351.094 574.277 342.246C575.415 335.989 573.818 315.345 584.824 314.297C610.364 311.865 606.045 335.371 610.137 351.738C612.86 362.63 625.175 373.232 634.922 378.105C640.565 380.927 648.135 387.412 655.488 384.961C655.488 380.728 657.427 375.298 654.434 372.305C654.961 371.777 654.961 371.777 655.488 371.25C653.577 369.338 655.291 367.361 653.379 365.449C654.159 363.888 653.588 361.439 652.324 360.176C652.852 359.648 652.852 359.648 653.379 359.121C648.142 353.884 651.108 342.084 645.996 336.973C647.582 333.801 643.108 325.422 642.305 322.207C638.334 306.322 629.219 291.884 614.355 281.074C607.556 276.129 596.58 274.373 590.625 268.418C588.703 269.379 585.674 267.686 584.297 266.309C583.77 266.836 583.77 266.836 583.242 267.363C581.277 265.399 578.39 266.202 576.387 264.199C575.859 264.727 575.859 264.727 575.332 265.254C573.78 263.702 572.665 264.696 571.113 263.145C570.586 263.672 570.586 263.672 570.059 264.199C568.388 262.529 566.983 263.761 565.313 262.09C564.785 262.617 564.785 262.617 564.258 263.145C561.612 260.498 557.939 263.681 555.293 261.035C554.766 261.563 554.766 261.563 554.238 262.09C553.711 261.563 553.711 261.563 553.184 261.035C552.656 261.563 552.656 261.563 552.129 262.09C550.04 261.045 548.155 262.862 546.328 261.035Z" fill="#221b43" fill-rule="nonzero" opacity="1" stroke="none"/>
<path d="M484.102 214.102C478.841 211.471 467.836 217.765 463.008 219.375C439.613 227.173 416.254 249.742 398.145 268.418C393.764 272.935 388.598 279.837 384.961 285.293C382.863 288.44 378.757 296.476 378.105 300.059C377.425 303.802 377.657 311.581 374.941 314.297C375.803 316.02 372.409 334.231 371.25 335.391C372.218 337.326 370.505 350.901 369.141 352.266C369.668 352.793 369.668 352.793 370.195 353.32C367.549 355.967 370.732 359.639 368.086 362.285C370.352 364.551 368.13 366.498 368.086 369.141C367.919 379.159 367.746 389.185 368.086 399.199C368.103 399.696 368.789 399.902 369.141 400.254C368.613 400.781 368.613 400.781 368.086 401.309C368.613 401.836 368.613 401.836 369.141 402.363C368.613 402.891 368.613 402.891 368.086 403.418C370.979 406.311 367.303 410.545 370.195 413.438C368.718 416.393 368.915 420.067 371.25 422.402C370.723 422.93 370.723 422.93 370.195 423.457C374.077 427.339 370.419 436.337 374.414 440.332C373.887 440.859 373.887 440.859 373.359 441.387C375.94 443.968 378.042 461.7 379.16 466.172C383.506 483.555 391.165 501.255 399.199 517.324C401.664 522.253 403.015 530.104 407.109 534.199C410.994 531.609 415.165 513.196 417.129 507.305C419.688 499.626 423.563 492.747 426.094 485.156C430.918 470.684 434.946 454.795 441.914 440.859C435.803 434.749 432.999 418.431 431.367 410.273C430.774 407.306 431.509 402.505 429.258 400.254C429.785 399.727 429.785 399.727 430.313 399.199C428.401 397.288 430.115 395.31 428.203 393.398C428.73 392.871 428.73 392.871 429.258 392.344C426.955 390.041 425.8 372.599 427.148 371.25C425.708 369.81 425.708 369.526 427.148 368.086C426.797 367.734 426.116 367.528 426.094 367.031C425.758 359.48 425.758 351.907 426.094 344.355C426.116 343.859 426.797 343.652 427.148 343.301C425.708 341.861 425.708 341.577 427.148 340.137C425.54 336.919 425.681 328.948 428.203 326.426C427.676 325.898 427.676 325.898 427.148 325.371C429.426 323.093 433.405 303.437 435.059 298.477C440.884 281 459.91 261.673 474.082 249.434C482.746 241.951 493.127 235.602 498.34 225.176C500.425 221.006 497.913 211.151 492.012 214.102C489.788 211.878 486.325 211.878 484.102 214.102Z" fill="#221b43" fill-rule="nonzero" opacity="1" stroke="none"/>
<path d="M601.699 211.992C601.963 212.52 601.963 212.52 602.227 213.047C600.786 214.487 600.786 214.771 602.227 216.211C601.699 216.738 601.699 216.738 601.172 217.266C603.548 219.641 601.006 216.603 602.227 221.484C603.338 225.928 608.516 233.96 611.191 237.305C616.402 243.818 622.714 248.003 628.066 254.18C639.059 266.864 650.843 289.813 656.016 305.332C657.64 310.205 661.982 314.084 663.398 319.043C666.328 329.296 671.374 338.882 673.418 349.102C674.241 353.216 673.35 365.381 676.055 368.086C675.527 368.613 675.527 368.613 675 369.141C675.527 369.668 675.527 369.668 676.055 370.195C675.527 370.723 675.527 370.723 675 371.25C676.486 372.736 676.442 376.663 675 378.105C676.552 379.657 676.552 380.772 675 382.324C675.527 382.852 675.527 382.852 676.055 383.379C675.352 384.785 675.352 384.082 676.055 385.488C673.408 388.135 676.592 391.807 673.945 394.453C675.183 396.928 674.295 400.959 672.363 402.891C674.068 406.301 670.225 411.941 669.199 415.02C665.473 426.2 660.069 439.443 651.27 448.242C657.284 457.264 657.962 468.665 661.816 478.301C665.672 487.939 669.289 497.554 672.363 506.777C675.248 515.431 675.317 524.656 680.273 532.09C696.49 515.874 706.679 492.423 713.496 471.973C715.737 465.251 717.626 444.112 721.406 440.332C720.879 439.805 720.879 439.805 720.352 439.277C721.767 437.862 722.254 434.644 721.406 432.949C722.741 431.615 723.271 428.768 722.461 427.148C726.793 422.817 720.639 413.677 725.098 409.219C724.57 408.691 724.57 408.691 724.043 408.164C724.57 407.637 724.57 407.637 725.098 407.109C722.803 402.52 722.465 396.031 726.152 392.344C724.712 390.904 724.712 390.62 726.152 389.18C725.625 388.652 725.625 388.652 725.098 388.125C726.594 385.881 725.075 384.48 726.152 382.324C724.712 380.884 724.712 380.6 726.152 379.16C725.625 378.633 725.625 378.633 725.098 378.105C726.838 375.496 723.738 374.719 726.152 372.305C723.013 369.165 727.183 364.37 724.043 361.23C724.57 360.703 724.57 360.703 725.098 360.176C724.395 358.77 724.395 359.473 725.098 358.066C721.547 354.515 726.031 348.98 722.461 345.41C723.221 343.889 722.57 342.355 721.406 341.191C721.934 340.664 721.934 340.664 722.461 340.137C716.529 334.205 717.736 322.419 713.496 315.352C703.182 298.161 694.877 280.304 683.438 263.145C672.353 246.517 656.148 229.715 640.195 218.32C637.639 216.495 633.141 212.981 630.176 211.992C625.907 210.569 620.222 210.476 616.992 207.246C613.848 208.818 609.957 207.071 606.445 207.246C604.195 207.359 603.072 210.619 601.699 211.992Z" fill="#221b43" fill-rule="nonzero" opacity="1" stroke="none"/>
<path d="M454.043 864.316C454.57 864.844 454.57 864.844 455.098 865.371C456.365 864.104 458.613 864.668 460.371 864.316C463.031 863.785 465.998 859.275 467.754 856.934C469.863 859.043 471.524 861.727 474.082 863.262C482.618 868.383 483.992 851.242 486.211 849.023C485.276 847.153 486.791 846.967 485.156 845.332C485.684 844.805 485.684 844.805 486.211 844.277C483.195 841.261 485.301 830.375 481.465 828.457C479.903 827.676 456.999 818.795 456.152 818.965C451.768 819.842 434.627 831.957 432.949 835.313C429.735 841.741 417.896 845.983 421.348 855.352C424.572 864.104 430.638 857.042 435.059 858.516C437.067 859.185 437.684 861.868 439.277 863.262C442.051 865.689 450.266 865.658 452.988 865.371C453.483 865.319 453.691 864.668 454.043 864.316Z" fill="#dfad2d" fill-rule="nonzero" opacity="1" stroke="none"/>
<path d="M587.988 852.188C590.215 854.414 587.451 855.123 589.043 857.988C590.943 861.408 595.606 860.86 598.008 863.262C598.535 862.734 598.535 862.734 599.063 862.207C601.629 864.773 607.804 861 610.664 859.57C614.332 863.238 617.326 863.595 620.156 866.426C620.684 865.898 620.684 865.898 621.211 865.371C621.738 865.898 621.738 865.898 622.266 866.426C625.183 863.509 628.878 861.395 631.758 858.516C633.896 859.585 636.567 859.633 638.086 861.152C641.743 857.496 647.506 861.93 650.215 855.352C653.464 847.462 636.421 831.562 632.813 828.984C631.906 828.337 627.37 823.532 625.957 824.238C619.693 827.37 612.453 830.052 605.391 831.621C602.792 832.198 597.431 832.185 595.371 833.73C589.711 837.976 592.274 847.902 587.988 852.188Z" fill="#dfad2d" fill-rule="nonzero" opacity="1" stroke="none"/>
<path d="M548.438 377.051C527.298 379.757 529.908 417.129 552.129 417.129C564.559 417.129 566.367 400.261 566.367 391.816C566.367 383.34 555.259 376.178 548.438 377.051Z" fill="#dfad2d" fill-rule="nonzero" opacity="1" stroke="none"/>
<path d="M513.105 322.207C494.954 323.343 496.218 364.246 517.324 361.23C531.178 359.251 531.211 321.074 513.105 322.207Z" fill="#2d3942" fill-rule="nonzero" opacity="1" stroke="none"/>
<path d="M587.988 322.207C583.433 325.471 580.146 328.032 578.496 333.809C577.231 338.236 577.441 340.52 577.441 346.465C577.441 352.745 586.484 365.086 593.789 360.703C607.931 352.218 605.527 333.417 595.371 323.262C593.63 321.521 589.263 321.294 587.988 322.207Z" fill="#2d3942" fill-rule="nonzero" opacity="1" stroke="none"/>
<path d="M537.891 397.617C543.051 413.099 555.959 404.334 563.203 397.09C560.217 392.611 540.752 396.187 537.891 397.617Z" fill="#2c3025" fill-rule="nonzero" opacity="1" stroke="none"/>
</g>
</g>
</svg>
