<?xml version="1.0" encoding="UTF-8" standalone="no"?>
<!DOCTYPE svg PUBLIC "-//W3C//DTD SVG 1.1//EN" "http://www.w3.org/Graphics/SVG/1.1/DTD/svg11.dtd">
<!-- Created with Vectornator (http://vectornator.io/) -->
<svg height="100%" stroke-miterlimit="10" style="fill-rule:nonzero;clip-rule:evenodd;stroke-linecap:round;stroke-linejoin:round;" version="1.1" viewBox="0 0 1080 1080" width="100%" xml:space="preserve" xmlns="http://www.w3.org/2000/svg" xmlns:vectornator="http://vectornator.io" xmlns:xlink="http://www.w3.org/1999/xlink">
<defs/>
<g id="Layer-1" vectornator:layerName="Layer 1">
<g opacity="1">
<path d="M459.844 369.668C455.5 374.011 454.817 385.943 452.988 392.344C448.005 409.784 441.961 426.914 438.223 445.605C437.209 450.674 437.685 462.49 434.004 466.172C435.669 469.502 432.541 476.33 431.895 479.883C430.643 486.769 427.385 511.814 423.984 515.215C427.773 522.792 414.435 548.053 411.328 555.82C405.744 569.782 394.816 582.862 389.18 596.953C386.481 603.699 382.26 612.471 380.215 619.629C379.235 623.059 379.413 627.216 378.105 630.703C376.344 635.401 374.475 635.769 374.941 642.305C378.173 687.545 400.47 727.897 438.223 756.211C447.539 763.198 470.687 773.16 483.047 776.25C486.6 777.138 492.495 776.734 495.176 779.414C495.703 778.887 495.703 778.887 496.23 778.359C497.494 779.623 499.943 780.194 501.504 779.414C506.126 784.036 518.551 778.531 523.125 783.105C523.652 782.578 523.652 782.578 524.18 782.051C524.707 782.578 524.707 782.578 525.234 783.105C525.762 782.578 525.762 782.578 526.289 782.051C529.676 785.438 535.031 780.773 538.418 784.16C538.945 783.633 538.945 783.633 539.473 783.105C540.264 783.633 540.264 783.633 541.055 784.16C541.582 783.633 541.582 783.633 542.109 783.105C542.637 783.633 542.637 783.633 543.164 784.16C543.691 783.633 543.691 783.633 544.219 783.105C544.746 783.633 544.746 783.633 545.273 784.16C545.801 783.633 545.801 783.633 546.328 783.105C546.855 783.633 546.855 783.633 547.383 784.16C548.782 783.461 552.053 783.03 553.184 784.16C553.711 783.633 553.711 783.633 554.238 783.105C554.766 783.633 554.766 783.633 555.293 784.16C555.82 783.633 555.82 783.633 556.348 783.105C556.875 783.633 556.875 783.633 557.402 784.16C562.366 781.678 570.867 786.516 575.332 782.051C575.859 782.578 575.859 782.578 576.387 783.105C577.793 782.402 577.09 782.402 578.496 783.105C581.859 779.742 600.039 782.656 604.336 778.359C611.799 782.091 635.032 764.593 641.25 761.484C643.816 760.202 648.438 756.834 650.215 755.156C656.36 749.353 662.341 743.371 668.145 737.227C682.043 722.511 694.589 700.003 699.258 681.328C700.384 676.823 702.986 656.506 705.059 654.434C704.067 652.451 704.414 648.223 706.113 646.523C705.13 644.556 706.916 644.162 705.059 642.305C710.037 637.327 706.465 628.242 706.113 621.211C706.088 620.714 705.41 620.508 705.059 620.156C705.586 619.629 705.586 619.629 706.113 619.102C704.775 616.424 706.067 611.916 705.059 608.555C703.932 604.798 698.715 600.87 697.148 596.953C691.877 583.775 679.916 572.847 676.582 559.512C669.172 529.874 662.65 499.647 657.598 469.336C653.626 445.504 648.677 422.051 642.832 398.672C640.843 390.714 640.463 378.9 634.395 372.832C624.959 377.55 613.861 394.635 610.137 403.945C608.631 407.71 607.82 412.673 605.391 416.074C590.355 437.125 560.079 439.277 536.309 439.277C534.688 439.277 533.08 438.792 531.563 438.223C522.78 434.929 514.068 429.243 506.25 422.402C489.737 407.954 481.227 389.996 465.645 374.414C463.882 372.652 462.135 370.814 459.844 369.668Z" fill="#221b43" fill-rule="nonzero" opacity="1" stroke="none"/>
<path d="M378.105 598.535C376.406 600.235 376.059 604.463 377.051 606.445C374.301 609.196 375.426 635.407 376.523 636.504C380.197 632.831 379.394 624.631 381.27 619.629C383.965 612.44 387.392 604.06 390.234 596.953C395.82 582.989 405.677 569.232 412.383 555.82C414.58 551.426 418.065 547.331 419.238 542.637C427.397 510.001 432.292 476.713 440.332 444.551C444.424 428.181 446.708 411.473 452.461 397.09C455.56 389.342 455.19 376.958 460.898 371.25C467.048 377.4 474.009 382.833 479.355 389.707C493.585 408.002 507.848 432.502 531.563 439.277C543.278 442.625 558.16 440.34 570.059 437.695C578.812 435.75 586.885 432.662 594.316 428.203C613.387 416.761 614.019 386.943 634.395 373.359C634.131 372.832 634.131 372.832 633.867 372.305C636.772 369.399 635.355 370.972 638.086 367.559C638.613 367.822 638.613 367.822 639.141 368.086C643.892 363.334 658.022 344.149 654.434 336.973C656.128 335.279 656.848 331.098 653.906 330.117C642.147 326.197 630.912 322.944 621.211 313.242C616.428 308.46 610.707 299.477 610.137 293.203C609.75 288.95 611.618 278.337 607.5 274.219C603.54 278.179 605.501 276.451 601.699 279.492C606.34 288.774 599.873 309.029 586.934 305.332C577.183 302.546 580.5 288.667 578.496 282.656C577.867 280.77 575.684 279.844 574.277 278.438C569.153 281.854 573.151 300.153 574.277 306.914C577.261 324.814 583.662 353.288 572.168 368.613C555.514 390.819 521.492 376.419 519.434 350.684C517.45 325.895 535.622 310.092 537.891 287.402C539.148 274.834 531.898 257.357 516.27 258.398C509.512 258.849 502.566 268.089 499.395 273.164C494.522 280.961 490.472 290.503 485.156 298.477C477.59 309.826 466.546 320.778 457.207 330.117C453.446 333.878 447.205 336.423 444.023 340.664C442.297 342.965 450.36 356.505 451.406 359.121C451.475 359.293 443.276 381.431 442.441 383.379C430.188 411.97 417.189 444.837 409.219 476.719C408.153 480.983 404.946 486.356 403.418 490.43C397.419 506.427 393.9 523.503 390.234 540C387.359 552.94 383.737 566.509 381.27 580.078C380.477 584.436 375.874 594.072 378.105 598.535Z" fill="#fdfaf5" fill-rule="nonzero" opacity="1" stroke="none"/>
<path d="M543.164 207.246C541.009 209.401 538.464 207.2 536.309 209.355C535.781 208.828 535.781 208.828 535.254 208.301C533.076 210.478 517.472 213.701 513.105 215.156C499.843 219.577 483.398 236.309 475.137 247.324C463.315 263.086 455.395 282.817 449.297 301.113C447.889 305.338 446.183 321.102 444.023 323.262C444.551 323.789 444.551 323.789 445.078 324.316C441.465 327.93 443.672 334.512 444.023 339.609C444.058 340.105 444.727 340.313 445.078 340.664C456.668 329.074 470.151 319.577 480.41 306.387C487.048 297.853 492.6 287.808 497.285 278.438C504.313 264.383 521.282 250.405 532.09 268.418C534.447 272.347 536.804 275.021 537.363 279.492C540.92 307.949 506.978 329.992 522.07 360.176C525.641 367.317 531.162 374.214 538.945 378.105C545.295 381.28 552.046 382.081 559.512 380.215C563.836 379.134 569.734 372.63 572.168 370.195C575.167 367.197 575.012 362.788 576.387 359.121C584.45 337.619 575.257 315.579 573.75 293.73C572.836 280.482 574.068 259.453 591.68 259.453C607.973 259.453 607.83 283.604 609.082 293.203C610.849 306.75 640.172 335.75 655.488 330.645C655.488 326.586 657.303 321.385 654.434 318.516C655.373 316.636 654.978 312.732 653.379 311.133C653.906 310.605 653.906 310.605 654.434 310.078C651.913 307.558 646.724 285.569 645.469 280.547C644.794 277.848 645.443 274.193 643.359 272.109C643.887 271.582 643.887 271.582 644.414 271.055C639.778 266.419 640.449 257.066 636.504 251.543C633.022 246.669 628.079 241.55 625.43 236.25C623.869 233.129 620.183 231.648 617.52 229.395C609.94 222.981 598.029 220.978 591.152 214.102C590.625 214.629 590.625 214.629 590.098 215.156C588.824 213.882 586.997 213.089 585.352 211.992C584.824 212.52 584.824 212.52 584.297 213.047C581.591 210.341 576.025 212.158 573.223 209.355C572.695 209.883 572.695 209.883 572.168 210.41C570.733 208.975 569.911 209.736 568.477 208.301C566.385 209.346 561.843 209.05 560.039 207.246C556.117 209.207 551.273 204.411 547.383 208.301C545.943 206.861 545.659 206.861 544.219 208.301C543.691 207.773 543.691 207.773 543.164 207.246Z" fill="#221b43" fill-rule="nonzero" opacity="1" stroke="none"/>
<path d="M430.313 391.289C429.785 390.762 429.785 390.762 429.258 390.234C424.761 394.731 407.135 392.318 403.418 396.035C401.435 395.044 397.207 395.39 395.508 397.09C393.189 395.93 388.037 396.123 386.016 398.145C383.061 396.667 379.386 396.864 377.051 399.199C376.523 398.672 376.523 398.672 375.996 398.145C375.205 398.672 375.205 398.672 374.414 399.199C373.887 398.672 373.887 398.672 373.359 398.145C372.832 398.672 372.832 398.672 372.305 399.199C371.777 398.672 371.777 398.672 371.25 398.145C366.996 402.398 359.684 396 355.43 400.254C353.989 398.814 353.706 398.814 352.266 400.254C351.738 399.727 351.738 399.727 351.211 399.199C350.684 399.727 350.684 399.727 350.156 400.254C349.629 399.727 349.629 399.727 349.102 399.199C348.574 399.727 348.574 399.727 348.047 400.254C347.52 399.727 347.52 399.727 346.992 399.199C345.265 400.063 344.781 400.68 343.301 399.199C342.773 399.727 342.773 399.727 342.246 400.254C341.719 399.727 341.719 399.727 341.191 399.199C340.664 399.727 340.664 399.727 340.137 400.254C339.609 399.727 339.609 399.727 339.082 399.199C338.555 399.727 338.555 399.727 338.027 400.254C336.04 399.26 334.936 398.599 333.281 400.254C331.841 398.814 331.557 398.814 330.117 400.254C326.111 396.248 319.358 402.151 315.352 398.145C313.911 399.585 313.628 399.585 312.188 398.145C311.66 398.672 311.66 398.672 311.133 399.199C310.605 398.672 310.605 398.672 310.078 398.145C309.551 398.672 309.551 398.672 309.023 399.199C308.496 398.672 308.496 398.672 307.969 398.145C307.178 398.672 307.178 398.672 306.387 399.199C302.752 395.565 296.838 400.724 293.203 397.09C291.346 398.947 290.952 397.161 288.984 398.145C288.457 397.617 288.457 397.617 287.93 397.09C287.139 397.617 287.139 397.617 286.348 398.145C282.961 394.758 277.606 399.422 274.219 396.035C273.691 396.563 273.691 396.563 273.164 397.09C272.637 396.563 272.637 396.563 272.109 396.035C271.582 396.563 271.582 396.563 271.055 397.09C269.529 395.565 261.366 394.815 258.926 396.035C254.793 391.902 247.821 397.586 243.633 393.398C241.119 394.655 233.603 393.388 231.504 391.289C229.809 392.137 226.591 391.65 225.176 390.234C224.648 390.762 224.648 390.762 224.121 391.289C222.209 389.377 220.232 391.091 218.32 389.18C217.793 389.707 217.793 389.707 217.266 390.234C215.825 388.794 215.542 388.794 214.102 390.234C213.574 389.707 213.574 389.707 213.047 389.18C212.256 389.707 212.256 389.707 211.465 390.234C210.938 389.707 210.938 389.707 210.41 389.18C208.105 391.485 202.575 390.989 201.973 395.508C200.053 409.908 220.772 426.442 233.086 431.367C240.79 434.449 248.075 438.723 255.234 443.496C262.344 448.236 271.546 449.591 278.965 454.043C286.523 458.578 294.778 462.302 303.223 465.117C312.758 468.295 321.677 475.136 331.172 478.301C340.101 481.277 348.985 486.05 358.066 488.32C361.519 489.183 368.506 488.74 371.25 491.484C371.777 490.957 371.777 490.957 372.305 490.43C377.083 495.208 389.627 490.349 394.453 495.176C396.851 493.977 399.45 494.372 401.309 496.23C406.621 490.918 408.425 480.948 410.273 473.555C415.307 453.419 424.366 431.054 431.367 412.383C432.689 408.857 441.431 391.928 440.332 389.18C439.221 386.402 431.775 389.827 430.313 391.289Z" fill="#221b43" fill-rule="nonzero" opacity="1" stroke="none"/>
<path d="M780.996 401.309C779.852 402.453 768.038 404.171 766.23 402.363C761.749 406.845 753.582 403.242 747.246 403.418C741.049 403.59 724.5 405.457 721.406 402.363C720 403.066 720.703 403.066 719.297 402.363C718.77 402.891 718.77 402.891 718.242 403.418C716.33 401.506 714.353 403.22 712.441 401.309C711.914 401.836 711.914 401.836 711.387 402.363C709.353 400.33 707.092 402.287 705.059 400.254C702.921 401.323 700.888 400.83 699.258 399.199C698.73 399.727 698.73 399.727 698.203 400.254C695.49 397.541 690.91 399.816 688.184 397.09C687.656 397.617 687.656 397.617 687.129 398.145C684.841 395.857 680.447 397.263 678.164 394.98C677.637 395.508 677.637 395.508 677.109 396.035C673.049 391.975 663.545 395.654 659.18 391.289C658.652 391.816 658.652 391.816 658.125 392.344C656.53 390.749 652.444 389.587 650.742 391.289C662.27 414.344 666.606 441.496 676.055 465.117C679.534 473.815 682.059 485.527 683.438 495.176C683.879 498.268 686.492 504.25 690.293 500.449C694.92 502.763 722.083 490.38 728.262 488.32C742.706 483.505 756.44 476.291 770.977 471.445C775.888 469.808 780.194 465.736 785.215 464.063C805.906 457.166 824.701 446.395 842.168 432.422C852.931 423.811 865.492 414.046 873.281 402.363C875.246 399.416 880.916 392.923 877.5 388.652C871.276 380.872 857.551 384.935 850.078 387.07C833.134 391.912 816.211 395.961 798.398 399.199C794.49 399.91 784.958 403.29 780.996 401.309Z" fill="#221b43" fill-rule="nonzero" opacity="1" stroke="none"/>
<path d="M637.559 366.504C633.67 370.393 635.162 368.389 632.813 372.305C638.062 377.555 638.426 386.847 640.195 393.926C644.629 411.662 649.046 429.685 652.324 447.715C658.77 483.167 663.515 519.579 673.418 554.238C678.665 572.601 692.092 592.673 704.004 608.555C705.91 606.648 705.91 604.133 704.004 602.227C704.531 601.699 704.531 601.699 705.059 601.172C700.544 596.657 706.952 588.827 702.422 584.297C702.949 583.77 702.949 583.77 703.477 583.242C701.565 581.33 703.279 579.353 701.367 577.441C702.449 575.277 700.773 565.773 699.258 564.258C699.785 563.73 699.785 563.73 700.313 563.203C697.925 560.816 698.721 556.29 698.203 553.184C697.577 549.426 693.758 525.536 691.348 523.125C692.235 521.35 690.474 515.396 689.238 514.16C689.766 513.633 689.766 513.633 690.293 513.105C687.107 509.919 680.508 481.466 679.219 475.664C678.573 472.759 679.27 470.442 677.109 468.281C678.492 465.517 671.234 448.51 670.254 445.078C666.126 430.63 662.207 414.713 656.016 400.781C655.122 398.771 652.927 397.091 652.324 394.98C649.941 386.639 645.915 372.751 639.668 366.504C638.262 367.207 638.965 367.207 637.559 366.504Z" fill="#e8e7e3" fill-rule="nonzero" opacity="1" stroke="none"/>
<path d="M403.418 807.363C404.88 806.388 409.933 804.472 410.273 807.363C410.954 813.146 409.105 816.548 413.965 820.02C415.555 821.155 417.69 820.58 419.238 822.129C419.766 821.602 419.766 821.602 420.293 821.074C420.82 821.602 420.82 821.602 421.348 822.129C422.545 820.931 430.216 818.936 433.477 816.328C437.351 818.911 435.975 821.807 440.332 825.293C441.996 826.624 444.445 825.714 446.133 827.402C446.66 826.875 446.66 826.875 447.188 826.348C447.715 826.875 447.715 826.875 448.242 827.402C450.166 825.479 452.974 826.507 455.098 825.293C461.569 821.595 469.812 813.555 472.5 806.836C475.207 800.068 476.062 779.543 480.41 775.195C478.351 772.107 472.349 771.338 468.809 769.922C463.418 767.766 455.61 761.484 449.824 761.484C446.343 761.484 443.81 766.523 441.387 768.34C433.583 774.193 423.91 778.284 416.074 784.16C410.571 788.288 395.886 799.831 403.418 807.363Z" fill="#e3af2b" fill-rule="nonzero" opacity="1" stroke="none"/>
<path d="M604.336 785.215C604.863 785.742 604.863 785.742 605.391 786.27C602.744 788.916 605.928 792.588 603.281 795.234C603.809 795.762 603.809 795.762 604.336 796.289C603.809 796.816 603.809 796.816 603.281 797.344C606.449 803.678 604.02 813.13 606.973 820.02C609.686 826.352 614.481 829.637 619.102 834.258C619.629 833.73 619.629 833.73 620.156 833.203C623.778 836.825 627.862 829.716 630.176 827.402C632.235 829.461 635.127 833.666 638.086 834.258C639.844 834.609 642.092 834.045 643.359 835.313C645.03 833.642 646.435 834.874 648.105 833.203C650.086 834.193 649.636 832.965 651.27 832.148C661.847 826.859 651.447 817.206 654.434 814.219C657.997 817.782 672.493 809.603 667.09 804.199C667.617 803.672 667.617 803.672 668.145 803.145C665.923 800.923 665.415 795.814 663.398 793.125C656.013 783.278 641.468 771.577 630.176 767.813C629.22 767.494 624.848 770.476 623.848 770.977C619.072 773.364 614.166 774.797 609.082 776.25C608.704 776.358 608.334 776.532 608.027 776.777C605.031 779.174 606.782 782.769 604.336 785.215Z" fill="#e3af2b" fill-rule="nonzero" opacity="1" stroke="none"/>
<path d="M545.801 323.262C534.557 326.491 532.466 335.238 534.199 349.102C535.293 357.848 548.094 366.71 556.348 361.758C574.723 350.733 565.529 317.595 545.801 323.262Z" fill="#e3af2b" fill-rule="nonzero" opacity="1" stroke="none"/>
<path d="M511.523 268.418C494.636 270.788 496.98 307.441 515.215 307.441C529.758 307.441 533.55 265.326 511.523 268.418Z" fill="#2c3740" fill-rule="nonzero" opacity="1" stroke="none"/>
<path d="M587.988 267.891C572.261 269.06 573.018 306.914 590.625 306.914C607.103 306.914 610.265 266.235 587.988 267.891Z" fill="#2c3740" fill-rule="nonzero" opacity="1" stroke="none"/>
<path d="M577.969 283.184C583.892 277.261 580.069 268.945 592.734 268.945C595.188 268.945 598.081 272.601 599.063 273.691C600.832 275.657 600.434 278.227 602.227 280.02C603.018 279.229 603.018 279.229 603.809 278.438C604.336 278.701 604.336 278.701 604.863 278.965C611.296 272.532 602.048 260.577 593.789 258.926C583.163 256.801 578.316 262.631 575.332 271.582C573.23 277.888 572.277 277.492 577.969 283.184Z" fill="#e8e7e3" fill-rule="nonzero" opacity="1" stroke="none"/>
<path d="M560.566 341.191C553.564 341.917 546.49 341.677 539.473 342.246C536.992 342.447 539.275 347.218 540 348.047C543.517 352.067 545.935 352.266 551.602 352.266C555.484 352.266 566.952 340.53 560.566 341.191Z" fill="#242a25" fill-rule="nonzero" opacity="1" stroke="none"/>
</g>
</g>
</svg>
