<?xml version="1.0" encoding="UTF-8" standalone="no"?>
<!DOCTYPE svg PUBLIC "-//W3C//DTD SVG 1.1//EN" "http://www.w3.org/Graphics/SVG/1.1/DTD/svg11.dtd">
<!-- Created with Vectornator (http://vectornator.io/) -->
<svg height="100%" stroke-miterlimit="10" style="fill-rule:nonzero;clip-rule:evenodd;stroke-linecap:round;stroke-linejoin:round;" version="1.1" viewBox="0 0 1080 1080" width="100%" xml:space="preserve" xmlns="http://www.w3.org/2000/svg" xmlns:vectornator="http://vectornator.io" xmlns:xlink="http://www.w3.org/1999/xlink">
<defs/>
<g id="Layer-1" vectornator:layerName="Layer 1">
<g opacity="1">
<path d="M460.371 432.949C453.664 439.656 454.271 455.972 450.352 465.117C442.018 484.563 437.438 510.432 434.004 531.035C432.417 540.559 430.114 550.388 428.203 558.984C427.268 563.191 428.36 569.902 425.039 573.223C427.851 578.847 418.323 598.891 417.129 604.863C414.299 619.014 403.412 629.136 398.145 642.305C393.293 654.435 387.851 665.138 382.852 677.637C382.387 678.798 380.389 680.9 380.215 681.855C379.466 685.974 379.624 691.474 377.578 695.566C377.16 696.403 375.097 698.531 374.941 699.258C373.041 708.128 377.593 719.369 379.16 727.207C385.581 759.311 405.317 800.237 437.168 818.438C447.395 824.281 458.423 828.801 469.336 834.258C473.872 836.526 482.828 836.676 486.211 840.059C487.9 839.214 488.647 839.858 489.902 841.113C491.463 840.333 493.912 840.904 495.176 842.168C495.703 841.641 495.703 841.641 496.23 841.113C500.441 845.324 510.123 841.295 514.16 845.332C514.688 844.805 514.688 844.805 515.215 844.277C517.615 846.678 520.725 843.986 523.125 846.387C523.652 845.859 523.652 845.859 524.18 845.332C524.707 845.859 524.707 845.859 525.234 846.387C525.762 845.859 525.762 845.859 526.289 845.332C530.583 849.626 538.621 843.953 542.109 847.441C542.637 846.914 542.637 846.914 543.164 846.387C543.691 846.914 543.691 846.914 544.219 847.441C544.746 846.914 544.746 846.914 545.273 846.387C545.801 846.914 545.801 846.914 546.328 847.441C546.855 846.914 546.855 846.914 547.383 846.387C548.782 847.086 552.053 847.517 553.184 846.387C553.711 846.914 553.711 846.914 554.238 847.441C554.766 846.914 554.766 846.914 555.293 846.387C555.82 846.914 555.82 846.914 556.348 847.441C556.875 846.914 556.875 846.914 557.402 846.387C559.273 847.322 559.459 845.806 561.094 847.441C564.728 843.807 570.643 848.967 574.277 845.332C574.805 845.859 574.805 845.859 575.332 846.387C575.859 845.859 575.859 845.859 576.387 845.332C579.342 846.81 583.016 846.613 585.352 844.277C585.879 844.805 585.879 844.805 586.406 845.332C588.562 843.177 591.106 845.378 593.262 843.223C593.789 843.75 593.789 843.75 594.316 844.277C596.963 841.631 618.575 837.949 624.902 834.785C643.099 825.687 659.572 810.795 673.418 794.18C684.692 780.651 694.539 760.599 699.258 744.082C700.486 739.784 703.572 718.675 705.059 717.188C703.723 714.515 704.019 711.372 706.113 709.277C705.586 708.75 705.586 708.75 705.059 708.223C709.816 703.465 702.807 683.58 706.113 680.273C705.586 679.746 705.586 679.746 705.059 679.219C705.586 678.691 705.586 678.691 706.113 678.164C705.586 677.637 705.586 677.637 705.059 677.109C705.586 676.582 705.586 676.582 706.113 676.055C704.967 674.909 705.524 672.861 705.059 671.309C703.87 667.346 698.907 662.697 697.148 659.18C691.089 647.061 682.797 635.222 677.109 623.848C671.625 612.879 670.323 598.917 668.145 586.934C662.933 558.271 658.119 529.428 651.797 500.977C648.556 486.394 645.409 471.733 641.777 457.207C639.917 449.765 639.483 441.202 633.867 435.586C626.11 443.343 619.429 451.037 613.828 460.371C608.549 469.17 606.166 479.108 598.008 487.266C589.756 495.517 574.907 498.986 563.203 500.449C553.429 501.671 543.522 501.504 533.672 501.504C526.151 501.504 516.662 493.782 510.996 489.375C500.104 480.903 490.196 469.923 484.102 457.734C479.152 447.834 469.252 441.303 461.426 433.477C461.148 433.199 460.723 433.125 460.371 432.949Z" fill="#221b43" fill-rule="nonzero" opacity="1" stroke="none"/>
<path d="M451.406 422.402C446.753 429.383 445.756 438.399 442.441 446.133C436.902 459.059 431.048 473.616 427.148 487.266C421.725 506.248 410.676 525.735 406.055 544.219C401.04 564.278 394.143 583.427 389.18 603.281C385.833 616.668 383.198 630.991 380.215 644.414C379.248 648.765 380.255 657.03 377.051 660.234C377.578 660.762 377.578 660.762 378.105 661.289C375.018 664.377 374.855 698.117 376.523 699.785C379.897 696.411 380.434 686.451 381.27 681.855C382.229 676.577 386.611 667.481 389.18 662.344C395.242 650.219 401.5 635.953 409.219 624.375C411.731 620.607 417.261 614.155 418.184 609.082C419.762 600.404 423.959 591.557 425.566 582.715C430.389 556.193 434.308 527.861 441.387 503.086C443.493 495.715 443.906 487.307 446.133 479.883C448.432 472.218 451.583 464.323 453.516 455.625C454.469 451.334 458.161 436.214 460.371 434.004C467.821 437.729 472.493 445.437 478.301 451.406C490.25 463.688 495.705 478.947 510.469 490.43C516.517 495.134 525.371 501.726 533.145 502.031C541.402 502.355 549.666 502.559 557.93 502.559C575.081 502.559 591.739 494.589 603.281 483.047C609.392 476.936 610.185 466.635 614.883 460.371C621.02 452.189 626.776 444.277 633.867 436.641C638.378 441.152 638.685 450.64 640.195 456.68C644.658 474.53 648.725 492.472 652.324 510.469C656.114 529.419 658.911 548.543 662.344 567.422C664.572 579.676 669.356 592.62 671.309 604.336C672.304 610.307 672.687 615.428 675 621.211C681.718 638.007 693.012 656.653 704.004 671.309C706.366 668.947 703.913 666.217 705.059 663.926C700.645 659.512 706.812 651.968 702.422 647.578C703.362 645.699 702.966 641.795 701.367 640.195C701.895 639.668 701.895 639.668 702.422 639.141C699.21 635.929 702.462 630.216 699.258 627.012C700.655 624.218 697.632 617.83 697.148 615.41C695.483 607.083 694.129 582.332 689.238 577.441C689.766 576.914 689.766 576.914 690.293 576.387C685.916 572.01 683.101 549.199 681.328 542.109C674.674 515.493 663.043 488.836 654.434 463.008C651.513 454.246 646.342 436.459 640.195 430.313C647.085 423.423 658.048 404.693 655.488 394.453C654.89 392.059 647.088 391.829 645.469 391.289C637.281 388.56 627.943 382.728 621.211 375.996C618.663 373.448 614.437 368.857 613.301 365.449C612.446 362.884 612.065 358.412 610.137 356.484C615.358 346.041 604.153 325.931 594.844 322.207C589.218 319.957 579.656 321.891 577.441 328.535C574.301 337.957 572.168 344.782 572.168 355.957C572.168 375.764 580.882 394.102 577.969 414.492C576.599 424.081 570.214 440.837 558.984 442.441C532.84 446.176 518.581 424.643 519.434 400.781C519.938 386.646 533.623 368.521 537.363 355.43C540.297 345.16 535.35 323.567 522.07 321.152C514.152 319.713 506.8 326.925 502.031 332.754C495.412 340.845 492.69 349.929 487.266 358.066C479.843 369.2 470.066 380.539 460.371 390.234C456.249 394.356 446.724 398.692 444.023 403.418C442.961 405.277 449.494 420.49 451.406 422.402Z" fill="#fcf9f4" fill-rule="nonzero" opacity="1" stroke="none"/>
<path d="M545.273 271.055C544.746 270.527 544.746 270.527 544.219 270C543.691 270.527 543.691 270.527 543.164 271.055C542.637 270.527 542.637 270.527 542.109 270C540.198 271.912 538.22 270.198 536.309 272.109C535.781 271.582 535.781 271.582 535.254 271.055C533.702 272.607 532.587 271.612 531.035 273.164C523.995 269.644 501.537 286.063 495.176 290.039C471.052 305.116 454.673 344.473 448.242 370.195C446.695 376.384 440.094 398.434 445.078 403.418C455.881 392.616 469.452 383.455 479.355 370.723C486.382 361.689 491.468 352.298 496.23 342.773C499.16 336.915 507.201 324.87 513.633 323.262C525.198 320.37 536.095 330.829 537.363 342.246C540.734 372.58 499.607 401.612 527.871 431.895C534.442 438.935 543.543 446.69 554.238 444.551C570.331 441.332 578.147 426.131 579.023 410.801C580.332 387.897 573.223 366.544 573.223 343.828C573.223 339.401 576.763 332.867 578.496 328.535C580.573 323.342 590.059 320.391 594.844 323.262C607.428 330.812 607.668 340.413 609.082 353.848C609.365 356.539 610.118 354.412 609.082 356.484C611.612 359.015 611.49 364.541 613.301 367.559C618.807 376.736 643.77 397.305 655.488 393.398C655.488 389.34 657.303 384.139 654.434 381.27C654.961 380.742 654.961 380.742 655.488 380.215C653.162 377.888 654.009 372.29 653.379 369.141C652.456 364.528 645.874 337.905 643.359 335.391C643.887 334.863 643.887 334.863 644.414 334.336C641.775 331.697 641.353 325.679 640.195 322.207C637.28 313.462 630.13 307.366 625.43 299.531C617.24 285.881 599.999 286.23 591.152 277.383C586.551 279.684 565.721 267.159 557.93 271.055C555.395 268.52 547.958 268.37 545.273 271.055Z" fill="#221b43" fill-rule="nonzero" opacity="1" stroke="none"/>
<path d="M477.246 224.121C476.719 223.594 476.719 223.594 476.191 223.066C473.465 225.793 466.623 226.08 463.008 227.285C458.418 228.815 452.035 232.667 448.242 235.195C429.982 247.369 412.218 262.458 396.035 279.492C387.739 288.225 379.333 301.831 377.051 313.242C375.899 319.001 376.342 332.935 372.305 336.973C373.429 339.222 371.941 349.465 370.195 351.211C370.723 351.738 370.723 351.738 371.25 352.266C368.604 354.912 371.787 358.584 369.141 361.23C369.668 361.758 369.668 361.758 370.195 362.285C367.303 365.178 370.979 369.412 368.086 372.305C368.613 372.832 368.613 372.832 369.141 373.359C364.421 382.798 367.688 394.455 368.086 405C368.105 405.497 368.789 405.703 369.141 406.055C367.7 407.495 367.7 407.778 369.141 409.219C368.613 409.746 368.613 409.746 368.086 410.273C368.613 410.801 368.613 410.801 369.141 411.328C368.613 411.855 368.613 411.855 368.086 412.383C370.979 415.276 367.303 419.51 370.195 422.402C368.859 425.075 369.155 428.218 371.25 430.313C370.723 430.84 370.723 430.84 370.195 431.367C372.107 433.279 370.393 435.256 372.305 437.168C371.777 437.695 371.777 437.695 371.25 438.223C373.96 440.933 375.686 461.767 377.051 467.227C379.692 477.791 383.54 488.805 387.07 499.395C388.533 503.782 392.133 507.62 393.398 512.051C395.593 519.733 401.942 536.942 407.637 542.637C413.046 537.228 414.554 522.444 417.656 514.688C424.004 498.817 428.761 482.442 435.059 466.699C436.153 463.962 442.436 450.336 441.914 448.77C440.582 444.774 437.156 441.338 436.113 437.168C435.252 433.725 435.06 426.095 432.422 423.457C433.401 421.499 431.708 415.887 430.313 414.492C431.345 412.428 429.491 403.652 428.203 402.363C428.73 401.836 428.73 401.836 429.258 401.309C425.109 397.16 430.202 387.487 426.094 383.379C426.621 382.852 426.621 382.852 427.148 382.324C426.621 381.797 426.621 381.797 426.094 381.27C426.621 380.742 426.621 380.742 427.148 380.215C426.621 379.688 426.621 379.688 426.094 379.16C426.621 378.633 426.621 378.633 427.148 378.105C426.797 377.754 426.115 377.548 426.094 377.051C425.757 369.148 425.757 361.223 426.094 353.32C426.115 352.824 426.797 352.617 427.148 352.266C425.708 350.825 425.708 350.542 427.148 349.102C425.54 345.884 425.681 337.913 428.203 335.391C427.676 334.863 427.676 334.863 427.148 334.336C429.926 331.558 431.738 314.837 434.004 309.551C439.22 297.381 448.023 284.278 457.207 274.219C461.142 269.91 472.224 259.666 477.246 255.234C484.126 249.164 495.228 243.476 498.34 234.141C502.261 222.376 491.883 221.144 481.465 222.012C480.606 222.083 478.03 223.338 477.246 224.121Z" fill="#221b43" fill-rule="nonzero" opacity="1" stroke="none"/>
<path d="M608.027 215.156C606.146 217.037 598.097 221.046 602.227 225.176C601.699 225.703 601.699 225.703 601.172 226.23C605.679 230.738 607.816 242.528 613.301 248.379C618.401 253.82 624.02 258.759 629.121 264.199C639.074 274.816 648.019 295.666 654.434 308.496C659.162 317.953 663.748 328.001 667.09 338.027C668.567 342.458 668.874 348.776 672.363 352.266C671.836 352.793 671.836 352.793 671.309 353.32C676.892 358.904 670.856 372.906 676.055 378.105C675.527 378.633 675.527 378.633 675 379.16C675.527 379.688 675.527 379.688 676.055 380.215C675.527 380.742 675.527 380.742 675 381.27C676.486 382.755 676.442 386.683 675 388.125C676.44 389.565 676.44 389.849 675 391.289C675.527 391.816 675.527 391.816 676.055 392.344C675.352 393.75 675.352 393.047 676.055 394.453C674.664 395.844 671.553 418.504 670.254 422.402C667.694 430.082 663.797 439.208 659.18 446.133C657.009 449.388 651.797 453.53 651.797 457.734C651.797 465.284 660.909 480.324 663.398 487.793C667.604 500.409 669.468 514.17 675.527 526.289C677.965 531.163 677.051 536.221 680.273 541.055C693.151 528.177 701.861 511.097 707.168 495.176C708.4 491.479 711.5 487.869 712.441 484.102C713.818 478.594 714.296 466.954 718.242 463.008C717.398 461.319 718.041 460.572 719.297 459.316C718.77 458.789 718.77 458.789 718.242 458.262C719.794 456.71 718.8 455.595 720.352 454.043C719.824 453.516 719.824 453.516 719.297 452.988C720.732 451.553 719.971 450.732 721.406 449.297C720.879 448.77 720.879 448.77 720.352 448.242C721.767 446.827 722.254 443.609 721.406 441.914C722.91 440.41 723.352 436.841 722.461 435.059C726.803 430.716 720.421 422.86 725.098 418.184C723.105 414.198 723.059 404.402 726.152 401.309C724.712 399.868 724.712 399.585 726.152 398.145C725.625 397.617 725.625 397.617 725.098 397.09C725.625 396.563 725.625 396.563 726.152 396.035C725.625 395.508 725.625 395.508 725.098 394.98C725.625 394.189 725.625 394.189 726.152 393.398C725.625 392.871 725.625 392.871 725.098 392.344C725.625 391.816 725.625 391.816 726.152 391.289C725.625 390.762 725.625 390.762 725.098 390.234C725.625 389.707 725.625 389.707 726.152 389.18C724.712 387.739 724.712 387.456 726.152 386.016C725.625 385.488 725.625 385.488 725.098 384.961C725.625 384.17 725.625 384.17 726.152 383.379C724.395 381.622 723.301 369.57 725.098 365.977C723.766 364.645 720.614 344.087 719.297 340.137C712.812 320.681 702.87 300.467 691.348 283.184C677.309 262.125 659.611 241.584 639.141 226.23C633.695 222.147 626.369 219.337 620.156 217.266C617.881 216.507 615.13 216.986 613.301 215.156C612.773 215.684 612.773 215.684 612.246 216.211C610.806 214.771 610.522 214.771 609.082 216.211C608.555 215.684 608.555 215.684 608.027 215.156Z" fill="#221b43" fill-rule="nonzero" opacity="1" stroke="none"/>
<path d="M420.293 860.098C421.839 861.644 421.314 863.739 422.402 865.371C424.214 868.089 426.134 866.993 428.203 869.063C430.172 867.094 431.848 868.581 434.004 866.426C434.241 866.623 437.465 870.793 438.223 871.172C440.484 872.303 444.373 872.576 446.133 874.336C446.66 873.809 446.66 873.809 447.188 873.281C447.715 873.809 447.715 873.809 448.242 874.336C448.77 873.809 448.77 873.809 449.297 873.281C449.824 873.809 449.824 873.809 450.352 874.336C450.879 873.809 450.879 873.809 451.406 873.281C457.678 876.417 464.788 869.738 468.281 865.371C470.315 867.405 473.837 874.581 477.246 871.172C477.773 871.699 477.773 871.699 478.301 872.227C483.685 866.842 482.904 861.295 486.211 857.988C485.347 856.261 484.73 855.778 486.211 854.297C482.892 850.978 484.416 842.902 482.52 838.477C481.045 835.037 472.255 834.955 469.336 833.203C466.166 831.301 460.977 827.93 456.68 827.93C450.094 827.93 429.495 845.996 426.094 850.078C423.681 852.973 422.871 857.52 420.293 860.098Z" fill="#dfad2a" fill-rule="nonzero" opacity="1" stroke="none"/>
<path d="M587.988 863.262C589.582 864.855 588.032 866.975 590.098 868.008C592.779 869.348 598.096 870.205 600.117 872.227C602.459 869.884 606.871 870.746 609.609 868.008C620.596 877.996 620.543 875.496 631.23 867.48C632.939 866.199 647.302 872.083 650.215 864.316C652.26 858.862 646.976 853.394 644.414 849.551C641.102 844.582 636.68 840.41 632.285 836.367C631.341 835.499 628.527 832.676 626.484 832.676C624.351 832.676 621.389 835.663 619.629 836.367C612.151 839.358 602.691 838.915 595.371 842.168C588.965 845.015 591.661 859.589 587.988 863.262Z" fill="#dfad2a" fill-rule="nonzero" opacity="1" stroke="none"/>
<path d="M546.855 386.016C526.908 390.306 530.821 426.779 552.656 425.566C564.874 424.888 566.789 409.106 566.367 400.254C565.949 391.478 553.992 384.481 546.855 386.016Z" fill="#dfad2a" fill-rule="nonzero" opacity="1" stroke="none"/>
<path d="M511.523 331.172C500.383 334.44 499.949 343.127 500.977 356.484C501.481 363.036 510.838 374.796 518.379 369.141C530.986 359.685 530.499 325.605 511.523 331.172Z" fill="#2b3740" fill-rule="nonzero" opacity="1" stroke="none"/>
<path d="M589.043 330.645C571.036 331.101 573.24 369.668 592.207 369.668C606.42 369.668 609.768 330.12 589.043 330.645Z" fill="#2b3740" fill-rule="nonzero" opacity="1" stroke="none"/>
<path d="M558.984 404.473C552.48 404.648 545.96 404.501 539.473 405C535.927 405.273 542.119 414.794 545.273 415.02C553.217 415.587 559.424 413.085 563.203 405.527C562.676 405 562.676 405 558.984 404.473Z" fill="#2b3740" fill-rule="nonzero" opacity="1" stroke="none"/>
</g>
</g>
</svg>
