<?xml version="1.0" encoding="UTF-8" standalone="no"?>
<!DOCTYPE svg PUBLIC "-//W3C//DTD SVG 1.1//EN" "http://www.w3.org/Graphics/SVG/1.1/DTD/svg11.dtd">
<!-- Created with Vectornator (http://vectornator.io/) -->
<svg height="100%" stroke-miterlimit="10" style="fill-rule:nonzero;clip-rule:evenodd;stroke-linecap:round;stroke-linejoin:round;" version="1.1" viewBox="0 0 1080 1080" width="100%" xml:space="preserve" xmlns="http://www.w3.org/2000/svg" xmlns:vectornator="http://vectornator.io" xmlns:xlink="http://www.w3.org/1999/xlink">
<defs/>
<g id="Layer-1" vectornator:layerName="Layer 1">
<g opacity="1">
<path d="M375.996 670.781C373.196 676.382 380.549 697.265 382.324 703.477C392.84 740.281 417.669 773.62 453.516 791.543C462.228 795.899 473.665 800.799 483.047 803.145C486.6 804.033 492.495 803.628 495.176 806.309C495.703 805.781 495.703 805.781 496.23 805.254C499.212 808.235 504.347 805.46 507.305 808.418C507.832 807.891 507.832 807.891 508.359 807.363C510.271 809.275 512.248 807.561 514.16 809.473C514.688 808.945 514.688 808.945 515.215 808.418C517.646 810.849 532.714 809.861 535.781 810C549.452 810.621 559.659 809.473 574.277 809.473C577.584 809.473 582.169 811.601 585.352 808.418C587.292 809.388 597.477 807.894 599.063 806.309C599.59 806.836 599.59 806.836 600.117 807.363C601.839 805.641 605.13 805.846 607.5 805.254C614.866 803.412 624.158 800.301 630.176 796.289C646.609 785.334 663.242 771.102 676.055 754.629C687.339 740.12 696.98 718.915 701.367 701.367C702.539 696.68 701.799 684.588 705.059 681.328C704.229 679.668 704.724 674.808 706.113 673.418C705.586 672.891 705.586 672.891 705.059 672.363C705.586 671.836 705.586 671.836 706.113 671.309C705.586 670.781 705.586 670.781 705.059 670.254C705.41 669.902 706.09 669.696 706.113 669.199C706.448 662.176 706.281 655.135 706.113 648.105C706.064 646.034 704.556 641.753 706.113 640.195C704.967 639.049 705.524 637.002 705.059 635.449C702.967 628.476 694.732 620.596 691.348 613.828C686.951 605.035 679.413 597.201 677.109 587.988C671.374 565.047 663.547 540.513 660.234 517.324C657.775 500.106 655.231 482.815 651.797 465.645C648.525 449.287 644.776 432.816 640.723 416.602C639.823 413.003 638.6 401.128 634.395 399.727C631.392 398.726 625.197 408.455 623.32 410.801C614.035 422.408 611.127 435.534 602.227 446.66C587.73 464.78 557.746 466.172 536.309 466.172C532.207 466.172 525.819 463.314 522.598 460.898C514.845 455.084 506.728 450.302 499.395 442.969C491.616 435.191 487.512 425.177 480.41 417.129C478.517 414.983 461.706 395.972 459.844 397.09C456.239 399.253 455.929 409.698 455.098 413.438C453.341 421.341 449.155 428.772 447.188 436.641C445.091 445.025 444.302 454.261 441.387 463.008C430.692 495.091 429.52 533.15 419.238 567.422C414.842 582.077 403.91 597.54 396.035 610.664C389.192 622.07 384.295 634.283 380.215 646.523C379.106 649.85 379.58 654.28 378.105 657.598C376.473 661.271 371.541 666.326 375.996 670.781Z" fill="#221b43" fill-rule="nonzero" opacity="1" stroke="none"/>
<path d="M451.406 386.543C442.829 399.409 441.303 415.743 435.059 430.313C428.837 444.829 424.381 458.654 419.238 474.082C416.965 480.903 412.018 488.724 410.273 495.703C409.604 498.381 410.242 500.357 409.219 503.086C408.149 505.94 405.454 509.106 404.473 512.051C398.686 529.412 396.154 548.609 390.234 566.367C385.954 579.209 383.761 593.27 381.27 606.973C380.477 611.33 375.874 620.967 378.105 625.43C374.969 628.566 374.9 661.775 376.523 663.398C380.123 659.799 379.092 651.604 381.27 646.523C384.055 640.024 386.401 632.208 389.18 625.957C395.858 610.931 405.113 594.48 413.438 580.605C415.686 576.859 419.442 571.678 420.293 567.422C427.296 532.405 434.234 495.837 442.441 463.008C446.093 448.4 450.024 434.743 454.043 421.348C456.069 414.594 455.442 403.073 460.371 398.145C466.904 404.175 473.462 409.923 479.355 416.602C492.833 431.876 503.192 458.156 524.707 463.535C535.268 466.175 540.796 467.227 553.711 467.227C560.493 467.227 568.267 465.403 574.805 463.535C583.943 460.924 591.313 457.666 598.535 451.406C606.569 444.443 606.554 437.533 611.719 429.785C618.014 420.343 624.053 408.738 633.34 401.309C638.449 405.396 638.637 414.061 640.195 420.293C644.688 438.264 648.706 456.518 652.324 474.609C657.453 500.256 661.437 524.917 666.563 550.547C668.896 562.216 670.554 574.237 675 585.352C681.776 602.291 692.628 620.281 704.004 635.449C706.366 633.087 703.913 630.358 705.059 628.066C700.544 623.551 706.952 615.721 702.422 611.191C703.621 608.793 703.226 606.194 701.367 604.336C701.895 603.809 701.895 603.809 702.422 603.281C699.21 600.069 702.462 594.356 699.258 591.152C699.785 590.625 699.785 590.625 700.313 590.098C697.893 587.678 694.452 571.234 696.094 567.949C691.268 563.123 694.225 546.042 689.238 541.055C690.86 537.811 681.171 507.439 679.219 502.559C676.365 495.424 675.432 486.405 673.418 479.355C667.758 459.544 657.862 441.256 652.324 421.875C649.68 412.619 645.73 402.756 640.195 394.453C644.807 389.842 657.659 370.318 654.434 363.867C656.09 362.211 656.879 357.903 653.906 357.012C638.774 352.472 630.029 348.428 617.52 335.918C604.856 323.255 614.695 303.64 599.063 288.984C595.531 285.674 588.007 283.805 583.77 286.348C572.901 292.869 572.168 308.955 572.168 320.098C572.168 340.886 582.201 360.378 577.441 381.797C574.247 396.172 560.71 414.026 542.109 406.055C521.756 397.332 515.591 374.342 522.598 353.32C525.799 343.715 533.346 333.629 536.309 323.262C540.019 310.277 538.141 294.092 525.234 286.348C514.022 279.62 503.37 294.622 498.34 302.168C488.08 317.557 480.594 334.152 466.699 348.047C460.296 354.45 449.482 360.281 444.023 367.559C443.031 368.882 449.731 384.868 451.406 386.543Z" fill="#f2f0ec" fill-rule="nonzero" opacity="1" stroke="none"/>
<path d="M545.273 235.195C544.746 234.668 544.746 234.668 544.219 234.141C543.691 234.668 543.691 234.668 543.164 235.195C542.637 234.668 542.637 234.668 542.109 234.141C540.198 236.052 538.22 234.338 536.309 236.25C535.781 235.723 535.781 235.723 535.254 235.195C533.99 236.459 531.541 237.03 529.98 236.25C526.216 240.014 517.994 239.606 513.105 242.051C498.488 249.36 485.265 260.714 475.137 274.219C464.673 288.17 455.124 307.614 450.352 324.316C449.064 328.823 446.062 348.118 444.023 350.156C444.551 350.684 444.551 350.684 445.078 351.211C441.465 354.824 443.672 361.406 444.023 366.504C444.058 367 444.727 367.207 445.078 367.559C452.594 360.042 461.733 354.068 469.336 346.465C484.723 331.078 490.486 311.445 504.141 295.84C508.021 291.406 517.676 281.178 525.234 287.402C544.859 303.564 534.736 323.502 526.816 343.301C525.399 346.845 522.237 349.849 521.543 353.32C519.837 361.85 519.75 365.99 519.434 377.051C518.887 396.168 541.318 412.308 559.512 407.109C590.8 398.17 575.349 343.016 573.75 320.625C572.831 307.754 573.994 286.348 591.68 286.348C601.84 286.348 607.818 300.556 608.555 309.023C610.075 326.511 615.238 342.705 633.867 350.156C640.415 352.775 647.545 360.187 655.488 357.539C655.488 353.481 657.303 348.28 654.434 345.41C655.787 342.703 654.063 336.358 653.379 333.281C652.32 328.518 645.873 301.517 643.359 299.004C645.469 294.785 638.913 284.837 637.031 281.074C629.262 265.535 612.726 248.064 595.371 243.105C590.007 241.573 583.898 238.385 578.496 237.305C575.572 236.72 570.996 237.714 568.477 235.195C567.949 235.723 567.949 235.723 567.422 236.25C565.389 234.217 563.127 236.174 561.094 234.141C560.566 234.668 560.566 234.668 560.039 235.195C556.101 233.226 548.598 231.871 545.273 235.195Z" fill="#221b43" fill-rule="nonzero" opacity="1" stroke="none"/>
<path d="M683.965 516.797C696.351 510.604 705.887 495.761 715.078 485.156C731.901 465.746 747.843 443.375 760.43 421.348C762.216 418.222 764.245 415.693 766.23 412.383C768.097 409.271 766.644 404.059 769.395 401.309C768.867 400.781 768.867 400.781 768.34 400.254C770.819 397.775 772.006 388.075 770.449 384.961C771.779 383.631 772.334 356.259 770.449 354.375C771.551 352.171 771.306 347.321 769.395 345.41C769.922 344.883 769.922 344.883 770.449 344.355C767.938 341.844 768.132 335.612 767.285 332.227C765.901 326.69 761.212 323.193 758.32 317.988C756.701 315.074 757.065 307.441 750.938 307.441C744.547 307.441 741.858 317.806 740.391 322.207C738.728 327.195 734.913 330.951 731.953 335.391C726.344 343.804 724.833 355.035 719.297 363.34C717.395 366.193 713.203 372.261 710.332 374.414C708.753 375.599 705.371 376.464 704.004 378.105C700.337 382.506 699.815 389.105 696.094 393.398C690.68 399.645 683.773 404.356 677.109 408.164C674.006 409.938 651.02 417.459 650.742 418.711C650.04 421.87 657.876 436.42 659.18 440.332C665.064 457.985 672.464 476.594 677.109 495.176C679.042 502.908 679.202 510.446 683.965 516.797Z" fill="#221b43" fill-rule="nonzero" opacity="1" stroke="none"/>
<path d="M325.371 325.898C328.304 331.764 328.417 339.696 332.227 345.41C343.483 362.294 353.563 379.452 363.34 396.563C366.271 401.693 364.741 418.003 367.031 420.293C365.915 422.525 367.032 431.368 369.141 433.477C368.162 435.434 373.573 454.784 375.469 456.68C375.205 457.207 375.205 457.207 374.941 457.734C377.886 460.679 378.921 467.563 380.215 471.445C383.852 482.357 396.603 504.708 404.473 512.578C409.984 508.445 409.347 501.646 411.328 495.703C417.744 476.454 425.057 456.107 432.422 437.695C434.023 433.691 442.502 415.587 439.277 413.438C435.761 411.093 429.154 409.536 425.039 408.164C410.867 403.44 390.379 386.95 379.16 377.051C369.855 368.84 357.983 360.314 351.211 350.156C345.205 341.148 352.729 318.763 339.082 315.352C333.416 313.935 328.283 322.987 325.371 325.898Z" fill="#221b43" fill-rule="nonzero" opacity="1" stroke="none"/>
<path d="M422.402 835.313C418.294 839.421 425.806 841.881 428.203 844.277C428.73 843.75 428.73 843.75 429.258 843.223C431.34 845.304 433.85 845.486 436.113 843.223C436.641 843.75 436.641 843.75 437.168 844.277C440.065 841.38 445.46 841.786 448.77 838.477C460.336 848.886 469.242 847.102 476.191 833.203C477.688 830.21 477.194 824.29 479.355 822.129C478.828 821.602 478.828 821.602 478.301 821.074C480.538 816.599 476.891 810.883 480.41 807.363C478.97 805.923 478.97 805.639 480.41 804.199C479.883 803.672 479.883 803.672 479.355 803.145C479.883 802.617 479.883 802.617 480.41 802.09C478.466 799.173 473.215 798.684 469.863 797.344C465.257 795.501 458.935 790.488 453.516 790.488C451.515 790.488 447.95 795.077 446.133 796.289C439.286 800.854 431.537 804.982 424.512 810C419.571 813.529 409.349 820.542 411.328 828.457C412.701 833.947 419.169 832.079 422.402 835.313Z" fill="#dcab29" fill-rule="nonzero" opacity="1" stroke="none"/>
<path d="M598.008 834.258C595.362 839.549 605.987 849.041 610.137 850.078C612.756 850.733 620.299 845.88 621.211 846.387C633.264 853.083 635.64 853.052 645.469 843.223C644.941 842.695 644.941 842.695 644.414 842.168C645.117 840.762 645.117 841.465 644.414 840.059C646.347 838.126 667.415 834.583 659.18 826.348C661.316 822.075 648.444 810.421 645.996 808.418C643.159 806.097 630.599 794.865 629.121 795.234C625.269 796.197 622.094 799.159 618.047 800.508C612.928 802.214 605.757 802.634 601.172 805.254C600.524 805.624 599.826 806.128 599.59 806.836C598.637 809.695 598.698 813.93 598.008 817.383C597.314 820.852 594.653 830.903 598.008 834.258Z" fill="#dcab29" fill-rule="nonzero" opacity="1" stroke="none"/>
<path d="M545.801 350.156C533.932 353.822 533.327 362.036 534.199 375.996C534.833 386.132 549.038 393.144 557.402 388.125C575.11 377.5 564.579 344.356 545.801 350.156Z" fill="#dcab29" fill-rule="nonzero" opacity="1" stroke="none"/>
<path d="M511.523 295.313C495.764 298.531 495.835 334.336 515.742 334.336C520.602 334.336 523.57 327.645 525.234 324.316C531.318 312.148 525.293 292.5 511.523 295.313Z" fill="#2b3740" fill-rule="nonzero" opacity="1" stroke="none"/>
<path d="M588.516 294.785C571.76 297.187 573.008 333.809 591.68 333.809C606.595 333.809 609.586 291.765 588.516 294.785Z" fill="#2b3740" fill-rule="nonzero" opacity="1" stroke="none"/>
<path d="M560.566 368.086C553.626 369.266 546.492 368.601 539.473 369.141C536.898 369.339 539.262 374.098 540 374.941C543.407 378.836 546.193 379.16 551.602 379.16C555.484 379.16 566.895 367.01 560.566 368.086Z" fill="#2b3740" fill-rule="nonzero" opacity="1" stroke="none"/>
</g>
</g>
</svg>
