<?xml version="1.0" encoding="UTF-8" standalone="no"?>
<!DOCTYPE svg PUBLIC "-//W3C//DTD SVG 1.1//EN" "http://www.w3.org/Graphics/SVG/1.1/DTD/svg11.dtd">
<!-- Created with Vectornator (http://vectornator.io/) -->
<svg height="100%" stroke-miterlimit="10" style="fill-rule:nonzero;clip-rule:evenodd;stroke-linecap:round;stroke-linejoin:round;" version="1.1" viewBox="0 0 1080 1080" width="100%" xml:space="preserve" xmlns="http://www.w3.org/2000/svg" xmlns:vectornator="http://vectornator.io" xmlns:xlink="http://www.w3.org/1999/xlink">
<defs/>
<g id="Layer-1" vectornator:layerName="Layer 1">
<g opacity="1">
<path d="M425.039 571.113C426.046 573.128 425.507 574.864 423.984 576.387C425.675 579.767 419.513 596.657 418.184 600.645C410.348 624.152 394.339 646.282 384.961 669.727C382.535 675.791 372.808 700.816 375.996 704.004C372.883 710.231 380.642 730.496 382.324 737.227C391.311 773.175 418.716 811.795 455.098 826.348C463.956 829.891 474.201 835.21 483.047 837.422C486.486 838.282 492.474 837.357 495.176 840.059C495.703 839.531 495.703 839.531 496.23 839.004C497.901 840.675 499.306 839.443 500.977 841.113C502.671 840.266 505.89 840.753 507.305 842.168C507.832 841.641 507.832 841.641 508.359 841.113C510.271 843.025 512.248 841.311 514.16 843.223C514.688 842.695 514.688 842.695 515.215 842.168C517.861 844.814 521.533 841.631 524.18 844.277C524.707 843.75 524.707 843.75 525.234 843.223C525.762 843.75 525.762 843.75 526.289 844.277C526.816 843.75 526.816 843.75 527.344 843.223C531.407 847.286 539.637 841.805 543.164 845.332C543.691 844.805 543.691 844.805 544.219 844.277C544.746 844.805 544.746 844.805 545.273 845.332C545.801 844.805 545.801 844.805 546.328 844.277C546.855 844.805 546.855 844.805 547.383 845.332C547.91 844.805 547.91 844.805 548.438 844.277C550.165 845.141 550.648 845.758 552.129 844.277C552.656 844.805 552.656 844.805 553.184 845.332C553.711 844.805 553.711 844.805 554.238 844.277C554.766 844.805 554.766 844.805 555.293 845.332C555.82 844.805 555.82 844.805 556.348 844.277C556.875 844.805 556.875 844.805 557.402 845.332C557.93 844.805 557.93 844.805 558.457 844.277C559.248 844.805 559.248 844.805 560.039 845.332C563.674 841.698 569.588 846.857 573.223 843.223C573.75 843.75 573.75 843.75 574.277 844.277C574.805 843.75 574.805 843.75 575.332 843.223C575.859 843.75 575.859 843.75 576.387 844.277C579.033 841.631 582.705 844.814 585.352 842.168C585.879 842.695 585.879 842.695 586.406 843.223C588.318 841.311 590.295 843.025 592.207 841.113C592.734 841.641 592.734 841.641 593.262 842.168C596.559 838.871 617.818 837.137 624.375 833.203C641.24 823.084 654.398 813.015 669.199 797.344C681.956 783.836 693.277 762.378 698.203 745.137C699.505 740.581 703.697 716.967 705.059 715.605C704.013 713.514 704.31 708.972 706.113 707.168C702.659 700.26 711.883 688.153 705.059 681.328C705.586 680.801 705.586 680.801 706.113 680.273C705.586 679.746 705.586 679.746 705.059 679.219C705.586 678.691 705.586 678.691 706.113 678.164C705.545 677.028 705.545 675.081 706.113 673.945C703.737 671.57 706.279 674.608 705.059 669.727C703.653 664.104 695.759 654.195 692.402 649.16C663.962 606.499 663.055 549.531 651.797 498.867C648.547 484.243 645.266 469.155 641.25 455.098C639.091 447.542 639.858 439.467 633.867 433.477C626.572 440.772 616.173 451.082 612.246 460.898C608.324 470.703 603.449 483.252 592.734 489.375C581.919 495.555 567.963 497.904 555.293 499.395C547.867 500.268 540.473 501.227 533.145 499.395C512.018 494.113 494.163 473.624 483.047 455.098C477.755 446.277 467.478 437.42 461.426 431.367C460.622 430.564 460.12 430.765 459.316 431.367C456.131 433.756 453.005 456.816 450.352 463.008C444.426 476.835 441.277 495.723 438.223 510.996C436.647 518.873 433.19 528.007 431.895 535.781C430.631 543.361 429.425 566.728 425.039 571.113Z" fill="#221b43" fill-rule="nonzero" opacity="1" stroke="none"/>
<path d="M377.051 658.125C377.578 658.652 377.578 658.652 378.105 659.18C375.11 662.175 374.85 695.475 376.523 697.148C379.579 694.092 378.812 687.645 380.215 683.438C382.591 676.311 386.272 667.504 389.18 660.234C394.27 647.51 403.002 634.698 409.219 622.266C411.586 617.53 417.386 612.03 418.184 606.445C420.049 593.386 425.267 579.054 428.203 565.84C432.502 546.494 435.501 525.046 440.332 505.723C445.064 486.795 449.266 468.916 454.57 450.352C455.976 445.431 457.682 434.584 460.371 431.895C467.821 435.619 472.497 443.323 478.301 449.297C491.156 462.53 497.258 478.544 513.105 490.43C524.515 498.987 536.282 501.504 551.074 501.504C570.411 501.504 589.912 494.307 603.281 480.938C608.811 475.408 610.199 467.102 613.301 460.898C617.926 451.648 626.745 442.202 633.867 434.531C638.837 439.501 637.826 448.78 640.195 455.098C646.809 472.734 649.944 494.739 653.379 513.633C658.544 542.04 664.697 570.75 670.254 598.535C671.658 605.556 672.263 612.258 675 619.102C682.222 637.156 693.148 653.442 704.004 669.727C706.479 667.251 703.86 664.213 705.059 661.816C700.645 657.403 706.812 649.858 702.422 645.469C703.362 643.589 702.966 639.685 701.367 638.086C702.329 636.161 700.632 626.804 699.258 625.43C699.785 624.902 699.785 624.902 700.313 624.375C698.522 622.584 699.994 620.892 698.203 619.102C698.73 618.574 698.73 618.574 699.258 618.047C695.637 614.426 698.574 606.816 695.039 603.281C695.566 602.754 695.566 602.754 696.094 602.227C693.666 599.799 694.179 592.818 693.457 589.57C691.103 578.977 687.98 568.29 685.02 557.93C683.428 552.359 684.406 543.605 680.273 539.473C681.212 537.595 677.694 526.873 676.055 525.234C676.318 524.707 676.318 524.707 676.582 524.18C673.319 520.916 670.779 505.188 669.199 500.449C663.631 483.745 655.711 466.839 650.215 450.352C648.022 443.774 645.409 433.417 640.195 428.203C644.759 423.639 650.324 416.275 652.324 410.273C653.403 407.036 652.981 401.706 655.488 399.199C654.961 398.672 654.961 398.672 654.434 398.145C660.317 392.261 651.608 392.155 649.688 390.234C645.821 392.168 636.194 383.888 632.285 382.324C630.67 381.678 628.996 380.496 627.539 379.16C623.781 375.716 619.985 372.301 616.465 368.613C607.179 358.885 611.317 341.443 605.391 329.59C602.13 323.069 591.291 316.337 583.77 320.098C573.14 325.413 572.168 343.463 572.168 353.32C572.168 375.65 581.472 395.204 575.859 417.656C571.848 433.701 559.378 446.818 540.527 439.277C536.167 437.533 531.949 433.336 528.398 429.785C522.809 424.195 523.312 418.97 520.488 412.383C513.454 395.969 531.915 373.177 535.254 356.484C535.447 355.519 537.309 354.613 537.363 353.32C537.95 339.238 537.551 319.043 516.797 319.043C510.336 319.043 502.984 329.215 499.922 333.809C487.008 353.18 476.848 371.648 459.316 389.18C455.147 393.349 447.437 396.529 444.023 401.309C442.252 403.788 450.028 417.536 451.406 420.293C451.868 421.216 448.669 427.976 448.242 429.258C444.795 439.598 438.746 449.835 435.059 460.898C419.02 509.014 400.634 555.356 389.18 601.172C385.835 614.551 383.2 628.872 380.215 642.305C379.248 646.655 380.255 654.92 377.051 658.125Z" fill="#fcf9f4" fill-rule="nonzero" opacity="1" stroke="none"/>
<path d="M531.563 271.055C524.511 267.529 502.397 283.291 496.23 287.402C472.596 303.159 456.843 335.266 450.352 361.23C448.87 367.155 441.924 379.18 445.078 385.488C441.589 388.977 443.672 395.332 444.023 400.254C444.059 400.75 444.727 400.957 445.078 401.309C456.242 390.144 469.914 381.832 479.355 368.613C486.241 358.973 492.211 349.231 497.285 339.082C500.726 332.201 508.843 321.768 516.27 320.625C525.206 319.25 539.03 330.662 537.363 340.664C536.32 346.922 535.469 354.355 534.199 360.703C531.603 373.686 519.306 384.642 518.379 397.617C517.145 414.898 524.92 436.174 543.164 441.387C550.611 443.514 555.634 441.273 561.621 439.277C587.811 430.547 578.146 381.808 574.805 361.758C573.736 355.347 573.223 348.716 573.223 342.246C573.223 336.549 577.822 323.135 583.77 321.152C612.291 311.645 605.588 356.608 615.41 368.613C621.282 375.789 630.743 385.15 639.668 388.125C642.742 389.15 645.76 389.47 648.105 391.816C649.936 390.901 652.783 392.718 655.488 391.816C655.488 387.583 657.427 382.154 654.434 379.16C655.596 376.835 647.906 344.156 645.469 341.719C647.164 338.328 641.496 326.108 640.195 322.207C635.208 307.245 620.593 288.21 605.391 282.129C599.053 279.594 586.903 276.825 582.188 272.109C581.66 272.637 581.66 272.637 581.133 273.164C579.261 271.292 576.139 271.861 574.277 270C573.75 270.527 573.75 270.527 573.223 271.055C569.021 266.853 534.597 268.02 531.563 271.055Z" fill="#221b43" fill-rule="nonzero" opacity="1" stroke="none"/>
<path d="M489.375 219.375C489.061 219.689 468.648 223.238 465.117 224.121C462.401 224.8 458.436 227.872 456.152 229.395C443.651 237.729 429.366 244.538 418.184 255.234C406.843 266.082 387.577 283.236 381.27 299.004C379.167 304.259 377.3 320.903 374.414 323.789C375.194 325.35 374.623 327.799 373.359 329.063C373.887 329.59 373.887 329.59 374.414 330.117C372.623 331.908 374.095 333.6 372.305 335.391C373.275 337.331 371.781 347.516 370.195 349.102C370.723 349.629 370.723 349.629 371.25 350.156C368.604 352.803 371.787 356.475 369.141 359.121C369.668 359.648 369.668 359.648 370.195 360.176C367.303 363.069 370.979 367.303 368.086 370.195C368.613 370.723 368.613 370.723 369.141 371.25C368.613 371.777 368.613 371.777 368.086 372.305C368.613 372.832 368.613 372.832 369.141 373.359C368.613 373.887 368.613 373.887 368.086 374.414C368.613 374.941 368.613 374.941 369.141 375.469C368.789 375.82 368.104 376.027 368.086 376.523C367.747 386.01 367.747 395.514 368.086 405C368.104 405.497 368.789 405.703 369.141 406.055C368.613 406.582 368.613 406.582 368.086 407.109C368.613 407.637 368.613 407.637 369.141 408.164C368.613 408.691 368.613 408.691 368.086 409.219C371.226 412.358 367.056 417.153 370.195 420.293C369.668 420.82 369.668 420.82 369.141 421.348C371.296 423.503 369.095 426.048 371.25 428.203C370.723 428.73 370.723 428.73 370.195 429.258C372.107 431.17 370.393 433.147 372.305 435.059C371.777 435.586 371.777 435.586 371.25 436.113C373.041 437.904 371.569 439.596 373.359 441.387C372.832 441.914 372.832 441.914 372.305 442.441C375.061 445.197 376.968 464.787 378.105 469.336C381.614 483.372 388.878 496.907 393.398 510.469C396.736 520.48 401.098 531.809 407.637 540.527C412.01 536.154 415.367 518.038 418.184 510.996C424.586 494.989 428.94 477.637 436.113 460.898C437.159 458.458 443.164 448.743 441.914 446.66C439.137 442.032 436.517 436.998 435.059 431.895C433.529 426.541 434.265 416.335 430.313 412.383C430.84 411.855 430.84 411.855 431.367 411.328C426.931 406.892 431.416 396.611 427.148 392.344C427.676 391.816 427.676 391.816 428.203 391.289C425.063 388.149 429.233 383.355 426.094 380.215C426.621 379.688 426.621 379.688 427.148 379.16C426.621 378.633 426.621 378.633 426.094 378.105C426.621 377.578 426.621 377.578 427.148 377.051C426.621 376.523 426.621 376.523 426.094 375.996C426.621 375.205 426.621 375.205 427.148 374.414C426.797 374.063 426.116 373.856 426.094 373.359C425.759 365.984 425.759 358.586 426.094 351.211C426.116 350.714 426.797 350.508 427.148 350.156C426.621 349.629 426.621 349.629 426.094 349.102C427.578 346.875 426.163 347.382 427.148 345.41C426.621 344.883 426.621 344.883 426.094 344.355C429.234 341.216 425.063 336.421 428.203 333.281C427.676 332.754 427.676 332.754 427.148 332.227C430.027 329.348 429.339 321.883 430.313 317.988C432.249 310.242 436.874 299.973 441.387 293.203C452.392 276.696 466.993 261.514 483.047 248.379C489.107 243.42 501.349 234.946 499.395 225.176C498.271 219.558 492.364 222.364 489.375 219.375Z" fill="#221b43" fill-rule="nonzero" opacity="1" stroke="none"/>
<path d="M609.082 214.102C604.713 211.917 603.358 217.189 601.172 219.375C601.699 219.902 601.699 219.902 602.227 220.43C601.699 220.957 601.699 220.957 601.172 221.484C601.699 222.275 601.699 222.275 602.227 223.066C601.699 223.594 601.699 223.594 601.172 224.121C602.937 225.886 602.552 228.263 603.281 230.449C604.858 235.18 610.152 242.911 613.301 246.27C618.401 251.71 624.02 256.649 629.121 262.09C632.948 266.172 635.056 272.838 638.086 277.383C647.839 292.012 658.998 312.171 664.453 328.535C667.564 337.867 673.945 349.8 673.945 359.648C673.945 363.171 674.378 374.319 676.055 375.996C675.352 377.402 675.352 376.699 676.055 378.105C675.527 378.633 675.527 378.633 675 379.16C676.44 380.6 676.44 380.884 675 382.324C676.527 383.851 676.367 387.813 675 389.18C675.527 389.707 675.527 389.707 676.055 390.234C675.527 390.762 675.527 390.762 675 391.289C675.527 391.816 675.527 391.816 676.055 392.344C672.837 395.562 674.856 405.959 673.418 410.273C668.529 424.94 662.927 443.441 651.27 455.098C655.423 459.252 655.251 467.807 658.125 473.555C662.744 482.794 667.768 496.304 670.254 506.25C671.392 510.804 671.883 520.535 675.527 524.18C675.264 524.707 675.264 524.707 675 525.234C678.254 528.489 677.502 534.789 680.273 538.945C694.76 528.08 707.971 494.877 713.496 478.301C715.674 471.767 717.386 451.208 721.406 447.188C720.879 446.66 720.879 446.66 720.352 446.133C722.158 444.327 723.52 435.067 722.461 432.949C726.803 428.607 720.421 420.751 725.098 416.074C723.105 412.089 723.059 402.293 726.152 399.199C724.712 397.759 724.712 397.475 726.152 396.035C725.449 394.629 725.449 395.332 726.152 393.926C725.625 393.398 725.625 393.398 725.098 392.871C725.625 392.08 725.625 392.08 726.152 391.289C725.625 390.762 725.625 390.762 725.098 390.234C725.625 389.707 725.625 389.707 726.152 389.18C725.625 388.652 725.625 388.652 725.098 388.125C725.625 387.598 725.625 387.598 726.152 387.07C725.625 386.543 725.625 386.543 725.098 386.016C725.625 385.225 725.625 385.225 726.152 384.434C724.712 382.993 724.712 382.71 726.152 381.27C723.519 378.636 725.326 357.697 723.516 352.266C717.064 332.91 711.058 311.958 699.258 294.258C684.495 272.114 669.26 248.795 647.578 230.449C642.344 226.02 633.499 219.27 626.484 217.266C622.907 216.244 615.859 215.605 613.301 213.047C612.773 213.574 612.773 213.574 612.246 214.102C610.806 212.661 610.522 212.661 609.082 214.102Z" fill="#221b43" fill-rule="nonzero" opacity="1" stroke="none"/>
<path d="M428.203 867.48C431.772 863.912 442.979 869.072 446.133 872.227C446.66 871.699 446.66 871.699 447.188 871.172C447.715 871.699 447.715 871.699 448.242 872.227C448.77 871.699 448.77 871.699 449.297 871.172C449.824 871.699 449.824 871.699 450.352 872.227C450.879 871.699 450.879 871.699 451.406 871.172C451.934 871.699 451.934 871.699 452.461 872.227C454.373 870.315 456.35 872.029 458.262 870.117C458.789 870.645 458.789 870.645 459.316 871.172C462.072 868.416 465.282 866.261 468.281 863.262C470.469 865.449 472.949 867.93 475.137 870.117C475.664 869.59 475.664 869.59 476.191 869.063C476.719 869.59 476.719 869.59 477.246 870.117C479.988 867.376 478.93 870.664 483.047 865.371C484.939 862.938 483.938 858.679 486.211 856.406C485.684 855.879 485.684 855.879 485.156 855.352C485.684 854.824 485.684 854.824 486.211 854.297C485.684 853.77 485.684 853.77 485.156 853.242C485.684 852.715 485.684 852.715 486.211 852.188C483.092 849.069 484.51 841.93 482.52 837.949C483.047 837.422 483.047 837.422 483.574 836.895C482.197 835.517 459.577 825.82 456.68 825.82C452.993 825.82 441.857 832.911 439.277 835.313C434.365 839.886 429.704 844.725 425.039 849.551C417.351 857.504 422.48 861.758 428.203 867.48Z" fill="#e0ad2a" fill-rule="nonzero" opacity="1" stroke="none"/>
<path d="M587.988 861.152C589.716 862.88 587.854 865.304 590.098 866.426C592.802 867.778 598.106 868.106 600.117 870.117C602.71 867.525 606.85 868.658 610.137 865.371C613.111 868.345 619.315 876.232 624.375 871.172C628.193 873.081 628.95 866.511 631.23 865.371C634.432 863.77 637.881 870.85 642.305 866.426C647.371 868.959 650.89 860.121 650.215 856.406C648.421 846.538 635 836.671 627.539 830.566C626.392 829.628 618.101 834.869 616.992 835.313C613.538 836.694 595.249 839.248 594.316 841.113C592.519 844.708 588.991 860.15 587.988 861.152Z" fill="#e0ad2a" fill-rule="nonzero" opacity="1" stroke="none"/>
<path d="M547.91 383.906C532.101 385.928 531.085 407.699 539.473 418.184C540.601 419.594 543.336 423.312 545.801 423.457C561.806 424.399 567.068 412.856 566.367 398.145C566.218 395.011 558.527 387.667 557.402 386.543C555.063 384.204 550.961 383.516 547.91 383.906Z" fill="#e0ad2a" fill-rule="nonzero" opacity="1" stroke="none"/>
<path d="M512.051 329.063C496.013 332.408 495.763 369.795 516.27 368.086C530.466 366.903 532.093 324.882 512.051 329.063Z" fill="#2b3740" fill-rule="nonzero" opacity="1" stroke="none"/>
<path d="M589.043 328.535C570.906 329.336 573.508 369.161 592.734 367.559C607.332 366.342 608.609 327.671 589.043 328.535Z" fill="#2b3740" fill-rule="nonzero" opacity="1" stroke="none"/>
<path d="M546.328 413.438C554.751 409.226 555.589 414.839 563.203 403.418C560.959 401.174 558.548 402.739 555.82 402.891C550.377 403.193 544.902 402.924 539.473 403.418C538.978 403.463 538.64 404.028 538.418 404.473C536.211 408.887 544.577 411.687 546.328 413.438Z" fill="#2b3740" fill-rule="nonzero" opacity="1" stroke="none"/>
</g>
</g>
</svg>
