<?xml version="1.0" encoding="UTF-8" standalone="no"?>
<!DOCTYPE svg PUBLIC "-//W3C//DTD SVG 1.1//EN" "http://www.w3.org/Graphics/SVG/1.1/DTD/svg11.dtd">
<!-- Created with Vectornator (http://vectornator.io/) -->
<svg height="100%" stroke-miterlimit="10" style="fill-rule:nonzero;clip-rule:evenodd;stroke-linecap:round;stroke-linejoin:round;" version="1.1" viewBox="0 0 1080 1080" width="100%" xml:space="preserve" xmlns="http://www.w3.org/2000/svg" xmlns:vectornator="http://vectornator.io" xmlns:xlink="http://www.w3.org/1999/xlink">
<defs/>
<g id="Layer-1" vectornator:layerName="Layer 1">
<g opacity="1">
<path d="M436.113 455.098C438.081 459.034 429.168 490.881 428.203 495.703C425.012 511.657 421.091 529.426 417.129 545.273C415.547 551.599 409.529 557.155 407.109 563.203C403.193 572.994 396.688 582.992 391.816 592.734C388.173 600.022 382.928 608.475 381.27 615.938C380.276 620.409 379.982 625.271 378.105 629.648C376.602 633.156 372.039 638.875 375.996 642.832C374.951 644.923 375.247 649.466 377.051 651.27C376.523 651.797 376.523 651.797 375.996 652.324C377.977 654.305 382.113 677.319 383.379 682.383C387.516 698.932 399.308 719.535 411.328 732.48C421.578 743.519 434.232 755.007 447.188 761.484C455.137 765.459 477.222 770.426 483.047 776.25C483.574 775.723 483.574 775.723 484.102 775.195C487.274 778.368 493.168 776.352 496.23 779.414C496.758 778.887 496.758 778.887 497.285 778.359C498.549 779.623 500.998 780.194 502.559 779.414C504.47 781.326 506.448 779.612 508.359 781.523C510.591 780.408 524.308 782.179 525.234 783.105C525.762 782.578 525.762 782.578 526.289 782.051C526.816 782.578 526.816 782.578 527.344 783.105C531.723 780.916 539.661 780.657 543.164 784.16C544.604 782.72 544.888 782.72 546.328 784.16C546.855 783.633 546.855 783.633 547.383 783.105C550.101 784.917 549.411 782.348 552.129 784.16C553.569 782.72 553.853 782.72 555.293 784.16C556.733 782.72 557.017 782.72 558.457 784.16C562.215 780.402 568.41 785.809 572.168 782.051C572.695 782.578 572.695 782.578 573.223 783.105C573.75 782.578 573.75 782.578 574.277 782.051C574.805 782.578 574.805 782.578 575.332 783.105C579.921 778.516 592.98 784.442 598.008 779.414C599.569 780.194 602.018 779.623 603.281 778.359C603.809 778.887 603.809 778.887 604.336 779.414C606.615 777.135 610.793 777.262 613.828 776.25C620.392 774.062 627.942 770.884 633.34 767.285C648.052 757.477 663.681 744.425 674.473 729.316C683.886 716.138 694.772 699.934 698.203 684.492C699.685 677.822 702.025 671.511 703.477 664.98C704.121 662.079 702.855 656.637 705.059 654.434C704.067 652.451 704.414 648.223 706.113 646.523C702.645 639.587 712.743 627.84 705.059 620.156C707.617 617.598 703.841 614.518 706.113 612.246C705.088 611.221 705.658 609.347 705.059 608.027C702.309 601.977 696.53 596.244 693.457 590.098C688.462 580.107 681.774 570.422 677.109 561.094C673.179 553.233 671.956 542.712 670.254 534.199C665.933 512.596 661.218 491.057 657.598 469.336C654.091 448.295 649.111 427.957 644.941 407.109C642.883 396.818 641.02 383.974 636.504 374.941C633.394 368.721 627.332 378.643 625.957 380.215C618.009 389.298 613.339 398.759 609.082 408.691C599.953 429.993 575.033 437.471 552.656 438.75C520.149 440.608 500.777 422.246 484.102 394.453C478.407 384.962 469.365 377.908 461.426 370.195C461.027 369.808 460.371 369.492 459.844 369.668C457.521 370.442 455.07 386.349 453.516 390.234C447.047 406.406 443.112 423.601 439.277 440.859C438.385 444.873 439.093 452.118 436.113 455.098Z" fill="#221b43" fill-rule="nonzero" opacity="1" stroke="none"/>
<path d="M444.023 340.137C444.551 340.664 444.551 340.664 445.078 341.191C444.551 341.719 444.551 341.719 444.023 342.246C444.375 342.598 444.942 342.823 445.078 343.301C446.786 349.28 449.11 353.381 451.406 359.121C451.537 359.448 451.563 359.861 451.406 360.176C443.233 376.522 437.351 393.614 430.313 412.383C421.507 435.865 415.708 459.929 407.109 483.574C403.354 493.901 398.505 504.281 396.035 514.16C392.878 526.787 390.563 538.848 387.07 551.074C383.883 562.229 382.138 573.81 380.215 585.352C379.701 588.434 376.432 595.188 378.105 598.535C375.025 601.615 374.856 634.309 376.523 635.977C379.193 633.307 378.981 627.548 380.215 623.848C382.941 615.669 385.308 606.806 389.18 599.063C395.25 586.922 402.271 574.99 408.164 563.203C410.927 557.677 416.644 551.432 418.184 545.273C426.861 510.563 432.773 474.259 441.387 439.805C445.874 421.857 449.605 406.557 454.57 389.18C455.453 386.089 458.987 371.942 460.371 371.25C462.163 370.354 463.213 373.565 464.063 374.414C468.37 378.722 472.939 382.763 477.246 387.07C479.141 388.965 481.836 392.031 483.047 394.453C491.665 411.689 509.744 430.972 527.871 438.223C533.729 440.566 547.318 440.332 552.129 440.332C577.274 440.332 602.209 427.982 611.191 405.527C614.618 396.962 620.363 388.222 627.012 380.742C629.279 378.191 634.37 371.704 635.449 374.941C650.505 420.109 656.901 471.041 665.508 518.379C668.47 534.671 672.268 551.1 678.164 565.84C681.422 573.986 688.97 581.517 692.402 590.098C694.558 595.488 699.844 603.868 704.004 608.027C705.812 606.22 705.812 604.034 704.004 602.227C704.531 601.699 704.531 601.699 705.059 601.172C700.544 596.657 706.952 588.827 702.422 584.297C702.949 583.77 702.949 583.77 703.477 583.242C701.565 581.33 703.279 579.353 701.367 577.441C702.307 575.562 701.912 571.658 700.313 570.059C701.381 567.921 700.888 565.888 699.258 564.258C699.785 563.73 699.785 563.73 700.313 563.203C698.642 561.532 699.874 560.128 698.203 558.457C698.73 557.93 698.73 557.93 699.258 557.402C696.531 554.676 698.807 550.096 696.094 547.383C696.621 546.855 696.621 546.855 697.148 546.328C695.885 545.065 695.313 542.615 696.094 541.055C692.576 537.537 690.953 516.471 689.238 510.469C688.48 507.816 685.648 502.883 687.129 499.922C684.383 497.176 684.319 491.318 683.438 487.793C681.135 478.582 678.215 469.25 675.527 459.844C666.647 428.764 655.157 395.899 640.723 367.031C647.396 360.358 657.664 341.127 655.488 331.699C654.898 329.142 645.79 328.939 643.359 327.48C632.572 321.008 621.303 315.681 613.828 303.223C606.153 290.43 613.454 254.952 585.879 258.398C577.433 259.454 573.186 273.917 572.695 280.547C570.81 306.004 585.715 335.537 575.859 360.176C573.706 365.559 569.901 374.583 563.73 377.051C549.282 382.83 530.095 378.657 523.125 361.23C510.896 330.659 531.049 322.649 535.254 297.422C536.444 290.279 539.771 283.85 537.891 276.328C536.37 270.244 530.48 263.841 525.762 259.98C524.176 258.683 522.153 259.536 520.488 257.871C517.582 259.324 513.348 258.476 510.469 261.035C497.14 272.883 492.125 287.982 481.992 302.168C471.38 317.025 458.113 328.865 444.023 340.137Z" fill="#fdfaf5" fill-rule="nonzero" opacity="1" stroke="none"/>
<path d="M541.055 207.246C538.947 209.354 521.89 211.525 517.324 213.047C503.181 217.761 488.039 231.204 478.301 243.105C466.054 258.074 455.57 279.157 450.352 297.422C449.064 301.928 446.062 321.223 444.023 323.262C444.551 323.789 444.551 323.789 445.078 324.316C441.589 327.806 443.672 334.16 444.023 339.082C444.059 339.578 444.727 339.785 445.078 340.137C456.184 329.031 469.623 320.418 479.355 307.441C486.381 298.074 492.29 287.901 497.285 277.91C505.542 261.396 518.873 253.202 532.09 267.363C534.267 269.696 536.498 274.702 536.836 277.91C540.65 314.148 499.829 333.692 529.453 370.723C533.247 375.465 536.906 377.426 542.109 379.16C547.492 380.954 552.488 380.961 558.457 380.215C567.181 379.124 572.955 369.416 575.332 362.285C584.416 335.034 573.223 308.9 573.223 281.074C573.223 270.249 580.944 257.979 592.734 259.453C608.461 261.419 607.757 282.604 609.082 293.203C610.659 305.819 640.363 335.686 655.488 330.645C655.488 326.586 657.303 321.385 654.434 318.516C655.83 315.723 653.563 303.407 651.27 301.113C651.797 300.586 651.797 300.586 652.324 300.059C649.028 296.762 649.272 291.486 648.105 287.402C644.865 276.06 642.907 262.214 636.504 251.543C631.464 243.143 624.455 234.877 616.465 228.34C611.707 224.447 605.663 222.811 601.172 218.32C600.645 218.848 600.645 218.848 600.117 219.375C593.55 212.808 579.484 214.562 574.277 209.355C573.75 209.883 573.75 209.883 573.223 210.41C571.671 208.858 570.556 209.853 569.004 208.301C566.606 209.5 564.007 209.104 562.148 207.246C561.621 207.773 561.621 207.773 561.094 208.301C560.566 207.773 560.566 207.773 560.039 207.246C554.361 210.085 546.779 203.631 542.109 208.301C541.582 207.773 541.582 207.773 541.055 207.246Z" fill="#221b43" fill-rule="nonzero" opacity="1" stroke="none"/>
<path d="M214.102 387.07C207.793 383.916 205.807 395.934 206.191 399.199C207.47 410.064 222.064 418.922 230.449 424.512C236.698 428.677 244.876 430.965 251.016 435.059C263.073 443.097 277.38 450.526 291.094 455.098C302.511 458.903 312.863 467.627 324.316 471.445C333.48 474.5 341.928 479.017 350.684 482.52C356.095 484.684 365.073 484.253 369.141 488.32C369.668 487.793 369.668 487.793 370.195 487.266C373.235 490.305 378.447 488.662 381.27 491.484C381.797 490.957 381.797 490.957 382.324 490.43C384.531 492.637 387.837 490.669 390.234 493.066C392.131 492.118 393.559 492.7 394.98 494.121C396.541 493.341 398.99 493.912 400.254 495.176C400.781 494.648 400.781 494.648 401.309 494.121C401.836 494.648 401.836 494.648 402.363 495.176C407.937 491.46 406.93 479.655 410.273 474.082C414.115 467.679 416.373 456.014 418.184 448.77C419.156 444.879 422.645 440.7 423.457 436.641C425.016 428.846 428.188 419.535 431.367 412.383C432.87 409.003 441.253 391.943 440.332 389.18C439.675 387.208 419.62 391.962 418.184 393.398C417.656 392.871 417.656 392.871 417.129 392.344C412.466 397.007 401.451 391.674 397.09 396.035C393.699 394.34 389.244 394.389 386.543 397.09C383.865 395.751 377.832 395.782 375.469 398.145C374.028 396.704 373.745 396.704 372.305 398.145C371.777 397.617 371.777 397.617 371.25 397.09C370.723 397.617 370.723 397.617 370.195 398.145C369.668 397.617 369.668 397.617 369.141 397.09C367.294 398.937 367.944 397.617 365.977 397.617C356.307 397.617 346.642 398.145 336.973 398.145C335.533 398.145 334.387 398.195 333.281 397.09C332.754 397.617 332.754 397.617 332.227 398.145C331.699 397.617 331.699 397.617 331.172 397.09C330.645 397.617 330.645 397.617 330.117 398.145C329.59 397.617 329.59 397.617 329.063 397.09C328.271 397.617 328.271 397.617 327.48 398.145C324.341 395.005 319.546 399.175 316.406 396.035C314.966 397.475 314.682 397.475 313.242 396.035C312.715 396.563 312.715 396.563 312.188 397.09C310.747 395.65 310.464 395.65 309.023 397.09C308.33 396.397 294.962 394.276 293.203 396.035C287.233 390.065 275.455 399.381 269.473 393.398C267.036 394.617 261.586 394.477 259.453 392.344C257.574 393.283 253.67 392.888 252.07 391.289C249.672 392.488 247.073 392.093 245.215 390.234C244.688 390.762 244.688 390.762 244.16 391.289C241.447 388.576 236.867 390.852 234.141 388.125C233.613 388.652 233.613 388.652 233.086 389.18C231.415 387.509 230.011 388.741 228.34 387.07C227.813 387.598 227.813 387.598 227.285 388.125C225.87 386.71 222.652 386.223 220.957 387.07C220.43 386.543 220.43 386.543 219.902 386.016C219.111 386.543 219.111 386.543 218.32 387.07C216.768 385.518 215.653 385.518 214.102 387.07Z" fill="#221b43" fill-rule="nonzero" opacity="1" stroke="none"/>
<path d="M821.074 392.344C820.547 391.816 820.547 391.816 820.02 391.289C815.961 395.348 808.213 392.021 804.199 396.035C803.672 395.508 803.672 395.508 803.145 394.98C801.71 396.415 800.888 395.655 799.453 397.09C797.758 396.242 794.54 396.729 793.125 398.145C792.598 397.617 792.598 397.617 792.07 397.09C790.159 399.002 788.181 397.287 786.27 399.199C785.742 398.672 785.742 398.672 785.215 398.145C783.303 400.056 781.326 398.342 779.414 400.254C778.887 399.727 778.887 399.727 778.359 399.199C777.832 399.727 777.832 399.727 777.305 400.254C776.777 399.727 776.777 399.727 776.25 399.199C773.604 401.846 769.931 398.662 767.285 401.309C766.758 400.781 766.758 400.781 766.23 400.254C765.703 400.781 765.703 400.781 765.176 401.309C764.648 400.781 764.648 400.781 764.121 400.254C759.619 404.756 751.748 397.862 747.246 402.363C744.453 399.57 739.666 403.748 737.227 401.309C736.699 401.836 736.699 401.836 736.172 402.363C735.645 401.836 735.645 401.836 735.117 401.309C733.718 402.008 730.447 402.439 729.316 401.309C728.789 401.836 728.789 401.836 728.262 402.363C727.734 401.836 727.734 401.836 727.207 401.309C726.68 401.836 726.68 401.836 726.152 402.363C723.152 399.363 717.231 403.989 713.496 400.254C711.405 401.299 706.862 401.003 705.059 399.199C702.66 400.398 700.061 400.003 698.203 398.145C697.676 398.672 697.676 398.672 697.148 399.199C695.478 397.529 694.073 398.761 692.402 397.09C691.875 397.617 691.875 397.617 691.348 398.145C689.933 396.729 686.714 396.242 685.02 397.09C683.585 395.655 682.763 396.415 681.328 394.98C680.801 395.508 680.801 395.508 680.273 396.035C676.96 392.722 669.055 395.891 665.508 392.344C662.897 393.649 652.152 388.202 651.27 391.289C649.844 396.278 657.521 409.292 659.18 413.438C667.212 433.517 674.081 455.639 679.219 476.191C681.01 483.356 681.078 496.767 688.184 501.504C691.359 498.328 698.332 498.648 702.422 497.285C715.25 493.009 728.316 487.92 740.918 482.52C775.778 467.58 810.692 453.094 841.113 428.203C849.196 421.59 877.802 398.487 874.336 385.488C874.079 384.526 869.752 381.959 869.063 381.27C865.418 383.092 860.921 379.885 857.461 381.27C851.276 383.743 844.099 384.346 837.422 386.016C834.081 386.851 830.711 389.407 827.402 390.234C824.6 390.935 823.132 390.286 821.074 392.344Z" fill="#221b43" fill-rule="nonzero" opacity="1" stroke="none"/>
<path d="M402.363 802.09C401.836 802.617 401.836 802.617 401.309 803.145C404.385 806.221 407.853 813.475 413.965 807.363C414.492 807.891 414.492 807.891 415.02 808.418C407.296 816.141 412.126 823.545 423.457 822.129C425.128 821.92 432.559 816.66 434.004 817.383C436.262 818.512 437.137 822.633 439.277 824.238C441.472 825.885 445.22 825.435 447.188 827.402C447.715 826.875 447.715 826.875 448.242 826.348C450.413 828.518 455.218 828.164 457.207 826.348C461.062 822.828 464.761 819.129 468.281 815.273C471.988 811.214 476.196 800.487 477.246 795.234C478.154 790.694 476.599 781.116 479.355 778.359C478.828 777.832 478.828 777.832 478.301 777.305C478.828 776.777 478.828 776.777 479.355 776.25C478.828 775.723 478.828 775.723 478.301 775.195C478.828 774.668 478.828 774.668 479.355 774.141C473.792 768.577 461.322 767.118 454.57 763.066C454.094 762.78 453.485 762.29 452.988 762.539C442.343 767.862 431.467 775.304 421.348 782.051C417.481 784.629 397.619 797.345 402.363 802.09Z" fill="#e0ad2b" fill-rule="nonzero" opacity="1" stroke="none"/>
<path d="M603.281 786.27C603.809 786.797 603.809 786.797 604.336 787.324C601.443 790.217 605.119 794.451 602.227 797.344C604.108 799.225 602.93 802.617 603.281 805.254C604.136 811.662 609.457 833.751 618.047 835.313C621.982 836.028 631.169 830.008 631.23 830.039C634.548 831.698 640.472 838.199 644.414 834.258C647.579 835.84 654.42 832.189 655.488 828.984C656.378 826.316 655.799 823.342 655.488 820.547C655.328 819.106 654.082 817.734 654.434 816.328C655.728 811.15 670.476 817.131 668.145 803.145C666.939 795.912 657.034 787.824 652.324 784.16C645.569 778.906 639.714 772.863 633.34 767.285C632.922 766.919 632.314 766.758 631.758 766.758C629.236 766.758 624.443 770.942 622.266 772.031C617.874 774.227 611.066 774.048 606.973 776.777C602.918 779.481 606.159 783.392 603.281 786.27Z" fill="#e0ad2b" fill-rule="nonzero" opacity="1" stroke="none"/>
<path d="M545.273 323.262C540.786 324.023 536.351 328.852 535.254 334.336C532.543 347.892 538.214 368.695 556.875 361.23C561.385 359.427 563.441 354.716 564.785 350.684C570.009 335.012 560.808 320.627 545.273 323.262Z" fill="#e0ad2b" fill-rule="nonzero" opacity="1" stroke="none"/>
<path d="M503.086 277.91C499.875 278.988 501.257 283.512 500.977 286.875C500.412 293.655 503.723 291.094 509.414 291.094C515.042 291.094 520.664 291.787 526.289 291.621C529.583 291.524 527.363 281.999 526.289 279.492C524.897 276.245 519.274 278.522 515.742 278.438C511.521 278.337 507.089 276.567 503.086 277.91Z" fill="#27343f" fill-rule="nonzero" opacity="1" stroke="none"/>
<path d="M579.023 278.965C575.734 279.756 577.133 288.624 577.441 291.094C577.503 291.587 577.999 292.127 578.496 292.148C586.399 292.485 594.324 292.485 602.227 292.148C603.866 292.079 605.217 279.194 601.699 278.965C594.157 278.473 586.373 277.198 579.023 278.965Z" fill="#3f474e" fill-rule="nonzero" opacity="1" stroke="none"/>
<path d="M559.512 341.191C557.962 341.501 556.32 342.246 554.766 342.246C549.668 342.246 544.56 341.918 539.473 342.246C534.24 342.584 544.207 351.841 546.328 352.266C554.636 353.927 558.483 346.966 563.203 342.246C562.676 341.719 562.676 341.719 559.512 341.191Z" fill="#27343f" fill-rule="nonzero" opacity="1" stroke="none"/>
</g>
</g>
</svg>
