<?xml version="1.0" encoding="UTF-8" standalone="no"?>
<!DOCTYPE svg PUBLIC "-//W3C//DTD SVG 1.1//EN" "http://www.w3.org/Graphics/SVG/1.1/DTD/svg11.dtd">
<!-- Created with Vectornator (http://vectornator.io/) -->
<svg height="100%" stroke-miterlimit="10" style="fill-rule:nonzero;clip-rule:evenodd;stroke-linecap:round;stroke-linejoin:round;" version="1.1" viewBox="0 0 1080 1080" width="100%" xml:space="preserve" xmlns="http://www.w3.org/2000/svg" xmlns:vectornator="http://vectornator.io" xmlns:xlink="http://www.w3.org/1999/xlink">
<defs/>
<g id="Layer-1" vectornator:layerName="Layer 1">
<g opacity="1">
<path d="M460.371 428.203C456.13 432.444 457.012 438.807 455.098 444.551C449.13 462.455 445.058 479.436 440.332 498.34C435.032 519.541 430.78 543.169 426.094 564.258C423.553 575.689 422.96 588.425 419.238 599.59C414.824 612.832 405.013 624.876 398.672 637.559C390.932 653.038 384.036 667.428 379.16 684.492C377.885 688.957 372.324 698.222 375.996 701.895C374.951 703.986 375.247 708.528 377.051 710.332C375.982 712.47 376.475 714.502 378.105 716.133C377.578 716.66 377.578 716.66 377.051 717.188C380.215 720.352 380.033 729.734 381.27 734.063C384.999 747.116 390.417 761.494 398.145 773.086C406.541 785.68 417.133 798.026 429.258 808.418C432.993 811.62 441.141 817.828 446.133 819.492C449.52 820.621 453.529 821.615 456.152 824.238C456.68 823.975 456.68 823.975 457.207 823.711C462.313 828.817 486.899 836.188 493.066 837.422C497.574 838.323 506.614 836.731 509.941 840.059C512.033 839.013 516.575 839.31 518.379 841.113C521.109 839.748 527.794 839.982 529.98 842.168C531.387 841.465 530.684 841.465 532.09 842.168C532.617 841.641 532.617 841.641 533.145 841.113C534.585 842.554 534.868 842.554 536.309 841.113C538.259 843.064 540.553 842.168 543.164 842.168C550.195 842.168 557.235 842.502 564.258 842.168C564.754 842.144 564.961 841.465 565.313 841.113C567.17 842.971 567.564 841.184 569.531 842.168C570.059 841.641 570.059 841.641 570.586 841.113C571.377 841.641 571.377 841.641 572.168 842.168C573.776 840.56 588.603 839.048 590.625 840.059C593.45 837.234 598.088 840.506 601.172 837.422C601.699 837.949 601.699 837.949 602.227 838.477C604.844 835.859 609.292 836.805 612.773 835.313C618.996 832.646 625.842 829.569 632.285 826.348C662.46 811.26 686.248 775.729 696.094 746.191C697.62 741.613 704.518 727.181 702.422 722.988C705.034 720.376 702.545 716.009 705.059 713.496C703.957 711.293 704.202 706.442 706.113 704.531C705.13 702.564 706.916 702.17 705.059 700.313C709.788 695.583 706.465 686.953 706.113 680.273C706.087 679.777 705.41 679.57 705.059 679.219C705.586 678.691 705.586 678.691 706.113 678.164C704.698 675.334 706.225 670.59 705.059 667.09C703.968 663.818 699.679 659.548 697.676 656.543C689.649 644.503 677.138 625.574 674.473 612.246C672.687 603.318 672.02 593.011 669.727 584.297C666.872 573.448 661.997 559.897 660.234 548.438C658.111 534.636 656.424 520.627 653.906 506.777C650.617 488.685 646.262 470.401 641.777 452.461C640.341 446.715 639.816 434.981 634.395 431.367C632.11 429.844 629.955 434.647 628.066 436.641C622.112 442.926 617.066 450.204 613.301 457.734C603.663 477.011 594.688 489.933 571.113 494.648C561.872 496.497 551.574 498.34 542.109 498.34C503.843 498.34 486.209 448.874 460.371 428.203Z" fill="#221b43" fill-rule="nonzero" opacity="1" stroke="none"/>
<path d="M447.188 429.258C445.478 430.967 439.391 444.096 438.75 446.66C438.086 449.317 439.443 451.52 438.223 454.57C435.772 460.697 432.916 467.574 430.313 474.082C415.252 511.732 400.556 554.083 391.289 591.152C388.233 603.378 384.874 616.371 382.324 629.121C381.532 633.081 382.091 640.428 379.16 643.359C379.688 643.887 379.688 643.887 380.215 644.414C378.544 646.085 379.776 647.489 378.105 649.16C378.633 649.688 378.633 649.688 379.16 650.215C377.414 651.961 375.926 662.204 377.051 664.453C374.248 667.256 375.438 693.954 376.523 695.039C379.288 692.274 379.098 686.293 380.215 682.383C383.019 672.569 387.556 662.711 391.289 653.379C398.729 634.779 415.19 618.301 420.293 599.59C429.159 567.082 432.547 534.225 440.332 503.086C445.234 483.478 448.928 466.223 455.098 447.715C456.792 442.631 456.343 433.286 460.371 429.258C467.052 435.939 474.412 441.966 480.41 449.297C498.369 471.246 512.976 499.395 545.273 499.395C556.321 499.395 567.977 497.127 578.496 494.121C601.557 487.532 606.271 471.033 616.465 454.043C618.841 450.082 632.325 431.387 634.395 432.422C637.744 434.097 638.833 445.956 639.668 449.297C643.94 466.385 647.464 483.853 651.27 500.977C664.54 560.692 665.048 618.395 704.004 667.09C705.323 665.77 703.887 644.825 702.422 643.359C703.313 641.577 702.871 638.008 701.367 636.504C702.307 634.625 701.912 630.72 700.313 629.121C701.381 626.983 700.888 624.951 699.258 623.32C699.785 622.793 699.785 622.793 700.313 622.266C698.522 620.475 699.994 618.783 698.203 616.992C698.847 615.705 693.562 587.565 692.402 586.406C693.788 583.636 689.869 576.06 689.238 573.223C687.027 563.272 683.64 552.512 681.328 542.109C675.08 513.994 664.612 488.798 655.488 461.426C652.438 452.274 646.798 432.696 640.195 426.094C646.223 420.066 660.8 395.018 653.906 388.125C647.544 391.306 638.064 382.315 632.813 380.215C622.698 376.169 609.609 360.542 609.609 349.102C609.609 341.292 609.605 333.275 605.391 326.953C601.281 320.789 592.874 314.241 584.824 317.461C573.133 322.137 572.168 341.427 572.168 351.211C572.168 372.061 581.726 391.486 577.441 412.91C573.764 431.299 556.754 445.017 538.945 436.113C528.674 430.978 525.077 422.456 522.07 413.438C514.196 389.815 531.268 374.011 536.836 351.738C539.429 341.365 536.836 319.307 522.598 316.934C513.651 315.443 506.864 321.916 501.504 329.063C488.909 345.856 481.815 364.572 466.172 380.215C461.744 384.643 447.453 393.528 444.023 398.672C442.317 401.232 449.82 415.012 451.406 418.184C452.799 420.969 445.635 426.152 447.188 429.258Z" fill="#f0eeea" fill-rule="nonzero" opacity="1" stroke="none"/>
<path d="M549.492 265.254C546.868 267.878 529.947 266.925 525.234 268.945C508.244 276.227 494.554 283.681 480.41 299.004C470.077 310.198 458.73 331.35 454.043 345.41C452.155 351.075 449.763 365.511 446.133 369.141C446.66 369.668 446.66 369.668 447.188 370.195C445.924 371.459 445.352 373.908 446.133 375.469C444.221 377.38 445.935 379.358 444.023 381.27C444.551 381.797 444.551 381.797 445.078 382.324C441.465 385.937 443.672 392.52 444.023 397.617C444.058 398.113 444.727 398.32 445.078 398.672C458.761 391.831 484.081 366.029 490.43 350.156C492.113 345.949 495.366 339.636 498.34 335.918C504.258 328.52 509.391 317.461 519.961 317.461C535.092 317.461 538.899 340.851 536.309 351.211C532.652 365.838 519.435 381.781 518.379 395.508C516.661 417.842 528.58 434.577 549.492 439.805C559.824 442.388 570.346 431.847 574.277 423.984C587.237 398.066 573.223 367.504 573.223 340.137C573.223 334.07 578.08 320.202 584.824 318.516C606.836 313.013 607.167 339.39 609.082 352.793C609.675 356.943 613.775 363.984 616.992 367.559C620.705 371.684 626.325 378.165 631.758 381.27C635.518 383.418 641.246 384.957 644.414 388.125C645.991 387.337 655.262 391.031 655.488 388.652C655.805 385.328 655.805 381.958 655.488 378.633C655.441 378.138 654.785 377.93 654.434 377.578C655.479 375.487 655.183 370.944 653.379 369.141C653.906 368.613 653.906 368.613 654.434 368.086C648.443 362.095 650.539 341.515 644.414 335.391C644.941 334.863 644.941 334.863 645.469 334.336C642.084 330.951 641.708 322.527 640.195 317.988C636.759 307.681 628.435 298.317 620.156 290.039C611.294 281.177 596.466 274.759 585.352 271.055C581.686 269.833 573.862 270.112 571.113 267.363C568.715 268.562 566.116 268.167 564.258 266.309C563.73 266.836 563.73 266.836 563.203 267.363C560.803 264.963 557.693 267.654 555.293 265.254C553.853 266.694 553.569 266.694 552.129 265.254C551.602 265.781 551.602 265.781 551.074 266.309C550.283 265.781 550.283 265.781 549.492 265.254Z" fill="#221b43" fill-rule="nonzero" opacity="1" stroke="none"/>
<path d="M769.395 711.387C768.867 710.859 768.867 710.859 768.34 710.332C770.748 707.924 771.702 696.491 770.449 693.984C770.977 693.457 770.977 693.457 771.504 692.93C770.977 692.139 770.977 692.139 770.449 691.348C772.012 689.785 772.302 662.087 770.449 660.234C770.977 659.707 770.977 659.707 771.504 659.18C768.292 655.968 771.544 650.255 768.34 647.051C769.409 644.913 768.916 642.881 767.285 641.25C767.813 640.723 767.813 640.723 768.34 640.195C764.61 636.466 764.223 618.636 761.484 612.246C754.558 596.084 746.038 579.091 740.391 562.148C736.879 551.614 730.066 540.972 725.098 531.035C716.337 513.513 707.585 493.403 693.457 478.301C688.447 472.945 680.113 464.523 673.418 459.316C669.822 456.52 664.649 454.767 661.289 451.406C660.762 451.934 660.762 451.934 660.234 452.461C659.597 451.824 651.447 446.126 650.742 450.352C650.147 453.921 657.816 467.353 659.18 471.445C665.54 490.527 671.534 507.829 677.109 527.344C682.084 544.753 685.119 565.47 690.293 582.715C690.921 584.807 694.589 586.072 696.094 587.461C702.096 593.001 707.564 598.24 712.441 604.336C718.378 611.757 721.079 624.449 724.043 633.34C728.897 647.902 735.534 662.538 740.391 677.109C743.592 686.715 751.222 722.469 760.43 726.152C766.448 728.56 767.668 713.113 769.395 711.387Z" fill="#221b43" fill-rule="nonzero" opacity="1" stroke="none"/>
<path d="M439.277 446.133C428.99 456.42 413.887 469.414 404.473 478.828C379.733 503.568 363.846 534.495 345.41 562.148C339.238 571.406 331.137 581.22 326.953 591.68C320.671 607.385 310.487 620.629 306.387 637.031C305.091 642.214 302.922 659.48 300.059 662.344C300.586 662.871 300.586 662.871 301.113 663.398C299.588 664.924 298.839 673.087 300.059 675.527C299.531 676.055 299.531 676.055 299.004 676.582C299.531 677.373 299.531 677.373 300.059 678.164C297.15 681.072 297.15 686.33 300.059 689.238C298.618 690.679 298.618 690.962 300.059 692.402C298.722 695.075 299.019 698.218 301.113 700.313C300.586 700.84 300.586 700.84 300.059 701.367C302.083 703.392 302.01 714.825 307.969 712.441C317.868 708.482 325.846 683.793 331.172 674.473C339.518 659.868 346.969 644.449 356.484 630.176C362.508 621.141 365.744 609.92 372.305 601.172C380.71 589.965 392.791 579.508 399.727 567.949C400.927 565.949 400.772 562.184 401.309 560.039C405.058 545.041 411.571 529.78 416.602 514.688C422.251 497.74 428.2 480.153 435.059 463.008C436.657 459.012 442.517 449.373 439.277 446.133Z" fill="#221b43" fill-rule="nonzero" opacity="1" stroke="none"/>
<path d="M606.445 836.367C612.473 842.395 617.19 849.963 624.375 855.352C629.267 859.02 638.113 861.179 642.305 865.371C642.832 864.844 642.832 864.844 643.359 864.316C645.69 866.647 653.859 867.768 656.543 866.426C658.172 868.054 659.661 868.054 661.289 866.426C665.055 868.309 665.812 861.822 666.563 859.57C670.746 860.168 669.375 859.219 671.309 861.152C673.679 858.782 679.659 859.744 681.328 856.406C682.702 853.658 680.278 851.123 681.328 849.023C681.713 848.253 684.55 847 683.438 845.332C679.42 839.306 669.425 836.668 663.398 834.258C660.039 832.914 636.431 822.429 634.922 823.184C630.43 825.429 625.747 828.826 621.211 831.094C616.842 833.278 610 832.812 606.445 836.367Z" fill="#e2ac25" fill-rule="nonzero" opacity="1" stroke="none"/>
<path d="M456.68 822.656C454.641 824.695 453.256 823.444 451.406 825.293C450.879 824.766 450.879 824.766 450.352 824.238C447.641 826.949 443.084 824.65 440.332 827.402C439.805 826.875 439.805 826.875 439.277 826.348C438.014 827.611 435.565 828.183 434.004 827.402C431.74 829.666 428.55 827.583 426.094 830.039C421.838 827.911 404.001 838.061 406.055 842.168C407.375 844.808 408.66 843.719 410.273 845.332C404.26 851.346 413.209 855.764 417.656 857.988C417.393 858.516 417.393 858.516 417.129 859.043C418.307 860.221 418.249 862.807 420.293 863.262C423.687 864.016 436.452 863.978 439.277 861.152C439.805 861.68 439.805 861.68 440.332 862.207C442.883 859.656 447.191 859.041 450.352 857.461C459.923 852.675 469.706 845.849 477.246 837.422C477.892 836.7 479.968 834.208 479.355 832.676C478.909 831.559 459.411 824.477 456.68 822.656Z" fill="#e2ac25" fill-rule="nonzero" opacity="1" stroke="none"/>
<path d="M547.91 381.27C527.887 382.46 529.562 422.852 552.129 421.348C572.403 419.996 571.239 379.883 547.91 381.27Z" fill="#e2ac25" fill-rule="nonzero" opacity="1" stroke="none"/>
<path d="M510.996 326.953C494.807 330.264 496.829 368.777 516.797 365.449C531.217 363.046 531.917 322.675 510.996 326.953Z" fill="#2c3840" fill-rule="nonzero" opacity="1" stroke="none"/>
<path d="M587.461 326.426C571.268 329.716 574.511 367.595 591.68 365.449C607.909 363.421 608.615 322.127 587.461 326.426Z" fill="#2c3840" fill-rule="nonzero" opacity="1" stroke="none"/>
<path d="M562.148 399.727C560.661 398.261 551.061 400.256 547.91 400.781C545.173 401.237 542.127 399.875 539.473 400.254C535.013 400.891 542.088 408.501 543.164 409.219C548.732 412.931 567.576 405.074 562.148 399.727Z" fill="#2c3840" fill-rule="nonzero" opacity="1" stroke="none"/>
</g>
</g>
</svg>
