<?xml version="1.0" encoding="UTF-8" standalone="no"?>
<!DOCTYPE svg PUBLIC "-//W3C//DTD SVG 1.1//EN" "http://www.w3.org/Graphics/SVG/1.1/DTD/svg11.dtd">
<!-- Created with Vectornator (http://vectornator.io/) -->
<svg height="100%" stroke-miterlimit="10" style="fill-rule:nonzero;clip-rule:evenodd;stroke-linecap:round;stroke-linejoin:round;" version="1.1" viewBox="0 0 1080 1080" width="100%" xml:space="preserve" xmlns="http://www.w3.org/2000/svg" xmlns:vectornator="http://vectornator.io" xmlns:xlink="http://www.w3.org/1999/xlink">
<defs/>
<g id="Layer-1" vectornator:layerName="Layer 1">
<g opacity="1">
<path d="M444.023 427.148C445.577 430.255 441.586 438.645 440.859 441.914C438.369 453.121 436.35 463.408 434.004 475.137C429.772 496.298 425.548 515.814 420.293 536.836C419.271 540.924 419.823 545.667 418.184 549.492C410.556 567.29 397.474 581.561 391.289 600.117C389.565 605.289 385.321 609.751 383.906 615.41C382.029 622.918 379.818 631.695 377.051 638.613C375.867 641.574 373.757 653.776 377.051 657.07C376.523 657.598 376.523 657.598 375.996 658.125C377.787 659.916 376.315 661.608 378.105 663.398C375.944 667.721 382.905 683.598 384.434 688.184C395.28 720.723 416.831 751.052 449.297 767.285C453.663 769.468 479.563 781.947 482.52 780.469C485.25 783.2 490.411 781.505 493.066 784.16C493.594 783.633 493.594 783.633 494.121 783.105C495.673 784.657 496.788 783.663 498.34 785.215C498.867 784.688 498.867 784.688 499.395 784.16C501.927 786.693 517.271 788.933 520.488 787.324C521.087 787.923 533.551 790.082 535.254 788.379C537.204 790.329 539.499 789.434 542.109 789.434C549.492 789.434 556.883 789.769 564.258 789.434C564.754 789.411 564.961 788.73 565.313 788.379C565.84 788.906 565.84 788.906 566.367 789.434C566.895 788.906 566.895 788.906 567.422 788.379C570.392 789.864 577.729 789.673 580.078 787.324C580.605 787.852 580.605 787.852 581.133 788.379C583.533 785.979 586.643 788.67 589.043 786.27C589.57 786.797 589.57 786.797 590.098 787.324C593.055 784.367 598.207 787.125 601.172 784.16C601.699 784.688 601.699 784.688 602.227 785.215C603.778 783.663 604.893 784.657 606.445 783.105C612.297 786.031 634.664 771.324 639.141 768.34C662.862 752.526 680.289 729.284 692.402 705.059C695.509 698.845 698.696 689.904 700.313 683.438C701.201 679.884 700.796 673.989 703.477 671.309C702.949 670.781 702.949 670.781 702.422 670.254C705.313 667.363 702.017 663.276 705.059 660.234C703.581 657.279 703.778 653.605 706.113 651.27C705.586 650.742 705.586 650.742 705.059 650.215C706.906 648.368 705.586 649.019 705.586 647.051C705.586 640.369 706.113 633.694 706.113 627.012C706.113 625.572 706.164 624.426 705.059 623.32C705.586 622.793 705.586 622.793 706.113 622.266C705.586 621.738 705.586 621.738 705.059 621.211C705.586 620.684 705.586 620.684 706.113 620.156C705.41 618.75 705.41 619.453 706.113 618.047C703.45 615.383 706.889 619.32 705.059 613.828C702.744 606.884 692.319 593.826 688.184 586.934C662.526 544.171 661.534 487.313 650.742 438.75C648.479 428.565 645.813 417.979 643.359 408.164C640.974 398.622 641.095 385.334 633.867 378.105C618.569 385.755 614.245 406.062 606.973 418.184C593.844 440.065 557.305 449.275 533.672 444.023C508.357 438.398 495.246 412.992 479.355 394.453C476.724 391.384 462.82 374.873 459.844 375.469C458.771 375.683 456.067 388.823 455.098 390.762C450.879 399.199 449.307 421.865 444.023 427.148Z" fill="#221b43" fill-rule="nonzero" opacity="1" stroke="none"/>
<path d="M451.406 365.449C449.252 368.68 449.455 372.147 446.66 374.941C446.924 375.469 446.924 375.469 447.188 375.996C442.583 380.601 443.977 388.699 439.277 393.398C440.479 395.801 427.789 428.718 425.566 432.422C417.543 445.794 415.781 464.142 410.273 478.828C401.829 501.347 394.851 523.643 389.18 546.328C386.725 556.147 384.541 566.409 382.324 576.387C381.431 580.406 382.172 587.086 379.16 590.098C379.688 590.625 379.688 590.625 380.215 591.152C378.8 592.568 378.313 595.786 379.16 597.48C375.26 601.381 375.812 628.027 375.469 633.867C375.323 636.349 374.766 639.492 376.523 641.25C378.854 638.92 380.887 629.396 381.27 625.957C382.345 616.278 389.455 606.674 392.344 598.008C393.648 594.094 397.631 590.327 399.199 586.406C404.259 573.757 413.678 562.467 419.238 549.492C422.415 542.081 422.353 532.289 424.512 523.652C430.956 497.875 435.033 471.021 441.387 445.605C446.137 426.604 450.022 410.206 456.152 391.816C457.726 387.094 457.373 380.576 460.898 377.051C489.077 402.668 505.622 446.133 548.438 446.133C557.213 446.133 566.335 444.031 574.805 441.914C584.698 439.441 593.72 435.128 601.172 427.676C606.68 422.167 608.659 415.549 611.191 409.219C614.124 401.887 620.988 393.483 626.484 387.07C627.943 385.369 631.408 380.39 633.867 379.16C638.229 383.521 638.652 393.026 640.195 399.199C644.182 415.148 647.979 431.79 651.27 448.242C656.949 476.638 661.326 505.363 667.617 533.672C669.862 543.774 671.11 554.005 675 563.73C681.893 580.962 692.477 598.459 704.004 613.828C706.479 611.353 703.86 608.315 705.059 605.918C700.926 601.785 706.61 594.813 702.422 590.625C703.546 588.376 702.059 578.133 700.313 576.387C700.84 575.859 700.84 575.859 701.367 575.332C700.1 574.064 700.664 571.816 700.313 570.059C699.226 564.625 695.164 535.907 692.402 533.145C694.452 529.045 684.29 500.167 682.383 492.539C672.593 453.379 660.617 408.834 641.25 374.941C639.703 372.234 645.206 367.52 645.996 366.504C650.904 360.194 657.172 345.393 655.488 336.973C654.911 334.087 648.326 335.501 645.996 334.336C639.479 331.078 630.935 327.435 624.902 322.207C619.938 317.904 612.797 309.645 611.191 303.223C607.47 288.337 610.379 263.672 587.988 263.672C574.763 263.672 574.728 281.759 573.223 290.039C571.784 297.95 573.433 305.014 574.805 313.242C577.878 331.684 580.1 350.091 574.277 367.559C572.226 373.714 567.829 382.876 560.039 384.434C532.166 390.008 518.553 366.373 519.434 341.719C519.663 335.306 525.713 329.496 527.344 323.789C532.358 306.239 541.708 296.745 535.254 277.383C533.644 272.553 528.498 266.137 523.652 264.199C515.147 260.797 507.026 269.169 502.031 275.273C494.891 284 490.752 294.424 485.156 303.75C478.824 314.303 468.332 324.793 459.844 333.281C455.841 337.284 447.108 340.784 444.023 345.41C443.016 346.922 449.215 363.258 451.406 365.449Z" fill="#f9f7f3" fill-rule="nonzero" opacity="1" stroke="none"/>
<path d="M553.184 211.992C552.656 212.52 552.656 212.52 552.129 213.047C549.33 211.648 541.291 212.283 539.473 214.102C532.982 210.856 522.068 218.497 516.27 220.43C487.144 230.138 466.644 261.172 456.152 287.402C453.577 293.84 450.144 312.395 446.133 316.406C446.66 316.934 446.66 316.934 447.188 317.461C445.753 318.896 446.513 319.717 445.078 321.152C445.605 321.68 445.605 321.68 446.133 322.207C444.836 323.504 444.096 327.933 444.023 330.117C443.865 334.861 443.697 339.621 444.023 344.355C444.058 344.851 444.727 345.059 445.078 345.41C464.088 335.905 475.509 315.959 488.32 300.586C493.112 294.836 494.754 286.875 499.395 281.074C505.315 273.673 510.795 263.383 521.543 264.727C534.372 266.33 540.011 287.549 536.309 297.422C533.18 305.764 529.315 314.712 526.289 323.789C524.417 329.406 518.853 335.318 518.379 341.719C516.572 366.112 530.211 386.543 555.82 386.543C565.909 386.543 572.8 375.154 575.332 367.559C581.026 350.476 579.403 331.868 576.387 313.77C575.047 305.73 572.888 297.682 574.277 290.039C575.905 281.089 575.453 264.727 589.043 264.727C596.599 264.727 602.895 271.169 606.445 277.383C610.757 284.928 607.48 295.252 610.137 303.223C613.708 313.937 640.699 340.848 655.488 335.918C655.488 331.685 657.427 326.255 654.434 323.262C654.961 322.734 654.961 322.734 655.488 322.207C653.577 320.295 655.291 318.318 653.379 316.406C653.906 315.879 653.906 315.879 654.434 315.352C652.882 313.8 653.876 312.685 652.324 311.133C652.852 310.605 652.852 310.605 653.379 310.078C646.766 303.466 650.817 288.532 644.414 282.129C646.647 277.663 640.552 268.433 639.141 264.199C633.886 248.437 613.242 226.816 596.426 222.012C591.546 220.618 583.715 219.848 580.078 216.211C579.551 216.738 579.551 216.738 579.023 217.266C577.521 215.763 578.382 216.487 576.387 215.156C575.859 215.684 575.859 215.684 575.332 216.211C573.78 214.659 572.665 215.653 571.113 214.102C570.586 214.629 570.586 214.629 570.059 215.156C568.147 213.245 566.17 214.959 564.258 213.047C563.73 213.574 563.73 213.574 563.203 214.102C561.048 211.946 558.503 214.148 556.348 211.992C554.907 213.432 554.624 213.432 553.184 211.992Z" fill="#221b43" fill-rule="nonzero" opacity="1" stroke="none"/>
<path d="M427.148 397.09C426.621 396.563 426.621 396.563 426.094 396.035C424.591 397.538 425.453 396.814 423.457 398.145C422.93 397.617 422.93 397.617 422.402 397.09C421.081 398.411 420.559 397.878 419.238 399.199C418.711 398.672 418.711 398.672 418.184 398.145C416.863 399.465 416.34 398.933 415.02 400.254C411.325 398.407 408.356 402.987 405 401.309C403.565 402.743 402.743 401.983 401.309 403.418C400.781 402.891 400.781 402.891 400.254 402.363C395.456 407.162 383.057 402.158 378.105 407.109C377.578 406.582 377.578 406.582 377.051 406.055C375.139 407.966 373.162 406.252 371.25 408.164C370.723 407.637 370.723 407.637 370.195 407.109C368.04 409.265 365.495 407.063 363.34 409.219C362.813 408.691 362.813 408.691 362.285 408.164C359.885 410.564 356.775 407.873 354.375 410.273C353.848 409.746 353.848 409.746 353.32 409.219C350.92 411.619 347.811 408.928 345.41 411.328C344.883 410.801 344.883 410.801 344.355 410.273C343.828 410.801 343.828 410.801 343.301 411.328C342.773 410.801 342.773 410.801 342.246 410.273C339.106 413.413 334.312 409.243 331.172 412.383C330.645 411.855 330.645 411.855 330.117 411.328C328.711 412.031 329.414 412.031 328.008 411.328C326.71 412.626 315.293 414.434 313.242 412.383C312.715 412.91 312.715 412.91 312.188 413.438C311.66 412.91 311.66 412.91 311.133 412.383C304.306 419.209 288.56 408.061 281.602 415.02C279.321 413.879 277.327 416.018 275.273 413.965C271.267 417.971 264.514 412.068 260.508 416.074C258.398 414.668 259.453 414.668 257.344 416.074C256.816 415.547 256.816 415.547 256.289 415.02C255.762 415.547 255.762 415.547 255.234 416.074C254.707 415.547 254.707 415.547 254.18 415.02C253.652 415.547 253.652 415.547 253.125 416.074C251.708 415.366 246.234 415.055 245.215 416.074C244.688 415.547 244.688 415.547 244.16 415.02C243.633 415.547 243.633 415.547 243.105 416.074C241.707 415.375 238.435 414.944 237.305 416.074C235.864 414.634 235.581 414.634 234.141 416.074C231.395 413.328 226.406 414.668 222.539 415.02C217.74 415.456 214.507 419.888 211.465 422.93C214.137 428.274 210.897 430.525 216.211 437.168C223.555 446.348 236.503 450.215 246.27 455.098C267.886 465.906 289.997 473.537 312.188 483.047C318.451 485.731 324.726 489.336 331.172 491.484C338.896 494.059 347.814 498.223 355.43 499.395C357.715 499.746 360.65 498.814 362.285 500.449C362.813 499.922 362.813 499.922 363.34 499.395C364.746 500.098 364.043 500.098 365.449 499.395C365.821 499.766 379.444 502.275 381.27 500.449C384.139 503.319 389.344 501.328 393.398 501.504C395.207 501.583 402.625 502.959 403.418 500.977C412.968 477.102 419.429 449.611 429.258 425.039C431.005 420.671 441.531 397.813 440.859 394.453C440.307 391.693 428.686 395.553 427.148 397.09Z" fill="#221b43" fill-rule="nonzero" opacity="1" stroke="none"/>
<path d="M686.602 508.359C687.393 507.832 687.393 507.832 688.184 507.305C688.711 507.832 688.711 507.832 689.238 508.359C691.795 505.803 714.106 501.747 719.297 500.449C724.987 499.027 730.581 494.93 736.172 493.066C751.839 487.844 766.725 480.245 782.051 475.137C792.521 471.647 806.15 468.997 815.273 462.48C824.967 455.556 835.584 449.661 845.859 443.496C850.68 440.604 858.388 437.513 862.207 432.422C863.277 430.996 867.513 425.685 868.008 423.457C868.872 419.57 862.647 413.217 859.043 415.02C857.06 413.036 838.09 413.296 836.367 415.02C834.672 414.172 831.454 414.659 830.039 416.074C828.098 415.104 817.914 416.598 816.328 418.184C815.801 417.656 815.801 417.656 815.273 417.129C809.412 422.99 792.812 415.86 787.324 421.348C786.797 420.82 786.797 420.82 786.27 420.293C785.742 420.82 785.742 420.82 785.215 421.348C784.688 420.82 784.688 420.82 784.16 420.293C783.633 420.82 783.633 420.82 783.105 421.348C782.578 420.82 782.578 420.82 782.051 420.293C781.523 420.82 781.523 420.82 780.996 421.348C780.205 420.82 780.205 420.82 779.414 420.293C777.862 421.845 776.747 421.845 775.195 420.293C773.708 421.781 772.992 421.781 771.504 420.293C769.395 421.699 770.449 421.699 768.34 420.293C767.813 420.82 767.813 420.82 767.285 421.348C766.758 420.82 766.758 420.82 766.23 420.293C765.703 420.82 765.703 420.82 765.176 421.348C762.265 418.437 756.662 422.854 753.047 419.238C750.564 420.48 745.044 420.2 743.027 418.184C740.629 419.383 738.03 418.987 736.172 417.129C735.645 417.656 735.645 417.656 735.117 418.184C733.446 416.513 732.042 417.745 730.371 416.074C729.844 416.602 729.844 416.602 729.316 417.129C728.262 416.074 728.262 416.074 727.207 415.02C726.68 415.547 726.68 415.547 726.152 416.074C722.8 412.722 716.621 413.06 712.441 410.273C711.914 410.801 711.914 410.801 711.387 411.328C708.008 407.95 701.694 409.546 698.203 406.055C697.676 406.582 697.676 406.582 697.148 407.109C690.955 400.916 676.487 405.432 670.254 399.199C669.727 399.727 669.727 399.727 669.199 400.254C667.878 398.933 667.356 399.465 666.035 398.145C662.341 399.992 659.372 395.412 656.016 397.09C650.918 391.992 651.478 400.353 652.324 402.891C656.027 414 661.916 423.855 664.98 436.113C669.203 453.005 675.035 469.97 680.273 485.684C682.27 491.674 681.775 503.532 686.602 508.359Z" fill="#221b43" fill-rule="nonzero" opacity="1" stroke="none"/>
<path d="M418.184 824.238C418.711 823.711 418.711 823.711 419.238 823.184C422.873 826.819 429.392 820.94 431.895 818.438C435.98 821.501 434.452 826.616 439.277 829.512C445.8 833.426 452.607 828.359 457.207 825.293C469.569 817.052 471.96 803.183 476.191 790.488C477.264 787.271 476.831 782.466 479.355 779.941C473.101 773.687 460.344 773.07 452.461 768.34C451.901 768.004 451.378 766.601 450.352 767.285C440.235 774.03 430.585 780.463 420.293 787.324C414.759 791.013 399.375 799.454 402.363 808.418C403.845 812.863 408.734 806.58 410.273 811.582C413.431 821.846 411.323 817.377 418.184 824.238Z" fill="#e7b32c" fill-rule="nonzero" opacity="1" stroke="none"/>
<path d="M630.703 772.559C624.548 778.713 612.706 777.372 606.445 783.633C607.852 786.445 607.605 789.856 605.391 792.07C606.094 793.477 606.094 792.773 605.391 794.18C605.918 794.707 605.918 794.707 606.445 795.234C605.918 795.762 605.918 795.762 605.391 796.289C607.702 800.912 603.943 810.134 608.027 814.219C607.5 814.746 607.5 814.746 606.973 815.273C609.527 817.828 610.433 824.83 612.246 828.457C614.637 833.24 619.236 834.393 622.266 837.422C622.793 836.895 622.793 836.895 623.32 836.367C623.848 836.895 623.848 836.895 624.375 837.422C626.197 836.207 627.499 837.449 629.121 836.367C631.748 834.616 631.37 832.009 633.34 830.039C636.778 833.477 640.665 834.728 643.359 837.422C649.773 833.146 660.26 839.193 658.125 823.184C658.06 822.693 656.427 820.431 656.016 820.02C658.979 817.056 668.182 817.705 669.199 812.109C672.685 792.935 640.793 782.649 630.703 772.559Z" fill="#e7b32c" fill-rule="nonzero" opacity="1" stroke="none"/>
<path d="M512.578 273.691C495.511 274.036 496.375 312.715 515.215 312.715C530.131 312.715 533.227 273.275 512.578 273.691Z" fill="#2d3941" fill-rule="nonzero" opacity="1" stroke="none"/>
<path d="M587.988 273.164C575.838 276.358 577.441 283.458 577.441 297.949C577.441 304.771 586.691 316.018 594.316 311.66C609.898 302.756 605.527 268.553 587.988 273.164Z" fill="#2d3941" fill-rule="nonzero" opacity="1" stroke="none"/>
<path d="M535.254 355.957C541.971 349.24 537.165 349.102 547.383 349.102C552.308 349.102 557.226 348.41 562.148 348.574C563.805 348.629 563.062 355.816 564.258 357.012C566.856 354.414 566.434 344.176 566.367 342.773C566.238 340.056 560.819 334.061 558.984 332.227C544.089 317.331 526.666 347.369 535.254 355.957Z" fill="#e7b32c" fill-rule="nonzero" opacity="1" stroke="none"/>
<path d="M562.676 346.992C555.337 347.254 546.689 346.864 539.473 347.52C538.429 347.614 536.071 354.086 534.727 355.43C536.689 359.354 539.812 364.445 543.691 367.031C550.957 371.875 562.842 365.31 564.785 357.539C565.26 355.639 564.258 350.641 562.676 346.992Z" fill="#ab8a2e" fill-rule="nonzero" opacity="1" stroke="none"/>
</g>
</g>
</svg>
